<svg width="19" height="20" viewBox="0 0 19 20" fill="none" xmlns="http://www.w3.org/2000/svg">
<path d="M9.50004 10.0634C8.92742 10.0634 8.37824 9.83596 7.97334 9.43105C7.56843 9.02614 7.34095 8.47697 7.34095 7.90434C7.34095 7.33171 7.56843 6.78254 7.97334 6.37763C8.37824 5.97273 8.92742 5.74525 9.50004 5.74525C10.0727 5.74525 10.6218 5.97273 11.0268 6.37763C11.4317 6.78254 11.6591 7.33171 11.6591 7.90434C11.6591 8.18788 11.6033 8.46864 11.4948 8.73059C11.3863 8.99254 11.2272 9.23056 11.0268 9.43105C10.8263 9.63154 10.5882 9.79058 10.3263 9.89908C10.0643 10.0076 9.78358 10.0634 9.50004 10.0634ZM9.50004 1.85889C7.89669 1.85889 6.359 2.49582 5.22526 3.62956C4.09152 4.7633 3.45459 6.30099 3.45459 7.90434C3.45459 12.4384 9.50004 19.1316 9.50004 19.1316C9.50004 19.1316 15.5455 12.4384 15.5455 7.90434C15.5455 6.30099 14.9086 4.7633 13.7748 3.62956C12.6411 2.49582 11.1034 1.85889 9.50004 1.85889Z" fill="#C1C1C1"/>
</svg>
