<svg width="15" height="13" viewBox="0 0 15 13" fill="none" xmlns="http://www.w3.org/2000/svg">
<path d="M13.5 3.63184L7.5 7.38184L1.5 3.63184V2.13184L7.5 5.88184L13.5 2.13184M13.5 0.631836H1.5C0.6675 0.631836 0 1.29934 0 2.13184V11.1318C0 11.5297 0.158035 11.9112 0.43934 12.1925C0.720644 12.4738 1.10218 12.6318 1.5 12.6318H13.5C13.8978 12.6318 14.2794 12.4738 14.5607 12.1925C14.842 11.9112 15 11.5297 15 11.1318V2.13184C15 1.73401 14.842 1.35248 14.5607 1.07118C14.2794 0.789871 13.8978 0.631836 13.5 0.631836Z" fill="#C1C1C1"/>
</svg>
