<svg width="232" height="48" viewBox="0 0 232 48" fill="none" xmlns="http://www.w3.org/2000/svg">
<g clip-path="url(#clip0_54711_3145)">
<path d="M170.301 15.9287L167.948 26.8224L167.887 27.2751C167.661 28.3313 168.023 29.3724 168.762 29.4327H174.918L175.386 26.0982L171.689 25.9926L173.711 15.9438H170.286L170.301 15.9287Z" fill="#E31F26"/>
<path d="M177.498 15.9134C178.298 18.2521 179.701 20.7416 180.591 23.0803C180.923 24.2874 180.26 26.1734 179.369 26.0527H177.438L176.684 29.3872C177.785 29.3872 177.936 29.2967 180.109 29.3269C182.432 29.3721 183.519 26.5808 184.258 24.1516L187.472 15.8983L184.182 15.853L182.598 19.2479L180.999 15.8832H177.498V15.9134Z" fill="#E31F26"/>
<path d="M188.362 17.6041L185.782 29.4484L189.298 29.4182L190.701 22.5078L191.199 29.4484L193.553 29.4786L196.887 23.1264L195.499 29.4635L199.105 29.4936C199.799 25.7216 200.901 21.4667 201.61 17.6946C201.731 16.8044 201.414 16.3065 200.735 15.9444C199.829 15.9142 199.12 15.9745 198.215 15.9444C197.777 16.0198 196.706 17.3174 194.126 20.7726C193.809 19.5656 192.994 17.2571 192.527 16.4121C192.421 16.216 192.315 15.9745 192.255 15.9595C191.169 15.9142 190.61 15.9142 189.584 15.9444C188.604 16.1556 188.483 16.8949 188.362 17.6343" fill="#E31F26"/>
<path d="M202.364 21.4666C202.666 19.9125 203.209 16.0499 204.853 15.9141C206.875 15.9593 208.897 15.9744 210.919 15.9593L210.24 19.2938H206.664C206.196 19.324 205.774 21.4364 206.076 21.4515H208.656L208.082 24.7407H205.065C204.899 24.7407 204.702 26.3853 204.929 26.4306L208.218 26.5362C208.128 27.3661 207.811 28.6184 207.72 29.4483C207.403 29.4935 203.239 29.4935 202.319 29.4483C201.806 29.2521 200.749 28.6788 200.749 27.864L201.277 24.7407H200.553L201.202 21.4666H202.364Z" fill="#E31F26"/>
<path d="M224.77 15.7477C226.279 15.7477 227.773 15.7477 229.281 15.7477C231.65 15.7779 231.016 17.7696 230.881 19.8518L227.984 19.7612C227.984 19.3991 227.954 19.1426 227.954 18.7805C227.667 17.845 226.022 18.0412 225.6 18.6145L225.283 20.5307L227.652 20.6062C228.497 20.6364 230.036 20.8023 230.111 22.6129L229.146 27.6977C228.964 28.3465 228.497 29.0858 227.607 29.3725C226.218 29.3876 223.895 29.4328 222.522 29.4328C221.224 29.4328 221.239 28.1352 221.269 26.7169C221.285 25.8116 221.254 24.6649 221.375 24.7253C221.541 24.8158 224.136 24.5744 224.151 24.7555C224.151 24.9516 224.121 25.6457 224.121 26.2039C224.498 26.5359 225.962 26.6264 226.324 26.2341L226.671 23.7295C225.57 23.6691 224.71 23.5635 223.608 23.5031C222.944 23.5182 222.129 22.3866 222.114 21.4059C222.461 19.2784 222.567 19.0823 223.095 16.9548C223.412 16.1702 224.181 15.627 224.77 15.7477Z" fill="#E31F26"/>
<path d="M156.043 15.9446C154.232 15.9446 151.788 15.9446 149.962 15.9446C149.766 16.02 148.981 16.6386 148.665 17.3629L147.699 21.4971H146.507L146.009 24.7712L146.945 24.741L145.798 29.5089L148.997 29.4788L150.083 24.741C151.26 24.7712 152.437 24.741 153.629 24.741C154.821 24.7712 155.801 24.0017 156.043 22.8701C156.571 20.3202 157.099 18.6605 157.205 17.2271C157.25 16.6236 156.586 15.9295 156.073 15.9446M152.965 21.482H150.898L151.607 18.8717C152.271 18.8717 152.859 18.8868 153.538 18.917C153.885 18.917 153.508 21.4971 152.98 21.4971" fill="#E31F26"/>
<path d="M165.533 15.8537C163.889 15.8084 162.636 15.8084 160.992 15.7632C159.996 15.8386 158.97 17.106 158.623 18.0717C157.355 23.8807 157.582 23.0206 156.797 27.0794C156.676 28.3166 158.034 29.3577 158.125 29.403C159.92 29.4935 161.852 29.5237 163.723 29.5086C164.236 29.3276 165.111 28.6788 165.322 27.7131C166.952 19.9426 166.318 22.8547 167.253 18.4942C167.404 17.0155 166.137 16.08 165.548 15.8386M162.259 26.5211C162.214 26.6871 161.595 26.8833 161.052 26.8682C160.539 26.838 160.101 26.5815 160.132 26.3702C160.388 24.8162 161.218 20.8328 161.64 19.2486C161.882 18.3735 163.632 18.7205 163.587 19.2486C163.496 20.6065 163.014 23.594 162.244 26.5211" fill="#E31F26"/>
<path d="M220.334 15.7332C218.192 15.688 216.291 15.6578 214.148 15.7031C213.409 15.7031 212.534 17.1968 212.096 18.1926L211.372 21.4517H210.316C210.316 21.4668 209.606 24.7409 209.606 24.7409H210.512L209.471 29.4032H213.243L214.148 25.088H214.736L216.215 29.4636H219.595C219.006 27.8491 218.554 26.3705 218.041 24.7409C218.795 24.6806 220.108 24.1978 220.515 23.2623C221.028 21.3461 221.315 19.4751 221.511 17.4986C221.511 16.6084 221.089 16.1255 220.319 15.7332M216.728 21.4819L215.189 21.4215L215.808 18.8112C216.411 18.7962 217.136 18.7811 217.422 18.8112C218.358 18.9018 217.89 21.5724 216.728 21.497" fill="#E31F26"/>
<path d="M62.5107 29.4326H72.0918C72.0918 29.4176 73.1329 24.7251 73.1329 24.7251H63.7329C63.4613 24.7553 62.9181 27.5466 62.5258 29.4326" fill="#E31F26"/>
<path d="M76.1204 11.4481C74.0834 11.4631 68.7573 15.4766 67.5804 17.3023C66.4186 17.242 65.287 17.1967 64.1403 17.1514C66.1621 13.2285 73.0725 7.0121 80.4205 8.40023L77.5236 21.5119H82.2613C83.3476 15.8086 84.5849 11.1765 85.6712 5.4731C68.4555 -0.00394773 57.4411 14.4506 55.3589 29.4182C56.5358 29.4182 58.2558 29.4333 59.4327 29.4333C60.7001 24.0468 61.6809 21.5119 61.9525 21.4969H73.9476L76.1355 11.4481H76.1204Z" fill="#E31F26"/>
<path d="M93.6229 15.7332C91.4804 15.688 89.5793 15.6578 87.4518 15.7031C86.7125 15.7031 85.8374 17.1968 85.3998 18.1926L84.7812 21.497L83.6345 21.4517L82.9253 24.7258H83.8457L82.7896 29.3881H86.5616L87.482 24.7258H88.0704L89.534 29.4485H92.9138C92.3253 27.834 91.8727 26.3403 91.3597 24.7108C92.0688 24.6504 93.4268 24.1827 93.8342 23.2623C94.3472 21.3461 94.6339 19.4751 94.83 17.4986C94.83 16.6084 94.4075 16.1255 93.638 15.7332M90.0772 21.4819L88.5382 21.4215L89.1568 18.8112C89.7603 18.7962 90.4846 18.7811 90.7562 18.8112C91.6916 18.9018 91.2239 21.5724 90.0772 21.4819Z" fill="#E31F26"/>
<path d="M103.31 15.8537C101.665 15.8084 100.413 15.8084 98.768 15.7632C97.7722 15.8386 96.7462 17.106 96.3992 18.0717C95.1318 23.8807 95.3581 23.0206 94.5735 27.0794C94.4528 28.3166 95.8107 29.3577 95.9013 29.403C97.6968 29.4935 99.6281 29.5237 101.499 29.5086C102.012 29.3276 102.887 28.6788 103.098 27.7131C104.728 19.9426 104.094 22.8547 105.03 18.4942C105.181 17.0155 103.913 16.08 103.325 15.8386M100.035 26.5211C99.9902 26.6871 99.3716 26.8833 98.8284 26.8682C98.3154 26.838 97.8778 26.5815 97.908 26.3702C98.1645 24.8162 98.9944 20.8328 99.4169 19.2486C99.6583 18.3735 101.408 18.7205 101.363 19.2486C101.273 20.6065 100.805 23.594 100.02 26.5211" fill="#E31F26"/>
<path d="M115.003 15.9441C113.796 15.914 111.005 15.914 109.798 15.8838C107.036 16.0648 106.75 19.5653 106.418 21.4212H105.558L104.894 24.7255H105.618L104.517 29.4029H108.108L109.254 24.7255H112.317L112.921 21.4061H110.084C109.873 21.4061 110.19 19.2937 110.401 19.2937H114.324C114.324 19.3088 115.018 15.9441 115.018 15.9441H115.003Z" fill="#E31F26"/>
<path d="M121.732 16.0048L118.519 29.4635L121.763 29.4786L123.362 23.4433L125.867 29.4786L128.522 29.4334L131.313 16.0048L128.085 15.9746L126.742 21.4818L124.509 15.9746L121.732 16.0048Z" fill="#E31F26"/>
<path d="M132.143 21.4661C132.445 19.912 132.973 16.0494 134.602 15.9287C136.624 15.974 138.646 15.9891 140.668 15.974L139.989 19.3085H136.413C135.945 19.3387 135.538 21.4812 135.84 21.4963H138.435L137.846 24.7554H134.814C134.648 24.7554 134.451 26.4 134.678 26.4452L137.967 26.5509C137.877 27.3807 137.56 28.633 137.469 29.4629C137.152 29.5082 132.988 29.5082 132.068 29.4629C131.555 29.2668 130.498 28.6934 130.498 27.8786L131.011 24.7704H130.287L130.951 21.4963H132.128L132.143 21.4661Z" fill="#E31F26"/>
<path d="M116.406 15.9897L113.449 29.4938L117.025 29.4334L119.967 16.0048L116.406 15.9897Z" fill="#E31F26"/>
<path d="M76.8447 24.7251L75.7734 29.4025L80.2848 29.3874L81.2957 24.7553L76.8447 24.7251Z" fill="#E31F26"/>
<path d="M229.176 39.9046C229.01 39.4671 228.769 39.105 228.437 38.8032C228.12 38.5014 227.727 38.2902 227.275 38.1695C226.943 38.079 226.445 38.0337 225.811 38.0337H222.975V44.8687H225.902C226.475 44.8687 226.928 44.8234 227.275 44.7178C227.727 44.582 228.09 44.4009 228.361 44.1746C228.723 43.8729 228.995 43.4655 229.191 42.9676C229.342 42.5602 229.432 42.0773 229.432 41.5191C229.432 40.9608 229.342 40.3422 229.176 39.9046ZM227.667 42.7261C227.561 43.0279 227.426 43.2542 227.26 43.39C227.094 43.5258 226.882 43.6164 226.626 43.6767C226.43 43.722 226.113 43.7371 225.691 43.7371H224.529V39.2106H225.223C225.856 39.2106 226.279 39.2257 226.49 39.2709C226.777 39.3313 227.018 39.4369 227.214 39.5878C227.395 39.7387 227.546 39.965 227.652 40.2517C227.758 40.5383 227.803 40.9457 227.803 41.4738C227.803 42.0019 227.743 42.4244 227.652 42.7261H227.667Z" fill="black"/>
<path d="M208.822 44.8833V38.0483H214.525V39.195H210.376V40.719H214.223V41.8657H210.376V43.7215H214.661V44.8833H208.822Z" fill="black"/>
<path d="M196.978 44.8833V39.195H194.699V38.0483H200.81V39.195H198.532V44.8833H196.978Z" fill="black"/>
<path d="M186.763 38.0483H185.209V44.8833H186.763V38.0483Z" fill="black"/>
<path d="M169.275 44.8833V38.0483H171.599L172.987 42.7106L174.36 38.0483H176.699V44.8833H175.25V39.4968L173.726 44.8833H172.233L170.709 39.4968V44.8833H169.275Z" fill="black"/>
<path d="M160.796 38.0483H159.242V44.8833H160.796V38.0483Z" fill="black"/>
<path d="M145.768 44.884V38.0942H147.322V43.7222H151.17V44.884H145.768Z" fill="black"/>
<path d="M121.823 44.899V38.064H127.526V39.2258H123.377V40.7346H127.239V41.8964H123.377V43.7522H127.677V44.899H121.823Z" fill="black"/>
<path d="M112.513 44.899V39.2258H110.235V38.064H116.346V39.2258H114.067V44.899H112.513Z" fill="black"/>
<path d="M102.812 38.064H101.167L98.1797 44.899H99.8243L100.458 43.3449H103.536L104.2 44.899H105.89L102.812 38.064ZM100.941 42.1982L101.982 39.6633L103.038 42.1982H100.941Z" fill="black"/>
<path d="M89.6699 44.899L86.9238 38.064H88.6137L90.5601 43.1185L92.4461 38.064H94.0908L91.3296 44.899H89.6699Z" fill="black"/>
<path d="M81.7636 38.064H80.2095V44.899H81.7636V38.064Z" fill="black"/>
<path d="M74.0082 43.5703C73.631 43.0422 73.3443 42.665 73.118 42.4537C72.9067 42.2425 72.62 42.0614 72.2881 41.8804C72.9671 41.7898 73.465 41.5786 73.812 41.2467C74.144 40.9147 74.325 40.4923 74.325 39.9792C74.325 39.4662 74.2194 39.2097 73.9931 38.908C73.7668 38.5911 73.465 38.3799 73.1029 38.2592C72.7257 38.1385 72.1372 38.0781 71.3074 38.0781H68.0332V44.9131H69.5873V42.0614H69.9041C70.2663 42.0614 70.5228 42.0916 70.6887 42.1369C70.8547 42.1972 71.0056 42.2878 71.1565 42.4235C71.3074 42.5593 71.579 42.8913 71.9712 43.4345L73.0878 44.9282H74.9436L74.0082 43.6004V43.5703ZM70.734 40.96H69.5873V39.2248H70.7944C71.4281 39.2248 71.8053 39.2248 71.926 39.2399C72.1825 39.2852 72.3786 39.3606 72.5144 39.5115C72.6502 39.6473 72.7257 39.8435 72.7257 40.0698C72.7257 40.2961 72.6653 40.447 72.5748 40.5828C72.4692 40.7186 72.3183 40.8242 72.1372 40.8695C71.9562 40.9298 71.4884 40.9449 70.7491 40.9449L70.734 40.96Z" fill="black"/>
<path d="M62.028 38.8335C61.7262 38.4864 61.3641 38.2601 60.9265 38.1696C60.6398 38.1092 60.0212 38.064 59.0858 38.064H56.5962V44.899H58.1503V42.3189H59.1612C59.8703 42.3189 60.3984 42.2887 60.7756 42.2132C61.0472 42.1529 61.3188 42.0473 61.5753 41.8964C61.8469 41.7304 62.0581 41.5041 62.2241 41.2174C62.3901 40.9307 62.4806 40.5837 62.4806 40.1612C62.4806 39.7388 62.3297 39.1805 62.028 38.8335ZM60.6851 40.7195C60.5644 40.8704 60.4135 40.9911 60.2023 41.0514C59.9911 41.1269 59.5837 41.1571 58.9801 41.1571H58.1352V39.2107H58.8896C59.4479 39.2107 59.8251 39.2107 60.0061 39.2559C60.2626 39.3012 60.4588 39.3917 60.6248 39.5577C60.7907 39.7237 60.8662 39.9198 60.8662 40.1763C60.8662 40.4328 60.8058 40.5535 60.6851 40.7044V40.7195Z" fill="black"/>
<path d="M89.685 44.899L86.9238 38.064H88.6137L90.5601 43.1185L92.4461 38.064H94.0908L91.3296 44.899H89.685Z" fill="black"/>
<path d="M38.1432 47.1318H2.89695C1.29759 47.1318 0 45.8191 0 44.2348V8.33982C0 6.74046 1.31268 5.44287 2.89695 5.44287H38.1281C39.7275 5.44287 41.025 6.75555 41.025 8.33982V44.2348C41.025 45.8342 39.7124 47.1318 38.1281 47.1318" fill="#FFDD00"/>
<path d="M26.1028 20.3805C23.8999 20.3955 18.1513 24.6655 16.8688 26.5968C15.6164 26.5365 14.3943 26.4912 13.1419 26.4309C15.3297 22.2665 22.7834 15.6578 30.7198 17.1365L27.5965 31.0479H32.7114C33.8732 24.9975 35.2312 20.0787 36.393 14.0132C17.8042 8.18913 5.91466 23.549 3.6665 39.4521C4.93392 39.4521 6.80487 39.4671 8.05719 39.4671C9.43023 33.7487 10.4864 31.063 10.7731 31.0328H23.7339L26.0877 20.3654L26.1028 20.3805Z" fill="black"/>
<path d="M11.4067 39.4825H21.7573C21.7573 39.4674 22.8738 34.4731 22.8738 34.4731H12.7194C12.4177 34.5033 11.8443 37.4606 11.4067 39.4825Z" fill="black"/>
<path d="M26.9025 34.4731L25.7407 39.4523L30.6142 39.4372L31.6855 34.5033L26.9025 34.4731Z" fill="black"/>
<path d="M44.8576 3.16458H45.5366C45.8685 3.16458 46.0798 3.11932 46.2005 3.0137C46.3212 2.92317 46.3815 2.78737 46.3815 2.63649C46.3815 2.48561 46.3514 2.44034 46.291 2.3649C46.2307 2.28946 46.1552 2.22911 46.0496 2.18384C45.944 2.13858 45.7629 2.12349 45.4913 2.12349H44.8576V3.16458ZM44.2994 5.11097V1.65575H45.4913C45.8987 1.65575 46.2005 1.68593 46.3815 1.74628C46.5626 1.80664 46.7135 1.92734 46.8191 2.07822C46.9247 2.2442 46.9851 2.41017 46.9851 2.59123C46.9851 2.77229 46.8945 3.05896 46.7135 3.25511C46.5324 3.43617 46.291 3.54179 45.9892 3.57196C46.11 3.61723 46.2156 3.67758 46.291 3.75302C46.4268 3.88882 46.6079 4.11514 46.804 4.432L47.2265 5.11097H46.5324L46.2307 4.56779C45.9892 4.14532 45.7931 3.87373 45.6422 3.76811C45.5366 3.69267 45.3857 3.64741 45.1896 3.64741H44.8576V5.11097H44.2994ZM45.7177 0.659926C45.265 0.659926 44.8275 0.780632 44.3899 1.00696C43.9523 1.23328 43.6204 1.56522 43.379 1.98769C43.1376 2.41017 43.0169 2.86282 43.0169 3.33055C43.0169 3.79829 43.1376 4.23585 43.379 4.65832C43.6204 5.08079 43.9523 5.41273 44.3748 5.65415C44.7973 5.89556 45.2499 6.01627 45.7177 6.01627C46.1854 6.01627 46.638 5.89556 47.0605 5.65415C47.483 5.41273 47.8149 5.08079 48.0563 4.65832C48.2978 4.23585 48.4185 3.79829 48.4185 3.33055C48.4185 2.86282 48.2978 2.42525 48.0563 1.98769C47.8149 1.56522 47.483 1.23328 47.0454 1.00696C46.6079 0.780632 46.1703 0.659926 45.7177 0.659926ZM45.7177 0.131836C46.2608 0.131836 46.7889 0.26763 47.3019 0.53922C47.8149 0.810809 48.2223 1.2031 48.509 1.73119C48.7957 2.2442 48.9466 2.78737 48.9466 3.34564C48.9466 3.90391 48.8108 4.432 48.5241 4.92991C48.2374 5.44291 47.8451 5.83521 47.3321 6.12188C46.8191 6.40856 46.2759 6.54436 45.7177 6.54436C45.1594 6.54436 44.6162 6.40856 44.1032 6.12188C43.5902 5.83521 43.1828 5.44291 42.9112 4.92991C42.6246 4.41691 42.4888 3.88882 42.4888 3.34564C42.4888 2.80246 42.6397 2.2442 42.9263 1.73119C43.213 1.21819 43.6204 0.825897 44.1334 0.53922C44.6464 0.26763 45.1745 0.131836 45.7177 0.131836Z" fill="black"/>
</g>
<defs>
<clipPath id="clip0_54711_3145">
<rect width="231.062" height="47" fill="white" transform="translate(0 0.131836)"/>
</clipPath>
</defs>
</svg>
