<svg width="24" height="25" viewBox="0 0 24 25" fill="none" xmlns="http://www.w3.org/2000/svg">
<g clip-path="url(#clip0_54711_3226)">
<path fill-rule="evenodd" clip-rule="evenodd" d="M2.00582 0.204287C1.05234 0.435475 0.29718 1.19527 0.0721797 2.14979C0.00964844 2.41501 0.000976562 3.63587 0.000976562 12.1317C0.000976562 20.6275 0.00964844 21.8484 0.0721797 22.1136C0.299711 23.079 1.05585 23.8322 2.02715 24.0613C2.4764 24.1672 21.5316 24.1651 21.9815 24.0591C22.9161 23.8388 23.7046 23.0714 23.9057 22.1864C23.935 22.0575 23.9786 21.9154 24.0027 21.8706C24.0569 21.7696 24.0629 2.3191 24.0087 2.35262C23.9878 2.36546 23.9466 2.26051 23.917 2.11937C23.7771 1.45205 23.2107 0.728678 22.5908 0.425678C21.9512 0.113022 22.6749 0.132756 11.9761 0.136272C3.88687 0.138944 2.22857 0.150287 2.00582 0.204287ZM0.0225859 12.1317C0.0225859 17.5071 0.0280234 19.7061 0.0347266 17.0184C0.0414297 14.3307 0.0414297 9.93263 0.0347266 7.24496C0.0280234 4.55724 0.0225859 6.75629 0.0225859 12.1317ZM6.5152 5.90504C6.2737 5.97437 6.04804 6.16515 5.94862 6.38405C5.86466 6.56897 5.86101 6.80499 5.86101 12.0614C5.86101 17.3177 5.86466 17.5538 5.94862 17.7387C6.05155 17.9654 6.27632 18.1489 6.53863 18.2206C6.80212 18.2926 17.2908 18.2926 17.5543 18.2206C17.8166 18.1489 18.0413 17.9654 18.1443 17.7387C18.2282 17.5538 18.2319 17.3165 18.2329 12.0596L18.2339 6.57343L18.1285 6.36488C18.0668 6.24301 17.9386 6.09769 17.8198 6.0151L17.6165 5.87387L12.1479 5.8659C8.6001 5.86069 6.62165 5.87448 6.5152 5.90504ZM8.17926 7.67288C7.47004 7.99819 7.33026 8.8981 7.90799 9.41897C8.1449 9.63258 8.37773 9.71072 8.69807 9.68415C9.54055 9.61426 9.95118 8.62037 9.4177 7.94222C9.16959 7.62685 8.56584 7.49555 8.17926 7.67288ZM13.7105 10.4183C13.5816 10.4512 13.4129 10.5036 13.3355 10.5347C13.1192 10.6218 12.7364 10.9281 12.6076 11.1173C12.5439 11.2108 12.476 11.2874 12.4566 11.2876C12.4372 11.2878 12.4214 11.1086 12.4214 10.8895V10.4911H11.5543H10.6871V13.4676V16.4442H11.6011H12.5152V14.8122C12.5152 13.071 12.5442 12.7479 12.7293 12.4287C12.9122 12.1134 13.1193 12.0145 13.5968 12.0145C13.961 12.0145 14.0143 12.0264 14.1644 12.1408C14.5364 12.4241 14.5777 12.6866 14.5777 14.7631V16.4442H15.4951H16.4126L16.3934 14.3231C16.3772 12.5357 16.3619 12.1553 16.296 11.9055C16.1881 11.4966 15.9984 11.1266 15.7824 10.9041C15.3552 10.4638 14.4046 10.2409 13.7105 10.4183ZM7.68707 13.4676V16.4442H8.60113H9.5152V13.4676V10.4911H8.60113H7.68707V13.4676Z" fill="#C1C1C1"/>
</g>
<defs>
<clipPath id="clip0_54711_3226">
<rect width="24" height="24" fill="white" transform="translate(0 0.131836)"/>
</clipPath>
</defs>
</svg>
