<svg width="24" height="25" viewBox="0 0 24 25" fill="none" xmlns="http://www.w3.org/2000/svg">
<path fill-rule="evenodd" clip-rule="evenodd" d="M2.00582 0.204287C1.05234 0.435475 0.29718 1.19527 0.0721797 2.14979C0.00964844 2.41501 0.000976562 3.63587 0.000976562 12.1317C0.000976562 20.6275 0.00964844 21.8484 0.0721797 22.1136C0.299711 23.079 1.05585 23.8322 2.02715 24.0613C2.4764 24.1672 21.5316 24.1651 21.9815 24.0591C22.9161 23.8388 23.7046 23.0714 23.9057 22.1864C23.935 22.0575 23.9786 21.9154 24.0027 21.8706C24.0569 21.7696 24.0629 2.3191 24.0087 2.35262C23.9878 2.36546 23.9466 2.26051 23.917 2.11937C23.7771 1.45205 23.2107 0.728678 22.5908 0.425678C21.9512 0.113022 22.6749 0.132756 11.9761 0.136272C3.88687 0.138944 2.22857 0.150287 2.00582 0.204287ZM0.0225859 12.1317C0.0225859 17.5071 0.0280234 19.7061 0.0347266 17.0184C0.0414297 14.3307 0.0414297 9.93263 0.0347266 7.24496C0.0280234 4.55724 0.0225859 6.75629 0.0225859 12.1317ZM3.92643 3.91683C3.97565 3.98776 5.40435 6.06807 7.10137 8.53974C9.8721 12.5753 10.1809 13.0433 10.1289 13.1266C10.0833 13.1996 4.30105 19.947 3.9216 20.37L3.82696 20.4754H4.55001H5.27301L8.05898 17.236C10.2985 14.6319 10.8547 14.0101 10.8949 14.0656C10.9224 14.1037 11.9249 15.5614 13.1226 17.3051L15.3004 20.4754H17.7281C19.0634 20.4754 20.1558 20.4698 20.1558 20.4629C20.1558 20.4561 18.6703 18.2887 16.8546 15.6465L13.5534 10.8426L13.6602 10.7254C13.8954 10.4672 19.5301 3.90108 19.5632 3.84652C19.5912 3.80058 19.4437 3.78863 18.8812 3.79116L18.1636 3.79444L15.5621 6.83457C14.1312 8.50665 12.9413 9.86987 12.9179 9.86396C12.8945 9.8581 11.9375 8.48855 10.7913 6.8206L8.7073 3.78793H6.2721H3.83695L3.92643 3.91683ZM5.84193 4.92465C5.92715 5.06574 15.9051 19.333 15.9559 19.3865C15.9992 19.4319 16.2686 19.443 17.0983 19.4334L18.184 19.4207L13.0958 12.1434L8.0076 4.86605H6.90707C6.03904 4.86605 5.81399 4.87843 5.84193 4.92465Z" fill="#C1C1C1"/>
</svg>
