<svg width="22" height="23" viewBox="0 0 22 23" fill="none" xmlns="http://www.w3.org/2000/svg">
<g clip-path="url(#clip0_55231_1188)">
<path d="M11.1909 0.554688C5.59187 0.554688 1.03702 5.10953 1.03702 10.7085C1.03702 12.4034 1.46264 14.0711 2.28341 15.5773L0.31187 20.5078C0.186639 20.8218 0.259408 21.1805 0.499715 21.42C0.661331 21.5816 0.877946 21.6679 1.09795 21.6679C1.20372 21.6679 1.31033 21.6485 1.41187 21.607L6.35087 19.6312C7.83079 20.4385 9.49602 20.8624 11.1909 20.8624C16.7899 20.8624 21.3447 16.3075 21.3447 10.7085C21.3447 5.10953 16.7899 0.554688 11.1909 0.554688ZM11.1909 19.1701C9.65764 19.1701 8.15572 18.7538 6.84587 17.966C6.61233 17.8255 6.32718 17.8069 6.07925 17.9127L2.6151 19.3038L3.90295 16.0816L3.99518 15.8777C4.09756 15.6501 4.09502 15.3886 3.98756 15.1635C3.96472 15.1145 3.93425 15.0586 3.90041 15.0028C3.13464 13.7048 2.72933 12.2198 2.72933 10.7085C2.72933 6.04284 6.52518 2.247 11.1909 2.247C15.8566 2.247 19.6524 6.04284 19.6524 10.7085C19.6524 15.3742 15.8566 19.1701 11.1909 19.1701ZM15.1373 8.33C15.0062 6.81707 13.643 5.63161 12.037 5.63161H8.65241C8.18449 5.63161 7.80625 6.01069 7.80625 6.47777V14.9393C7.80625 15.4064 8.18449 15.7855 8.65241 15.7855H12.037C13.643 15.7855 15.0062 14.6 15.1373 13.0871C15.2093 12.2587 14.93 11.4337 14.3707 10.8236C14.3352 10.7847 14.2979 10.7466 14.2599 10.7094C14.2979 10.6721 14.3352 10.6341 14.3707 10.5951C14.93 9.98423 15.2093 9.15838 15.1373 8.33ZM12.037 14.0932H9.49856V11.5547H12.1876C12.5481 11.5547 12.8798 11.7011 13.1235 11.9668C13.3663 12.2316 13.4831 12.5777 13.4518 12.9398C13.3959 13.5761 12.7613 14.0932 12.037 14.0932ZM13.1235 9.4503C12.8798 9.716 12.5481 9.86238 12.1876 9.86238H9.49856V7.32392H12.037C12.7613 7.32392 13.3959 7.84092 13.4518 8.47723C13.4831 8.83938 13.3663 9.18546 13.1235 9.4503Z" fill="black" fill-opacity="0.4"/>
</g>
<defs>
<clipPath id="clip0_55231_1188">
<rect width="22" height="22" fill="white" transform="translate(0 0.131836)"/>
</clipPath>
</defs>
</svg>
