<svg width="24" height="25" viewBox="0 0 24 25" fill="none" xmlns="http://www.w3.org/2000/svg">
<g clip-path="url(#clip0_54711_3227)">
<path fill-rule="evenodd" clip-rule="evenodd" d="M2.00582 0.204287C1.05234 0.435475 0.29718 1.19527 0.0721797 2.14979C0.00964844 2.41501 0.000976562 3.63587 0.000976562 12.1317C0.000976562 20.6275 0.00964844 21.8484 0.0721797 22.1136C0.299711 23.079 1.05585 23.8322 2.02715 24.0613C2.4764 24.1672 21.5316 24.1651 21.9815 24.0591C22.9161 23.8388 23.7046 23.0714 23.9057 22.1864C23.935 22.0575 23.9786 21.9154 24.0027 21.8706C24.0569 21.7696 24.0629 2.3191 24.0087 2.35262C23.9878 2.36546 23.9466 2.26051 23.917 2.11937C23.7771 1.45205 23.2107 0.728678 22.5908 0.425678C21.9512 0.113022 22.6749 0.132756 11.9761 0.136272C3.88687 0.138944 2.22857 0.150287 2.00582 0.204287ZM0.0225859 12.1317C0.0225859 17.5071 0.0280234 19.7061 0.0347266 17.0184C0.0414297 14.3307 0.0414297 9.93263 0.0347266 7.24496C0.0280234 4.55724 0.0225859 6.75629 0.0225859 12.1317ZM10.2418 6.11321C8.12887 6.16107 6.4642 6.26279 5.69488 6.39104C4.7954 6.54104 4.16554 7.04269 3.89282 7.8263C3.42955 9.15751 3.36102 13.8699 3.77521 15.9159C3.95329 16.7954 4.47159 17.4278 5.2237 17.6831C6.62671 18.1594 15.9184 18.2246 18.3746 17.7754C19.1059 17.6416 19.6948 17.2199 19.988 16.62C20.1456 16.2974 20.2735 15.6965 20.375 14.8022C20.494 13.7529 20.4939 10.4018 20.3748 9.38949C20.2058 7.95352 20.0366 7.45247 19.5652 6.9923C18.9921 6.4328 18.3327 6.29246 15.7496 6.18019C14.5934 6.12999 11.2813 6.08968 10.2418 6.11321ZM10.2652 12.1053V14.6179L10.5113 14.4768C10.6466 14.3992 11.638 13.8348 12.7144 13.2227C13.7908 12.6106 14.6705 12.0989 14.6693 12.0856C14.6672 12.0614 10.4142 9.64229 10.3168 9.6098C10.2797 9.59743 10.2652 10.2994 10.2652 12.1053Z" fill="#C1C1C1"/>
</g>
<defs>
<clipPath id="clip0_54711_3227">
<rect width="24" height="24" fill="white" transform="translate(0 0.131836)"/>
</clipPath>
</defs>
</svg>
