<svg width="19" height="16" viewBox="0 0 19 16" fill="none" xmlns="http://www.w3.org/2000/svg">
<path d="M16.125 15.1318C14.3889 15.1318 12.6736 14.7535 10.9792 13.9968C9.28472 13.2402 7.74306 12.1671 6.35417 10.7777C4.96528 9.38878 3.8925 7.84711 3.13583 6.15267C2.37917 4.45823 2.00056 2.74295 2 1.00684C2 0.756836 2.08333 0.548503 2.25 0.381836C2.41667 0.215169 2.625 0.131836 2.875 0.131836H6.25C6.44444 0.131836 6.61806 0.197947 6.77083 0.330169C6.92361 0.462391 7.01389 0.618503 7.04167 0.798503L7.58333 3.71517C7.61111 3.93739 7.60417 4.12489 7.5625 4.27767C7.52083 4.43045 7.44444 4.56239 7.33333 4.6735L5.3125 6.71517C5.59028 7.22906 5.92 7.72545 6.30167 8.20434C6.68333 8.68322 7.10361 9.14517 7.5625 9.59017C7.99306 10.0207 8.44444 10.4202 8.91667 10.7885C9.38889 11.1568 9.88889 11.4935 10.4167 11.7985L12.375 9.84017C12.5 9.71517 12.6633 9.62156 12.865 9.55934C13.0667 9.49711 13.2644 9.47961 13.4583 9.50684L16.3333 10.0902C16.5278 10.1457 16.6875 10.2466 16.8125 10.3927C16.9375 10.5388 17 10.7018 17 10.8818V14.2568C17 14.5068 16.9167 14.7152 16.75 14.8818C16.5833 15.0485 16.375 15.1318 16.125 15.1318Z" fill="#C1C1C1"/>
</svg>
