<svg width="120" height="123" viewBox="0 0 120 123" fill="none" xmlns="http://www.w3.org/2000/svg">
<g clip-path="url(#clip0_56034_2136)">
<path d="M114.293 54.2454C114.29 54.2422 114.286 54.2406 114.281 54.2412L113.08 54.3974C111.725 54.5735 110.49 53.6175 110.248 52.2731C109.698 49.2197 108.882 46.2613 107.823 43.4225C107.468 42.4707 107.91 41.3958 108.849 41.0066C109.788 40.6169 110.236 39.5376 109.814 38.6122C108.323 35.3427 106.515 32.2172 104.413 29.2895C103.821 28.4649 102.664 28.3161 101.86 28.9347C101.054 29.5539 99.9014 29.4001 99.2544 28.6166C97.1673 26.0897 94.8403 23.7627 92.3134 21.6756C91.5299 21.0286 91.3761 19.876 91.9953 19.0704C92.6138 18.2656 92.4651 17.1091 91.6405 16.5171C88.713 14.4154 85.5877 12.6068 82.3185 11.1163C81.3927 10.6942 80.3129 11.1423 79.9231 12.0821C79.534 13.0203 78.4596 13.4626 77.5079 13.1078C74.4729 11.976 71.3055 11.1175 68.0324 10.5721C67.0263 10.4045 66.3118 9.48159 66.4433 8.47017C66.5747 7.46007 65.8631 6.53134 64.8492 6.43321C61.2868 6.0884 57.653 6.08835 54.0905 6.43304C53.0757 6.53123 52.3635 7.46083 52.495 8.47188C52.6264 9.48291 51.9133 10.4059 50.9077 10.5744C47.634 11.123 44.4659 11.9775 41.4303 13.1081C40.4785 13.4626 39.404 13.0203 39.0149 12.0821C38.6251 11.1423 37.5453 10.6942 36.6196 11.1163C33.3508 12.6066 30.2259 14.4149 27.2987 16.5163C26.4735 17.1087 26.3246 18.2661 26.9436 19.0715C27.5626 19.8769 27.4097 21.0289 26.627 21.6763C24.0993 23.7671 21.7716 26.0906 19.6839 28.6168C19.0366 29.4 17.8841 29.5539 17.0785 28.9347C16.2736 28.3161 15.1171 28.4649 14.5251 29.2895C12.4237 32.2167 10.6152 35.3417 9.12474 38.6106C8.70217 39.5375 9.14947 40.6186 10.0895 41.0109C11.0284 41.4027 11.4698 42.4794 11.1141 43.4326C9.9835 46.4622 9.1257 49.6305 8.58063 52.8977C8.41277 53.9038 7.48972 54.6182 6.47823 54.4867C5.46806 54.3553 4.53925 55.0668 4.44121 56.0808C4.26882 57.8638 4.18262 59.6693 4.18262 61.4653C4.18262 63.2618 4.26887 65.0631 4.44138 66.8479C4.53948 67.8627 5.46905 68.5751 6.48015 68.4437C7.49106 68.3122 8.41397 69.0253 8.58243 70.0307C9.13078 73.3032 9.98494 76.4695 11.1149 79.4995C11.4699 80.4513 11.0278 81.5262 10.0895 81.9154C9.15007 82.305 8.70215 83.3844 9.12405 84.3098C10.6144 87.5788 12.4229 90.7039 14.5243 93.6313C15.1167 94.4565 16.2741 94.6054 17.0796 93.9864C17.8849 93.3674 19.037 93.5203 19.6844 94.303C21.7751 96.8307 24.0986 99.1584 26.6249 101.246C27.4081 101.893 27.5619 103.046 26.9428 103.852C26.3242 104.656 26.473 105.813 27.2976 106.405C30.2246 108.506 33.3494 110.315 36.6181 111.805C37.5452 112.228 38.6268 111.78 39.0192 110.84C39.411 109.901 40.4872 109.459 41.4404 109.815C44.4736 110.946 47.6389 111.804 50.9099 112.349C51.9185 112.517 52.6349 113.442 52.5034 114.456C52.372 115.469 53.0852 116.4 54.1015 116.498C55.8832 116.67 57.6874 116.756 59.482 116.756C61.2777 116.756 63.0781 116.67 64.862 116.498C65.8784 116.399 66.592 115.469 66.4606 114.456C66.3291 113.442 67.0454 112.517 68.0537 112.349C71.324 111.804 74.4882 110.946 77.5163 109.815C78.468 109.46 79.5429 109.902 79.9321 110.84C80.3217 111.78 81.4011 112.228 82.3265 111.806C85.5955 110.316 88.7207 108.507 91.648 106.406C92.4732 105.813 92.6221 104.656 92.0031 103.85C91.3841 103.045 91.537 101.893 92.3197 101.246C94.8474 99.1549 97.1751 96.8314 99.2628 94.3051C99.9101 93.5219 101.063 93.3681 101.868 93.9872C102.673 94.6058 103.83 94.457 104.422 93.6324C106.523 90.7049 108.332 87.5797 109.822 84.3104C110.244 83.3847 109.796 82.3049 108.857 81.9151C107.918 81.526 107.476 80.4515 107.831 79.4998C108.963 76.4649 109.821 73.2976 110.366 70.0247C110.534 69.0191 111.458 68.3058 112.468 68.4396C113.478 68.5732 114.407 67.8626 114.505 66.849C114.678 65.0639 114.764 63.2622 114.764 61.4653C114.764 59.0529 114.609 56.6318 114.297 54.2539C114.297 54.2507 114.296 54.2477 114.293 54.2454ZM72.5649 61.4566C72.5649 68.3875 66.707 74.0031 59.4734 74.0031C52.2397 74.0031 46.3818 68.3875 46.3818 61.4566C46.3818 54.5258 52.2397 48.9102 59.4734 48.9102C66.707 48.9102 72.5649 54.5258 72.5649 61.4566Z" fill="white"/>
</g>
<rect x="22.4971" y="23.9968" width="75.0064" height="75.0064" rx="37.5032" fill="#FFDD00"/>
<path d="M67.2983 82.4999C67.0892 82.4999 66.8801 82.3314 66.7964 82.1629L62.7394 73.8219H62.5721H62.5302C62.4048 73.8219 62.3629 73.8219 62.2793 73.8219C61.861 73.8219 61.5264 73.6955 61.1918 73.5691C60.8572 73.4427 60.5226 73.3163 60.0207 73.3163C59.5188 73.3163 59.1842 73.4427 58.8496 73.5691C58.515 73.6955 58.1804 73.8219 57.7622 73.8219C57.3439 73.8219 57.6367 73.8219 57.5531 73.8219H57.4694L57.3021 73.7797L53.2451 82.1629C53.1614 82.3735 52.9523 82.4999 52.7432 82.4999C52.7432 82.4999 52.7013 82.4999 52.6595 82.4999C52.4504 82.4999 52.2831 82.4156 52.1576 82.2471L49.6063 78.9613L45.7166 79.1719C45.5074 79.1719 45.3401 79.0877 45.2147 78.9192C45.0892 78.7506 45.0474 78.4979 45.1728 78.2873L48.9789 69.4828L48.7698 69.3986C48.477 69.2722 48.2679 69.1458 48.0588 68.8931C47.6405 68.3454 47.5987 67.7557 47.5569 67.2923C47.5569 67.1659 47.5569 67.0395 47.5569 66.9553V66.871L47.4732 66.8289C47.3896 66.7868 47.2641 66.7025 47.1386 66.6183C46.5112 66.2391 45.5493 65.6915 45.2147 64.6804C45.0055 64.0064 45.0055 63.5009 45.0474 63.0796C45.0474 62.7005 45.0474 62.4056 44.9219 61.9844C44.8382 61.6895 44.6709 61.5631 44.42 61.3946C44.0854 61.1418 43.5835 60.7627 43.5416 59.8359C43.4998 58.9513 43.8344 58.2772 44.1272 57.7717C44.2945 57.4347 44.3781 57.2662 44.42 57.1398C44.42 57.0134 44.3363 56.8028 44.1272 56.4658C43.8762 55.9603 43.4998 55.2863 43.5416 54.4016C43.6253 53.4748 44.0854 53.0957 44.42 52.8429C44.6709 52.6744 44.7964 52.548 44.9219 52.2532C45.0474 51.8319 45.0474 51.537 45.0474 51.1579C45.0474 50.7366 45.0055 50.2311 45.2147 49.5571C45.5493 48.546 46.5112 47.9984 47.1386 47.6193C47.2641 47.535 47.3896 47.4929 47.4732 47.4086H47.5569C47.5569 47.3665 47.5569 47.2822 47.5569 47.2822C47.5569 47.198 47.5569 47.0716 47.5569 46.9452C47.5569 46.4397 47.6405 45.85 48.0588 45.3023C48.5607 44.7125 49.2299 44.6704 49.8154 44.6283C50.1918 44.6283 50.5264 44.6283 50.7774 44.4598C51.0702 44.2913 51.2793 43.87 51.4884 43.4066C51.6975 42.9432 51.9067 42.4377 52.3667 42.1428C52.6177 41.9743 52.8686 41.9322 53.2032 41.9322C53.5378 41.9322 53.7888 41.9743 54.0397 42.0586C54.3325 42.1007 54.6253 42.185 54.9181 42.185C55.2108 42.185 55.2527 42.185 55.3781 42.1007C55.7546 41.9743 55.9637 41.6794 56.2147 41.3424C56.5074 40.9633 56.8839 40.4578 57.5531 40.4156C57.6367 40.4156 57.6785 40.4156 57.7622 40.4156C58.1804 40.4156 58.515 40.542 58.8496 40.6684C59.1842 40.7948 59.5188 40.9212 60.0207 40.9212C60.5226 40.9212 60.8572 40.7948 61.1918 40.6684C61.5264 40.542 61.861 40.4156 62.2793 40.4156C62.6975 40.4156 62.4048 40.4156 62.4884 40.4156C63.1576 40.4999 63.534 40.9633 63.8268 41.3424C64.0778 41.6794 64.2869 41.9322 64.6633 42.1007C64.7888 42.1428 64.9561 42.185 65.1234 42.185C65.4162 42.185 65.6671 42.1428 65.9599 42.0586C66.2527 42.0165 66.5454 41.9322 66.8382 41.9322C67.131 41.9322 67.4238 42.0165 67.6747 42.1428C68.093 42.4377 68.3021 42.9011 68.5531 43.4066C68.7622 43.8279 68.9295 44.2913 69.2641 44.4598C69.515 44.5862 69.8496 44.6283 70.2261 44.6283C70.7698 44.6283 71.4808 44.7125 71.9827 45.3023C72.401 45.85 72.4428 46.4397 72.4846 46.9031C72.4846 47.0295 72.4846 47.1559 72.4846 47.2401V47.3244L72.5683 47.3665C72.6519 47.4086 72.7774 47.4929 72.861 47.535C73.5302 47.9141 74.4504 48.4618 74.785 49.4728C74.9941 50.1468 74.9941 50.6524 74.9523 51.0736C74.9523 51.4528 74.9523 51.7476 75.0778 52.1689C75.1614 52.4638 75.3287 52.5902 75.5797 52.7587C75.9143 53.0114 76.4162 53.3906 76.458 54.3174C76.4998 55.202 76.1652 55.876 75.8724 56.3815C75.7051 56.7186 75.6215 56.8871 75.5797 57.0134C75.5797 57.1398 75.6633 57.3505 75.8724 57.6875C76.1234 58.193 76.4998 58.867 76.458 59.7517C76.3744 60.6784 75.9143 61.0576 75.5797 61.3103C75.3287 61.4788 75.2032 61.6052 75.0778 61.9001C74.9523 62.3214 74.9523 62.6163 74.9523 62.9954C74.9523 63.4167 74.9941 63.9222 74.785 64.5962C74.4504 65.6072 73.4884 66.1549 72.861 66.534C72.7356 66.5761 72.6101 66.6604 72.5264 66.7446H72.4428C72.4428 66.7868 72.4428 66.871 72.4428 66.871C72.4428 66.9553 72.4428 67.0816 72.4428 67.208C72.4428 67.7135 72.3591 68.3033 71.9409 68.8088C71.7736 69.0195 71.5226 69.188 71.2299 69.3143L71.0207 69.3986L74.8268 78.203C74.9105 78.4136 74.9105 78.6243 74.785 78.8349C74.6595 79.0034 74.4922 79.0877 74.2831 79.0877L70.3934 78.877L67.842 82.1629C67.7166 82.3314 67.5493 82.4156 67.3401 82.4156C67.131 82.4156 67.2983 82.4156 67.2565 82.4156L67.2983 82.4999ZM65.1652 72.0947C64.9979 72.0947 64.8306 72.0947 64.7051 72.1789C64.3705 72.3053 64.1614 72.5159 63.8686 72.8951L63.785 72.9793L67.5074 80.6885L69.6405 77.9502C69.766 77.7817 69.9333 77.6975 70.1424 77.6975L73.3211 77.866L69.7242 69.6092H69.5569C69.4314 69.6935 69.3059 69.6935 69.2223 69.7777C68.9295 69.9462 68.7204 70.3675 68.5112 70.8309C68.3021 71.2943 68.093 71.7155 67.7584 71.9683L67.6329 72.0526L68.9295 74.875C69.0131 75.0435 69.0131 75.212 68.9295 75.3384C68.8877 75.5069 68.7622 75.6333 68.5949 75.6754C68.5112 75.6754 68.4276 75.7176 68.3439 75.7176C68.093 75.7176 67.8839 75.5912 67.7584 75.3384L66.2945 72.1789L65.9599 72.0947C65.6671 72.0526 65.3743 71.9683 65.0816 71.9683L65.1652 72.0947ZM49.8991 77.6975C50.0664 77.6975 50.2755 77.7817 50.401 77.9502L52.534 80.6885L56.2565 72.9793L56.1728 72.8951C55.8801 72.5159 55.6709 72.2632 55.3363 72.1789C55.2108 72.1368 55.0435 72.0947 54.8762 72.0947C54.5835 72.0947 54.3325 72.1368 54.0397 72.2211L53.7051 72.3053L52.2413 75.4648C52.1576 75.6754 51.9067 75.8439 51.6557 75.8439C51.4048 75.8439 51.4884 75.8439 51.4048 75.8018C51.2375 75.7176 51.1538 75.5912 51.0702 75.4648C51.0283 75.2963 51.0283 75.1278 51.0702 75.0014L52.3667 72.1789L52.2413 72.0947C51.9067 71.7998 51.6975 71.4207 51.4884 70.9573C51.2793 70.536 51.112 70.1147 50.7774 69.9041C50.6519 69.862 50.5683 69.8199 50.4428 69.7777H50.2755L46.6785 77.9924L49.8572 77.8239L49.8991 77.6975ZM54.8344 70.8309C55.1272 70.8309 55.42 70.873 55.7128 70.9573C56.4656 71.21 56.842 71.7155 57.1348 72.1368C57.3439 72.3896 57.4276 72.5159 57.5531 72.5581C57.5531 72.5581 57.6367 72.5581 57.6785 72.5581C57.8877 72.5581 58.055 72.4738 58.3059 72.3896C58.6823 72.2211 59.1842 72.0526 59.9371 72.0526C60.6899 72.0526 61.1918 72.2632 61.5683 72.3896C61.8192 72.5159 62.0283 72.5581 62.1956 72.5581C62.3629 72.5581 62.2375 72.5581 62.2793 72.5581C62.2793 72.5581 62.3629 72.5159 62.3629 72.4738C62.4466 72.3896 62.5721 72.2211 62.6557 72.1368C62.9485 71.7577 63.3667 71.21 64.1196 70.9573C64.4124 70.873 64.6633 70.8309 64.9979 70.8309C65.3325 70.8309 65.7508 70.9151 66.0854 70.9573C66.3363 70.9994 66.5454 71.0415 66.7128 71.0415H66.8382L66.8801 70.9573C66.9637 70.8309 67.0892 70.5781 67.2565 70.2832C67.5074 69.7356 67.8002 69.0616 68.4694 68.6824C68.9713 68.3876 69.5569 68.3454 69.9751 68.3454C70.4352 68.3454 70.6861 68.3033 70.8116 68.1348C70.9789 67.9242 71.0207 67.5872 71.0626 67.208C71.0626 66.7868 71.1462 66.2812 71.5226 65.9442C71.6899 65.7757 71.8991 65.6493 72.15 65.523C72.6519 65.2281 73.3211 64.8489 73.4884 64.3013C73.6557 63.8379 73.6139 63.543 73.6139 63.1639C73.6139 62.7426 73.5721 62.2371 73.7812 61.6052C74.0321 60.9312 74.4086 60.6363 74.7013 60.4257C74.9941 60.215 75.0778 60.1308 75.0778 59.7938C75.0778 59.2883 74.8686 58.8249 74.6595 58.4036C74.4504 57.9823 74.2413 57.6032 74.2413 57.1398C74.2413 56.6764 74.4504 56.2973 74.6595 55.876C74.9105 55.4548 75.1196 54.9914 75.0778 54.4859C75.0778 54.1488 74.9941 54.0646 74.7013 53.854C74.4086 53.6433 73.9903 53.3484 73.7812 52.6744C73.5721 52.0425 73.5721 51.4949 73.6139 51.1157C73.6139 50.7366 73.6139 50.3996 73.4884 49.9783C73.2793 49.3886 72.6519 49.0516 72.15 48.7567C71.8991 48.5882 71.6899 48.4618 71.5226 48.3354C71.1462 47.9984 71.1044 47.4929 71.0626 47.0716C71.0626 46.7346 71.0207 46.3976 70.8116 46.1448C70.6861 45.9763 70.4352 45.9763 69.9751 45.9342C69.515 45.9342 68.9713 45.8921 68.4694 45.5972C67.842 45.2181 67.5074 44.544 67.2565 43.9964C67.131 43.7015 67.0055 43.4487 66.8801 43.3224V43.2381C66.8382 43.2381 66.7128 43.2381 66.7128 43.2381C66.5454 43.2381 66.2945 43.2802 66.0435 43.3224C65.7089 43.4066 65.3325 43.4487 64.9561 43.4487C64.5797 43.4487 64.3705 43.4066 64.0778 43.3224C63.3249 43.0696 62.9485 42.5641 62.6557 42.1428C62.4466 41.8901 62.3629 41.7637 62.2375 41.7216C62.2375 41.7216 62.1956 41.7216 62.1538 41.7216C61.9447 41.7216 61.7774 41.8058 61.5264 41.8901C61.15 42.0586 60.6481 42.2271 59.8953 42.2271C59.1424 42.2271 58.6405 42.0165 58.2641 41.8901C58.0131 41.7637 57.804 41.7216 57.6367 41.7216C57.4694 41.7216 57.5949 41.7216 57.5531 41.7216C57.4694 41.7637 57.3858 41.8901 57.1766 42.1428C56.8839 42.5641 56.4656 43.0696 55.7128 43.3224C55.4618 43.4066 55.169 43.4487 54.8344 43.4487C54.4998 43.4487 54.0816 43.3645 53.747 43.3224H53.7051C53.5378 43.2802 53.2869 43.2381 53.1196 43.2381H53.0778H52.9941H52.9523C52.8686 43.4066 52.7432 43.6594 52.5759 43.9543C52.3249 44.5019 52.0321 45.1759 51.3629 45.5551C50.861 45.85 50.2755 45.8921 49.8572 45.8921C49.3972 45.8921 49.1462 45.9342 49.0207 46.1027C48.8534 46.3133 48.8116 46.6504 48.7698 47.0295C48.7698 47.4508 48.6861 47.9563 48.3097 48.2933C48.1424 48.4618 47.9333 48.546 47.6823 48.7145C47.1386 49.0094 46.5112 49.3886 46.3439 49.9783C46.1766 50.3996 46.2185 50.7366 46.2185 51.1157C46.2185 51.537 46.2603 52.0425 46.0512 52.7166C45.8002 53.3906 45.4238 53.6855 45.131 53.8961C44.8382 54.1067 44.7546 54.191 44.7546 54.528C44.7546 55.0335 44.9637 55.4969 45.1728 55.9182C45.382 56.3394 45.5911 56.7186 45.5911 57.1819C45.5911 57.6453 45.382 58.0245 45.1728 58.4457C44.9219 58.867 44.7127 59.3304 44.7546 59.8359C44.7546 60.1729 44.8382 60.2572 45.131 60.4678C45.4238 60.6784 45.842 60.9733 46.0512 61.6473C46.2603 62.2792 46.2603 62.8269 46.2185 63.206C46.2185 63.5852 46.2185 63.9222 46.3439 64.3434C46.5531 64.9332 47.1804 65.2702 47.6823 65.5651C47.9333 65.6915 48.1424 65.8179 48.3097 65.9864C48.6861 66.3234 48.728 66.8289 48.7698 67.2502C48.7698 67.5872 48.8116 67.9242 49.0207 68.1769C49.1462 68.3454 49.3972 68.3454 49.8572 68.3876C50.3173 68.3876 50.861 68.4297 51.3629 68.7246C51.9903 69.1037 52.3249 69.7777 52.5759 70.3254C52.7013 70.6203 52.8268 70.873 52.9523 70.9994V71.0836C52.9941 71.0836 53.1196 71.0836 53.1196 71.0836C53.2451 71.0836 53.4542 71.0837 53.747 70.9994C54.0816 70.9151 54.458 70.873 54.8344 70.873V70.8309Z" fill="#181818" stroke="black" stroke-width="0.16087"/>
<path d="M54.7508 61.9844C54.5835 61.9844 54.458 61.858 54.458 61.6895C54.458 61.521 54.5835 61.3946 54.7508 61.3946C54.9181 61.3946 55.0436 61.521 55.0436 61.6895C55.0436 61.858 54.9181 61.9844 54.7508 61.9844Z" fill="#181818" stroke="black" stroke-width="0.16087"/>
<path d="M52.9531 65.1438C52.1585 65.1438 51.4893 64.4698 51.4893 63.6694V53.3906C51.4893 52.5902 52.1585 51.9161 52.9531 51.9161H56.5501C56.9683 51.9161 57.3448 52.0846 57.6375 52.4217L57.763 52.548L57.8885 52.4638C58.4322 52.1689 59.2687 51.7055 59.9798 51.0315C61.1927 49.9362 61.9455 47.7877 62.0292 47.5771C62.1128 47.3244 62.3638 47.1559 62.6147 47.1559C62.8657 47.1559 62.6566 47.1559 62.6984 47.1559C63.6185 47.2401 65.2915 47.872 65.1242 49.6413C65.0824 50.3996 64.706 51.2421 64.0786 52.1268L63.8277 52.4638H67.8847C68.6794 52.4638 69.1813 52.8008 69.4322 53.0535C69.7668 53.3906 69.9759 53.8539 69.9759 54.4016C69.9759 54.9492 69.7668 55.4548 69.4322 55.8339L69.3067 55.9603L69.3904 56.0866C69.5577 56.3815 69.6413 56.7185 69.6413 57.0556C69.6413 57.6874 69.3486 58.2772 68.9303 58.6564L68.8048 58.7406L68.8885 58.867C69.014 59.1197 69.0558 59.4146 69.0558 59.6674C69.0558 60.4257 68.6794 61.1418 68.052 61.4367L67.8847 61.521V61.6895C68.0102 61.9001 68.052 62.1107 68.052 62.2792C68.052 63.2481 67.3828 64.2592 66.2117 64.2592H57.9303V64.3434C57.5957 64.8068 57.1356 65.1017 56.5919 65.1017H52.995L52.9531 65.1438ZM52.744 63.88H56.7592V53.1799H52.744V63.88ZM62.9075 48.6724C62.5729 49.5149 61.8201 51.0315 60.8163 51.9583C59.8125 52.885 58.6832 53.4748 58.1394 53.7697H58.014V63.0375H66.1699C66.5463 63.0375 66.7554 62.6584 66.7554 62.3214C66.7554 61.9843 66.7554 62.0265 66.5881 61.858C66.4626 61.7316 66.2117 61.6473 65.9189 61.6473H63.7858C63.4512 61.6473 63.1585 61.3524 63.1585 61.0154C63.1585 60.6784 63.4512 60.3835 63.7858 60.3835H67.1737C67.5501 60.3835 67.7592 60.0044 67.7592 59.6674C67.7592 59.3304 67.7592 59.3725 67.5919 59.204C67.4664 59.0776 67.2155 58.9934 66.9227 58.9934H64.4969C64.1623 58.9934 63.8695 58.6985 63.8695 58.3615C63.8695 58.0245 64.1623 57.7296 64.4969 57.7296H67.801C68.1775 57.7296 68.3866 57.3504 68.3866 57.0134C68.3866 56.6764 68.3866 56.7185 68.2193 56.55C68.0938 56.4237 67.8429 56.3394 67.5501 56.3394H65.1242C64.7896 56.3394 64.4969 56.0445 64.4969 55.7075C64.4969 55.3705 64.7896 55.0756 65.1242 55.0756H68.1356C68.5121 55.0756 68.7212 54.6965 68.7212 54.3595C68.7212 54.0225 68.7212 54.0646 68.5539 53.8961C68.4284 53.7697 68.1775 53.6854 67.8847 53.6854H62.6147C62.2801 53.6854 61.9874 53.3906 61.9874 53.0535C61.9874 52.7165 61.9874 52.9693 61.9874 52.9693V52.885C61.9874 52.6744 61.9874 52.4638 62.1965 52.3374C62.1965 52.3374 63.7858 50.8208 63.8695 49.5149C63.8695 49.0937 63.6604 48.7567 63.2003 48.546L62.9912 48.4618L62.9075 48.6724Z" fill="#181818" stroke="black" stroke-width="0.16087"/>
<defs>
<clipPath id="clip0_56034_2136">
<rect width="110.581" height="110.581" fill="white" transform="translate(4.18262 6.17456)"/>
</clipPath>
</defs>
</svg>
