<svg width="56" height="57" viewBox="0 0 56 57" fill="none" xmlns="http://www.w3.org/2000/svg">
<path fill-rule="evenodd" clip-rule="evenodd" d="M2.23008 0.427732C1.14753 0.803399 0.326995 1.71124 0.0962786 2.7883C0.0093768 3.19387 -0.015249 10.4659 0.00861067 28.5981L0.0419923 53.8434L0.277196 54.3526C0.57785 55.0035 1.29058 55.7167 1.94103 56.0176L2.44985 56.2529H23.1903H43.9307L44.4395 56.0176C45.09 55.7167 45.8027 55.0035 46.1034 54.3526C46.3305 53.861 46.3395 53.6863 46.3668 49.2982C46.3885 45.8028 46.363 44.6897 46.2565 44.4791C46.1803 44.3285 45.9336 44.1149 45.7084 44.0047C45.3113 43.81 45.2863 43.81 44.8892 44.0047C44.664 44.1149 44.4184 44.3285 44.3436 44.4791C44.2422 44.6833 44.2072 45.8501 44.206 49.0627L44.2043 53.3725L43.8322 53.7448L43.4601 54.1172H23.1903H2.92048L2.54835 53.7448L2.17623 53.3725V28.2696V3.16671L2.54835 2.79432L2.92048 2.42194H23.1776H43.4347L43.7921 2.74142L44.1496 3.06101L44.2043 9.47473L44.259 15.8886L44.5501 16.1797C44.9582 16.588 45.6395 16.588 46.0475 16.1796L46.3386 15.8883V9.29205C46.3386 2.77406 46.3357 2.68973 46.1034 2.18658C45.8027 1.53568 45.09 0.822456 44.4395 0.521594L43.9307 0.286227L23.3544 0.261803C4.06257 0.238913 2.74394 0.249318 2.23008 0.427732ZM21.4765 6.30029C19.4188 6.6937 17.7595 7.54744 16.2554 8.9867C14.9153 10.2691 13.9247 11.9435 13.4331 13.7577C13.0929 15.0125 13.0929 17.4314 13.4331 18.6862C14.4257 22.3485 17.2655 25.1241 20.9616 26.0445C21.4838 26.1746 22.1631 26.2316 23.1903 26.2316C25.959 26.2316 28.1621 25.352 30.123 23.4637C31.4698 22.1668 32.4565 20.4981 32.9475 18.6862C33.2876 17.4314 33.2876 15.0125 32.9475 13.7577C32.4558 11.9435 31.4652 10.2691 30.1251 8.9867C28.2564 7.1985 26.1022 6.28846 23.5186 6.1957C22.7214 6.16711 21.9728 6.20545 21.4765 6.30029ZM21.8072 8.44839C20.2427 8.73096 18.9114 9.45195 17.6657 10.691C16.6632 11.6881 16.0891 12.6027 15.6722 13.8672C15.4225 14.6243 15.3831 14.9295 15.3819 16.1124C15.3803 17.6768 15.5478 18.4579 16.1452 19.672C16.7978 20.9984 16.7106 20.98 17.6446 19.9874C18.3163 19.2735 19.4288 18.4441 19.9459 18.2716C20.0038 18.2523 19.8895 17.9077 19.6919 17.506C19.3934 16.8994 19.3231 16.6124 19.2778 15.8142C19.1226 13.0832 20.725 11.189 23.1903 11.189C25.6449 11.189 27.2401 13.0632 27.1096 15.7936C27.0713 16.5951 27.0072 16.8587 26.6968 17.4896C26.4947 17.9004 26.3767 18.2523 26.4346 18.2716C26.9518 18.4441 28.0642 19.2735 28.7359 19.9874C29.6699 20.98 29.5827 20.9984 30.2353 19.672C30.8327 18.4579 31.0003 17.6768 30.9986 16.1124C30.9974 14.9295 30.958 14.6243 30.7084 13.8672C30.2955 12.6153 29.7214 11.6963 28.7177 10.6814C27.2325 9.17935 25.6086 8.46295 23.5186 8.38804C22.8866 8.36537 22.1164 8.39253 21.8072 8.44839ZM22.4789 13.4717C22.1195 13.6281 21.6772 14.1344 21.5421 14.5439C21.4725 14.755 21.4346 15.2666 21.458 15.6808C21.5035 16.4856 21.6752 16.8282 22.2474 17.2556C22.6712 17.5723 23.7094 17.5723 24.1332 17.2556C24.7212 16.8162 24.8802 16.4873 24.924 15.6181C24.9707 14.6928 24.7298 14.0337 24.2061 13.6535C23.8825 13.4187 22.8502 13.31 22.4789 13.4717ZM50.4429 13.9935C49.7656 14.1304 48.591 14.811 48.1122 15.3439C47.7946 15.6973 45.1751 20.1286 40.7466 27.8036C36.9665 34.3547 33.8021 39.8578 33.7146 40.0324C33.5615 40.338 32.6108 48.2499 32.6053 49.2646C32.6016 49.9384 32.9749 50.3386 33.6073 50.3386C34.0574 50.3386 34.2866 50.1889 37.8001 47.6001L41.5166 44.8616L48.2845 33.143C52.0069 26.6977 55.2183 21.1003 55.4209 20.7041C55.9434 19.6828 56.0968 18.8463 55.9434 17.8544C55.6979 16.2672 54.7604 15.0134 53.3076 14.329C52.7366 14.0602 52.4487 13.9973 51.6658 13.9706C51.1437 13.9527 50.5933 13.963 50.4429 13.9935ZM50.5556 16.2285C50.0042 16.4605 49.5608 16.907 49.1179 17.6765C48.8675 18.1113 48.5699 18.6222 48.4565 18.8116L48.2503 19.1561L50.2663 20.3176C51.3751 20.9564 52.3312 21.4791 52.3908 21.4791C52.4505 21.4791 52.7803 20.9823 53.124 20.3751C53.9275 18.955 54.0146 18.3426 53.5435 17.4274C53.0962 16.5584 52.5155 16.1827 51.56 16.1443C51.1562 16.1281 50.7042 16.166 50.5556 16.2285ZM21.8769 19.901C20.5922 20.2422 19.2785 21.1495 18.6904 22.1017L18.4492 22.4923L18.7129 22.6946C19.1577 23.0357 20.4705 23.6388 21.2202 23.8465C21.7149 23.9835 22.315 24.0435 23.1903 24.0435C24.0655 24.0435 24.6656 23.9835 25.1603 23.8465C25.9101 23.6388 27.2229 23.0357 27.6677 22.6946L27.9313 22.4923L27.6901 22.1017C27.3402 21.5352 26.3441 20.6623 25.6802 20.3405C24.4422 19.7404 23.076 19.5826 21.8769 19.901ZM46.3678 22.438C40.8168 32.0294 36.2098 40.0651 36.2116 40.1529C36.2136 40.2535 40.2663 42.6645 40.3141 42.5937C40.5388 42.2606 51.2039 23.6733 51.2285 23.5719C51.2579 23.4511 50.1006 22.7259 47.359 21.1476C47.2041 21.0583 47.0508 21.2577 46.3678 22.438ZM8.41477 29.9423C8.00281 30.1473 7.72252 30.7902 7.87268 31.1854C8.04769 31.6462 8.28978 31.8711 8.6919 31.9465C9.90622 32.1744 10.433 30.4924 9.32495 29.9253C9.01707 29.7678 8.75571 29.7727 8.41477 29.9423ZM13.1758 29.9053C12.4784 30.1945 12.2938 31.1058 12.825 31.6374L13.126 31.9386H21.3297H29.5333L29.8343 31.6374C30.2543 31.2171 30.2543 30.5792 29.8343 30.1589L29.5333 29.8577L21.4641 29.8361C17.0258 29.8243 13.2962 29.8555 13.1758 29.9053ZM8.41477 36.0757C8.00281 36.2806 7.72252 36.9235 7.87268 37.3188C8.04769 37.7795 8.28978 38.0044 8.6919 38.0798C9.90622 38.3078 10.433 36.6257 9.32495 36.0586C9.01707 35.9011 8.75571 35.906 8.41477 36.0757ZM13.1758 36.0387C12.4784 36.3278 12.2938 37.2391 12.825 37.7708L13.126 38.072H21.3297H29.5333L29.8343 37.7708C30.2543 37.3504 30.2543 36.7126 29.8343 36.2922L29.5333 35.991L21.4641 35.9694C17.0258 35.9576 13.2962 35.9888 13.1758 36.0387ZM8.41477 42.209C8.00281 42.4139 7.72252 43.0568 7.87268 43.4521C8.04769 43.9129 8.28978 44.1377 8.6919 44.2132C9.90622 44.4411 10.433 42.759 9.32495 42.1919C9.01707 42.0344 8.75571 42.0394 8.41477 42.209ZM13.1758 42.172C12.4784 42.4611 12.2938 43.3725 12.825 43.9041L13.126 44.2053H21.3297H29.5333L29.8343 43.9041C30.2543 43.4838 30.2543 42.8459 29.8343 42.4255L29.5333 42.1243L21.4641 42.1028C17.0258 42.0909 13.2962 42.1222 13.1758 42.172ZM35.5073 42.5393C35.448 42.7338 35.0158 46.8207 35.0507 46.8558C35.0935 46.8985 38.6089 44.328 38.6162 44.2485C38.6297 44.105 35.5467 42.4101 35.5073 42.5393ZM22.8072 48.3041C22.109 48.5976 21.9253 49.5058 22.4564 50.0374L22.7574 50.3386H26.1454H29.5333L29.8343 50.0374C30.2543 49.6172 30.2543 48.9792 29.8344 48.5589L29.5336 48.2577L26.2799 48.2349C24.4903 48.2223 22.9276 48.2534 22.8072 48.3041Z" fill="black"/>
</svg>
