<svg width="272" height="366" viewBox="0 0 272 366" fill="none" xmlns="http://www.w3.org/2000/svg">
<g filter="url(#filter0_d_55367_1060)">
<g clip-path="url(#clip0_55367_1060)">
<rect x="8" y="4" width="256" height="350" rx="13.2333" fill="#FFDD00"/>
<path d="M251.179 149.983V360.188H213.1V187.035H211.868L162.704 218.443V183.546L214.947 149.983H251.179Z" fill="white"/>
<g clip-path="url(#clip1_55367_1060)">
<path fill-rule="evenodd" clip-rule="evenodd" d="M48.0602 137.428C46.9776 137.803 46.1571 138.711 45.9264 139.788C45.8395 140.194 45.8148 147.466 45.8387 165.598L45.8721 190.843L46.1073 191.353C46.4079 192.003 47.1207 192.717 47.7711 193.018L48.2799 193.253H69.0203H89.7608L90.2696 193.018C90.92 192.717 91.6328 192.003 91.9334 191.353C92.1605 190.861 92.1696 190.686 92.1969 186.298C92.2185 182.803 92.193 181.69 92.0865 181.479C92.0104 181.329 91.7637 181.115 91.5384 181.005C91.1413 180.81 91.1164 180.81 90.7193 181.005C90.4941 181.115 90.2485 181.329 90.1737 181.479C90.0723 181.683 90.0372 182.85 90.036 186.063L90.0344 190.372L89.6623 190.745L89.2901 191.117H69.0203H48.7506L48.3784 190.745L48.0063 190.372V165.27V140.167L48.3784 139.794L48.7506 139.422H69.0077H89.2648L89.6222 139.741L89.9797 140.061L90.0344 146.475L90.0891 152.889L90.3801 153.18C90.7883 153.588 91.4696 153.588 91.8776 153.18L92.1686 152.888V146.292C92.1686 139.774 92.1658 139.69 91.9334 139.187C91.6328 138.536 90.92 137.822 90.2696 137.522L89.7608 137.286L69.1845 137.262C49.8926 137.239 48.574 137.249 48.0602 137.428ZM67.3066 143.3C65.2489 143.694 63.5895 144.547 62.0855 145.987C60.7454 147.269 59.7548 148.944 59.2632 150.758C58.923 152.012 58.923 154.431 59.2632 155.686C60.2557 159.348 63.0956 162.124 66.7917 163.044C67.3138 163.175 67.9932 163.232 69.0203 163.232C71.7891 163.232 73.9921 162.352 75.9531 160.464C77.2999 159.167 78.2866 157.498 78.7775 155.686C79.1177 154.431 79.1177 152.012 78.7775 150.758C78.2859 148.944 77.2953 147.269 75.9552 145.987C74.0865 144.198 71.9323 143.288 69.3487 143.196C68.5515 143.167 67.8028 143.205 67.3066 143.3ZM67.6373 145.448C66.0728 145.731 64.7415 146.452 63.4957 147.691C62.4933 148.688 61.9191 149.603 61.5022 150.867C61.2526 151.624 61.2132 151.929 61.212 153.112C61.2104 154.677 61.3779 155.458 61.9753 156.672C62.6279 157.998 62.5407 157.98 63.4747 156.987C64.1464 156.274 65.2588 155.444 65.776 155.272C65.8339 155.252 65.7196 154.908 65.5219 154.506C65.2235 153.899 65.1532 153.612 65.1079 152.814C64.9527 150.083 66.555 148.189 69.0203 148.189C71.4749 148.189 73.0702 150.063 72.9397 152.794C72.9014 153.595 72.8372 153.859 72.5268 154.49C72.3248 154.9 72.2068 155.252 72.2647 155.272C72.7819 155.444 73.8943 156.274 74.566 156.987C75.5 157.98 75.4128 157.998 76.0654 156.672C76.6628 155.458 76.8303 154.677 76.8287 153.112C76.8275 151.929 76.7881 151.624 76.5385 150.867C76.1256 149.615 75.5514 148.696 74.5478 147.681C73.0626 146.179 71.4387 145.463 69.3487 145.388C68.7166 145.365 67.9464 145.393 67.6373 145.448ZM68.3089 150.472C67.9496 150.628 67.5072 151.134 67.3722 151.544C67.3026 151.755 67.2647 152.267 67.2881 152.681C67.3335 153.486 67.5053 153.828 68.0775 154.256C68.5012 154.572 69.5395 154.572 69.9632 154.256C70.5513 153.816 70.7102 153.487 70.7541 152.618C70.8007 151.693 70.5598 151.034 70.0361 150.654C69.7126 150.419 68.6803 150.31 68.3089 150.472ZM96.2729 150.993C95.5957 151.13 94.4211 151.811 93.9422 152.344C93.6247 152.697 91.0052 157.129 86.5767 164.804C82.7966 171.355 79.6322 176.858 79.5447 177.032C79.3915 177.338 78.4409 185.25 78.4354 186.265C78.4317 186.938 78.805 187.339 79.4374 187.339C79.8875 187.339 80.1166 187.189 83.6301 184.6L87.3467 181.862L94.1146 170.143C97.8369 163.698 101.048 158.1 101.251 157.704C101.773 156.683 101.927 155.846 101.773 154.854C101.528 153.267 100.59 152.013 99.1376 151.329C98.5666 151.06 98.2788 150.997 97.4959 150.971C96.9737 150.953 96.4234 150.963 96.2729 150.993ZM96.3857 153.229C95.8343 153.46 95.3909 153.907 94.948 154.677C94.6975 155.111 94.4 155.622 94.2866 155.812L94.0804 156.156L96.0964 157.318C97.2052 157.956 98.1612 158.479 98.2209 158.479C98.2805 158.479 98.6104 157.982 98.9541 157.375C99.7575 155.955 99.8447 155.343 99.3736 154.427C98.9263 153.558 98.3456 153.183 97.3901 153.144C96.9863 153.128 96.5343 153.166 96.3857 153.229ZM67.707 156.901C66.4223 157.242 65.1086 158.15 64.5205 159.102L64.2793 159.492L64.5429 159.695C64.9877 160.036 66.3006 160.639 67.0503 160.846C67.545 160.983 68.1451 161.043 69.0203 161.043C69.8956 161.043 70.4957 160.983 70.9904 160.846C71.7401 160.639 73.053 160.036 73.4978 159.695L73.7614 159.492L73.5202 159.102C73.1703 158.535 72.1742 157.662 71.5103 157.34C70.2723 156.74 68.9061 156.583 67.707 156.901ZM92.1979 159.438C86.6469 169.029 82.0399 177.065 82.0417 177.153C82.0437 177.253 86.0963 179.665 86.1442 179.594C86.3689 179.261 97.0339 160.673 97.0586 160.572C97.088 160.451 95.9307 159.726 93.1891 158.148C93.0341 158.058 92.8809 158.258 92.1979 159.438ZM54.2449 166.942C53.8329 167.147 53.5526 167.79 53.7028 168.185C53.8778 168.646 54.1199 168.871 54.522 168.947C55.7363 169.174 56.2631 167.492 55.155 166.925C54.8471 166.768 54.5858 166.773 54.2449 166.942ZM59.0058 166.905C58.3084 167.194 58.1239 168.106 58.6551 168.637L58.956 168.939H67.1597H75.3634L75.6644 168.637C76.0844 168.217 76.0844 167.579 75.6644 167.159L75.3634 166.858L67.2941 166.836C62.8559 166.824 59.1262 166.855 59.0058 166.905ZM54.2449 173.076C53.8329 173.281 53.5526 173.923 53.7028 174.319C53.8778 174.78 54.1199 175.004 54.522 175.08C55.7363 175.308 56.2631 173.626 55.155 173.059C54.8471 172.901 54.5858 172.906 54.2449 173.076ZM59.0058 173.039C58.3084 173.328 58.1239 174.239 58.6551 174.771L58.956 175.072H67.1597H75.3634L75.6644 174.771C76.0844 174.35 76.0844 173.713 75.6644 173.292L75.3634 172.991L67.2941 172.969C62.8559 172.958 59.1262 172.989 59.0058 173.039ZM54.2449 179.209C53.8329 179.414 53.5526 180.057 53.7028 180.452C53.8778 180.913 54.1199 181.138 54.522 181.213C55.7363 181.441 56.2631 179.759 55.155 179.192C54.8471 179.034 54.5858 179.039 54.2449 179.209ZM59.0058 179.172C58.3084 179.461 58.1239 180.372 58.6551 180.904L58.956 181.205H67.1597H75.3634L75.6644 180.904C76.0844 180.484 76.0844 179.846 75.6644 179.426L75.3634 179.124L67.2941 179.103C62.8559 179.091 59.1262 179.122 59.0058 179.172ZM81.3374 179.539C81.2781 179.734 80.8459 183.821 80.8808 183.856C80.9236 183.898 84.439 181.328 84.4463 181.248C84.4598 181.105 81.3768 179.41 81.3374 179.539ZM68.6373 185.304C67.9391 185.598 67.7553 186.506 68.2865 187.037L68.5875 187.339H71.9755H75.3634L75.6644 187.037C76.0844 186.617 76.0844 185.979 75.6645 185.559L75.3636 185.258L72.11 185.235C70.3204 185.222 68.7577 185.253 68.6373 185.304Z" fill="black"/>
</g>
<path d="M55.8776 229.187C55.7078 228.69 55.532 228.199 55.3501 227.714C55.1682 227.229 54.9923 226.731 54.8225 226.222H49.5108C49.341 226.731 49.1652 227.235 48.9833 227.732C48.8135 228.217 48.6437 228.702 48.4739 229.187H46.091C46.5639 227.841 47.0126 226.598 47.4371 225.458C47.8615 224.318 48.2738 223.239 48.674 222.22C49.0864 221.201 49.4926 220.231 49.8928 219.31C50.293 218.388 50.7054 217.478 51.1298 216.581H53.2945C53.719 217.478 54.1313 218.388 54.5315 219.31C54.9317 220.231 55.3319 221.201 55.7321 222.22C56.1444 223.239 56.5628 224.318 56.9872 225.458C57.4238 226.598 57.8786 227.841 58.3516 229.187H55.8776ZM52.1667 219.019C51.8878 219.661 51.5664 220.444 51.2026 221.365C50.8509 222.287 50.481 223.287 50.0929 224.367H54.2404C53.8524 223.287 53.4764 222.281 53.1126 221.347C52.7488 220.413 52.4335 219.637 52.1667 219.019ZM66.148 224.476C66.148 223.494 65.9237 222.73 65.475 222.184C65.0384 221.638 64.3289 221.365 63.3466 221.365C63.1405 221.365 62.9222 221.377 62.6918 221.402C62.4735 221.414 62.2552 221.45 62.0369 221.511V226.95C62.2309 227.083 62.4856 227.211 62.8009 227.332C63.1283 227.441 63.474 227.496 63.8378 227.496C64.6382 227.496 65.2203 227.223 65.5841 226.677C65.96 226.131 66.148 225.398 66.148 224.476ZM68.4037 224.439C68.4037 225.167 68.3067 225.834 68.1126 226.44C67.9307 227.047 67.6639 227.568 67.3122 228.005C66.9605 228.441 66.5179 228.781 65.9843 229.024C65.4628 229.266 64.8686 229.387 64.2016 229.387C63.7529 229.387 63.3406 229.333 62.9646 229.224C62.5887 229.114 62.2794 228.993 62.0369 228.86V232.553H59.8358V219.983C60.2845 219.861 60.8363 219.746 61.4912 219.637C62.146 219.528 62.8373 219.473 63.5649 219.473C64.3168 219.473 64.9899 219.589 65.5841 219.819C66.1783 220.049 66.6816 220.383 67.0939 220.819C67.5184 221.244 67.8398 221.765 68.058 222.384C68.2885 222.99 68.4037 223.675 68.4037 224.439ZM76.9843 224.476C76.9843 223.494 76.76 222.73 76.3113 222.184C75.8747 221.638 75.1652 221.365 74.1829 221.365C73.9768 221.365 73.7585 221.377 73.5281 221.402C73.3098 221.414 73.0915 221.45 72.8732 221.511V226.95C73.0672 227.083 73.3219 227.211 73.6372 227.332C73.9647 227.441 74.3103 227.496 74.6741 227.496C75.4745 227.496 76.0566 227.223 76.4204 226.677C76.7964 226.131 76.9843 225.398 76.9843 224.476ZM79.24 224.439C79.24 225.167 79.143 225.834 78.9489 226.44C78.767 227.047 78.5002 227.568 78.1485 228.005C77.7969 228.441 77.3542 228.781 76.8206 229.024C76.2991 229.266 75.7049 229.387 75.0379 229.387C74.5892 229.387 74.1769 229.333 73.8009 229.224C73.425 229.114 73.1158 228.993 72.8732 228.86V232.553H70.6721V219.983C71.1208 219.861 71.6726 219.746 72.3275 219.637C72.9824 219.528 73.6736 219.473 74.4012 219.473C75.1531 219.473 75.8262 219.589 76.4204 219.819C77.0146 220.049 77.5179 220.383 77.9303 220.819C78.3547 221.244 78.6761 221.765 78.8944 222.384C79.1248 222.99 79.24 223.675 79.24 224.439ZM84.8192 229.369C84.1643 229.357 83.6186 229.284 83.182 229.151C82.7575 229.017 82.418 228.83 82.1633 228.587C81.9086 228.332 81.7267 228.023 81.6176 227.659C81.5206 227.283 81.4721 226.859 81.4721 226.386V215.435L83.6731 215.071V225.967C83.6731 226.234 83.6913 226.459 83.7277 226.641C83.7762 226.822 83.8551 226.98 83.9642 227.114C84.0733 227.235 84.2189 227.332 84.4008 227.405C84.5948 227.465 84.8374 227.514 85.1284 227.55L84.8192 229.369ZM89.1281 229.187H86.927V219.673H89.1281V229.187ZM89.3646 216.89C89.3646 217.303 89.2312 217.63 88.9644 217.873C88.6976 218.115 88.3823 218.236 88.0185 218.236C87.6425 218.236 87.3212 218.115 87.0544 217.873C86.7876 217.63 86.6542 217.303 86.6542 216.89C86.6542 216.466 86.7876 216.132 87.0544 215.89C87.3212 215.647 87.6425 215.526 88.0185 215.526C88.3823 215.526 88.6976 215.647 88.9644 215.89C89.2312 216.132 89.3646 216.466 89.3646 216.89ZM91.4086 224.439C91.4086 223.736 91.5178 223.081 91.7361 222.475C91.9544 221.856 92.2636 221.323 92.6638 220.874C93.0761 220.425 93.5733 220.074 94.1554 219.819C94.7376 219.564 95.3924 219.437 96.1201 219.437C97.0175 219.437 97.8664 219.601 98.6668 219.928L98.1938 221.729C97.9391 221.62 97.6481 221.529 97.3206 221.456C97.0053 221.383 96.6658 221.347 96.302 221.347C95.4409 221.347 94.7861 221.62 94.3374 222.166C93.8886 222.699 93.6643 223.457 93.6643 224.439C93.6643 225.385 93.8765 226.137 94.301 226.695C94.7254 227.241 95.4409 227.514 96.4475 227.514C96.8234 227.514 97.1933 227.477 97.5571 227.405C97.9209 227.332 98.2362 227.241 98.503 227.132L98.8123 228.951C98.5697 229.072 98.1999 229.181 97.7027 229.278C97.2176 229.375 96.7143 229.424 96.1928 229.424C95.3803 229.424 94.6709 229.302 94.0645 229.06C93.4703 228.805 92.973 228.46 92.5728 228.023C92.1848 227.574 91.8937 227.047 91.6997 226.44C91.5057 225.822 91.4086 225.155 91.4086 224.439ZM103.864 227.641C104.543 227.641 105.058 227.605 105.41 227.532V225.094C105.288 225.058 105.113 225.022 104.882 224.985C104.652 224.949 104.397 224.931 104.118 224.931C103.876 224.931 103.627 224.949 103.372 224.985C103.13 225.022 102.905 225.088 102.699 225.185C102.505 225.282 102.348 225.422 102.226 225.604C102.105 225.773 102.044 225.992 102.044 226.259C102.044 226.78 102.208 227.144 102.536 227.35C102.863 227.544 103.306 227.641 103.864 227.641ZM103.682 219.437C104.409 219.437 105.022 219.528 105.519 219.71C106.016 219.892 106.41 220.146 106.701 220.474C107.004 220.801 107.217 221.201 107.338 221.674C107.471 222.135 107.538 222.645 107.538 223.202V228.969C107.198 229.042 106.683 229.127 105.992 229.224C105.313 229.333 104.543 229.387 103.682 229.387C103.112 229.387 102.59 229.333 102.117 229.224C101.644 229.114 101.238 228.939 100.898 228.696C100.571 228.454 100.31 228.138 100.116 227.75C99.9343 227.362 99.8433 226.883 99.8433 226.313C99.8433 225.767 99.9464 225.307 100.153 224.931C100.371 224.555 100.662 224.251 101.026 224.021C101.39 223.779 101.808 223.609 102.281 223.512C102.766 223.403 103.269 223.348 103.791 223.348C104.033 223.348 104.288 223.366 104.555 223.403C104.822 223.427 105.107 223.475 105.41 223.548V223.184C105.41 222.93 105.379 222.687 105.319 222.457C105.258 222.226 105.149 222.026 104.991 221.856C104.846 221.674 104.646 221.535 104.391 221.438C104.148 221.341 103.839 221.292 103.463 221.292C102.954 221.292 102.487 221.329 102.063 221.402C101.638 221.474 101.293 221.559 101.026 221.656L100.753 219.874C101.032 219.777 101.438 219.68 101.972 219.583C102.505 219.485 103.075 219.437 103.682 219.437ZM110.124 217.163L112.325 216.799V219.673H115.709V221.511H112.325V225.385C112.325 226.149 112.447 226.695 112.689 227.023C112.932 227.35 113.344 227.514 113.926 227.514C114.326 227.514 114.678 227.471 114.981 227.386C115.297 227.301 115.545 227.223 115.727 227.15L116.091 228.896C115.836 229.005 115.503 229.114 115.09 229.224C114.678 229.345 114.193 229.406 113.635 229.406C112.956 229.406 112.386 229.315 111.925 229.133C111.477 228.951 111.119 228.69 110.852 228.35C110.585 227.999 110.397 227.58 110.288 227.095C110.179 226.598 110.124 226.034 110.124 225.404V217.163ZM120.056 229.187H117.855V219.673H120.056V229.187ZM120.292 216.89C120.292 217.303 120.159 217.63 119.892 217.873C119.626 218.115 119.31 218.236 118.946 218.236C118.57 218.236 118.249 218.115 117.982 217.873C117.715 217.63 117.582 217.303 117.582 216.89C117.582 216.466 117.715 216.132 117.982 215.89C118.249 215.647 118.57 215.526 118.946 215.526C119.31 215.526 119.626 215.647 119.892 215.89C120.159 216.132 120.292 216.466 120.292 216.89ZM131.468 224.421C131.468 225.173 131.359 225.858 131.141 226.477C130.923 227.095 130.613 227.623 130.213 228.059C129.813 228.496 129.328 228.836 128.758 229.078C128.2 229.321 127.582 229.442 126.902 229.442C126.223 229.442 125.605 229.321 125.047 229.078C124.489 228.836 124.01 228.496 123.61 228.059C123.21 227.623 122.894 227.095 122.664 226.477C122.446 225.858 122.337 225.173 122.337 224.421C122.337 223.669 122.446 222.99 122.664 222.384C122.894 221.765 123.21 221.238 123.61 220.801C124.022 220.365 124.507 220.031 125.065 219.801C125.623 219.558 126.235 219.437 126.902 219.437C127.569 219.437 128.182 219.558 128.74 219.801C129.31 220.031 129.795 220.365 130.195 220.801C130.595 221.238 130.904 221.765 131.123 222.384C131.353 222.99 131.468 223.669 131.468 224.421ZM129.213 224.421C129.213 223.475 129.007 222.73 128.594 222.184C128.194 221.626 127.63 221.347 126.902 221.347C126.175 221.347 125.605 221.626 125.193 222.184C124.792 222.73 124.592 223.475 124.592 224.421C124.592 225.379 124.792 226.137 125.193 226.695C125.605 227.253 126.175 227.532 126.902 227.532C127.63 227.532 128.194 227.253 128.594 226.695C129.007 226.137 129.213 225.379 129.213 224.421ZM133.736 219.983C134.16 219.861 134.712 219.746 135.391 219.637C136.07 219.528 136.822 219.473 137.647 219.473C138.423 219.473 139.072 219.583 139.593 219.801C140.115 220.007 140.527 220.304 140.83 220.692C141.146 221.068 141.364 221.529 141.485 222.075C141.619 222.608 141.685 223.196 141.685 223.839V229.187H139.484V224.185C139.484 223.675 139.448 223.245 139.375 222.893C139.314 222.529 139.205 222.238 139.048 222.02C138.902 221.79 138.696 221.626 138.429 221.529C138.174 221.42 137.859 221.365 137.483 221.365C137.204 221.365 136.913 221.383 136.61 221.42C136.307 221.456 136.083 221.486 135.937 221.511V229.187H133.736V219.983Z" fill="black"/>
</g>
</g>
<defs>
<filter id="filter0_d_55367_1060" x="0" y="0" width="272" height="366" filterUnits="userSpaceOnUse" color-interpolation-filters="sRGB">
<feFlood flood-opacity="0" result="BackgroundImageFix"/>
<feColorMatrix in="SourceAlpha" type="matrix" values="0 0 0 0 0 0 0 0 0 0 0 0 0 0 0 0 0 0 127 0" result="hardAlpha"/>
<feOffset dy="4"/>
<feGaussianBlur stdDeviation="4"/>
<feComposite in2="hardAlpha" operator="out"/>
<feColorMatrix type="matrix" values="0 0 0 0 0 0 0 0 0 0 0 0 0 0 0 0 0 0 0.12 0"/>
<feBlend mode="normal" in2="BackgroundImageFix" result="effect1_dropShadow_55367_1060"/>
<feBlend mode="normal" in="SourceGraphic" in2="effect1_dropShadow_55367_1060" result="shape"/>
</filter>
<clipPath id="clip0_55367_1060">
<rect x="8" y="4" width="256" height="350" rx="13.2333" fill="white"/>
</clipPath>
<clipPath id="clip1_55367_1060">
<rect width="113.187" height="113.187" fill="white" transform="translate(46 80)"/>
</clipPath>
</defs>
</svg>
