<svg width="67" height="56" viewBox="0 0 67 56" fill="none" xmlns="http://www.w3.org/2000/svg">
<path fill-rule="evenodd" clip-rule="evenodd" d="M20.4542 0.0644344C8.61013 1.09665 -0.251995 9.37706 0.185437 19.0024C0.380166 23.2849 2.16175 27.045 5.52335 30.2683C8.13169 32.7693 11.0659 34.4598 14.7649 35.5928L16.1683 36.0227L16.0849 38.2878C16.039 39.5335 15.9113 41.6525 15.8011 42.9965C15.6422 44.9355 15.633 45.5182 15.7566 45.8177C15.9222 46.2187 16.4602 46.5714 16.9065 46.5714C17.676 46.5714 20.2168 44.8067 21.9372 43.0775C23.4619 41.545 24.4197 40.2894 25.7543 38.0734L26.6697 36.5534L28.1401 36.2568C28.9487 36.0939 29.7696 35.9048 29.9642 35.8368C30.2858 35.7244 30.3252 35.7451 30.3947 36.062C31.0501 39.0535 32.6902 41.7458 35.0912 43.7713C37.562 45.8556 40.2977 47.1792 43.6439 47.9095L44.9264 48.1893L45.6259 49.3542C46.6335 51.032 47.5767 52.2189 48.9483 53.5348C50.2727 54.8056 51.832 55.8609 52.561 55.9795C53.1384 56.0736 53.6139 55.8404 53.8742 55.3354C54.0381 55.0171 54.0431 54.7167 53.9099 53.1951C53.8246 52.2216 53.7484 50.589 53.7404 49.5671L53.7259 47.709L54.882 47.3295C60.9737 45.3292 65.2618 40.7165 66.0484 35.3175C66.9934 28.8304 62.3502 22.5015 54.8418 20.0423C52.4169 19.2479 51.1664 19.0671 48.1001 19.0671H45.4403L45.352 17.7786C45.0436 13.2855 43.3773 9.80095 39.955 6.49254C36.2642 2.92462 31.056 0.647784 25.3547 0.109995C24.0264 -0.0154249 21.6253 -0.0376874 20.4542 0.0644344ZM20.1621 2.70316C16.5837 3.05043 12.6675 4.43923 9.68604 6.41864C8.20829 7.39973 5.91358 9.70168 4.99371 11.1259C1.92962 15.8701 1.99449 21.207 5.17361 25.927C7.6174 29.5554 12.1078 32.4178 17.1687 33.5729C17.8625 33.7314 18.1342 33.8635 18.3874 34.1655C18.7018 34.5404 18.7132 34.6175 18.7132 36.3612C18.7132 37.3551 18.6513 39.1621 18.5758 40.3767C18.5002 41.5912 18.4643 42.6113 18.4963 42.6433C18.5936 42.7409 20.0177 41.4324 20.887 40.4467C21.9986 39.1864 23.172 37.4718 24.0771 35.7852C24.8377 34.3678 25.183 34.0165 25.8157 34.0165C25.9698 34.0165 26.8084 33.8718 27.679 33.6947C39.1171 31.3704 45.6081 21.6724 41.5484 12.9731C40.7963 11.3613 39.8197 10.0009 38.393 8.57743C34.0292 4.22334 27.1942 2.02106 20.1621 2.70316ZM12.9467 10.1623C12.7895 10.1929 12.5139 10.3932 12.3341 10.6077C11.8742 11.1562 11.8932 11.789 12.3843 12.2819L12.7612 12.6602H19.9688H27.1764L27.5229 12.2972C27.8983 11.904 27.991 11.1887 27.7301 10.6993C27.4047 10.0892 27.1659 10.0704 19.9747 10.0892C16.2665 10.0989 13.1039 10.1318 12.9467 10.1623ZM31.2991 10.2692C30.7702 10.5461 30.5863 10.838 30.5817 11.4082C30.5734 12.4027 31.7302 13.0106 32.5745 12.4555C33.3583 11.9399 33.2109 10.6316 32.3273 10.2611C31.7711 10.0278 31.7601 10.028 31.2991 10.2692ZM12.8311 16.67C12.6814 16.7307 12.4292 16.9455 12.2708 17.1473C11.8867 17.6362 11.9735 18.4223 12.4579 18.8403L12.7955 19.1318H22.5293C33.3862 19.1318 32.7565 19.1857 33.0411 18.2325C33.1591 17.8373 33.1471 17.6765 32.9753 17.343C32.5461 16.5101 32.9714 16.5424 22.5562 16.5513C17.3572 16.5559 12.981 16.6093 12.8311 16.67ZM45.6897 21.7152C45.3126 21.7748 44.9895 21.8442 44.9714 21.8692C44.9535 21.8942 44.8378 22.2932 44.7144 22.7559C44.3957 23.9506 43.3731 26.0396 42.4194 27.4438C41.5261 28.7591 39.6291 30.7537 38.3159 31.758C37.19 32.6194 35.1217 33.856 33.885 34.4074L32.875 34.8578L32.9416 35.4403C33.0295 36.206 33.3373 37.1204 33.8609 38.1702C34.4114 39.2743 34.9173 39.9724 35.9033 40.9889C38.2495 43.407 41.322 44.929 45.0855 45.5375C46.5652 45.7766 46.5958 45.7997 47.4502 47.3274C48.3571 48.9492 49.4925 50.5038 50.4743 51.4686L51.1771 52.1591L51.1118 49.1991L51.0466 46.2391L51.3545 45.8846C51.586 45.6181 51.9506 45.4534 52.8231 45.2205C58.2798 43.7652 62.0924 40.4336 63.2837 36.0799C63.6279 34.8218 63.6024 32.4421 63.2305 31.1313C61.9712 26.6927 57.7087 23.171 52.1453 21.9725C50.7496 21.6718 46.9261 21.5195 45.6897 21.7152ZM12.8311 23.1416C12.6814 23.2023 12.4292 23.4171 12.2708 23.6188C11.8867 24.1078 11.9735 24.8939 12.4579 25.3119L12.7955 25.6034H22.5716H32.3478L32.6796 25.2704C33.1215 24.8268 33.2255 24.3003 32.9692 23.803C32.547 22.9833 32.9551 23.014 22.5562 23.0229C17.3572 23.0275 12.981 23.0809 12.8311 23.1416ZM43.63 32.3995C43.0592 32.6484 42.7579 33.3442 42.9578 33.9523C43.2512 34.8445 44.357 35.0912 45.031 34.4148C45.6918 33.7516 45.4647 32.6439 44.6065 32.3436C44.1218 32.174 44.1506 32.1724 43.63 32.3995ZM47.6277 32.3995C47.057 32.6484 46.7557 33.3442 46.9556 33.9523C47.249 34.8445 48.3548 35.0912 49.0288 34.4148C49.6895 33.7516 49.4624 32.6439 48.6042 32.3436C48.1196 32.174 48.1483 32.1724 47.6277 32.3995ZM51.6255 32.3995C51.0547 32.6484 50.7535 33.3442 50.9534 33.9523C51.2467 34.8445 52.3526 35.0912 53.0265 34.4148C53.6873 33.7516 53.4602 32.6439 52.602 32.3436C52.1173 32.174 52.1461 32.1724 51.6255 32.3995Z" fill="black"/>
</svg>
