<svg width="17" height="16" viewBox="0 0 17 16" fill="none" xmlns="http://www.w3.org/2000/svg">
<path fill-rule="evenodd" clip-rule="evenodd" d="M8.00833 14.7559C8.00833 14.7559 3.16699 10.6786 3.16699 6.66659C3.16699 5.2521 3.7289 3.89554 4.72909 2.89535C5.72928 1.89516 7.08584 1.33325 8.50033 1.33325C9.91481 1.33325 11.2714 1.89516 12.2716 2.89535C13.2718 3.89554 13.8337 5.2521 13.8337 6.66659C13.8337 10.6786 8.99233 14.7559 8.99233 14.7559C8.72299 15.0039 8.27966 15.0013 8.00833 14.7559ZM8.50033 8.99992C8.80674 8.99992 9.11016 8.93957 9.39325 8.8223C9.67635 8.70504 9.93357 8.53317 10.1502 8.3165C10.3669 8.09983 10.5388 7.84261 10.656 7.55951C10.7733 7.27642 10.8337 6.973 10.8337 6.66659C10.8337 6.36017 10.7733 6.05675 10.656 5.77366C10.5388 5.49056 10.3669 5.23334 10.1502 5.01667C9.93357 4.8 9.67635 4.62813 9.39325 4.51087C9.11016 4.39361 8.80674 4.33325 8.50033 4.33325C7.88149 4.33325 7.28799 4.57908 6.85041 5.01667C6.41283 5.45425 6.16699 6.04775 6.16699 6.66659C6.16699 7.28542 6.41283 7.87892 6.85041 8.3165C7.28799 8.75409 7.88149 8.99992 8.50033 8.99992Z" fill="#7C7C7C"/>
</svg>
