<svg width="73" height="56" viewBox="0 0 73 56" fill="none" xmlns="http://www.w3.org/2000/svg">
<path fill-rule="evenodd" clip-rule="evenodd" d="M57.7353 0.163561C56.8924 0.501095 52.1222 3.34913 51.6278 3.80997C51.3283 4.08925 50.9948 4.52449 50.8865 4.77718L50.6898 5.23675H43.1166C34.867 5.23675 34.6606 5.25371 33.171 6.05449C32.778 6.26575 31.9076 6.96712 31.2369 7.61306L30.0176 8.78728L28.5431 8.56754C27.6111 8.42854 26.0879 8.34765 24.4029 8.34765H21.7372L21.4939 7.79405C21.1234 6.951 20.4508 6.43996 17.3902 4.67579C14.757 3.15809 14.5204 3.05063 13.6936 2.99774C12.9499 2.95023 12.6878 3.00142 12.0348 3.32226C11.6082 3.53183 11.109 3.90514 10.9253 4.15189C10.3561 4.91632 0.519381 22.1011 0.307998 22.7003C-0.0695633 23.7705 0.358273 25.419 1.21296 26.1876C1.70699 26.6317 6.96059 29.6056 7.58404 29.794C7.92724 29.8978 8.43661 29.9826 8.71574 29.9826C9.18089 29.9826 9.38453 30.1455 11.1467 31.9269L13.07 33.8712L13.1165 35.0766C13.1558 36.0985 13.2334 36.4256 13.6264 37.2271C14.3283 38.6581 15.7611 39.7353 17.2635 39.9616L17.8452 40.0491L17.9113 41.061C18.0608 43.3503 19.6963 45.1209 22.0711 45.5643L22.9084 45.7207L23.0642 46.5615C23.4785 48.7985 25.0196 50.3492 27.2334 50.7563C27.6914 50.8405 28.0763 50.9257 28.0888 50.9453C28.1013 50.9651 28.184 51.3882 28.2724 51.8857C28.5817 53.6252 29.809 55.0809 31.5054 55.7203C32.6568 56.1541 34.2412 56.0775 35.4122 55.5309C36.5144 55.0167 39.2192 52.3271 39.7052 51.2624L40.0287 50.5535L40.8846 50.9795C41.6561 51.3633 41.8732 51.4055 43.0836 51.4053C44.2887 51.4052 44.5104 51.3626 45.2404 50.9916C46.1934 50.5071 47.2201 49.4621 47.6079 48.5817L47.8822 47.9591L48.619 48.293C51.2604 49.4901 54.4993 48.0933 55.4191 45.3605C55.6306 44.732 55.6692 44.6958 56.0211 44.7949C56.228 44.8532 56.8431 44.8972 57.3883 44.8928C59.2022 44.8781 60.9429 43.7354 61.7902 42.003C62.1231 41.3226 62.1711 41.0548 62.1711 39.881C62.1711 37.8975 61.8948 37.3898 59.4679 34.914L57.5356 32.9428L60.4584 30.0055L63.3811 27.0683L64.2711 26.9153C64.995 26.7907 65.6308 26.491 67.6797 25.3085C70.9982 23.393 71.3192 23.1636 71.7794 22.3776C72.1064 21.819 72.1699 21.5484 72.1699 20.7146C72.1699 19.7241 72.1636 19.7077 70.9739 17.6197C70.3159 16.4653 69.627 15.4216 69.4428 15.3004C68.8889 14.936 68.1542 15.0408 67.7024 15.5484C67.0943 16.2318 67.1761 16.6232 68.3676 18.7273C68.9485 19.7532 69.4238 20.6594 69.4238 20.7408C69.4238 20.9989 68.9917 21.292 66.4372 22.7666C64.5266 23.8694 63.8885 24.175 63.7078 24.0733C63.4502 23.9286 53.5097 6.76307 53.4088 6.28866C53.3745 6.12845 53.431 5.92737 53.5341 5.84182C54.0535 5.4111 58.6864 2.83286 58.9412 2.83286C59.1696 2.83286 59.4395 3.19161 60.1375 4.42367C61.2533 6.39259 61.6199 6.7922 62.3104 6.7922C62.5925 6.7922 62.9452 6.72673 63.0942 6.64655C63.4067 6.4787 63.7906 5.79727 63.7906 5.41053C63.7906 5.12786 62.029 1.94724 61.4343 1.15608C60.7345 0.225213 58.8466 -0.28144 57.7353 0.163561ZM13.0652 6.04982C12.7678 6.39782 3.07556 23.2998 3.00613 23.592C2.97472 23.7237 2.9974 23.9016 3.05655 23.9875C3.11569 24.0732 4.35766 24.8331 5.8165 25.676C7.81852 26.8328 8.52196 27.175 8.68489 27.0718C8.96514 26.8943 18.9927 9.48582 19.001 9.16257C19.0044 9.02739 18.7696 8.76664 18.4791 8.58309C17.0985 7.71048 13.6723 5.80237 13.4862 5.80237C13.3711 5.80237 13.1817 5.91365 13.0652 6.04982ZM35.3424 8.19635C35.1482 8.25602 34.768 8.41609 34.4975 8.55213C33.9178 8.84356 27.8177 14.8789 27.5062 15.4689C27.0074 16.414 27.3655 17.7225 28.2951 18.3516C28.8179 18.7053 29.9224 18.7874 30.4588 18.5125C30.6279 18.4259 32.0058 17.1214 33.5205 15.6137C37.2 11.9518 36.5589 11.9361 40.4172 15.7822L43.336 18.6917L44.1017 17.9386C45.0789 16.9776 45.6014 15.9138 45.7194 14.6455C45.7921 13.863 45.8843 13.5909 46.1953 13.2417C47.0623 12.2671 48.5843 12.9584 48.5788 14.3243C48.571 16.2201 47.717 18.2386 46.2935 19.7258L45.3424 20.7195L50.4463 25.8457L55.5501 30.9719L58.2621 28.2514C59.7536 26.7552 60.9739 25.4668 60.9739 25.3884C60.9738 25.3097 58.7601 21.3958 56.0546 16.6905L51.1355 8.13555L43.4154 8.11179C39.1695 8.09864 35.5365 8.13668 35.3424 8.19635ZM65.0395 9.67842C64.3752 9.89406 63.9846 10.6924 64.209 11.3754C64.5335 12.3626 65.7365 12.6375 66.4772 11.8937C67.0107 11.358 67.0341 10.6636 66.5383 10.0721C66.126 9.58 65.6931 9.46631 65.0395 9.67842ZM16.3002 19.6982L11.4103 28.215L12.9844 29.8018L14.5583 31.3883L15.5731 30.4003C16.9726 29.0377 17.5753 28.7802 19.3593 28.7824C20.5487 28.7836 20.8708 28.8352 21.4317 29.1138C22.8905 29.8384 24.1112 31.4251 24.3057 32.8495L24.3921 33.4821L25.326 33.5494C27.6904 33.7199 29.5452 35.5517 29.9117 38.078C30.0089 38.7479 30.0105 38.7497 30.5585 38.7497C32.594 38.7497 34.7952 40.865 35.0183 43.0354L35.0988 43.8189L35.8196 43.9128C37.1865 44.0909 37.9406 44.5656 39.8429 46.4455C40.8149 47.4061 41.813 48.2945 42.0608 48.42C43.7675 49.2835 45.6956 47.6845 45.2027 45.8143C45.053 45.2463 44.4017 44.5448 38.6408 38.7462C32.34 32.4043 32.2451 32.3004 32.2451 31.7428C32.2451 31.4314 32.3403 31.0402 32.4567 30.8733C32.7591 30.4399 33.5082 30.2178 34.0203 30.4095C34.2523 30.4965 37.6732 33.8127 41.9622 38.1087C48.4908 44.6479 49.5764 45.6787 50.0951 45.8307C51.7121 46.3046 53.2838 44.7036 52.8071 43.0682C52.6676 42.5891 51.6088 41.4582 46.2452 36.0579L39.8498 29.6189V29.0121C39.8498 28.1903 40.4285 27.5787 41.2063 27.5787C41.722 27.5787 41.9712 27.8111 48.8569 34.7065C54.9293 40.7876 56.0606 41.8598 56.5597 42.0073C58.6076 42.6122 60.1932 40.4148 59.0175 38.6007C58.7935 38.2549 53.7248 33.0736 47.7539 27.0868L36.8976 16.2016L34.6066 18.4744C31.7941 21.2644 31.5119 21.4276 29.4989 21.4276C28.2423 21.4276 28.0043 21.385 27.2893 21.0325C26.2577 20.5239 25.177 19.3464 24.7912 18.3109C24.3923 17.2409 24.3964 15.7054 24.8007 14.6202C25.0314 14.0012 25.3774 13.5249 26.2794 12.5854C26.927 11.9109 27.4569 11.3177 27.4569 11.2674C27.4569 11.217 26.0469 11.177 24.3235 11.1786L21.19 11.1815L16.3002 19.6982ZM18.3735 31.7014C17.9314 31.9443 16.332 33.5471 16.1097 33.9702C15.8308 34.5008 15.859 35.4783 16.1701 36.0653C16.6544 36.979 17.9396 37.43 18.9628 37.0452C19.4295 36.8697 21.0524 35.3119 21.3414 34.7621C21.819 33.8536 21.4537 32.4832 20.5739 31.8829C20.0209 31.5055 18.8985 31.4131 18.3735 31.7014ZM23.8658 36.5661C23.3422 36.8369 21.3476 38.7977 20.9578 39.4246C20.2931 40.4941 20.7466 42.0026 21.9035 42.5698C23.1153 43.1638 23.7127 42.9073 25.5739 40.994C26.8012 39.7322 27.0144 39.443 27.1009 38.9225C27.229 38.1504 26.7588 37.1271 26.063 36.6641C25.4919 36.2842 24.4967 36.2398 23.8658 36.5661ZM29.6397 41.5795C28.9598 41.7253 28.727 41.903 27.2945 43.3703C26.0831 44.6109 25.9247 44.8328 25.8388 45.4078C25.5977 47.022 27.062 48.3524 28.6173 47.9318C29.0753 47.8081 29.5212 47.469 30.531 46.4771C32.0476 44.9874 32.2452 44.6718 32.2445 43.7413C32.2434 42.3253 30.9947 41.2888 29.6397 41.5795ZM34.3575 46.8845C33.7298 47.1651 31.6056 49.2602 31.2488 49.9504C30.7474 50.9204 31.0358 52.1475 31.9192 52.8034C32.3253 53.1049 33.3017 53.2569 33.8864 53.1095C34.3806 52.9849 37.001 50.4306 37.2617 49.8192C38.0386 47.9973 36.1462 46.0848 34.3575 46.8845Z" fill="black"/>
</svg>
