<svg width="17" height="16" viewBox="0 0 17 16" fill="none" xmlns="http://www.w3.org/2000/svg">
<path d="M8.5 1.5C4.91031 1.5 2 4.41031 2 8C2 11.5897 4.91031 14.5 8.5 14.5C12.0897 14.5 15 11.5897 15 8C15 4.41031 12.0897 1.5 8.5 1.5ZM11.5 9H8.5C8.36739 9 8.24021 8.94732 8.14645 8.85355C8.05268 8.75979 8 8.63261 8 8.5V4C8 3.86739 8.05268 3.74021 8.14645 3.64645C8.24021 3.55268 8.36739 3.5 8.5 3.5C8.63261 3.5 8.75979 3.55268 8.85355 3.64645C8.94732 3.74021 9 3.86739 9 4V8H11.5C11.6326 8 11.7598 8.05268 11.8536 8.14645C11.9473 8.24021 12 8.36739 12 8.5C12 8.63261 11.9473 8.75979 11.8536 8.85355C11.7598 8.94732 11.6326 9 11.5 9Z" fill="#7C7C7C"/>
</svg>
