<svg width="61" height="56" viewBox="0 0 61 56" fill="none" xmlns="http://www.w3.org/2000/svg">
<path fill-rule="evenodd" clip-rule="evenodd" d="M23.4076 0.103318C22.6063 0.29998 22.1485 0.661392 21.751 1.41104C21.5477 1.79444 21.529 2.21388 21.4959 7.14661L21.4601 12.4685L20.9096 12.8174C20.0278 13.3764 18.3397 15.094 17.6595 16.1245C16.8758 17.3118 16.3838 18.4051 15.984 19.848C15.7027 20.8633 15.673 21.1632 15.6748 22.98C15.6764 24.6826 15.7164 25.1366 15.9371 25.9555C16.3186 27.3719 16.9069 28.6954 17.6666 29.8462L18.3376 30.8627L17.3576 31.8556C16.8188 32.4017 16.3199 32.8485 16.2491 32.8485C16.1784 32.8485 15.9925 32.7087 15.8361 32.5378C15.2379 31.8839 14.0049 31.6953 13.1729 32.1306C12.9334 32.2559 10.0468 35.0833 6.74763 38.424C-0.0545939 45.312 0.196085 44.992 0.194444 46.7944C0.193623 47.6542 0.240406 47.8954 0.51899 48.4684C0.914942 49.2828 1.62266 50.0179 2.41456 50.4376C2.9396 50.7158 3.13834 50.7513 4.1787 50.7523C5.17602 50.7534 5.43878 50.7113 5.93744 50.4705C6.39577 50.2491 7.83477 48.8701 12.5314 44.1515C15.8356 40.8318 18.6227 37.9384 18.7247 37.7215C19.1658 36.7845 19.0293 35.8497 18.3389 35.0795L17.9141 34.6056L18.9607 33.5531L20.0074 32.5008L20.803 33.0541L21.5988 33.6076L21.5851 43.91C21.5717 53.9481 21.5773 54.2241 21.8028 54.6694C22.0671 55.1913 22.298 55.4192 22.88 55.7327C23.2662 55.9408 23.6597 55.9538 29.5747 55.9538C36.3335 55.9538 36.3088 55.956 36.5853 55.3443C36.7944 54.8815 36.7378 54.3977 36.4325 54.0399L36.1496 53.7083L30.0131 53.6492L23.8766 53.5901L23.8466 44.1513L23.8166 34.7124L24.1397 34.7702C24.3175 34.802 24.8586 34.9212 25.3422 35.035C26.4982 35.3071 29.0523 35.3172 30.2244 35.0542C32.8669 34.4614 34.8578 33.3263 36.693 31.3666C38.198 29.7592 39.0881 28.1267 39.6631 25.9187C39.894 25.0318 39.9359 24.5806 39.9359 22.98C39.9359 20.9403 39.753 19.9115 39.1012 18.2861C38.3057 16.3023 36.5653 14.1263 34.7786 12.8812C31.875 10.858 28.151 10.1687 24.8382 11.0414C24.4643 11.1399 24.0811 11.2205 23.9867 11.2205C23.8386 11.2205 23.8194 10.6177 23.8459 6.81805L23.8766 2.41562L40.8485 2.38572L57.8203 2.3557V28.0025V53.6492H51.7181H45.6157L45.3327 53.9345C44.7855 54.4861 44.8306 55.2537 45.437 55.7102C45.7522 55.9476 45.9146 55.9548 51.7025 55.9909C55.8702 56.0171 57.8304 55.9875 58.2674 55.8921C59.0202 55.7279 59.6444 55.2159 59.9553 54.5072C60.1682 54.0221 60.175 53.1814 60.1685 27.996C60.161 -0.702235 60.2222 1.55346 59.4298 0.728285C58.686 -0.0464232 59.6632 -0.00848564 40.8271 0.00486937C31.4399 0.011606 23.6011 0.0558075 23.4076 0.103318ZM38.4478 10.8124C37.7783 11.1815 37.6715 12.0842 38.2306 12.6478L38.5734 12.9933H46.27C51.3245 12.9933 54.0439 12.9515 54.192 12.8715C54.4765 12.7181 54.7718 12.1519 54.7718 11.76C54.7718 11.5954 54.6179 11.2869 54.4297 11.0746L54.0877 10.6886L46.4274 10.6624C39.8273 10.6398 38.7231 10.6606 38.4478 10.8124ZM26.4561 13.1165C23.0753 13.6455 20.2047 15.7915 18.8494 18.8033C18.1336 20.3937 18.0135 21.0071 18.0198 23.0391C18.0252 24.7752 18.0448 24.9296 18.398 25.9937C19.503 29.3226 22.0291 31.715 25.4008 32.6252C26.1229 32.8201 26.6763 32.8785 27.8045 32.8785C29.4932 32.8785 30.5866 32.6392 32.015 31.957C38.0081 29.0948 39.5482 21.1899 35.0715 16.2685C33.2926 14.313 30.8901 13.1928 28.1863 13.0577C27.6217 13.0295 26.843 13.056 26.4561 13.1165ZM42.6861 17.8298C42.1163 18.4042 42.2728 19.3206 43.0002 19.6685C43.3408 19.8315 44.0647 19.8509 48.7389 19.8219L54.0877 19.7889L54.4429 19.3881C54.7515 19.0399 54.7898 18.9234 54.7336 18.5019C54.6907 18.1789 54.5664 17.9275 54.3622 17.7505L54.0552 17.4843H48.542H43.0288L42.6861 17.8298ZM42.9883 24.3562C42.2638 24.7636 42.1187 25.6673 42.6861 26.2392L43.0288 26.5846H48.4258C54.2225 26.5846 54.2965 26.5773 54.6047 25.9766C54.8588 25.4813 54.8068 25.0914 54.4298 24.666L54.0877 24.28L48.6553 24.2521C44.8279 24.2325 43.1535 24.2632 42.9883 24.3562ZM39.6171 31.374C39.042 31.9538 39.1725 32.8741 39.8811 33.2344C40.2616 33.4278 40.7938 33.4407 47.1897 33.4116L54.0877 33.3803L54.4429 32.9794C54.7515 32.6313 54.7898 32.5147 54.7336 32.0933C54.6907 31.7703 54.5664 31.5189 54.3622 31.3419L54.0552 31.0757H46.9842H39.9132L39.6171 31.374ZM13.1166 35.3031L12.0933 36.3395L13.324 37.5758L14.5549 38.8123L15.6105 37.7532L16.6662 36.694L15.4663 35.4804C14.8063 34.8129 14.2379 34.2667 14.2032 34.2667C14.1685 34.2667 13.6795 34.7331 13.1166 35.3031ZM27.6118 37.9295C26.917 38.2121 26.7598 39.2594 27.3264 39.8306L27.6691 40.176H40.7574C54.9789 40.176 54.3257 40.2065 54.6317 39.5293C54.8701 39.002 54.7997 38.6441 54.3732 38.2141L53.9745 37.8123L40.9188 37.8197C33.7382 37.8239 27.7501 37.8733 27.6118 37.9295ZM6.50164 41.9767C2.35078 46.1754 2.33073 46.2015 2.53404 47.1342C2.79422 48.3284 4.25174 48.851 5.24567 48.1065C5.49717 47.9181 7.31184 46.1365 9.27834 44.1473L12.8537 40.5306L11.621 39.288L10.3882 38.0454L6.50164 41.9767ZM27.3059 44.9654C27.1432 45.1295 26.9875 45.3821 26.96 45.5269C26.8761 45.9698 27.0909 46.5459 27.4214 46.7643C27.7153 46.9583 28.5649 46.9737 40.6664 47.0033C54.7272 47.0376 54.1637 47.0625 54.6018 46.3883C54.8741 45.9696 54.7595 45.2839 54.3589 44.933L54.0552 44.6671H40.8286H27.602L27.3059 44.9654ZM0.169939 46.7353C0.170525 47.1253 0.192451 47.2706 0.218597 47.0582C0.244627 46.8458 0.244158 46.5267 0.217425 46.3491C0.190575 46.1715 0.169235 46.3453 0.169939 46.7353ZM40.0564 53.9345C39.6576 54.3366 39.5758 54.7733 39.8079 55.2637C40.0289 55.7308 40.5914 56.024 41.0842 55.929C41.5444 55.8404 41.9916 55.2611 41.9916 54.7538C41.9916 53.805 40.7194 53.2663 40.0564 53.9345Z" fill="black"/>
</svg>
