<svg width="66" height="56" viewBox="0 0 66 56" fill="none" xmlns="http://www.w3.org/2000/svg">
<path fill-rule="evenodd" clip-rule="evenodd" d="M20.2843 0.0644344C8.44021 1.09665 -0.421917 9.37706 0.0155151 19.0024C0.210245 23.2849 1.99183 27.045 5.35342 30.2683C7.96177 32.7693 10.896 34.4598 14.595 35.5928L15.9984 36.0227L15.915 38.2878C15.8691 39.5335 15.7414 41.6525 15.6311 42.9965C15.4723 44.9355 15.4631 45.5182 15.5867 45.8177C15.7522 46.2187 16.2903 46.5714 16.7366 46.5714C17.5061 46.5714 20.0469 44.8067 21.7673 43.0775C23.292 41.545 24.2498 40.2894 25.5844 38.0734L26.4998 36.5534L27.9702 36.2568C28.7787 36.0939 29.5997 35.9048 29.7943 35.8368C30.1159 35.7244 30.1553 35.7451 30.2248 36.062C30.8801 39.0535 32.5203 41.7458 34.9212 43.7713C37.3921 45.8556 40.1277 47.1792 43.474 47.9095L44.7565 48.1893L45.456 49.3542C46.4635 51.032 47.4067 52.2189 48.7784 53.5348C50.1028 54.8056 51.662 55.8609 52.391 55.9795C52.9685 56.0736 53.444 55.8404 53.7042 55.3354C53.8681 55.0171 53.8732 54.7167 53.74 53.1951C53.6547 52.2216 53.5785 50.589 53.5705 49.5671L53.5559 47.709L54.7121 47.3295C60.8037 45.3292 65.0919 40.7165 65.8784 35.3176C66.8235 28.8304 62.1803 22.5015 54.6718 20.0423C52.247 19.2479 50.9965 19.0671 47.9302 19.0671H45.2704L45.1821 17.7786C44.8737 13.2855 43.2074 9.80095 39.7851 6.49254C36.0942 2.92462 30.8861 0.647784 25.1848 0.109995C23.8565 -0.0154249 21.4554 -0.0376874 20.2843 0.0644344ZM19.9922 2.70316C16.4138 3.05043 12.4975 4.43923 9.51612 6.41864C8.03837 7.39973 5.74366 9.70168 4.82379 11.1259C1.7597 15.8701 1.82456 21.207 5.00368 25.927C7.44748 29.5554 11.9379 32.4178 16.9988 33.5729C17.6926 33.7314 17.9643 33.8635 18.2174 34.1655C18.5318 34.5404 18.5433 34.6175 18.5433 36.3612C18.5433 37.3551 18.4814 39.1621 18.4058 40.3767C18.3303 41.5912 18.2944 42.6113 18.3264 42.6433C18.4236 42.7409 19.8477 41.4324 20.7171 40.4467C21.8287 39.1864 23.0021 37.4718 23.9071 35.7852C24.6678 34.3678 25.0131 34.0165 25.6458 34.0165C25.7999 34.0165 26.6385 33.8718 27.5091 33.6947C38.9472 31.3704 45.4382 21.6724 41.3785 12.9731C40.6264 11.3613 39.6498 10.0009 38.2231 8.57743C33.8592 4.22334 27.0242 2.02106 19.9922 2.70316ZM12.7767 10.1623C12.6195 10.1929 12.344 10.3932 12.1642 10.6077C11.7043 11.1562 11.7233 11.789 12.2143 12.2819L12.5913 12.6602H19.7989H27.0064L27.353 12.2972C27.7284 11.904 27.8211 11.1887 27.5602 10.6993C27.2348 10.0892 26.996 10.0704 19.8048 10.0892C16.0966 10.0989 12.9339 10.1318 12.7767 10.1623ZM31.1292 10.2692C30.6003 10.5461 30.4164 10.838 30.4118 11.4082C30.4035 12.4027 31.5603 13.0106 32.4046 12.4555C33.1884 11.9399 33.041 10.6316 32.1574 10.2611C31.6012 10.0278 31.5902 10.028 31.1292 10.2692ZM12.6612 16.67C12.5115 16.7307 12.2592 16.9455 12.1009 17.1473C11.7168 17.6362 11.8036 18.4223 12.288 18.8403L12.6256 19.1318H22.3594C33.2162 19.1318 32.5865 19.1857 32.8712 18.2325C32.9891 17.8373 32.9772 17.6765 32.8054 17.343C32.3762 16.5101 32.8015 16.5424 22.3863 16.5513C17.1873 16.5559 12.811 16.6093 12.6612 16.67ZM45.5198 21.7152C45.1427 21.7748 44.8195 21.8442 44.8015 21.8692C44.7836 21.8942 44.6679 22.2932 44.5445 22.7559C44.2258 23.9506 43.2032 26.0396 42.2495 27.4438C41.3562 28.7591 39.4592 30.7537 38.146 31.758C37.0201 32.6194 34.9518 33.856 33.7151 34.4074L32.7051 34.8578L32.7717 35.4403C32.8595 36.206 33.1674 37.1204 33.6909 38.1702C34.2415 39.2743 34.7474 39.9724 35.7334 40.9889C38.0796 43.407 41.1521 44.929 44.9156 45.5375C46.3953 45.7766 46.4259 45.7997 47.2802 47.3274C48.1872 48.9492 49.3226 50.5038 50.3043 51.4686L51.0072 52.1591L50.9419 49.1991L50.8767 46.2391L51.1846 45.8846C51.4161 45.6181 51.7807 45.4534 52.6532 45.2205C58.1099 43.7652 61.9225 40.4336 63.1138 36.0799C63.458 34.8218 63.4325 32.4421 63.0605 31.1313C61.8012 26.6927 57.5387 23.171 51.9754 21.9725C50.5797 21.6718 46.7561 21.5195 45.5198 21.7152ZM12.6612 23.1416C12.5115 23.2023 12.2592 23.4171 12.1009 23.6188C11.7168 24.1078 11.8036 24.8939 12.288 25.3119L12.6256 25.6034H22.4017H32.1779L32.5097 25.2704C32.9516 24.8268 33.0556 24.3003 32.7993 23.803C32.3771 22.9833 32.7851 23.014 22.3863 23.0229C17.1873 23.0275 12.811 23.0809 12.6612 23.1416ZM43.4601 32.3995C42.8893 32.6484 42.588 33.3442 42.7879 33.9523C43.0813 34.8445 44.1871 35.0912 44.8611 34.4148C45.5219 33.7516 45.2948 32.6439 44.4365 32.3436C43.9519 32.174 43.9807 32.1724 43.4601 32.3995ZM47.4578 32.3995C46.887 32.6484 46.5858 33.3442 46.7857 33.9523C47.0791 34.8445 48.1849 35.0912 48.8588 34.4148C49.5196 33.7516 49.2925 32.6439 48.4343 32.3436C47.9497 32.174 47.9784 32.1724 47.4578 32.3995ZM51.4556 32.3995C50.8848 32.6484 50.5835 33.3442 50.7834 33.9523C51.0768 34.8445 52.1826 35.0912 52.8566 34.4148C53.5174 33.7516 53.2903 32.6439 52.4321 32.3436C51.9474 32.174 51.9762 32.1724 51.4556 32.3995Z" fill="black"/>
</svg>
