<svg width="60" height="60" viewBox="0 0 60 60" fill="none" xmlns="http://www.w3.org/2000/svg">
<g opacity="0.2" clip-path="url(#clip0_56034_2220)">
<path d="M53.6064 8.36035C54.0609 8.36063 54.5012 8.51854 54.8525 8.80664C55.204 9.09498 55.4451 9.49659 55.5342 9.94238L59.4688 29.6143C59.5258 29.8995 59.5187 30.1943 59.4482 30.4766C59.3778 30.7588 59.2459 31.0221 59.0615 31.2471C58.8771 31.4721 58.6447 31.6528 58.3818 31.7773C58.119 31.9019 57.8319 31.9666 57.541 31.9668H55.5732V55.5742H59.5078V59.5078H0.492188V55.5742H4.42578V31.9668H2.45898C2.1681 31.9666 1.88104 31.9019 1.61816 31.7773C1.3553 31.6528 1.12285 31.472 0.938477 31.2471C0.754133 31.0221 0.622224 30.7587 0.551758 30.4766C0.481306 30.1943 0.474227 29.8995 0.53125 29.6143L4.46582 9.94238L4.50586 9.77734C4.61644 9.39797 4.83896 9.05894 5.14648 8.80664C5.49795 8.5183 5.93895 8.36063 6.39355 8.36035H53.6064ZM8.36035 55.5742H51.6396V31.9668H47.7051V43.7705H12.2949V31.9668H8.36035V55.5742ZM16.2295 39.8359H43.7705V31.9668H16.2295V39.8359ZM4.85742 28.0332H55.1426L51.9951 12.2949H8.00488L4.85742 28.0332ZM55.5732 0.492188V4.42578H4.42578V0.492188H55.5732Z" fill="black"/>
<path d="M53.6064 8.36035L53.6066 8.11035H53.6064V8.36035ZM54.8525 8.80664L55.0111 8.61336L55.011 8.61331L54.8525 8.80664ZM55.5342 9.94238L55.289 9.99138L55.289 9.99141L55.5342 9.94238ZM59.4688 29.6143L59.7139 29.5653L59.7139 29.5652L59.4688 29.6143ZM59.4482 30.4766L59.6908 30.5371L59.6908 30.5371L59.4482 30.4766ZM59.0615 31.2471L59.2549 31.4055L59.2549 31.4055L59.0615 31.2471ZM58.3818 31.7773L58.4889 32.0033L58.4889 32.0033L58.3818 31.7773ZM57.541 31.9668L57.541 32.2168L57.5412 32.2168L57.541 31.9668ZM55.5732 31.9668V31.7168H55.3232V31.9668H55.5732ZM55.5732 55.5742H55.3232V55.8242H55.5732V55.5742ZM59.5078 55.5742H59.7578V55.3242H59.5078V55.5742ZM59.5078 59.5078V59.7578H59.7578V59.5078H59.5078ZM0.492188 59.5078H0.242188V59.7578H0.492188V59.5078ZM0.492188 55.5742V55.3242H0.242188V55.5742H0.492188ZM4.42578 55.5742V55.8242H4.67578V55.5742H4.42578ZM4.42578 31.9668H4.67578V31.7168H4.42578V31.9668ZM2.45898 31.9668L2.45883 32.2168H2.45898V31.9668ZM1.61816 31.7773L1.51112 32.0033L1.51114 32.0033L1.61816 31.7773ZM0.938477 31.2471L0.745103 31.4055L0.745117 31.4055L0.938477 31.2471ZM0.551758 30.4766L0.309199 30.5371L0.309206 30.5371L0.551758 30.4766ZM0.53125 29.6143L0.286105 29.5652L0.286099 29.5653L0.53125 29.6143ZM4.46582 9.94238L4.22267 9.88339L4.22068 9.89335L4.46582 9.94238ZM4.50586 9.77734L4.2656 9.70731L4.26291 9.7184L4.50586 9.77734ZM5.14648 8.80664L4.98792 8.61336L4.98792 8.61336L5.14648 8.80664ZM6.39355 8.36035L6.39355 8.11035L6.3934 8.11035L6.39355 8.36035ZM8.36035 55.5742H8.11035V55.8242H8.36035V55.5742ZM51.6396 55.5742V55.8242H51.8896V55.5742H51.6396ZM51.6396 31.9668H51.8896V31.7168H51.6396V31.9668ZM47.7051 31.9668V31.7168H47.4551V31.9668H47.7051ZM47.7051 43.7705V44.0205H47.9551V43.7705H47.7051ZM12.2949 43.7705H12.0449V44.0205H12.2949V43.7705ZM12.2949 31.9668H12.5449V31.7168H12.2949V31.9668ZM8.36035 31.9668V31.7168H8.11035V31.9668H8.36035ZM16.2295 39.8359H15.9795V40.0859H16.2295V39.8359ZM43.7705 39.8359V40.0859H44.0205V39.8359H43.7705ZM43.7705 31.9668H44.0205V31.7168H43.7705V31.9668ZM16.2295 31.9668V31.7168H15.9795V31.9668H16.2295ZM4.85742 28.0332L4.61228 27.9842L4.55247 28.2832H4.85742V28.0332ZM55.1426 28.0332V28.2832H55.4475L55.3877 27.9842L55.1426 28.0332ZM51.9951 12.2949L52.2403 12.2459L52.2001 12.0449H51.9951V12.2949ZM8.00488 12.2949V12.0449H7.79993L7.75974 12.2459L8.00488 12.2949ZM55.5732 0.492188H55.8232V0.242188H55.5732V0.492188ZM55.5732 4.42578V4.67578H55.8232V4.42578H55.5732ZM4.42578 4.42578H4.17578V4.67578H4.42578V4.42578ZM4.42578 0.492188V0.242188H4.17578V0.492188H4.42578ZM53.6064 8.36035L53.6063 8.61035C54.0028 8.61059 54.3872 8.7484 54.694 8.99997L54.8525 8.80664L55.011 8.61331C54.6151 8.28867 54.1189 8.11066 53.6066 8.11035L53.6064 8.36035ZM54.8525 8.80664L54.694 8.99992C55.0008 9.25163 55.2113 9.60227 55.289 9.99138L55.5342 9.94238L55.7793 9.89338C55.6789 9.39092 55.4072 8.93834 55.0111 8.61336L54.8525 8.80664ZM55.5342 9.94238L55.289 9.99141L59.2236 29.6633L59.4688 29.6143L59.7139 29.5652L55.7793 9.89335L55.5342 9.94238ZM59.4688 29.6143L59.2236 29.6633C59.2734 29.9122 59.2672 30.1696 59.2057 30.416L59.4482 30.4766L59.6908 30.5371C59.7702 30.219 59.7782 29.8869 59.7139 29.5653L59.4688 29.6143ZM59.4482 30.4766L59.2057 30.416C59.1441 30.6625 59.0289 30.8924 58.8681 31.0886L59.0615 31.2471L59.2549 31.4055C59.4628 31.1518 59.6114 30.855 59.6908 30.5371L59.4482 30.4766ZM59.0615 31.2471L58.8682 31.0886C58.7075 31.2847 58.5047 31.4425 58.2748 31.5514L58.3818 31.7773L58.4889 32.0033C58.7848 31.8631 59.0468 31.6595 59.2549 31.4055L59.0615 31.2471ZM58.3818 31.7773L58.2748 31.5514C58.0453 31.6602 57.7947 31.7166 57.5408 31.7168L57.541 31.9668L57.5412 32.2168C57.8691 32.2166 58.1926 32.1436 58.4889 32.0033L58.3818 31.7773ZM57.541 31.9668V31.7168H55.5732V31.9668V32.2168H57.541V31.9668ZM55.5732 31.9668H55.3232V55.5742H55.5732H55.8232V31.9668H55.5732ZM55.5732 55.5742V55.8242H59.5078V55.5742V55.3242H55.5732V55.5742ZM59.5078 55.5742H59.2578V59.5078H59.5078H59.7578V55.5742H59.5078ZM59.5078 59.5078V59.2578H0.492188V59.5078V59.7578H59.5078V59.5078ZM0.492188 59.5078H0.742188V55.5742H0.492188H0.242188V59.5078H0.492188ZM0.492188 55.5742V55.8242H4.42578V55.5742V55.3242H0.492188V55.5742ZM4.42578 55.5742H4.67578V31.9668H4.42578H4.17578V55.5742H4.42578ZM4.42578 31.9668V31.7168H2.45898V31.9668V32.2168H4.42578V31.9668ZM2.45898 31.9668L2.45914 31.7168C2.20528 31.7166 1.95472 31.6601 1.72519 31.5514L1.61816 31.7773L1.51114 32.0033C1.80737 32.1436 2.13092 32.2166 2.45883 32.2168L2.45898 31.9668ZM1.61816 31.7773L1.72521 31.5514C1.49537 31.4425 1.29251 31.2847 1.13184 31.0886L0.938477 31.2471L0.745117 31.4055C0.953189 31.6594 1.21524 31.8631 1.51112 32.0033L1.61816 31.7773ZM0.938477 31.2471L1.13185 31.0886C0.971069 30.8924 0.855873 30.6625 0.79431 30.416L0.551758 30.4766L0.309206 30.5371C0.388576 30.855 0.537198 31.1518 0.745103 31.4055L0.938477 31.2471ZM0.551758 30.4766L0.794317 30.416C0.732803 30.1696 0.726637 29.9122 0.776401 29.6633L0.53125 29.6143L0.286099 29.5653C0.221817 29.8869 0.229808 30.219 0.309199 30.5371L0.551758 30.4766ZM0.53125 29.6143L0.776395 29.6633L4.71097 9.99141L4.46582 9.94238L4.22068 9.89335L0.286105 29.5652L0.53125 29.6143ZM4.46582 9.94238L4.70877 10.0013L4.74881 9.83628L4.50586 9.77734L4.26291 9.7184L4.22287 9.88344L4.46582 9.94238ZM4.50586 9.77734L4.74587 9.8473C4.84245 9.51597 5.03674 9.22004 5.30505 8.99992L5.14648 8.80664L4.98792 8.61336C4.64117 8.89784 4.39043 9.27997 4.26585 9.70739L4.50586 9.77734ZM5.14648 8.80664L5.30505 8.99992C5.61178 8.74827 5.99679 8.61059 6.39371 8.61035L6.39355 8.36035L6.3934 8.11035C5.88111 8.11066 5.38411 8.28832 4.98792 8.61336L5.14648 8.80664ZM6.39355 8.36035V8.61035H53.6064V8.36035V8.11035H6.39355V8.36035ZM8.36035 55.5742V55.8242H51.6396V55.5742V55.3242H8.36035V55.5742ZM51.6396 55.5742H51.8896V31.9668H51.6396H51.3896V55.5742H51.6396ZM51.6396 31.9668V31.7168H47.7051V31.9668V32.2168H51.6396V31.9668ZM47.7051 31.9668H47.4551V43.7705H47.7051H47.9551V31.9668H47.7051ZM47.7051 43.7705V43.5205H12.2949V43.7705V44.0205H47.7051V43.7705ZM12.2949 43.7705H12.5449V31.9668H12.2949H12.0449V43.7705H12.2949ZM12.2949 31.9668V31.7168H8.36035V31.9668V32.2168H12.2949V31.9668ZM8.36035 31.9668H8.11035V55.5742H8.36035H8.61035V31.9668H8.36035ZM16.2295 39.8359V40.0859H43.7705V39.8359V39.5859H16.2295V39.8359ZM43.7705 39.8359H44.0205V31.9668H43.7705H43.5205V39.8359H43.7705ZM43.7705 31.9668V31.7168H16.2295V31.9668V32.2168H43.7705V31.9668ZM16.2295 31.9668H15.9795V39.8359H16.2295H16.4795V31.9668H16.2295ZM4.85742 28.0332V28.2832H55.1426V28.0332V27.7832H4.85742V28.0332ZM55.1426 28.0332L55.3877 27.9842L52.2403 12.2459L51.9951 12.2949L51.75 12.3439L54.8974 28.0822L55.1426 28.0332ZM51.9951 12.2949V12.0449H8.00488V12.2949V12.5449H51.9951V12.2949ZM8.00488 12.2949L7.75974 12.2459L4.61228 27.9842L4.85742 28.0332L5.10257 28.0822L8.25003 12.3439L8.00488 12.2949ZM55.5732 0.492188H55.3232V4.42578H55.5732H55.8232V0.492188H55.5732ZM55.5732 4.42578V4.17578H4.42578V4.42578V4.67578H55.5732V4.42578ZM4.42578 4.42578H4.67578V0.492188H4.42578H4.17578V4.42578H4.42578ZM4.42578 0.492188V0.742188H55.5732V0.492188V0.242188H4.42578V0.492188Z" fill="#F5F5F5"/>
</g>
<defs>
<clipPath id="clip0_56034_2220">
<rect width="60" height="60" fill="white"/>
</clipPath>
</defs>
</svg>
