<svg width="61" height="62" viewBox="0 0 61 62" fill="none" xmlns="http://www.w3.org/2000/svg">
<g opacity="0.2">
<path d="M6.77637 1.27417C8.16184 1.27417 9.53222 1.27454 10.8574 1.29272L10.8564 1.2937C11.8237 1.30316 12.5921 1.48988 13.1055 2.01636C13.6173 2.54137 13.7929 3.31814 13.793 4.29175V30.1628C13.9915 30.0147 14.1835 29.8714 14.25 29.8259C14.5275 29.621 14.777 29.4352 15.0166 29.2498L15.0186 29.2478L18.4297 26.6531C23.7003 22.6434 29.1437 18.4975 34.5508 14.3611L34.5527 14.3591C34.6885 14.2567 34.8533 14.139 35.0322 14.0466C35.2104 13.9546 35.4269 13.8748 35.665 13.8748C35.8177 13.8748 35.9509 13.8816 36.0713 13.9294C36.1329 13.954 36.1796 13.9848 36.1982 13.9968L36.2441 14.0232L36.25 14.0261C36.5208 14.1667 36.733 14.3652 36.8682 14.6453C36.9977 14.9138 37.0416 15.2278 37.0371 15.5779V30.1218C37.1032 30.0748 37.2083 29.9977 37.2803 29.95L37.2988 29.9373C37.4376 29.8398 37.6059 29.7155 37.75 29.6169L41.7549 26.5535L49.6826 20.488C52.349 18.4501 55.028 16.4062 57.6865 14.3875L57.6875 14.3865C58.0475 14.1152 58.5645 13.9294 59.001 13.9294H59.042C59.4342 13.9439 59.7209 14.1596 59.8984 14.4246C60.07 14.6805 60.1505 14.9939 60.1621 15.2791L60.1787 15.8865C60.181 16.0893 60.1807 16.291 60.1807 16.4851V58.8142C60.1807 59.143 60.166 59.4327 60.1143 59.6765C60.0616 59.9243 59.9656 60.1521 59.7852 60.3318C59.6046 60.5114 59.3755 60.6067 59.127 60.6589C58.8824 60.7103 58.5921 60.7253 58.2617 60.7253H2.77246C2.23851 60.7253 1.75825 60.6539 1.43555 60.3259C1.11481 59.9998 1.04495 59.5166 1.04492 58.9783C1.0358 40.7616 1.03613 22.5539 1.03613 4.34644C1.03614 3.34968 1.22692 2.55548 1.75977 2.01831C2.29244 1.48133 3.08522 1.28361 4.08203 1.27417H6.77637ZM57.3408 18.114L57.3086 18.1238C57.2444 18.1687 57.1705 18.2201 57.1494 18.2351C57.0819 18.2872 57.0172 18.3331 56.9639 18.3708C56.9046 18.4128 56.8586 18.4462 56.8164 18.4812L56.8047 18.491L54.5977 20.1785C48.9813 24.4687 43.1825 28.9029 37.4756 33.3015C37.3669 33.3869 37.2659 33.5298 37.1914 33.7058C37.1174 33.8808 37.083 34.0597 37.083 34.1931V34.1941C37.0648 40.689 37.0645 47.2839 37.0645 53.6707V57.947H57.3643V18.0964L57.3408 18.114ZM3.84375 57.947H10.9854V4.09839H3.84375V57.947ZM13.8076 57.906L13.8096 57.9187V57.9197H34.2109V18.1023C34.1755 18.1253 34.1398 18.1501 34.0967 18.1804C34.0575 18.208 34.0089 18.2391 33.959 18.2703L33.96 18.2712C33.747 18.4226 33.5929 18.5214 33.4111 18.657L33.4102 18.656C32.6533 19.2321 31.4474 20.1517 30.4297 20.9275C29.9202 21.3158 29.4579 21.6683 29.123 21.9236C28.9557 22.0512 28.8203 22.1549 28.7266 22.2263C28.6797 22.262 28.6428 22.2895 28.6182 22.3083C28.6061 22.3176 28.5971 22.325 28.5908 22.3298C28.5877 22.3322 28.5846 22.3345 28.583 22.3357L28.5811 22.3367V22.3376C23.9302 25.8849 19.1149 29.55 14.3545 33.1609C14.1307 33.332 13.9946 33.4904 13.9111 33.6531C13.8283 33.8146 13.7833 34.0068 13.7832 34.2654V57.2546C13.7832 57.4199 13.7843 57.5451 13.7998 57.6843L13.8018 57.7048V57.7263L13.8076 57.906Z" fill="black" stroke="black" stroke-width="0.756044"/>
</g>
</svg>
