<svg width="242" height="141" viewBox="0 0 242 141" fill="none" xmlns="http://www.w3.org/2000/svg">
<g opacity="0.1" clip-path="url(#clip0_56034_2229)">
<path fill-rule="evenodd" clip-rule="evenodd" d="M190.831 12.1709C180.367 22.5963 178.397 24.7823 177.104 27.4141L175.593 30.4864L175.434 40.5038L175.275 50.5213L171.731 47.9009C156.514 36.6474 137.326 29.282 118.436 27.4439C83.2144 24.0166 48.2072 38.4015 25.4667 65.6458C15.2701 77.8616 7.29261 93.595 3.62953 108.711C1.32297 118.229 0.743962 123.337 0.736399 134.234C0.728364 145.743 1.39812 151.334 3.99867 161.461C13.5931 198.828 43.5879 228.86 80.853 238.411C91.1815 241.058 96.7263 241.737 108.001 241.737C118.906 241.737 124.194 241.125 134.017 238.725C148.4 235.211 163.042 227.988 175.088 218.464C179.383 215.068 188.599 205.852 191.994 201.558C212.772 175.276 220.352 140.805 212.404 108.736C209.046 95.1878 202.685 81.6623 194.523 70.7141C192.819 68.4288 191.425 66.4872 191.425 66.3997C191.425 66.3123 195.861 66.1719 201.283 66.0878L211.141 65.9356L214.3 64.2813C216.897 62.9219 219.482 60.6158 228.796 51.3475C235.03 45.1439 240.445 39.6195 240.829 39.0712C241.213 38.5234 241.527 37.58 241.527 36.975C241.527 35.5206 240.315 33.2292 239.24 32.6544C238.768 32.4016 232.336 31.7346 224.948 31.1727C217.558 30.6107 211.485 30.1196 211.45 30.0822C211.415 30.0444 210.929 23.9774 210.37 16.5992C209.811 9.22155 209.142 2.78965 208.883 2.30659C208.624 1.82307 207.792 1.10652 207.032 0.713742C203.937 -0.887144 203.94 -0.889507 190.831 12.1709ZM193.452 22.7948C189.046 27.2179 185.98 30.6943 185.535 31.771C184.977 33.1205 184.808 35.4228 184.808 41.6954V49.862L193.49 41.1197L202.172 32.377L201.535 24.5782C201.185 20.2888 200.841 16.5085 200.77 16.1776C200.7 15.8463 197.407 18.824 193.452 22.7948ZM97.3667 36.8842C69.7773 40.2306 45.6955 54.0563 29.4403 75.8822C17.364 92.0966 10.8045 110.825 10.0794 131.162C8.58013 173.197 34.2572 211.52 73.8398 226.324C92.7961 233.414 113.689 234.423 133.281 229.197C149.936 224.754 164.846 216.11 177.244 203.713C192.084 188.873 201.454 170.565 204.97 149.538C206.162 142.409 206.173 126.596 204.991 119.54C201.975 101.538 194.724 85.453 183.546 71.9686L180.319 68.0753L174.795 73.5851L169.271 79.0943L171.041 81.1036C179.474 90.6843 186.836 106.239 189.364 119.818C190.717 127.089 190.593 143.512 189.132 150.305C183.607 176.006 167.619 196.906 144.675 208.42C124.664 218.462 100.469 219.747 79.4058 211.889C50.2902 201.025 29.7022 174.866 25.9564 143.977C25.1595 137.404 25.6567 124.509 26.9428 118.4C29.1043 108.136 33.5231 97.4287 39.0854 88.9785C41.8896 84.7185 42.7451 84.0383 45.2975 84.0383C46.603 84.0383 47.3015 84.3796 48.3126 85.5111C50.3317 87.7709 50.0869 89.3633 46.9976 94.069C42.0546 101.597 38.5172 110.007 36.3648 119.346C34.8069 126.104 34.5724 138.885 35.867 146.462C38.5083 161.922 45.21 174.798 56.4493 186.007C67.0449 196.574 78.616 202.884 93.463 206.19C99.7385 207.587 115.232 207.706 121.636 206.407C142.424 202.188 160.214 189.602 171.097 171.414C175.747 163.643 179.348 153.182 180.595 143.824C181.395 137.822 180.883 124.779 179.635 119.346C176.862 107.273 171.27 95.8089 164.075 87.4414L162.651 85.7871L157.172 91.2397L151.693 96.6923L153.883 99.5112C164.498 113.179 168.248 131.855 163.81 148.944C162.441 154.214 161.215 155.719 158.291 155.719C156.701 155.719 156.106 155.443 154.983 154.186C153.368 152.379 153.33 151.686 154.581 146.996C158.291 133.092 155.489 117.614 147.229 106.394L145.012 103.383L139.623 108.757C136.659 111.713 134.234 114.284 134.234 114.47C134.234 114.656 134.887 115.775 135.684 116.957C137.671 119.9 139.382 124.276 140.182 128.456C143.388 145.215 132.993 161.613 116.265 166.184C112.107 167.32 103.896 167.32 99.738 166.184C89.9592 163.512 81.5568 156.126 77.6399 146.76C72.5802 134.661 75.5948 120.466 85.2459 110.95C95.6354 100.706 112.533 98.7668 124.933 106.396L127.286 107.845L132.651 102.496C135.601 99.5533 138.015 96.9995 138.015 96.8204C138.015 96.6412 136.539 95.513 134.734 94.3129C120.427 84.8021 102.619 83.5671 87.129 91.0119C60.9207 103.609 51.7686 136.175 67.5719 160.601C77.3218 175.67 94.9557 184.222 112.553 182.417C118.205 181.837 121.348 181.032 127.34 178.63C131.502 176.961 132.201 176.809 133.601 177.271C135.589 177.927 136.597 179.35 136.597 181.5C136.597 183.808 135.574 185.07 132.427 186.643C122.448 191.632 107.333 193.42 96.1851 190.93C73.0816 185.771 55.5896 167.768 51.2227 144.653C50.2169 139.33 50.223 129.581 51.235 124.223C53.8734 110.256 61.2265 98.002 72.2157 89.2579C92.0569 73.4702 120.763 72.6383 141.144 87.2609C143.094 88.6599 144.84 89.8047 145.024 89.8047C145.556 89.8047 155.503 79.679 155.503 79.1369C155.503 78.5111 150.109 74.4363 145.814 71.8173C139.064 67.701 130.722 64.4651 121.945 62.5584C118.755 61.8655 115.881 61.6855 108.001 61.6836C97.5435 61.6817 92.8089 62.3377 85.7403 64.77C81.8683 66.102 80.0992 65.9928 78.4241 64.3177C76.61 62.5036 76.5004 59.7528 78.1755 58.0781C79.4894 56.7642 85.158 54.8343 91.9312 53.3951C98.6793 51.961 112.216 51.5947 119.403 52.6516C133.757 54.7634 146.127 59.8865 157.531 68.443L162.762 72.3689L168.099 67.0468C174.284 60.88 174.298 61.8556 167.958 56.8932C155.552 47.1829 140.644 40.6225 124.518 37.7771C118.1 36.6446 103.344 36.1592 97.3667 36.8842ZM200.297 48.0838L191.671 56.7188H200.075C207.455 56.7188 208.692 56.6077 210.232 55.807C212.789 54.477 226.423 40.657 225.214 40.6196C224.697 40.6036 220.821 40.3337 216.599 40.0194L208.923 39.4484L200.297 48.0838ZM59.9205 67.3578C57.2193 68.8727 56.792 72.463 59.0452 74.7161C62.3807 78.0516 68.1093 74.6291 66.6403 70.1786C66.3628 69.3378 65.7446 68.2956 65.2667 67.8631C64.027 66.741 61.4538 66.498 59.9205 67.3578ZM102.393 111.794C90.4541 114.813 82.6435 127.146 85.1273 139.056C86.5353 145.807 91.7605 152.503 97.9022 155.425C106.987 159.748 117.199 157.97 124.35 150.819C130.325 144.845 132.573 137.152 130.685 129.144C129.992 126.204 127.893 121.473 127.283 121.473C127.107 121.473 123.311 125.089 118.846 129.508C110.923 137.348 110.679 137.543 108.737 137.543C106.035 137.543 103.984 135.583 103.984 133.002C103.984 131.332 104.482 130.722 112.137 123.01C121.335 113.745 121.092 114.44 115.829 112.44C112.403 111.139 106.17 110.839 102.393 111.794ZM145.691 164.742C144.547 165.543 143.749 167.905 144.064 169.554C144.422 171.428 146.447 172.992 148.514 172.992C152.579 172.992 154.722 168.086 151.894 165.258C150.435 163.798 147.399 163.546 145.691 164.742Z" fill="#222222"/>
</g>
<defs>
<clipPath id="clip0_56034_2229">
<rect width="242" height="141" fill="white"/>
</clipPath>
</defs>
</svg>
