<svg width="242" height="141" viewBox="0 0 242 141" fill="none" xmlns="http://www.w3.org/2000/svg">
<g opacity="0.1" clip-path="url(#clip0_56034_2227)">
<path fill-rule="evenodd" clip-rule="evenodd" d="M118.689 0.659828C116.363 1.94876 116.308 2.39495 116.29 20.2297C116.277 33.7703 116.401 37.1598 116.947 38.2166C118.574 41.3621 123.426 41.3621 125.053 38.2166C125.953 36.4758 126.051 4.5375 125.162 2.58637C124.127 0.314789 120.993 -0.617762 118.689 0.659828ZM29.1927 36.6616C27.4126 37.6277 26.3284 39.861 26.724 41.7464C27.1782 43.9093 48.2587 64.9898 50.4216 65.444C53.5505 66.101 56.6535 62.9933 55.9833 59.8747C55.7418 58.7521 53.0193 55.704 45.2001 47.8016C35.7394 38.2398 32.9366 35.8831 31.0923 35.9408C30.759 35.9512 29.904 36.2754 29.1927 36.6616ZM208.63 36.6668C207.823 37.0648 202.478 42.1113 196.752 47.8815C185.551 59.1681 184.98 59.9952 186.441 62.8207C187.539 64.9439 189.717 65.936 191.866 65.2923C194.286 64.5667 214.8 43.9277 215.268 41.7464C215.683 39.8189 214.572 37.6017 212.711 36.6389C210.995 35.7517 210.477 35.7555 208.63 36.6668ZM111.074 55.3532C87.6352 57.6853 63.0873 69.0782 41.2832 87.743C28.4941 98.6911 12.2891 117.279 12.2891 121C12.2891 123.735 20.6551 134.169 31.633 145.125C39.6105 153.087 47.2453 159.52 55.3008 165.067C73.0282 177.273 92.7555 184.823 111.747 186.67C139.992 189.416 169.538 179.332 196.538 157.731C210.122 146.863 229.711 125.173 229.711 121C229.711 116.817 210.107 95.106 196.538 84.2633C169.342 62.531 139.703 52.505 111.074 55.3532ZM111.074 64.8035C100.046 66.0476 88.5403 69.5939 76.8066 75.366C62.7929 82.2597 50.7567 91.052 38.2771 103.512C30.7302 111.046 23.0028 120.138 23.2429 121.2C23.5449 122.535 31.987 132.225 38.5106 138.725C50.8243 150.993 62.8978 159.792 76.8066 166.634C106.866 181.421 135.568 181.407 165.375 166.591C183.909 157.379 201.06 143.305 215.927 125.112C217.529 123.151 218.84 121.301 218.84 121C218.84 119.431 205.335 104.506 197.966 97.9311C190.527 91.2936 186.917 88.4605 180.082 83.8984C157.473 68.8055 133.762 62.245 111.074 64.8035ZM113.372 79.1666C108.301 80.1304 104.581 81.614 103.641 83.0481C102.358 85.0058 102.699 87.4258 104.481 89.0187C106.186 90.5416 107.404 90.5534 112.492 89.0957C127.204 84.8801 143.554 92.3325 150.51 106.423C156.82 119.207 154.589 133.597 144.705 143.862C132.098 156.955 111.626 157.466 98.5176 145.014C90.7382 137.625 87.3871 128.881 88.1211 117.889C88.5351 111.691 88.0738 110.629 84.4608 109.468C82.8855 108.961 80.3776 110.43 79.5306 112.357C78.4127 114.9 78.4231 126.113 79.5476 130.609C83.5132 146.459 95.5408 158.487 111.391 162.452C116.266 163.672 126.652 163.535 131.635 162.185C146.941 158.039 158.592 146.1 162.448 130.609C163.551 126.18 163.551 115.82 162.448 111.391C158.575 95.8344 146.795 83.8209 131.492 79.8222C126.661 78.5602 118.181 78.253 113.372 79.1666ZM90.3293 93.3005C86.2319 95.5716 87.9462 102.094 92.6406 102.094C95.0356 102.094 97.3672 99.7848 97.3672 97.413C97.3672 93.8643 93.4456 91.5729 90.3293 93.3005ZM116.566 102.589C113.575 103.341 109.318 105.86 107.251 108.102C106.19 109.253 104.648 111.616 103.826 113.352C102.471 116.212 102.33 116.936 102.33 121.025C102.33 125.294 102.427 125.736 104.113 129.147C106.219 133.408 108.936 136.046 113.438 138.2C116.209 139.526 116.949 139.67 121 139.67C125.061 139.67 125.792 139.527 128.648 138.174C133.042 136.092 135.779 133.413 137.905 129.111C139.573 125.736 139.67 125.289 139.67 121C139.67 116.711 139.573 116.264 137.905 112.889C134.711 106.427 129.037 102.634 122.063 102.303C120.049 102.207 117.575 102.336 116.566 102.589ZM117.791 112.053C115.539 112.742 112.646 115.837 111.996 118.252C110.864 122.454 112.546 126.871 116.124 129.095C118.805 130.762 123.42 130.694 126.057 128.949C129.008 126.996 130.217 124.686 130.217 121C130.217 117.361 129.01 115.005 126.192 113.141C124.165 111.799 120.269 111.294 117.791 112.053ZM49.3444 181.772C48.538 182.17 43.1932 187.217 37.4665 192.987C26.2655 204.274 25.6945 205.101 27.156 207.926C28.2535 210.049 30.4315 211.041 32.5807 210.398C35.0011 209.672 55.5149 189.033 55.9833 186.852C56.3973 184.924 55.2871 182.707 53.4258 181.744C51.71 180.857 51.192 180.861 49.3444 181.772ZM188.478 181.767C187.766 182.153 186.849 183.117 186.439 183.91C184.98 186.731 185.554 187.561 196.76 198.854C202.491 204.628 207.912 209.701 208.805 210.125C210.224 210.798 210.649 210.814 212.154 210.25C214.268 209.459 215.741 206.871 215.246 204.819C214.837 203.124 194.682 182.618 192.504 181.682C190.622 180.872 190.108 180.883 188.478 181.767ZM118.689 202.011C116.363 203.3 116.308 203.747 116.29 221.581C116.272 239.685 116.35 240.292 118.86 241.435C121.285 242.54 123.928 241.743 125.053 239.568C125.953 237.827 126.051 205.889 125.162 203.938C124.127 201.666 120.993 200.734 118.689 202.011Z" fill="#222222"/>
</g>
<defs>
<clipPath id="clip0_56034_2227">
<rect width="242" height="141" fill="white"/>
</clipPath>
</defs>
</svg>
