<svg width="120" height="123" viewBox="0 0 120 123" fill="none" xmlns="http://www.w3.org/2000/svg">
<g clip-path="url(#clip0_57047_3882)">
<path d="M114.294 54.2454C114.291 54.2422 114.287 54.2406 114.282 54.2412L113.081 54.3974C111.726 54.5735 110.491 53.6175 110.249 52.2731C109.699 49.2197 108.883 46.2613 107.824 43.4225C107.469 42.4707 107.911 41.3958 108.85 41.0066C109.789 40.6169 110.237 39.5376 109.815 38.6122C108.324 35.3427 106.516 32.2172 104.414 29.2895C103.822 28.4649 102.665 28.3161 101.861 28.9347C101.055 29.5539 99.9024 29.4001 99.2554 28.6166C97.1683 26.0897 94.8412 23.7627 92.3143 21.6756C91.5309 21.0286 91.3771 19.876 91.9963 19.0704C92.6148 18.2656 92.466 17.1091 91.6414 16.5171C88.714 14.4154 85.5887 12.6068 82.3195 11.1163C81.3937 10.6942 80.3139 11.1423 79.9241 12.0821C79.535 13.0203 78.4605 13.4626 77.5089 13.1078C74.4738 11.976 71.3064 11.1175 68.0334 10.5721C67.0273 10.4045 66.3128 9.48159 66.4443 8.47017C66.5756 7.46007 65.8641 6.53134 64.8502 6.43321C61.2877 6.0884 57.654 6.08835 54.0915 6.43304C53.0767 6.53123 52.3645 7.46083 52.4959 8.47188C52.6274 9.48291 51.9142 10.4059 50.9087 10.5744C47.6349 11.123 44.4669 11.9775 41.4313 13.1081C40.4795 13.4626 39.405 13.0203 39.0159 12.0821C38.6261 11.1423 37.5463 10.6942 36.6206 11.1163C33.3517 12.6066 30.2269 14.4149 27.2997 16.5163C26.4745 17.1087 26.3256 18.2661 26.9446 19.0715C27.5636 19.8769 27.4107 21.0289 26.628 21.6763C24.1003 23.7671 21.7725 26.0906 19.6849 28.6168C19.0376 29.4 17.8851 29.5539 17.0794 28.9347C16.2746 28.3161 15.1181 28.4649 14.5261 29.2895C12.4246 32.2167 10.6161 35.3417 9.12571 38.6106C8.70314 39.5375 9.15045 40.6186 10.0905 41.0109C11.0294 41.4027 11.4708 42.4794 11.1151 43.4326C9.98447 46.4622 9.12668 49.6305 8.5816 52.8977C8.41375 53.9038 7.49069 54.6182 6.47921 54.4867C5.46903 54.3553 4.54023 55.0668 4.44219 56.0808C4.26979 57.8638 4.18359 59.6693 4.18359 61.4653C4.18359 63.2618 4.26985 65.0631 4.44236 66.8479C4.54045 67.8627 5.47003 68.5751 6.48113 68.4437C7.49204 68.3122 8.41494 69.0253 8.58341 70.0307C9.13176 73.3032 9.98592 76.4695 11.1159 79.4995C11.4709 80.4513 11.0288 81.5262 10.0905 81.9154C9.15104 82.305 8.70313 83.3844 9.12502 84.3098C10.6154 87.5788 12.4238 90.7039 14.5253 93.6313C15.1177 94.4565 16.2751 94.6054 17.0805 93.9864C17.8859 93.3674 19.038 93.5203 19.6854 94.303C21.7761 96.8307 24.0996 99.1584 26.6258 101.246C27.4091 101.893 27.5629 103.046 26.9437 103.852C26.3252 104.656 26.474 105.813 27.2986 106.405C30.2256 108.506 33.3504 110.315 36.619 111.805C37.5462 112.228 38.6278 111.78 39.0202 110.84C39.412 109.901 40.4882 109.459 41.4413 109.815C44.4745 110.946 47.6399 111.804 50.9108 112.349C51.9194 112.517 52.6359 113.442 52.5043 114.456C52.373 115.469 53.0862 116.4 54.1025 116.498C55.8842 116.67 57.6884 116.756 59.483 116.756C61.2787 116.756 63.0791 116.67 64.863 116.498C65.8794 116.399 66.5929 115.469 66.4616 114.456C66.3301 113.442 67.0463 112.517 68.0547 112.349C71.325 111.804 74.4892 110.946 77.5173 109.815C78.469 109.46 79.5439 109.902 79.933 110.84C80.3227 111.78 81.4021 112.228 82.3275 111.806C85.5965 110.316 88.7216 108.507 91.649 106.406C92.4742 105.813 92.6231 104.656 92.0041 103.85C91.3851 103.045 91.5379 101.893 92.3206 101.246C94.8484 99.1549 97.1761 96.8314 99.2638 94.3051C99.9111 93.5219 101.064 93.3681 101.869 93.9872C102.674 94.6058 103.831 94.457 104.423 93.6324C106.524 90.7049 108.333 87.5797 109.823 84.3104C110.245 83.3847 109.797 82.3049 108.858 81.9151C107.919 81.526 107.477 80.4515 107.832 79.4998C108.964 76.4649 109.822 73.2976 110.367 70.0247C110.535 69.0191 111.459 68.3058 112.469 68.4396C113.479 68.5732 114.408 67.8626 114.506 66.849C114.679 65.0639 114.765 63.2622 114.765 61.4653C114.765 59.0529 114.61 56.6318 114.298 54.2539C114.298 54.2507 114.297 54.2477 114.294 54.2454ZM72.5659 61.4566C72.5659 68.3875 66.708 74.0031 59.4743 74.0031C52.2407 74.0031 46.3828 68.3875 46.3828 61.4566C46.3828 54.5258 52.2407 48.9102 59.4743 48.9102C66.708 48.9102 72.5659 54.5258 72.5659 61.4566Z" fill="white"/>
</g>
<rect x="22.4961" y="23.9968" width="75.0064" height="75.0064" rx="37.5032" fill="#FFDD00"/>
<g clip-path="url(#clip1_57047_3882)">
<path d="M73.8916 83H46.0657C43.5435 83 41.4688 80.9253 41.4688 78.403V44.597C41.4688 42.0747 43.5435 40 46.0657 40H73.8916C76.4546 40 78.4886 42.0747 78.4886 44.597V78.3623C78.4886 80.8846 76.4139 82.9593 73.8916 82.9593V83ZM46.0657 41.6272C44.4385 41.6272 43.096 42.9697 43.096 44.597V78.3623C43.096 79.9896 44.4385 81.3321 46.0657 81.3321H73.8916C75.5189 81.3321 76.8614 79.9896 76.8614 78.3623V44.597C76.8614 42.9697 75.5189 41.6272 73.8916 41.6272H46.0657Z" fill="#231F20"/>
<path d="M75.6414 60.7474C74.543 60.7474 73.8921 60.1372 73.2819 59.5677C72.7124 59.0388 72.2242 58.5913 71.3292 58.5913C70.4342 58.5913 70.1088 58.9168 69.5392 59.405C68.7663 60.0152 67.8306 60.7474 66 60.7474C64.1693 60.7474 63.4777 60.1372 62.7455 59.5677C62.0539 59.0388 61.4844 58.632 60.0605 58.632C58.6367 58.632 58.0671 59.0795 57.3756 59.5677C56.6433 60.1372 55.789 60.7474 54.1211 60.7474C52.4531 60.7474 51.3548 60.0152 50.5818 59.405C49.9716 58.9575 49.5648 58.5913 48.7918 58.5913C48.0189 58.5913 47.4087 59.0388 46.8391 59.5677C46.2289 60.0965 45.578 60.7474 44.4796 60.7474C43.3812 60.7474 43.666 60.3813 43.666 59.9338C43.666 59.4863 44.0321 59.1202 44.4796 59.1202C44.9271 59.1202 45.2119 58.8761 45.7408 58.3879C46.3917 57.7777 47.2866 57.0048 48.7918 57.0048C50.297 57.0048 50.9073 57.615 51.5988 58.1438C52.2904 58.6727 52.86 59.1609 54.1618 59.1609C55.4636 59.1609 55.789 58.7947 56.4399 58.3066C57.2128 57.737 58.1485 57.0454 60.1012 57.0454C62.0539 57.0454 62.9896 57.737 63.7625 58.3066C64.4134 58.7947 64.9016 59.1609 66.0407 59.1609C67.1797 59.1609 67.912 58.7134 68.6036 58.1438C69.2952 57.615 70.0681 57.0048 71.4106 57.0048C72.7531 57.0048 73.8108 57.8184 74.4617 58.3879C74.9905 58.8761 75.2753 59.1202 75.7228 59.1202C76.1703 59.1202 76.5364 59.4863 76.5364 59.9338C76.5364 60.3813 76.1703 60.7474 75.7228 60.7474H75.6414Z" fill="#231F20"/>
<path d="M75.6414 55.7436C74.543 55.7436 73.8921 55.1334 73.2819 54.5639C72.7124 54.035 72.2242 53.5875 71.3292 53.5875C70.4342 53.5875 70.1088 53.913 69.5392 54.4012C68.7663 55.0114 67.8306 55.7436 66 55.7436C64.1693 55.7436 63.4777 55.1334 62.7455 54.5639C62.0539 54.035 61.4844 53.6282 60.0605 53.6282C58.6367 53.6282 58.0671 54.0757 57.3756 54.5639C56.6433 55.1334 55.789 55.7436 54.1211 55.7436C52.4531 55.7436 51.3548 55.0114 50.5818 54.4012C49.9716 53.9537 49.5648 53.5875 48.7918 53.5875C48.0189 53.5875 47.4087 54.035 46.8391 54.5639C46.2289 55.0927 45.578 55.7436 44.4796 55.7436C43.3812 55.7436 43.666 55.3775 43.666 54.93C43.666 54.4825 44.0321 54.1164 44.4796 54.1164C44.9271 54.1164 45.2119 53.8723 45.7408 53.3841C46.3917 52.7739 47.2866 52.001 48.7918 52.001C50.297 52.001 50.9073 52.6112 51.5988 53.14C52.2904 53.6689 52.86 54.1571 54.1618 54.1571C55.4636 54.1571 55.789 53.7909 56.4399 53.3028C57.2128 52.7332 58.1485 52.0417 60.1012 52.0417C62.0539 52.0417 62.9896 52.7332 63.7625 53.3028C64.4134 53.7909 64.9016 54.1571 66.0407 54.1571C67.1797 54.1571 67.912 53.7096 68.6036 53.14C69.2952 52.6112 70.0681 52.001 71.4106 52.001C72.7531 52.001 73.8108 52.8146 74.4617 53.3841C74.9905 53.8723 75.2753 54.1164 75.7228 54.1164C76.1703 54.1164 76.5364 54.4825 76.5364 54.93C76.5364 55.3775 76.1703 55.7436 75.7228 55.7436H75.6414Z" fill="#231F20"/>
<path d="M75.6414 65.7919C74.543 65.7919 73.8921 65.1816 73.2819 64.6121C72.7124 64.0833 72.2242 63.6358 71.3292 63.6358C70.4342 63.6358 70.1088 63.9612 69.5392 64.4494C68.7663 65.0596 67.8306 65.7919 66 65.7919C64.1693 65.7919 63.4777 65.1816 62.7455 64.6121C62.0539 64.0833 61.4844 63.6764 60.0605 63.6764C58.6367 63.6764 58.0671 64.1239 57.3756 64.6121C56.6433 65.1816 55.789 65.7919 54.1211 65.7919C52.4531 65.7919 51.3548 65.0596 50.5818 64.4494C49.9716 64.0019 49.5648 63.6358 48.7918 63.6358C48.0189 63.6358 47.4087 64.0833 46.8391 64.6121C46.2289 65.141 45.578 65.7919 44.4796 65.7919C43.3812 65.7919 43.666 65.4257 43.666 64.9782C43.666 64.5307 44.0321 64.1646 44.4796 64.1646C44.9271 64.1646 45.2119 63.9205 45.7408 63.4324C46.3917 62.8221 47.2866 62.0492 48.7918 62.0492C50.297 62.0492 50.9073 62.6594 51.5988 63.1883C52.2904 63.7171 52.86 64.2053 54.1618 64.2053C55.4636 64.2053 55.789 63.8392 56.4399 63.351C57.2128 62.7815 58.1485 62.0899 60.1012 62.0899C62.0539 62.0899 62.9896 62.7815 63.7625 63.351C64.4134 63.8392 64.9016 64.2053 66.0407 64.2053C67.1797 64.2053 67.912 63.7578 68.6036 63.1883C69.2952 62.6594 70.0681 62.0492 71.4106 62.0492C72.7531 62.0492 73.8108 62.8628 74.4617 63.4324C74.9905 63.9205 75.2753 64.1646 75.7228 64.1646C76.1703 64.1646 76.5364 64.5307 76.5364 64.9782C76.5364 65.4257 76.1703 65.7919 75.7228 65.7919H75.6414Z" fill="#231F20"/>
<path d="M74.0543 70.9178H45.13C44.6825 70.9178 44.3164 70.5516 44.3164 70.1042C44.3164 69.6567 44.6825 69.2905 45.13 69.2905H74.0137C74.4612 69.2905 74.8273 69.6567 74.8273 70.1042C74.8273 70.5516 74.4612 70.9178 74.0137 70.9178H74.0543Z" fill="#231F20"/>
</g>
<defs>
<clipPath id="clip0_57047_3882">
<rect width="110.581" height="110.581" fill="white" transform="translate(4.18359 6.17456)"/>
</clipPath>
<clipPath id="clip1_57047_3882">
<rect width="37.0605" height="43" fill="white" transform="translate(41.4688 40)"/>
</clipPath>
</defs>
</svg>
