<svg width="120" height="123" viewBox="0 0 120 123" fill="none" xmlns="http://www.w3.org/2000/svg">
<g clip-path="url(#clip0_56034_2077)">
<path d="M114.293 54.2454C114.29 54.2422 114.286 54.2406 114.281 54.2412L113.08 54.3974C111.725 54.5735 110.49 53.6175 110.248 52.2731C109.698 49.2197 108.882 46.2613 107.823 43.4225C107.468 42.4707 107.91 41.3958 108.849 41.0066C109.788 40.6169 110.236 39.5376 109.814 38.6122C108.323 35.3427 106.515 32.2172 104.413 29.2895C103.821 28.4649 102.664 28.3161 101.86 28.9347C101.054 29.5539 99.9014 29.4001 99.2544 28.6166C97.1673 26.0897 94.8403 23.7627 92.3134 21.6756C91.5299 21.0286 91.3761 19.876 91.9953 19.0704C92.6138 18.2656 92.4651 17.1091 91.6405 16.5171C88.713 14.4154 85.5877 12.6068 82.3185 11.1163C81.3927 10.6942 80.3129 11.1423 79.9231 12.0821C79.534 13.0203 78.4596 13.4626 77.5079 13.1078C74.4729 11.976 71.3055 11.1175 68.0324 10.5721C67.0263 10.4045 66.3118 9.48159 66.4433 8.47017C66.5747 7.46007 65.8631 6.53134 64.8492 6.43321C61.2868 6.0884 57.653 6.08835 54.0905 6.43304C53.0757 6.53123 52.3635 7.46083 52.495 8.47188C52.6264 9.48291 51.9133 10.4059 50.9077 10.5744C47.634 11.123 44.4659 11.9775 41.4303 13.1081C40.4785 13.4626 39.404 13.0203 39.0149 12.0821C38.6251 11.1423 37.5453 10.6942 36.6196 11.1163C33.3508 12.6066 30.2259 14.4149 27.2987 16.5163C26.4735 17.1087 26.3246 18.2661 26.9436 19.0715C27.5626 19.8769 27.4097 21.0289 26.627 21.6763C24.0993 23.7671 21.7716 26.0906 19.6839 28.6168C19.0366 29.4 17.8841 29.5539 17.0785 28.9347C16.2736 28.3161 15.1171 28.4649 14.5251 29.2895C12.4237 32.2167 10.6152 35.3417 9.12474 38.6106C8.70217 39.5375 9.14947 40.6186 10.0895 41.0109C11.0284 41.4027 11.4698 42.4794 11.1141 43.4326C9.9835 46.4622 9.1257 49.6305 8.58063 52.8977C8.41277 53.9038 7.48972 54.6182 6.47823 54.4867C5.46806 54.3553 4.53925 55.0668 4.44121 56.0808C4.26882 57.8638 4.18262 59.6693 4.18262 61.4653C4.18262 63.2618 4.26887 65.0631 4.44138 66.8479C4.53948 67.8627 5.46905 68.5751 6.48015 68.4437C7.49106 68.3122 8.41397 69.0253 8.58243 70.0307C9.13078 73.3032 9.98494 76.4695 11.1149 79.4995C11.4699 80.4513 11.0278 81.5262 10.0895 81.9154C9.15007 82.305 8.70215 83.3844 9.12405 84.3098C10.6144 87.5788 12.4229 90.7039 14.5243 93.6313C15.1167 94.4565 16.2741 94.6054 17.0796 93.9864C17.8849 93.3674 19.037 93.5203 19.6844 94.303C21.7751 96.8307 24.0986 99.1584 26.6249 101.246C27.4081 101.893 27.5619 103.046 26.9428 103.852C26.3242 104.656 26.473 105.813 27.2976 106.405C30.2246 108.506 33.3494 110.315 36.6181 111.805C37.5452 112.228 38.6268 111.78 39.0192 110.84C39.411 109.901 40.4872 109.459 41.4404 109.815C44.4736 110.946 47.6389 111.804 50.9099 112.349C51.9185 112.517 52.6349 113.442 52.5034 114.456C52.372 115.469 53.0852 116.4 54.1015 116.498C55.8832 116.67 57.6874 116.756 59.482 116.756C61.2777 116.756 63.0781 116.67 64.862 116.498C65.8784 116.399 66.592 115.469 66.4606 114.456C66.3291 113.442 67.0454 112.517 68.0537 112.349C71.324 111.804 74.4882 110.946 77.5163 109.815C78.468 109.46 79.5429 109.902 79.9321 110.84C80.3217 111.78 81.4011 112.228 82.3265 111.806C85.5955 110.316 88.7207 108.507 91.648 106.406C92.4732 105.813 92.6221 104.656 92.0031 103.85C91.3841 103.045 91.537 101.893 92.3197 101.246C94.8474 99.1549 97.1751 96.8314 99.2628 94.3051C99.9101 93.5219 101.063 93.3681 101.868 93.9872C102.673 94.6058 103.83 94.457 104.422 93.6324C106.523 90.7049 108.332 87.5797 109.822 84.3104C110.244 83.3847 109.796 82.3049 108.857 81.9151C107.918 81.526 107.476 80.4515 107.831 79.4998C108.963 76.4649 109.821 73.2976 110.366 70.0247C110.534 69.0191 111.458 68.3058 112.468 68.4396C113.478 68.5732 114.407 67.8626 114.505 66.849C114.678 65.0639 114.764 63.2622 114.764 61.4653C114.764 59.0529 114.609 56.6318 114.297 54.2539C114.297 54.2507 114.296 54.2477 114.293 54.2454ZM72.5649 61.4566C72.5649 68.3875 66.707 74.0031 59.4734 74.0031C52.2397 74.0031 46.3818 68.3875 46.3818 61.4566C46.3818 54.5258 52.2397 48.9102 59.4734 48.9102C66.707 48.9102 72.5649 54.5258 72.5649 61.4566Z" fill="white"/>
</g>
<rect x="22.4971" y="23.9968" width="75.0064" height="75.0064" rx="37.5032" fill="#FFDD00"/>
<g clip-path="url(#clip1_56034_2077)">
<path d="M80.5 67.7624C80.4157 65.675 76.2441 64.673 72.3674 64.2137C73.168 61.166 74.3479 56.6153 74.7693 54.8201C75.1906 52.9831 74.3479 52.0229 73.5051 51.7724C72.6202 51.5219 71.6511 51.8976 71.1454 52.6909V40.5H39.5V77.8658L45.7785 80.3708L45.9471 80.4543H57.2821C59.5576 81.832 62.3808 82.5418 65.7097 82.5418C69.0385 82.5418 73.9265 81.2058 76.4969 78.5338C80.7107 74.1919 80.5 68.0129 80.5 67.7624ZM72.4938 53.6928C72.6202 53.4006 72.8731 53.2753 72.9995 53.3171C73.168 53.3588 73.2523 53.7763 73.1259 54.4026C72.4517 57.1998 69.9234 66.7187 69.9234 66.8022C69.797 67.2614 70.092 67.7207 70.5134 67.8042C70.5976 67.8042 70.6398 67.8042 70.724 67.8042C71.1033 67.8042 71.4404 67.5537 71.5247 67.1779C71.5247 67.1779 71.6932 66.6352 71.9039 65.7585C76.6233 66.3012 78.5617 67.3032 78.7724 67.7207C78.4353 68.4304 74.9378 69.5994 68.9964 69.9334C68.9964 69.9334 68.9964 69.8499 68.9964 69.8082C68.9964 68.3887 67.8165 67.2614 66.426 67.2614C65.0355 67.2614 63.8556 68.4304 63.8556 69.8082C63.8556 71.1859 63.8556 69.9334 63.8556 69.9752C56.9872 69.7664 52.9419 68.4722 52.5627 67.7207C52.9419 66.9274 57.6614 65.4245 65.6675 65.4245C73.6737 65.4245 66.5103 65.4245 66.8895 65.4245C66.7631 65.8002 66.6788 66.0507 66.6788 66.0924C66.5524 66.5517 66.8052 67.0109 67.2266 67.1362C67.6901 67.2614 68.1536 67.0109 68.2801 66.5934C68.2801 66.4682 71.946 55.0288 72.4517 53.6093L72.4938 53.6928ZM67.3952 70.0587C66.8474 70.0587 66.2996 70.0587 65.7097 70.0587C65.1197 70.0587 65.5832 70.0587 65.499 70.0587C65.499 69.9752 65.499 69.9334 65.499 69.8499C65.499 69.3489 65.9203 68.9732 66.3839 68.9732C66.8474 68.9732 67.2688 69.3907 67.2688 69.8499C67.2688 70.3091 67.2688 69.9752 67.2688 70.0169L67.3952 70.0587ZM41.1855 42.17H45.2729V78.3251L41.1855 76.6968V42.17ZM46.9584 78.7425V42.17H69.5021V56.9076C69.5021 57.0328 69.5021 57.1581 69.5863 57.2833C68.87 59.4543 68.0694 62.0427 67.4794 63.8797C66.8895 63.8797 66.2996 63.8797 65.7097 63.8797C60.2739 63.8797 51.0879 64.7147 50.9193 67.7624C50.9193 67.7624 50.9193 67.7624 50.9193 67.8042C50.9193 68.0547 50.7086 74.2753 54.9224 78.5755C55.0067 78.659 55.091 78.7008 55.1331 78.7843H46.9584V78.7425ZM75.2749 77.3648C73.0416 79.661 69.797 80.83 65.7097 80.83C61.6223 80.83 58.3777 79.661 56.1444 77.3648C53.8268 74.9851 53.0262 71.8539 52.7312 69.8499C55.723 71.2694 61.7066 71.7286 65.7097 71.7286C69.7127 71.7286 75.6963 71.2694 78.6881 69.8499C78.3931 71.8539 77.5925 74.9851 75.2749 77.3648Z" fill="#181818"/>
<path d="M56.6926 60.0804L57.1983 59.9552L57.3247 59.4542C57.3247 59.3707 57.6618 57.8677 57.4933 56.2395C57.6618 56.3647 57.7882 56.4482 57.8304 56.4482L58.2517 56.6987L58.6731 56.4482C58.6731 56.4482 58.7995 56.3647 59.0102 56.2395C58.8417 57.9095 59.1366 59.3707 59.1788 59.4542L59.3052 59.9552L59.8108 60.0804C59.8951 60.0804 60.9064 60.3309 62.2127 60.3309C63.519 60.3309 65.3309 60.0387 66.5107 58.8697C68.8704 56.5735 67.6485 52.6073 67.6063 52.4403L67.4799 52.0228L67.0585 51.8975C66.9321 51.8558 64.6145 51.1043 62.4655 51.7305C62.5077 51.4383 62.5498 51.146 62.5498 50.8538C62.5498 47.5973 58.7995 45.6769 58.6731 45.5934L58.2939 45.3846L57.9146 45.5934C57.7461 45.6769 54.038 47.5973 54.038 50.8538C54.038 54.1103 54.038 51.4383 54.1222 51.7305C51.9732 51.1043 49.6556 51.8558 49.5292 51.8975L49.1079 52.0228L48.9814 52.4403C48.9393 52.6073 47.7173 56.5735 50.077 58.8697C51.299 60.0387 52.9845 60.3309 54.3751 60.3309C55.7656 60.3309 56.6926 60.0804 56.7769 60.0804H56.6926ZM66.0472 53.3588C66.2579 54.2773 66.5529 56.4482 65.2887 57.7007C64.0246 58.9115 61.7492 58.7445 60.6957 58.5775C60.5693 57.5337 60.4008 55.2792 61.6649 54.0685C62.929 52.8578 65.1202 53.1918 66.0472 53.4005V53.3588ZM58.2517 47.3051C59.0524 47.8061 60.8221 49.1003 60.8221 50.8538C60.8221 52.6073 59.0524 54.1103 58.2517 54.6948C57.409 54.0685 55.6813 52.6073 55.6813 50.8538C55.6813 49.1003 57.4511 47.8061 58.2517 47.3051ZM51.1726 57.7007C49.9085 56.49 50.2034 54.2773 50.4141 53.3588C51.3412 53.15 53.5323 52.816 54.7965 54.0268C56.0606 55.2375 55.892 57.5337 55.7656 58.5357C54.7543 58.7027 52.4367 58.9115 51.1726 57.659V57.7007Z" fill="#181818"/>
<path d="M59.9786 66.0924C58.5459 66.0924 57.4082 67.2614 57.4082 68.6391C57.4082 70.0168 57.7874 69.4741 58.251 69.4741C58.7145 69.4741 59.0937 69.0983 59.0937 68.6391C59.0937 68.1799 59.5151 67.7624 59.9786 67.7624C60.4421 67.7624 60.8635 68.1799 60.8635 68.6391C60.8635 69.0983 61.2427 69.4741 61.7063 69.4741C62.1698 69.4741 62.549 69.0983 62.549 68.6391C62.549 67.2196 61.3691 66.0924 59.9786 66.0924Z" fill="#181818"/>
</g>
<defs>
<clipPath id="clip0_56034_2077">
<rect width="110.581" height="110.581" fill="white" transform="translate(4.18262 6.17456)"/>
</clipPath>
<clipPath id="clip1_56034_2077">
<rect width="41" height="42" fill="white" transform="translate(39.5 40.5)"/>
</clipPath>
</defs>
</svg>
