<svg width="120" height="123" viewBox="0 0 120 123" fill="none" xmlns="http://www.w3.org/2000/svg">
<g clip-path="url(#clip0_57048_5172)">
<path d="M114.294 54.2454C114.291 54.2422 114.287 54.2406 114.282 54.2412L113.081 54.3974C111.726 54.5735 110.491 53.6175 110.249 52.2731C109.699 49.2197 108.883 46.2613 107.824 43.4225C107.469 42.4707 107.911 41.3958 108.85 41.0066C109.789 40.6169 110.237 39.5376 109.815 38.6122C108.324 35.3427 106.516 32.2172 104.414 29.2895C103.822 28.4649 102.665 28.3161 101.861 28.9347C101.055 29.5539 99.9024 29.4001 99.2554 28.6166C97.1683 26.0897 94.8412 23.7627 92.3143 21.6756C91.5309 21.0286 91.3771 19.876 91.9963 19.0704C92.6148 18.2656 92.466 17.1091 91.6414 16.5171C88.714 14.4154 85.5887 12.6068 82.3195 11.1163C81.3937 10.6942 80.3139 11.1423 79.9241 12.0821C79.535 13.0203 78.4605 13.4626 77.5089 13.1078C74.4738 11.976 71.3064 11.1175 68.0334 10.5721C67.0273 10.4045 66.3128 9.48159 66.4443 8.47017C66.5756 7.46007 65.8641 6.53134 64.8502 6.43321C61.2877 6.0884 57.654 6.08835 54.0915 6.43304C53.0767 6.53123 52.3645 7.46083 52.4959 8.47188C52.6274 9.48291 51.9142 10.4059 50.9087 10.5744C47.6349 11.123 44.4669 11.9775 41.4313 13.1081C40.4795 13.4626 39.405 13.0203 39.0159 12.0821C38.6261 11.1423 37.5463 10.6942 36.6206 11.1163C33.3517 12.6066 30.2269 14.4149 27.2997 16.5163C26.4745 17.1087 26.3256 18.2661 26.9446 19.0715C27.5636 19.8769 27.4107 21.0289 26.628 21.6763C24.1003 23.7671 21.7725 26.0906 19.6849 28.6168C19.0376 29.4 17.8851 29.5539 17.0794 28.9347C16.2746 28.3161 15.1181 28.4649 14.5261 29.2895C12.4246 32.2167 10.6161 35.3417 9.12571 38.6106C8.70314 39.5375 9.15045 40.6186 10.0905 41.0109C11.0294 41.4027 11.4708 42.4794 11.1151 43.4326C9.98447 46.4622 9.12668 49.6305 8.5816 52.8977C8.41375 53.9038 7.49069 54.6182 6.47921 54.4867C5.46903 54.3553 4.54023 55.0668 4.44219 56.0808C4.26979 57.8638 4.18359 59.6693 4.18359 61.4653C4.18359 63.2618 4.26985 65.0631 4.44236 66.8479C4.54045 67.8627 5.47003 68.5751 6.48113 68.4437C7.49204 68.3122 8.41494 69.0253 8.58341 70.0307C9.13176 73.3032 9.98592 76.4695 11.1159 79.4995C11.4709 80.4513 11.0288 81.5262 10.0905 81.9154C9.15104 82.305 8.70313 83.3844 9.12502 84.3098C10.6154 87.5788 12.4238 90.7039 14.5253 93.6313C15.1177 94.4565 16.2751 94.6054 17.0805 93.9864C17.8859 93.3674 19.038 93.5203 19.6854 94.303C21.7761 96.8307 24.0996 99.1584 26.6258 101.246C27.4091 101.893 27.5629 103.046 26.9437 103.852C26.3252 104.656 26.474 105.813 27.2986 106.405C30.2256 108.506 33.3504 110.315 36.619 111.805C37.5462 112.228 38.6278 111.78 39.0202 110.84C39.412 109.901 40.4882 109.459 41.4413 109.815C44.4745 110.946 47.6399 111.804 50.9108 112.349C51.9194 112.517 52.6359 113.442 52.5043 114.456C52.373 115.469 53.0862 116.4 54.1025 116.498C55.8842 116.67 57.6884 116.756 59.483 116.756C61.2787 116.756 63.0791 116.67 64.863 116.498C65.8794 116.399 66.5929 115.469 66.4616 114.456C66.3301 113.442 67.0463 112.517 68.0547 112.349C71.325 111.804 74.4892 110.946 77.5173 109.815C78.469 109.46 79.5439 109.902 79.933 110.84C80.3227 111.78 81.4021 112.228 82.3275 111.806C85.5965 110.316 88.7216 108.507 91.649 106.406C92.4742 105.813 92.6231 104.656 92.0041 103.85C91.3851 103.045 91.5379 101.893 92.3206 101.246C94.8484 99.1549 97.1761 96.8314 99.2638 94.3051C99.9111 93.5219 101.064 93.3681 101.869 93.9872C102.674 94.6058 103.831 94.457 104.423 93.6324C106.524 90.7049 108.333 87.5797 109.823 84.3104C110.245 83.3847 109.797 82.3049 108.858 81.9151C107.919 81.526 107.477 80.4515 107.832 79.4998C108.964 76.4649 109.822 73.2976 110.367 70.0247C110.535 69.0191 111.459 68.3058 112.469 68.4396C113.479 68.5732 114.408 67.8626 114.506 66.849C114.679 65.0639 114.765 63.2622 114.765 61.4653C114.765 59.0529 114.61 56.6318 114.298 54.2539C114.298 54.2507 114.297 54.2477 114.294 54.2454ZM72.5659 61.4566C72.5659 68.3875 66.708 74.0031 59.4743 74.0031C52.2407 74.0031 46.3828 68.3875 46.3828 61.4566C46.3828 54.5258 52.2407 48.9102 59.4743 48.9102C66.708 48.9102 72.5659 54.5258 72.5659 61.4566Z" fill="white"/>
</g>
<rect x="22.4961" y="23.9968" width="75.0064" height="75.0064" rx="37.5032" fill="#FFDD00"/>
<g clip-path="url(#clip1_57048_5172)">
<path d="M71.0658 43.491H48.9287C48.4298 43.491 48.0215 43.8992 48.0215 44.3982V74.0656C48.0215 74.5646 48.4298 74.9728 48.9287 74.9728H71.0205C71.5195 74.9728 71.9277 74.5646 71.9277 74.0656V44.3982C71.9277 43.8992 71.5195 43.491 71.0205 43.491H71.0658ZM70.1586 73.2037H49.836V45.3055H70.1132V73.1583L70.1586 73.2037Z" fill="#231F20"/>
<path d="M39.3135 79.5091H80.6845C81.1835 79.5091 81.5917 79.1008 81.5917 78.6018C81.5917 78.1028 81.1835 77.6946 80.6845 77.6946H76.874V39.9073C76.874 39.4083 76.4657 39 75.9667 39H44.0312C43.5323 39 43.124 39.4083 43.124 39.9073V77.6946H39.3135C38.8145 77.6946 38.4062 78.1028 38.4062 78.6018C38.4062 79.1008 38.8145 79.5091 39.3135 79.5091ZM44.9385 40.8145H75.1048V77.6946H44.9385V40.8145Z" fill="#231F20"/>
<path d="M80.6845 82.1855H39.3135C38.8145 82.1855 38.4062 82.5938 38.4062 83.0928C38.4062 83.5918 38.8145 84.0001 39.3135 84.0001H80.6845C81.1835 84.0001 81.5917 83.5918 81.5917 83.0928C81.5917 82.5938 81.1835 82.1855 80.6845 82.1855Z" fill="#231F20"/>
<path d="M63.3546 50.7036C63.5814 51.1119 63.9443 53.1986 63.9443 53.1986C63.9443 53.1986 64.2618 51.1119 64.534 50.7036C64.7608 50.2954 67.2558 50.0232 67.2558 50.0232C67.2558 50.0232 64.7608 49.751 64.534 49.3427C64.3072 48.9345 63.9443 46.8478 63.9443 46.8478C63.9443 46.8478 63.6268 48.9345 63.3546 49.3427C63.1278 49.751 60.6328 50.0232 60.6328 50.0232C60.6328 50.0232 63.1278 50.2954 63.3546 50.7036Z" fill="#231F20"/>
<path d="M60.044 59.005C60.2709 59.4133 60.6338 61.5 60.6338 61.5C60.6338 61.5 60.9513 59.4133 61.2235 59.005C61.4503 58.5968 63.9452 58.3246 63.9452 58.3246C63.9452 58.3246 61.4503 58.0524 61.2235 57.6441C60.9967 57.2359 60.6338 55.1492 60.6338 55.1492C60.6338 55.1492 60.3162 57.2359 60.044 57.6441C59.8172 58.0524 57.3223 58.3246 57.3223 58.3246C57.3223 58.3246 59.8172 58.5968 60.044 59.005Z" fill="#231F20"/>
<path d="M65.9852 63.7229C65.7584 63.3146 65.3955 61.2279 65.3955 61.2279C65.3955 61.2279 65.0779 63.3146 64.8058 63.7229C64.5789 64.1311 62.084 64.4033 62.084 64.4033C62.084 64.4033 64.5789 64.6755 64.8058 65.0838C65.0326 65.492 65.3955 67.5787 65.3955 67.5787C65.3955 67.5787 65.713 65.492 65.9852 65.0838C66.212 64.6755 68.707 64.4033 68.707 64.4033C68.707 64.4033 66.212 64.1311 65.9852 63.7229Z" fill="#231F20"/>
</g>
<defs>
<clipPath id="clip0_57048_5172">
<rect width="110.581" height="110.581" fill="white" transform="translate(4.18359 6.17456)"/>
</clipPath>
<clipPath id="clip1_57048_5172">
<rect width="43.1855" height="45" fill="white" transform="translate(38.4062 39)"/>
</clipPath>
</defs>
</svg>
