<svg width="120" height="123" viewBox="0 0 120 123" fill="none" xmlns="http://www.w3.org/2000/svg">
<g clip-path="url(#clip0_57047_3226)">
<path d="M114.294 54.2454C114.291 54.2422 114.287 54.2406 114.282 54.2412L113.081 54.3974C111.726 54.5735 110.491 53.6175 110.249 52.2731C109.699 49.2197 108.883 46.2613 107.824 43.4225C107.469 42.4707 107.911 41.3958 108.85 41.0066C109.789 40.6169 110.237 39.5376 109.815 38.6122C108.324 35.3427 106.516 32.2172 104.414 29.2895C103.822 28.4649 102.665 28.3161 101.861 28.9347C101.055 29.5539 99.9024 29.4001 99.2554 28.6166C97.1683 26.0897 94.8412 23.7627 92.3143 21.6756C91.5309 21.0286 91.3771 19.876 91.9963 19.0704C92.6148 18.2656 92.466 17.1091 91.6414 16.5171C88.714 14.4154 85.5887 12.6068 82.3195 11.1163C81.3937 10.6942 80.3139 11.1423 79.9241 12.0821C79.535 13.0203 78.4605 13.4626 77.5089 13.1078C74.4738 11.976 71.3064 11.1175 68.0334 10.5721C67.0273 10.4045 66.3128 9.48159 66.4443 8.47017C66.5756 7.46007 65.8641 6.53134 64.8502 6.43321C61.2877 6.0884 57.654 6.08835 54.0915 6.43304C53.0767 6.53123 52.3645 7.46083 52.4959 8.47188C52.6274 9.48291 51.9142 10.4059 50.9087 10.5744C47.6349 11.123 44.4669 11.9775 41.4313 13.1081C40.4795 13.4626 39.405 13.0203 39.0159 12.0821C38.6261 11.1423 37.5463 10.6942 36.6206 11.1163C33.3517 12.6066 30.2269 14.4149 27.2997 16.5163C26.4745 17.1087 26.3256 18.2661 26.9446 19.0715C27.5636 19.8769 27.4107 21.0289 26.628 21.6763C24.1003 23.7671 21.7725 26.0906 19.6849 28.6168C19.0376 29.4 17.8851 29.5539 17.0794 28.9347C16.2746 28.3161 15.1181 28.4649 14.5261 29.2895C12.4246 32.2167 10.6161 35.3417 9.12571 38.6106C8.70314 39.5375 9.15045 40.6186 10.0905 41.0109C11.0294 41.4027 11.4708 42.4794 11.1151 43.4326C9.98447 46.4622 9.12668 49.6305 8.5816 52.8977C8.41375 53.9038 7.49069 54.6182 6.47921 54.4867C5.46903 54.3553 4.54023 55.0668 4.44219 56.0808C4.26979 57.8638 4.18359 59.6693 4.18359 61.4653C4.18359 63.2618 4.26985 65.0631 4.44236 66.8479C4.54045 67.8627 5.47003 68.5751 6.48113 68.4437C7.49204 68.3122 8.41494 69.0253 8.58341 70.0307C9.13176 73.3032 9.98592 76.4695 11.1159 79.4995C11.4709 80.4513 11.0288 81.5262 10.0905 81.9154C9.15104 82.305 8.70313 83.3844 9.12502 84.3098C10.6154 87.5788 12.4238 90.7039 14.5253 93.6313C15.1177 94.4565 16.2751 94.6054 17.0805 93.9864C17.8859 93.3674 19.038 93.5203 19.6854 94.303C21.7761 96.8307 24.0996 99.1584 26.6258 101.246C27.4091 101.893 27.5629 103.046 26.9437 103.852C26.3252 104.656 26.474 105.813 27.2986 106.405C30.2256 108.506 33.3504 110.315 36.619 111.805C37.5462 112.228 38.6278 111.78 39.0202 110.84C39.412 109.901 40.4882 109.459 41.4413 109.815C44.4745 110.946 47.6399 111.804 50.9108 112.349C51.9194 112.517 52.6359 113.442 52.5043 114.456C52.373 115.469 53.0862 116.4 54.1025 116.498C55.8842 116.67 57.6884 116.756 59.483 116.756C61.2787 116.756 63.0791 116.67 64.863 116.498C65.8794 116.399 66.5929 115.469 66.4616 114.456C66.3301 113.442 67.0463 112.517 68.0547 112.349C71.325 111.804 74.4892 110.946 77.5173 109.815C78.469 109.46 79.5439 109.902 79.933 110.84C80.3227 111.78 81.4021 112.228 82.3275 111.806C85.5965 110.316 88.7216 108.507 91.649 106.406C92.4742 105.813 92.6231 104.656 92.0041 103.85C91.3851 103.045 91.5379 101.893 92.3206 101.246C94.8484 99.1549 97.1761 96.8314 99.2638 94.3051C99.9111 93.5219 101.064 93.3681 101.869 93.9872C102.674 94.6058 103.831 94.457 104.423 93.6324C106.524 90.7049 108.333 87.5797 109.823 84.3104C110.245 83.3847 109.797 82.3049 108.858 81.9151C107.919 81.526 107.477 80.4515 107.832 79.4998C108.964 76.4649 109.822 73.2976 110.367 70.0247C110.535 69.0191 111.459 68.3058 112.469 68.4396C113.479 68.5732 114.408 67.8626 114.506 66.849C114.679 65.0639 114.765 63.2622 114.765 61.4653C114.765 59.0529 114.61 56.6318 114.298 54.2539C114.298 54.2507 114.297 54.2477 114.294 54.2454ZM72.5659 61.4566C72.5659 68.3875 66.708 74.0031 59.4743 74.0031C52.2407 74.0031 46.3828 68.3875 46.3828 61.4566C46.3828 54.5258 52.2407 48.9102 59.4743 48.9102C66.708 48.9102 72.5659 54.5258 72.5659 61.4566Z" fill="white"/>
</g>
<rect x="22.4961" y="23.9968" width="75.0064" height="75.0064" rx="37.5032" fill="#FFDD00"/>
<g clip-path="url(#clip1_57047_3226)">
<path d="M75.8544 46.1802C62.6722 32.0182 37.733 41.9049 38.0002 61.4555C38.0002 73.6134 47.9314 83.4555 60.0002 83.4555C79.1945 83.7227 89.2593 59.585 75.8099 46.1356L75.8544 46.1802ZM40.0488 61.4555C39.8261 44.2652 61.2917 35.002 73.5832 46.8037L66.235 54.5526C65.7451 54.0628 65.1662 53.662 64.5427 53.3057L66.3241 50.0992C68.0609 50.3219 68.2836 47.6498 66.5022 47.6053C65.4779 47.6053 64.8544 48.8968 65.5224 49.6539L63.6965 52.8603C62.8504 52.5041 61.9597 52.2369 60.9799 52.1478V50.5C62.2269 50.0547 61.9152 48.0952 60.5346 48.0952C59.154 48.0952 58.8423 50.0547 60.0892 50.5V52.1032C58.7532 52.1032 57.5063 52.415 56.3929 52.9939L54.2552 48.9413C55.5467 48.0061 54.7451 45.7794 53.1419 45.8239C50.648 45.913 50.9597 49.6539 53.4536 49.2976L55.5913 53.3947C54.3888 54.1073 53.4091 55.1316 52.652 56.334L49.3119 54.0182C49.7127 52.2368 46.9071 51.8806 46.8625 53.7065C46.8625 54.6862 48.0204 55.3097 48.822 54.7308L52.2512 57.0911C51.7613 58.1154 51.4496 59.2288 51.405 60.4312H46.2836C45.7937 58.4717 42.8099 58.8279 42.8544 60.8765C42.8544 62.9251 45.8382 63.2814 46.2836 61.3219H51.405C51.405 61.9454 51.5386 62.5688 51.6722 63.1478L48.3767 65.0628C47.6196 64.3947 46.3281 65.0182 46.3726 66.0425C46.4172 67.8239 49.0892 67.6012 48.8666 65.8644L51.984 64.0385C52.4293 65.2409 53.1864 66.3543 54.0771 67.2449L46.0609 75.7065C42.32 72.0547 39.9597 66.9777 39.9597 61.3664L40.0488 61.4555ZM57.3726 58.2045C59.5103 58.2045 59.5103 61.4109 57.3726 61.4555C55.235 61.4555 55.235 58.249 57.3726 58.2045ZM60.0002 81.4514C55.3241 81.4514 51.0488 79.8482 47.6641 77.1761L55.7694 68.6255C56.571 69.1154 57.4617 69.4717 58.3969 69.6498L58.1743 73.836C56.8382 74.2368 57.15 76.2854 58.5751 76.2409C59.9111 76.2409 60.2674 74.3259 59.065 73.836L59.2876 69.7389C60.4901 69.8725 61.7816 69.7389 62.8949 69.3826L63.5629 72.1437C61.9152 72.9008 62.5386 75.4838 64.3646 75.4838C66.6358 75.4838 66.6803 72.1437 64.4536 71.9656L63.7411 69.0263C64.4536 68.7146 65.0771 68.3138 65.7006 67.8684L66.5467 69.0709C65.9678 69.8725 66.5913 71.0304 67.571 71.0304C69.3969 70.9858 69.0852 68.1802 67.2593 68.581L66.3686 67.2895C67.3484 66.3097 68.1054 65.1073 68.5508 63.7713L72.737 64.3057C73.0042 66.9332 76.8787 66.7551 76.8787 64.1275C76.8787 61.8117 73.5832 61.2773 72.8261 63.415L68.7289 62.8806C69.2633 60.5648 68.7289 57.9373 67.482 56.0668L74.9192 48.1842C86.2755 60.6093 76.9233 81.585 59.9556 81.3624L60.0002 81.4514Z" fill="#231F20"/>
</g>
<defs>
<clipPath id="clip0_57047_3226">
<rect width="110.581" height="110.581" fill="white" transform="translate(4.18359 6.17456)"/>
</clipPath>
<clipPath id="clip1_57047_3226">
<rect width="44" height="44" fill="white" transform="translate(38 39.5)"/>
</clipPath>
</defs>
</svg>
