<svg width="20" height="19" viewBox="0 0 20 19" fill="none" xmlns="http://www.w3.org/2000/svg">
<g clip-path="url(#clip0_55226_6604)">
<path d="M8.18159 13.0488C7.98865 13.0341 7.80916 12.9443 7.68159 12.7988L4.68162 9.79886C4.61478 9.65891 4.59297 9.50168 4.6192 9.34882C4.64543 9.19596 4.7184 9.05499 4.82807 8.94532C4.93774 8.83565 5.07871 8.76268 5.23157 8.73645C5.38443 8.71023 5.54166 8.73203 5.68161 8.79887L8.15159 11.2689L16.6815 2.79893C16.8215 2.73209 16.9787 2.71028 17.1316 2.73651C17.2844 2.76274 17.4254 2.83571 17.5351 2.94538C17.6447 3.05504 17.7177 3.19602 17.7439 3.34888C17.7701 3.50174 17.7483 3.65897 17.6815 3.79892L8.68158 12.7988C8.55401 12.9443 8.37453 13.0341 8.18159 13.0488Z" fill="#FFDD00"/>
<path d="M9.68166 18.7988C8.07314 18.7962 6.49471 18.3626 5.11063 17.5431C3.72655 16.7235 2.5874 15.548 1.81174 14.1389C1.22294 13.0885 0.858585 11.9274 0.741748 10.7289C0.558731 8.971 0.897357 7.19812 1.71538 5.63142C2.53341 4.06472 3.79463 2.77355 5.3417 1.91899C6.39206 1.33019 7.55322 0.965838 8.75167 0.849001C9.94581 0.721665 11.1534 0.837319 12.3016 1.189C12.4041 1.20947 12.5011 1.25112 12.5866 1.31129C12.672 1.37145 12.7439 1.4488 12.7977 1.53838C12.8515 1.62795 12.8859 1.72778 12.8989 1.83145C12.9119 1.93513 12.903 2.04037 12.8729 2.14042C12.8428 2.24048 12.7922 2.33315 12.7242 2.41248C12.6562 2.49182 12.5724 2.55607 12.4781 2.60113C12.3838 2.64619 12.2812 2.67105 12.1768 2.67412C12.0723 2.6772 11.9684 2.65842 11.8716 2.61898C10.9004 2.32638 9.88033 2.23117 8.87167 2.33899C7.87451 2.44026 6.90831 2.74304 6.0317 3.22898C5.18684 3.69508 4.43986 4.31982 3.83172 5.06896C3.20559 5.83211 2.73802 6.71253 2.45642 7.65865C2.17482 8.60477 2.08483 9.59757 2.19173 10.5789C2.29301 11.5761 2.59579 12.5423 3.08173 13.4189C3.54782 14.2637 4.17257 15.0107 4.92171 15.6189C5.68486 16.245 6.56528 16.7126 7.5114 16.9942C8.45752 17.2758 9.45032 17.3657 10.4317 17.2588C11.4288 17.1576 12.395 16.8548 13.2716 16.3689C14.1165 15.9028 14.8635 15.278 15.4716 14.5289C16.0977 13.7657 16.5653 12.8853 16.8469 11.9392C17.1285 10.9931 17.2185 10.0003 17.1116 9.01892C17.0917 8.81073 17.1553 8.60316 17.2885 8.44188C17.4216 8.2806 17.6134 8.17882 17.8216 8.15893C18.0298 8.13904 18.2373 8.20267 18.3986 8.33582C18.5599 8.46897 18.6617 8.66073 18.6816 8.86892C18.8637 10.6279 18.5235 12.4015 17.7037 13.9683C16.8838 15.5351 15.6205 16.8257 14.0716 17.6788C13.0101 18.2917 11.831 18.6734 10.6117 18.7988H9.68166Z" fill="#FFDD00"/>
</g>
<defs>
<clipPath id="clip0_55226_6604">
<rect width="18.6923" height="18" fill="white" transform="translate(0.692383 0.798828)"/>
</clipPath>
</defs>
</svg>
