<svg width="120" height="123" viewBox="0 0 120 123" fill="none" xmlns="http://www.w3.org/2000/svg">
<g clip-path="url(#clip0_55226_6394)">
<path d="M114.293 54.2454C114.29 54.2422 114.286 54.2406 114.281 54.2412L113.08 54.3974C111.725 54.5735 110.49 53.6175 110.248 52.2731C109.698 49.2197 108.882 46.2613 107.823 43.4225C107.468 42.4707 107.91 41.3958 108.849 41.0066C109.788 40.6169 110.236 39.5376 109.814 38.6122C108.323 35.3427 106.515 32.2172 104.413 29.2895C103.821 28.4649 102.664 28.3161 101.86 28.9347C101.054 29.5539 99.9014 29.4001 99.2544 28.6166C97.1673 26.0897 94.8403 23.7627 92.3133 21.6756C91.5299 21.0286 91.3761 19.876 91.9953 19.0704C92.6138 18.2656 92.465 17.1091 91.6405 16.5171C88.713 14.4154 85.5877 12.6068 82.3185 11.1163C81.3927 10.6942 80.3129 11.1423 79.9231 12.0821C79.534 13.0203 78.4596 13.4626 77.5079 13.1078C74.4729 11.976 71.3055 11.1175 68.0324 10.5721C67.0263 10.4045 66.3118 9.48159 66.4433 8.47017C66.5747 7.46007 65.8631 6.53134 64.8492 6.43321C61.2868 6.0884 57.653 6.08835 54.0905 6.43304C53.0757 6.53123 52.3635 7.46083 52.495 8.47188C52.6264 9.48291 51.9133 10.4059 50.9077 10.5744C47.634 11.123 44.4659 11.9775 41.4303 13.1081C40.4785 13.4626 39.404 13.0203 39.0149 12.0821C38.6251 11.1423 37.5453 10.6942 36.6196 11.1163C33.3508 12.6066 30.2259 14.4149 27.2987 16.5163C26.4735 17.1087 26.3246 18.2661 26.9436 19.0715C27.5626 19.8769 27.4097 21.0289 26.627 21.6763C24.0993 23.7671 21.7716 26.0906 19.6839 28.6168C19.0366 29.4 17.8841 29.5539 17.0785 28.9347C16.2736 28.3161 15.1171 28.4649 14.5251 29.2895C12.4237 32.2167 10.6152 35.3417 9.12474 38.6106C8.70217 39.5375 9.14947 40.6186 10.0895 41.0109C11.0284 41.4027 11.4698 42.4794 11.1141 43.4326C9.9835 46.4622 9.1257 49.6305 8.58063 52.8977C8.41277 53.9038 7.48972 54.6182 6.47823 54.4867C5.46806 54.3553 4.53925 55.0668 4.44121 56.0808C4.26882 57.8638 4.18262 59.6693 4.18262 61.4653C4.18262 63.2618 4.26887 65.0631 4.44138 66.8479C4.53948 67.8627 5.46905 68.5751 6.48015 68.4437C7.49106 68.3122 8.41397 69.0253 8.58243 70.0307C9.13078 73.3032 9.98494 76.4695 11.1149 79.4995C11.4699 80.4513 11.0278 81.5262 10.0895 81.9154C9.15007 82.305 8.70215 83.3844 9.12405 84.3098C10.6144 87.5788 12.4229 90.7039 14.5243 93.6313C15.1167 94.4565 16.2741 94.6054 17.0796 93.9864C17.8849 93.3674 19.037 93.5203 19.6844 94.303C21.7751 96.8307 24.0986 99.1584 26.6249 101.246C27.4081 101.893 27.5619 103.046 26.9428 103.852C26.3242 104.656 26.473 105.813 27.2976 106.405C30.2246 108.506 33.3494 110.315 36.6181 111.805C37.5452 112.228 38.6268 111.78 39.0192 110.84C39.411 109.901 40.4872 109.459 41.4404 109.815C44.4736 110.946 47.6389 111.804 50.9099 112.349C51.9185 112.517 52.6349 113.442 52.5034 114.456C52.372 115.469 53.0852 116.4 54.1015 116.498C55.8832 116.67 57.6874 116.756 59.482 116.756C61.2777 116.756 63.0781 116.67 64.862 116.498C65.8784 116.399 66.592 115.469 66.4606 114.456C66.3291 113.442 67.0454 112.517 68.0537 112.349C71.324 111.804 74.4882 110.946 77.5163 109.815C78.468 109.46 79.5429 109.902 79.9321 110.84C80.3217 111.78 81.4011 112.228 82.3265 111.806C85.5955 110.316 88.7206 108.507 91.648 106.406C92.4732 105.813 92.6221 104.656 92.0031 103.85C91.3841 103.045 91.537 101.893 92.3197 101.246C94.8474 99.1549 97.1751 96.8314 99.2628 94.3051C99.9101 93.5219 101.063 93.3681 101.868 93.9872C102.673 94.6058 103.83 94.457 104.422 93.6324C106.523 90.7049 108.332 87.5797 109.822 84.3104C110.244 83.3847 109.796 82.3049 108.857 81.9151C107.918 81.526 107.476 80.4515 107.831 79.4998C108.963 76.4649 109.821 73.2976 110.366 70.0247C110.534 69.0191 111.458 68.3058 112.468 68.4396C113.478 68.5732 114.407 67.8626 114.505 66.849C114.678 65.0639 114.764 63.2622 114.764 61.4653C114.764 59.0529 114.609 56.6318 114.297 54.2539C114.297 54.2507 114.296 54.2477 114.293 54.2454ZM72.5649 61.4566C72.5649 68.3875 66.707 74.0031 59.4734 74.0031C52.2397 74.0031 46.3818 68.3875 46.3818 61.4566C46.3818 54.5258 52.2397 48.9102 59.4734 48.9102C66.707 48.9102 72.5649 54.5258 72.5649 61.4566Z" fill="white"/>
</g>
<rect x="22.4971" y="23.9968" width="75.0064" height="75.0064" rx="37.5032" fill="#FFDD00"/>
<g clip-path="url(#clip1_55226_6394)">
<path d="M41.0204 69.5894C40.7195 69.5894 40.4186 69.3771 40.2896 69.0799C39.4299 66.8291 39 64.4086 39 61.988C39 52.6878 45.1043 44.7891 54.1318 42.3685H54.3037C54.3037 42.3261 54.0888 40.5 54.0888 40.5L59.2903 42.4959L54.6476 45.3836L54.4757 43.8548L54.2177 43.9398C46.05 46.2754 40.5476 53.5372 40.5476 61.988C40.5476 70.4388 40.9345 66.4469 41.7512 68.5703C41.8372 68.7401 41.7942 68.9525 41.7512 69.1648C41.7082 69.3771 41.4933 69.5045 41.3213 69.547C41.2354 69.547 41.1494 69.5894 41.0634 69.5894H41.0204Z" fill="#181818"/>
<path d="M59.6346 82.3718C54.1751 82.3718 48.8016 80.1636 44.9757 76.2992L44.8467 76.1718L43.3421 77.2334L42.5684 71.7552L47.383 74.3457L46.0934 75.2375L46.2653 75.4074C49.8763 78.8896 54.605 80.8006 59.6346 80.8006C64.6642 80.8006 70.8114 78.2526 74.4224 73.8361C74.5514 73.6662 74.7663 73.5388 75.0243 73.5388C75.2822 73.5388 75.3682 73.5813 75.4971 73.7087C75.841 73.9635 75.884 74.4731 75.6261 74.7704C71.6712 79.5691 65.8678 82.2869 59.6346 82.2869V82.3718Z" fill="#181818"/>
<path d="M76.5713 66.3619L77.9899 66.9989V66.7441C78.4628 65.2153 78.6777 63.6016 78.6777 61.9878C78.6777 52.8576 72.1006 45.0438 62.9871 43.43C62.7722 43.43 62.6002 43.3026 62.4713 43.1328C62.3423 42.9629 62.2993 42.7506 62.3423 42.5807C62.4283 42.1985 62.7292 41.9437 63.1161 41.9437C63.503 41.9437 63.2021 41.9437 63.245 41.9437C73.0463 43.6848 80.1823 52.1356 80.1823 61.9878C80.1823 71.84 79.9244 65.6824 79.4515 67.4235V67.5934C79.4085 67.5934 81.085 68.3578 81.085 68.3578L76.7003 71.7551L76.5713 66.3194V66.3619Z" fill="#181818"/>
<path d="M59.8496 76.4689C59.4197 76.4689 59.0758 76.1292 59.0758 75.7045V70.4387L55.7227 74.0484C55.5938 74.2182 55.3788 74.3032 55.1639 74.3032C54.949 74.3032 54.777 74.2182 54.6481 74.0908C54.4761 73.9634 54.3901 73.7511 54.3901 73.5812C54.3901 73.3689 54.4331 73.199 54.6051 73.0292L59.1188 68.188V63.4742L55.0349 65.8524L53.1005 72.1374C53.0145 72.4771 52.7136 72.6894 52.3697 72.6894C52.0258 72.6894 52.2407 72.6894 52.1547 72.6894C51.9398 72.647 51.8108 72.5196 51.6819 72.3072C51.5959 72.1374 51.5529 71.925 51.6389 71.7127L53.0575 66.9989L48.4578 69.6743C48.3288 69.7593 48.1999 69.7593 48.0709 69.7593C47.813 69.7593 47.555 69.6319 47.4261 69.3771C47.3401 69.2072 47.2971 68.9949 47.3401 68.7825C47.3831 68.5702 47.5121 68.4003 47.684 68.3154L52.2837 65.64L47.4261 64.6208C46.9962 64.5359 46.7383 64.1112 46.8242 63.729C46.9102 63.3893 47.2111 63.1345 47.598 63.1345C47.9849 63.1345 47.727 63.1345 47.77 63.1345L54.2612 64.4934L58.388 62.0729L53.8743 59.4399L47.3831 60.7989C47.3401 60.7989 47.2541 60.7989 47.2111 60.7989C46.8672 60.7989 46.5233 60.5441 46.4803 60.2043C46.3944 59.7797 46.6523 59.3975 47.0822 59.3125L51.9398 58.2933L47.727 55.8303C47.555 55.7454 47.4261 55.5755 47.3831 55.3632C47.3401 55.1508 47.3831 54.981 47.4691 54.7686C47.598 54.5563 47.856 54.3864 48.1139 54.3864C48.3718 54.3864 48.3718 54.3864 48.5008 54.4714L52.7136 56.9344L51.295 52.2207C51.252 52.0083 51.295 51.8385 51.338 51.6261C51.424 51.4563 51.5959 51.3289 51.8108 51.2439C51.8968 51.2439 51.9398 51.2439 52.0258 51.2439C52.3697 51.2439 52.6706 51.4563 52.7566 51.796L54.691 58.081L59.1618 60.6715V55.533L54.6481 50.6919C54.5191 50.522 54.4331 50.3521 54.4331 50.1398C54.4331 49.9275 54.5191 49.7576 54.691 49.6302C54.82 49.5028 55.0349 49.4179 55.2069 49.4179C55.3788 49.4179 55.6368 49.5028 55.7657 49.6727L59.1188 53.2823V48.4412C59.1188 48.0165 59.4627 47.6768 59.8926 47.6768C60.3225 47.6768 60.6664 48.0165 60.6664 48.4412V53.2823L64.0194 49.6727C64.1484 49.5028 64.3633 49.4179 64.5783 49.4179C64.7932 49.4179 64.9652 49.5028 65.0941 49.6302C65.2661 49.7576 65.352 49.9699 65.352 50.1398C65.352 50.3521 65.3091 50.522 65.1371 50.6919L60.6234 55.533V60.6715L65.0941 58.081L67.0286 51.796C67.1146 51.4987 67.4155 51.2439 67.7594 51.2439C68.1033 51.2439 67.8883 51.2439 67.9743 51.2439C68.3612 51.3713 68.6191 51.796 68.4902 52.1782L67.0716 56.892L71.2844 54.4289C71.4133 54.344 71.5423 54.344 71.6713 54.344C71.9292 54.344 72.1871 54.4714 72.3161 54.7262C72.4021 54.896 72.4451 55.1084 72.4021 55.3207C72.3591 55.533 72.2301 55.7029 72.0582 55.7878L67.8453 58.2509L72.703 59.2701C73.1329 59.355 73.3908 59.7797 73.3048 60.1619C73.2188 60.5016 72.9179 60.7564 72.574 60.7564C72.2301 60.7564 72.4451 60.7564 72.4021 60.7564L65.9109 59.3975L61.3972 62.0304L65.524 64.451L72.0152 63.092C72.0582 63.092 72.1441 63.092 72.1871 63.092C72.531 63.092 72.8749 63.3468 72.9179 63.6866C73.0039 64.1112 72.746 64.4934 72.3161 64.5784L67.4585 65.5976L72.0582 68.2729C72.2301 68.3579 72.3591 68.5277 72.4021 68.7401C72.4451 68.9524 72.4021 69.1223 72.3161 69.3346C72.1871 69.5469 71.9292 69.7168 71.6713 69.7168C71.4133 69.7168 71.4133 69.7168 71.2844 69.6319L66.6847 66.9565L68.1033 71.6702C68.2322 72.0524 67.9743 72.4771 67.5874 72.6045C67.5014 72.6045 67.4585 72.6045 67.3725 72.6045C67.0286 72.6045 66.7277 72.3922 66.6417 72.0524L64.7072 65.7674L60.6234 63.3893V68.1031L65.1371 72.9442C65.2661 73.1141 65.352 73.284 65.352 73.4963C65.352 73.7086 65.2661 73.8785 65.0941 74.0059C64.9652 74.1333 64.7502 74.2182 64.5783 74.2182C64.4063 74.2182 64.1484 74.1333 64.0194 73.9634L60.6664 70.3538V75.6196C60.6664 76.0443 60.3225 76.384 59.8926 76.384L59.8496 76.4689Z" fill="#181818"/>
</g>
<defs>
<clipPath id="clip0_55226_6394">
<rect width="110.581" height="110.581" fill="white" transform="translate(4.18262 6.17456)"/>
</clipPath>
<clipPath id="clip1_55226_6394">
<rect width="42" height="42" fill="white" transform="translate(39 40.5)"/>
</clipPath>
</defs>
</svg>
