<svg width="120" height="123" viewBox="0 0 120 123" fill="none" xmlns="http://www.w3.org/2000/svg">
<g clip-path="url(#clip0_55226_6377)">
<path d="M114.293 54.2454C114.29 54.2422 114.286 54.2406 114.281 54.2412L113.08 54.3974C111.725 54.5735 110.49 53.6175 110.248 52.2731C109.698 49.2197 108.882 46.2613 107.823 43.4225C107.468 42.4707 107.91 41.3958 108.849 41.0066C109.788 40.6169 110.236 39.5376 109.814 38.6122C108.323 35.3427 106.515 32.2172 104.413 29.2895C103.821 28.4649 102.664 28.3161 101.86 28.9347C101.054 29.5539 99.9014 29.4001 99.2544 28.6166C97.1673 26.0897 94.8403 23.7627 92.3133 21.6756C91.5299 21.0286 91.3761 19.876 91.9953 19.0704C92.6138 18.2656 92.465 17.1091 91.6405 16.5171C88.713 14.4154 85.5877 12.6068 82.3185 11.1163C81.3927 10.6942 80.3129 11.1423 79.9231 12.0821C79.534 13.0203 78.4596 13.4626 77.5079 13.1078C74.4729 11.976 71.3055 11.1175 68.0324 10.5721C67.0263 10.4045 66.3118 9.48159 66.4433 8.47017C66.5747 7.46007 65.8631 6.53134 64.8492 6.43321C61.2868 6.0884 57.653 6.08835 54.0905 6.43304C53.0757 6.53123 52.3635 7.46083 52.495 8.47188C52.6264 9.48291 51.9133 10.4059 50.9077 10.5744C47.634 11.123 44.4659 11.9775 41.4303 13.1081C40.4785 13.4626 39.404 13.0203 39.0149 12.0821C38.6251 11.1423 37.5453 10.6942 36.6196 11.1163C33.3508 12.6066 30.2259 14.4149 27.2987 16.5163C26.4735 17.1087 26.3246 18.2661 26.9436 19.0715C27.5626 19.8769 27.4097 21.0289 26.627 21.6763C24.0993 23.7671 21.7716 26.0906 19.6839 28.6168C19.0366 29.4 17.8841 29.5539 17.0785 28.9347C16.2736 28.3161 15.1171 28.4649 14.5251 29.2895C12.4237 32.2167 10.6152 35.3417 9.12474 38.6106C8.70217 39.5375 9.14947 40.6186 10.0895 41.0109C11.0284 41.4027 11.4698 42.4794 11.1141 43.4326C9.9835 46.4622 9.1257 49.6305 8.58063 52.8977C8.41277 53.9038 7.48972 54.6182 6.47823 54.4867C5.46806 54.3553 4.53925 55.0668 4.44121 56.0808C4.26882 57.8638 4.18262 59.6693 4.18262 61.4653C4.18262 63.2618 4.26887 65.0631 4.44138 66.8479C4.53948 67.8627 5.46905 68.5751 6.48015 68.4437C7.49106 68.3122 8.41397 69.0253 8.58243 70.0307C9.13078 73.3032 9.98494 76.4695 11.1149 79.4995C11.4699 80.4513 11.0278 81.5262 10.0895 81.9154C9.15007 82.305 8.70215 83.3844 9.12405 84.3098C10.6144 87.5788 12.4229 90.7039 14.5243 93.6313C15.1167 94.4565 16.2741 94.6054 17.0796 93.9864C17.8849 93.3674 19.037 93.5203 19.6844 94.303C21.7751 96.8307 24.0986 99.1584 26.6249 101.246C27.4081 101.893 27.5619 103.046 26.9428 103.852C26.3242 104.656 26.473 105.813 27.2976 106.405C30.2246 108.506 33.3494 110.315 36.6181 111.805C37.5452 112.228 38.6268 111.78 39.0192 110.84C39.411 109.901 40.4872 109.459 41.4404 109.815C44.4736 110.946 47.6389 111.804 50.9099 112.349C51.9185 112.517 52.6349 113.442 52.5034 114.456C52.372 115.469 53.0852 116.4 54.1015 116.498C55.8832 116.67 57.6874 116.756 59.482 116.756C61.2777 116.756 63.0781 116.67 64.862 116.498C65.8784 116.399 66.592 115.469 66.4606 114.456C66.3291 113.442 67.0454 112.517 68.0537 112.349C71.324 111.804 74.4882 110.946 77.5163 109.815C78.468 109.46 79.5429 109.902 79.9321 110.84C80.3217 111.78 81.4011 112.228 82.3265 111.806C85.5955 110.316 88.7206 108.507 91.648 106.406C92.4732 105.813 92.6221 104.656 92.0031 103.85C91.3841 103.045 91.537 101.893 92.3197 101.246C94.8474 99.1549 97.1751 96.8314 99.2628 94.3051C99.9101 93.5219 101.063 93.3681 101.868 93.9872C102.673 94.6058 103.83 94.457 104.422 93.6324C106.523 90.7049 108.332 87.5797 109.822 84.3104C110.244 83.3847 109.796 82.3049 108.857 81.9151C107.918 81.526 107.476 80.4515 107.831 79.4998C108.963 76.4649 109.821 73.2976 110.366 70.0247C110.534 69.0191 111.458 68.3058 112.468 68.4396C113.478 68.5732 114.407 67.8626 114.505 66.849C114.678 65.0639 114.764 63.2622 114.764 61.4653C114.764 59.0529 114.609 56.6318 114.297 54.2539C114.297 54.2507 114.296 54.2477 114.293 54.2454ZM72.5649 61.4566C72.5649 68.3875 66.707 74.0031 59.4734 74.0031C52.2397 74.0031 46.3818 68.3875 46.3818 61.4566C46.3818 54.5258 52.2397 48.9102 59.4734 48.9102C66.707 48.9102 72.5649 54.5258 72.5649 61.4566Z" fill="white"/>
</g>
<rect x="22.4971" y="23.9968" width="75.0064" height="75.0064" rx="37.5032" fill="#FFDD00"/>
<path d="M80.167 52.4593C80.167 52.4593 80.167 52.3751 80.1247 52.3751C80.1247 52.3751 80.1247 52.333 80.0823 52.2909C75.9736 45.5132 68.561 40.9667 60.0894 40.9667C51.6178 40.9667 44.1629 45.5132 40.0965 52.2909C40.0965 52.2909 40.0965 52.333 40.0542 52.3751C40.0542 52.3751 40.0542 52.4593 40.0118 52.4593C37.9786 55.8692 36.835 59.8263 36.835 64.0782C36.835 68.33 38.3175 73.508 41.1131 77.4231C41.4096 77.844 41.9603 77.9282 42.3838 77.7178C42.3838 77.7178 42.4262 77.7177 42.4686 77.6756L47.5091 74.1395C47.9327 73.8448 48.0598 73.2133 47.7209 72.7923C47.4244 72.3714 46.789 72.2451 46.3655 72.5819L42.1297 75.5708C39.9271 72.1609 38.7411 68.2458 38.7411 64.1624C38.7411 60.0789 39.6306 57.2163 41.1978 54.2695L45.6877 56.8795C45.8572 56.9637 46.0266 57.0058 46.196 57.0058C46.5349 57.0058 46.8314 56.8374 47.0432 56.5427C47.2973 56.0797 47.1703 55.4903 46.7043 55.2377L42.2568 52.6277C45.8572 46.9866 52.0414 43.2399 59.1152 42.9032V48.0811C59.1152 48.6284 59.5388 49.0494 60.0894 49.0494C60.6401 49.0494 61.0636 48.6284 61.0636 48.0811V42.9032C68.1374 43.2399 74.2793 46.9445 77.922 52.5014L73.4745 55.1114C73.0085 55.364 72.8391 55.9534 73.1356 56.4164C73.305 56.7111 73.6439 56.8795 73.9828 56.8795C74.3216 56.8795 74.3216 56.8374 74.4911 56.7532L78.981 54.1432C80.5482 57.09 81.4377 60.4578 81.4377 64.0361C81.4377 67.6144 80.2941 72.0346 78.0491 75.4445L73.8133 72.4556C73.3898 72.1609 72.7544 72.2451 72.4579 72.6661C72.1614 73.087 72.2461 73.7185 72.6697 74.0132L77.7103 77.5494C77.7103 77.5494 77.7526 77.5494 77.795 77.5915C77.9644 77.6757 78.0915 77.7178 78.2609 77.7178C78.5574 77.7178 78.8539 77.5915 79.0657 77.2968C81.8613 73.3817 83.3438 68.751 83.3438 63.9519C83.3438 59.1528 82.2002 55.7429 80.167 52.333V52.4593Z" fill="#181818"/>
<path d="M68.3494 77.2969H52.3805C51.8298 77.2969 51.4062 77.7178 51.4062 78.2651C51.4062 78.8124 51.8298 79.2334 52.3805 79.2334H68.3494C68.9 79.2334 69.3236 78.8124 69.3236 78.2651C69.3236 77.7178 68.9 77.2969 68.3494 77.2969Z" fill="#181818"/>
<path d="M63.4781 65.4675L73.3898 65.0044C73.8981 65.0044 74.2793 64.5834 74.2793 64.0782C74.2793 63.5731 73.8981 63.1942 73.3898 63.1521L63.3933 62.4785C62.8003 61.2577 61.5296 60.4158 60.0894 60.4158C58.6493 60.4158 56.4043 62.0576 56.4043 64.0782C56.4043 66.0989 58.0563 67.7407 60.0894 67.7407C62.1226 67.7407 62.9274 66.8146 63.4781 65.5096V65.4675Z" fill="#181818"/>
<defs>
<clipPath id="clip0_55226_6377">
<rect width="110.581" height="110.581" fill="white" transform="translate(4.18262 6.17456)"/>
</clipPath>
</defs>
</svg>
