<svg width="19" height="19" viewBox="0 0 19 19" fill="none" xmlns="http://www.w3.org/2000/svg">
<g clip-path="url(#clip0_55226_6598)">
<path d="M7.4892 13.0488C7.29626 13.0341 7.11678 12.9443 6.98921 12.7988L3.98924 9.79886C3.9224 9.65891 3.90059 9.50168 3.92682 9.34882C3.95304 9.19596 4.02602 9.05499 4.13568 8.94532C4.24535 8.83565 4.38632 8.76268 4.53918 8.73645C4.69204 8.71023 4.84928 8.73203 4.98923 8.79887L7.45921 11.2689L15.9891 2.79893C16.1291 2.73209 16.2863 2.71028 16.4392 2.73651C16.592 2.76274 16.733 2.83571 16.8427 2.94538C16.9523 3.05504 17.0253 3.19602 17.0515 3.34888C17.0778 3.50174 17.056 3.65897 16.9891 3.79892L7.9892 12.7988C7.86163 12.9443 7.68215 13.0341 7.4892 13.0488Z" fill="#FFDD00"/>
<path d="M8.98928 18.7988C7.38076 18.7962 5.80233 18.3626 4.41825 17.5431C3.03416 16.7235 1.89502 15.548 1.11936 14.1389C0.530552 13.0885 0.166202 11.9274 0.0493657 10.7289C-0.133652 8.971 0.204974 7.19812 1.023 5.63142C1.84103 4.06472 3.10225 2.77355 4.64932 1.91899C5.69968 1.33019 6.86083 0.965838 8.05929 0.849001C9.25343 0.721665 10.461 0.837319 11.6093 1.189C11.7117 1.20947 11.8088 1.25112 11.8942 1.31129C11.9796 1.37145 12.0515 1.4488 12.1053 1.53838C12.1591 1.62795 12.1936 1.72778 12.2065 1.83145C12.2195 1.93513 12.2106 2.04037 12.1805 2.14042C12.1504 2.24048 12.0998 2.33315 12.0318 2.41248C11.9638 2.49182 11.88 2.55607 11.7857 2.60113C11.6915 2.64619 11.5888 2.67105 11.4844 2.67412C11.3799 2.6772 11.276 2.65842 11.1793 2.61898C10.208 2.32638 9.18794 2.23117 8.17929 2.33899C7.18213 2.44026 6.21593 2.74304 5.33931 3.22898C4.49445 3.69508 3.74747 4.31982 3.13934 5.06896C2.5132 5.83211 2.04564 6.71253 1.76404 7.65865C1.48243 8.60477 1.39245 9.59757 1.49935 10.5789C1.60062 11.5761 1.90341 12.5423 2.38934 13.4189C2.85544 14.2637 3.48019 15.0107 4.22932 15.6189C4.99248 16.245 5.8729 16.7126 6.81902 16.9942C7.76514 17.2758 8.75794 17.3657 9.73927 17.2588C10.7364 17.1576 11.7026 16.8548 12.5792 16.3689C13.4241 15.9028 14.1711 15.278 14.7792 14.5289C15.4054 13.7657 15.8729 12.8853 16.1545 11.9392C16.4361 10.9931 16.5261 10.0003 16.4192 9.01892C16.3993 8.81073 16.4629 8.60316 16.5961 8.44188C16.7292 8.2806 16.921 8.17882 17.1292 8.15893C17.3374 8.13904 17.545 8.20267 17.7062 8.33582C17.8675 8.46897 17.9693 8.66073 17.9892 8.86892C18.1713 10.6279 17.8312 12.4015 17.0113 13.9683C16.1914 15.5351 14.9282 16.8257 13.3792 17.6788C12.3177 18.2917 11.1386 18.6734 9.91927 18.7988H8.98928Z" fill="#FFDD00"/>
</g>
<defs>
<clipPath id="clip0_55226_6598">
<rect width="18.6923" height="18" fill="white" transform="translate(0 0.798828)"/>
</clipPath>
</defs>
</svg>
