<svg width="17" height="17" viewBox="0 0 17 17" fill="none" xmlns="http://www.w3.org/2000/svg">
<path d="M10.3701 0C13.1985 1.70664e-10 14.6125 0.000238863 15.4912 0.878906C16.3698 1.75759 16.3701 3.17164 16.3701 6V10.3701C16.3701 13.1985 16.3699 14.6125 15.4912 15.4912C14.6125 16.3699 13.1985 16.3701 10.3701 16.3701H6C3.17163 16.3701 1.75759 16.3698 0.878906 15.4912C0.000238764 14.6125 1.67931e-10 13.1985 0 10.3701V6C0 3.17157 0.000226814 1.75759 0.878906 0.878906C1.75759 0.000226716 3.17157 0 6 0H10.3701ZM4.03711 7.14941C3.64338 7.14948 3.30068 7.36917 3.125 7.69238C3.10898 7.72182 3.09422 7.75213 3.08105 7.7832C3.02855 7.90732 3 8.04426 3 8.1875C3.00003 8.29499 3.0165 8.3986 3.04688 8.49609C3.17818 8.91832 3.5717 9.22547 4.03711 9.22559H12.3359C12.9089 9.22559 13.374 8.76042 13.374 8.1875C13.374 8.0082 13.3282 7.83951 13.248 7.69238C13.2085 7.61967 13.1596 7.55308 13.1045 7.49219C13.0822 7.46758 13.0587 7.44424 13.0342 7.42188C12.8498 7.25361 12.6052 7.14941 12.3359 7.14941H4.03711Z" fill="white"/>
</svg>
