<svg width="20" height="19" viewBox="0 0 20 19" fill="none" xmlns="http://www.w3.org/2000/svg">
<g clip-path="url(#clip0_55226_6610)">
<path d="M7.87397 13.0488C7.68103 13.0341 7.50154 12.9443 7.37398 12.7988L4.374 9.79886C4.30716 9.65891 4.28536 9.50168 4.31158 9.34882C4.33781 9.19596 4.41078 9.05499 4.52045 8.94532C4.63012 8.83565 4.77109 8.76268 4.92395 8.73645C5.07681 8.71023 5.23404 8.73203 5.37399 8.79887L7.84397 11.2689L16.3739 2.79893C16.5138 2.73209 16.6711 2.71028 16.8239 2.73651C16.9768 2.76274 17.1178 2.83571 17.2274 2.94538C17.3371 3.05504 17.4101 3.19602 17.4363 3.34888C17.4625 3.50174 17.4407 3.65897 17.3739 3.79892L8.37397 12.7988C8.2464 12.9443 8.06691 13.0341 7.87397 13.0488Z" fill="#FFDD00"/>
<path d="M9.37404 18.7988C7.76553 18.7962 6.18709 18.3626 4.80301 17.5431C3.41893 16.7235 2.27978 15.548 1.50412 14.1389C0.915318 13.0885 0.550968 11.9274 0.434131 10.7289C0.251114 8.971 0.589739 7.19812 1.40777 5.63142C2.22579 4.06472 3.48701 2.77355 5.03409 1.91899C6.08445 1.33019 7.2456 0.965838 8.44405 0.849001C9.6382 0.721665 10.8458 0.837319 11.994 1.189C12.0965 1.20947 12.1935 1.25112 12.2789 1.31129C12.3644 1.37145 12.4363 1.4488 12.4901 1.53838C12.5438 1.62795 12.5783 1.72778 12.5913 1.83145C12.6042 1.93513 12.5954 2.04037 12.5653 2.14042C12.5352 2.24048 12.4846 2.33315 12.4166 2.41248C12.3486 2.49182 12.2648 2.55607 12.1705 2.60113C12.0762 2.64619 11.9736 2.67105 11.8691 2.67412C11.7647 2.6772 11.6608 2.65842 11.564 2.61898C10.5927 2.32638 9.57271 2.23117 8.56405 2.33899C7.56689 2.44026 6.6007 2.74304 5.72408 3.22898C4.87922 3.69508 4.13224 4.31982 3.5241 5.06896C2.89797 5.83211 2.43041 6.71253 2.1488 7.65865C1.8672 8.60477 1.77721 9.59757 1.88412 10.5789C1.98539 11.5761 2.28817 12.5423 2.77411 13.4189C3.24021 14.2637 3.86495 15.0107 4.61409 15.6189C5.37724 16.245 6.25766 16.7126 7.20378 16.9942C8.1499 17.2758 9.1427 17.3657 10.124 17.2588C11.1212 17.1576 12.0874 16.8548 12.964 16.3689C13.8089 15.9028 14.5559 15.278 15.164 14.5289C15.7901 13.7657 16.2577 12.8853 16.5393 11.9392C16.8209 10.9931 16.9109 10.0003 16.804 9.01892C16.7841 8.81073 16.8477 8.60316 16.9809 8.44188C17.114 8.2806 17.3058 8.17882 17.514 8.15893C17.7222 8.13904 17.9297 8.20267 18.091 8.33582C18.2523 8.46897 18.3541 8.66073 18.374 8.86892C18.556 10.6279 18.2159 12.4015 17.3961 13.9683C16.5762 15.5351 15.3129 16.8257 13.764 17.6788C12.7025 18.2917 11.5234 18.6734 10.304 18.7988H9.37404Z" fill="#FFDD00"/>
</g>
<defs>
<clipPath id="clip0_55226_6610">
<rect width="18.6923" height="18" fill="white" transform="translate(0.384766 0.798828)"/>
</clipPath>
</defs>
</svg>
