<svg width="17" height="18" viewBox="0 0 17 18" fill="none" xmlns="http://www.w3.org/2000/svg">
<path d="M10.4346 0.814941C13.2629 0.814941 14.677 0.81518 15.5557 1.69385C16.4343 2.57253 16.4346 3.98658 16.4346 6.81494V11.1851C16.4346 14.0134 16.4343 15.4275 15.5557 16.3062C14.677 17.1848 13.2629 17.1851 10.4346 17.1851H6.06445C3.23609 17.1851 1.82204 17.1848 0.943359 16.3062C0.0646919 15.4275 0.0644531 14.0134 0.0644531 11.1851V6.81494C0.0644531 3.98651 0.0646799 2.57253 0.943359 1.69385C1.82204 0.815168 3.23603 0.814941 6.06445 0.814941H10.4346ZM8.25195 3.81494C7.67903 3.81494 7.21387 4.2801 7.21387 4.85303V7.96533H4.10156C3.52885 7.96547 3.06459 8.42972 3.06445 9.00244C3.06445 9.57528 3.52876 10.0404 4.10156 10.0405H7.21387V13.1519C7.21401 13.7247 7.67912 14.189 8.25195 14.189C8.82467 14.1888 9.28892 13.7246 9.28906 13.1519V10.0405H12.4004C12.9733 10.0405 13.4385 9.57536 13.4385 9.00244C13.4383 8.42964 12.9732 7.96533 12.4004 7.96533H9.28906V4.85303C9.28906 4.28019 8.82476 3.81508 8.25195 3.81494Z" fill="white"/>
</svg>
