<svg width="120" height="123" viewBox="0 0 120 123" fill="none" xmlns="http://www.w3.org/2000/svg">
<g clip-path="url(#clip0_55226_6262)">
<path d="M114.293 54.2454C114.29 54.2422 114.286 54.2406 114.281 54.2412L113.08 54.3974C111.725 54.5735 110.49 53.6175 110.248 52.2731C109.698 49.2197 108.882 46.2613 107.823 43.4225C107.468 42.4707 107.91 41.3958 108.849 41.0066C109.788 40.6169 110.236 39.5376 109.814 38.6122C108.323 35.3427 106.515 32.2172 104.413 29.2895C103.821 28.4649 102.664 28.3161 101.86 28.9347C101.054 29.5539 99.9014 29.4001 99.2544 28.6166C97.1673 26.0897 94.8403 23.7627 92.3133 21.6756C91.5299 21.0286 91.3761 19.876 91.9953 19.0704C92.6138 18.2656 92.465 17.1091 91.6405 16.5171C88.713 14.4154 85.5877 12.6068 82.3185 11.1163C81.3927 10.6942 80.3129 11.1423 79.9231 12.0821C79.534 13.0203 78.4596 13.4626 77.5079 13.1078C74.4729 11.976 71.3055 11.1175 68.0324 10.5721C67.0263 10.4045 66.3118 9.48159 66.4433 8.47017C66.5747 7.46007 65.8631 6.53134 64.8492 6.43321C61.2868 6.0884 57.653 6.08835 54.0905 6.43304C53.0757 6.53123 52.3635 7.46083 52.495 8.47188C52.6264 9.48291 51.9133 10.4059 50.9077 10.5744C47.634 11.123 44.4659 11.9775 41.4303 13.1081C40.4785 13.4626 39.404 13.0203 39.0149 12.0821C38.6251 11.1423 37.5453 10.6942 36.6196 11.1163C33.3508 12.6066 30.2259 14.4149 27.2987 16.5163C26.4735 17.1087 26.3246 18.2661 26.9436 19.0715C27.5626 19.8769 27.4097 21.0289 26.627 21.6763C24.0993 23.7671 21.7716 26.0906 19.6839 28.6168C19.0366 29.4 17.8841 29.5539 17.0785 28.9347C16.2736 28.3161 15.1171 28.4649 14.5251 29.2895C12.4237 32.2167 10.6152 35.3417 9.12474 38.6106C8.70217 39.5375 9.14947 40.6186 10.0895 41.0109C11.0284 41.4027 11.4698 42.4794 11.1141 43.4326C9.9835 46.4622 9.1257 49.6305 8.58063 52.8977C8.41277 53.9038 7.48972 54.6182 6.47823 54.4867C5.46806 54.3553 4.53925 55.0668 4.44121 56.0808C4.26882 57.8638 4.18262 59.6693 4.18262 61.4653C4.18262 63.2618 4.26887 65.0631 4.44138 66.8479C4.53948 67.8627 5.46905 68.5751 6.48015 68.4437C7.49106 68.3122 8.41397 69.0253 8.58243 70.0307C9.13078 73.3032 9.98494 76.4695 11.1149 79.4995C11.4699 80.4513 11.0278 81.5262 10.0895 81.9154C9.15007 82.305 8.70215 83.3844 9.12405 84.3098C10.6144 87.5788 12.4229 90.7039 14.5243 93.6313C15.1167 94.4565 16.2741 94.6054 17.0796 93.9864C17.8849 93.3674 19.037 93.5203 19.6844 94.303C21.7751 96.8307 24.0986 99.1584 26.6249 101.246C27.4081 101.893 27.5619 103.046 26.9428 103.852C26.3242 104.656 26.473 105.813 27.2976 106.405C30.2246 108.506 33.3494 110.315 36.6181 111.805C37.5452 112.228 38.6268 111.78 39.0192 110.84C39.411 109.901 40.4872 109.459 41.4404 109.815C44.4736 110.946 47.6389 111.804 50.9099 112.349C51.9185 112.517 52.6349 113.442 52.5034 114.456C52.372 115.469 53.0852 116.4 54.1015 116.498C55.8832 116.67 57.6874 116.756 59.482 116.756C61.2777 116.756 63.0781 116.67 64.862 116.498C65.8784 116.399 66.592 115.469 66.4606 114.456C66.3291 113.442 67.0454 112.517 68.0537 112.349C71.324 111.804 74.4882 110.946 77.5163 109.815C78.468 109.46 79.5429 109.902 79.9321 110.84C80.3217 111.78 81.4011 112.228 82.3265 111.806C85.5955 110.316 88.7206 108.507 91.648 106.406C92.4732 105.813 92.6221 104.656 92.0031 103.85C91.3841 103.045 91.537 101.893 92.3197 101.246C94.8474 99.1549 97.1751 96.8314 99.2628 94.3051C99.9101 93.5219 101.063 93.3681 101.868 93.9872C102.673 94.6058 103.83 94.457 104.422 93.6324C106.523 90.7049 108.332 87.5797 109.822 84.3104C110.244 83.3847 109.796 82.3049 108.857 81.9151C107.918 81.526 107.476 80.4515 107.831 79.4998C108.963 76.4649 109.821 73.2976 110.366 70.0247C110.534 69.0191 111.458 68.3058 112.468 68.4396C113.478 68.5732 114.407 67.8626 114.505 66.849C114.678 65.0639 114.764 63.2622 114.764 61.4653C114.764 59.0529 114.609 56.6318 114.297 54.2539C114.297 54.2507 114.296 54.2477 114.293 54.2454ZM72.5649 61.4566C72.5649 68.3875 66.707 74.0031 59.4734 74.0031C52.2397 74.0031 46.3818 68.3875 46.3818 61.4566C46.3818 54.5258 52.2397 48.9102 59.4734 48.9102C66.707 48.9102 72.5649 54.5258 72.5649 61.4566Z" fill="white"/>
</g>
<rect x="22.4971" y="23.9968" width="75.0064" height="75.0064" rx="37.5032" fill="#FFDD00"/>
<g clip-path="url(#clip1_55226_6262)">
<path d="M48.3224 82.4999C40.9691 82.4999 37 75.0361 37 71.1987V63.6927C37 58.8855 41.1362 52.1807 47.8629 52.1807H54.3388C55.8429 52.1807 56.762 52.8554 57.2634 53.4036C57.8901 54.0783 58.2243 55.006 58.2243 55.9758C58.2243 56.9457 58.1408 57.0301 57.9319 57.4939H62.0681C61.901 57.0301 61.7757 56.524 61.7757 55.9758C61.7757 55.006 62.1099 54.0783 62.7366 53.4036C63.238 52.8554 64.1571 52.1807 65.6612 52.1807H72.1371C78.8638 52.1807 83 58.8855 83 63.6927V71.1987C83 75.0361 78.9891 82.4999 71.6776 82.4999H48.3224ZM71.6776 80.5602C78.1953 80.5602 81.1199 73.771 81.1199 71.1987V63.6927C81.1199 59.771 77.6521 54.1204 72.1789 54.1204H65.703C65.0345 54.1204 64.5332 54.3313 64.1989 54.7108C63.9064 55.0481 63.7393 55.512 63.7393 56.018C63.7393 56.524 63.99 57.5361 64.9092 57.5361H71.1344C71.6776 57.5361 72.0954 57.9578 72.0954 58.506V63.018C72.0954 64.3674 73.5995 66.8975 74.5186 68.1626C74.8529 68.5843 74.7693 69.2168 74.3097 69.512C74.1426 69.6385 73.9337 69.7228 73.7248 69.7228C73.4323 69.7228 73.1399 69.5963 72.9728 69.3433C72.6803 68.9638 70.1317 65.4638 70.1317 63.0602V59.518H65.7866C66.079 60.0662 66.2044 60.6987 66.2044 61.3734C66.2044 62.4698 65.703 63.524 64.8674 64.2831C65.703 64.9999 66.2044 66.0542 66.2044 67.1927C66.2044 68.3313 65.703 69.3433 64.8674 70.1023C65.703 70.8192 66.2044 71.8734 66.2044 73.012C66.2044 75.0361 64.5749 76.7228 62.5277 76.8493C62.8619 77.4397 63.0708 78.1144 63.0708 78.7891C63.0708 79.4638 62.9037 80.1385 62.5277 80.7289H71.6358L71.6776 80.5602ZM47.8629 54.1204C42.3896 54.1204 38.9219 59.8132 38.9219 63.6927V71.1987C38.9219 73.771 41.8047 80.5602 48.3642 80.5602H59.1435C60.2716 80.5602 61.1907 79.7168 61.1907 78.6204C61.1907 77.524 60.2716 76.6807 59.1435 76.6807H53.6285C53.0854 76.6807 52.6676 76.259 52.6676 75.7108C52.6676 75.1626 53.0854 74.7409 53.6285 74.7409H62.3188C63.4469 74.7409 64.366 73.8975 64.366 72.8011C64.366 71.7048 63.4469 70.8614 62.3188 70.8614H53.6285C53.0854 70.8614 52.6676 70.4397 52.6676 69.8915C52.6676 69.3433 53.0854 68.9216 53.6285 68.9216H62.3188C63.4469 68.9216 64.366 68.0783 64.366 66.9819C64.366 65.8855 63.4469 65.0421 62.3188 65.0421H53.6285C53.0854 65.0421 52.6676 64.6204 52.6676 64.0722C52.6676 63.524 53.0854 63.1023 53.6285 63.1023H62.3188C63.4469 63.1023 64.366 62.259 64.366 61.1626C64.366 59.6445 63.2797 59.3493 62.3606 59.3072H61.1907H55.2162H55.1744H48.6985C48.1553 59.3072 47.7375 58.8855 47.7375 58.3373C47.7375 57.7891 48.1553 57.3674 48.6985 57.3674H55.2162C56.0936 57.3674 56.3442 56.3975 56.3442 55.8493C56.3442 55.3011 56.1771 54.8795 55.8847 54.5421C55.5504 54.1626 55.049 53.9517 54.3806 53.9517H47.9046L47.8629 54.1204Z" fill="#181818"/>
<path d="M59.7705 47.6265C59.2274 47.6265 58.8096 47.2048 58.8096 46.6566V41.4699C58.8096 40.9217 59.2274 40.5 59.7705 40.5C60.3137 40.5 60.7315 40.9217 60.7315 41.4699V46.6566C60.7315 47.2048 60.3137 47.6265 59.7705 47.6265Z" fill="#181818"/>
<path d="M51.8322 48.6806C51.5816 48.6806 51.3309 48.5962 51.1638 48.4276L47.7378 45.0962C47.5707 44.9276 47.4453 44.6746 47.4453 44.4215C47.4453 44.1685 47.5289 43.9155 47.696 43.7468C47.8631 43.536 48.1138 43.4517 48.4063 43.4517C48.6987 43.4517 48.9076 43.536 49.0747 43.7047L52.5007 47.036C52.8767 47.4155 52.8767 48.0059 52.5007 48.3854C52.3336 48.5962 52.0829 48.6806 51.7905 48.6806H51.8322Z" fill="#181818"/>
<path d="M67.7503 48.6806C67.4996 48.6806 67.2489 48.5541 67.04 48.3854C66.664 48.0059 66.7058 47.3733 67.04 47.036L70.466 43.7047C70.6331 43.536 70.8838 43.4517 71.1345 43.4517C71.3852 43.4517 71.6358 43.5782 71.8447 43.7468C72.0119 43.9155 72.1372 44.1685 72.0954 44.4215C72.0954 44.6746 71.9701 44.9276 71.803 45.0962L68.377 48.4276C68.2099 48.5962 67.9592 48.6806 67.7085 48.6806H67.7503Z" fill="#181818"/>
</g>
<defs>
<clipPath id="clip0_55226_6262">
<rect width="110.581" height="110.581" fill="white" transform="translate(4.18262 6.17456)"/>
</clipPath>
<clipPath id="clip1_55226_6262">
<rect width="46" height="42" fill="white" transform="translate(37 40.5)"/>
</clipPath>
</defs>
</svg>
