<svg width="120" height="123" viewBox="0 0 120 123" fill="none" xmlns="http://www.w3.org/2000/svg">
<g clip-path="url(#clip0_57047_2240)">
<path d="M114.294 54.2454C114.291 54.2422 114.287 54.2406 114.282 54.2412L113.081 54.3974C111.726 54.5735 110.491 53.6175 110.249 52.2731C109.699 49.2197 108.883 46.2613 107.824 43.4225C107.469 42.4707 107.911 41.3958 108.85 41.0066C109.789 40.6169 110.237 39.5376 109.815 38.6122C108.324 35.3427 106.516 32.2172 104.414 29.2895C103.822 28.4649 102.665 28.3161 101.861 28.9347C101.055 29.5539 99.9024 29.4001 99.2554 28.6166C97.1683 26.0897 94.8412 23.7627 92.3143 21.6756C91.5309 21.0286 91.3771 19.876 91.9963 19.0704C92.6148 18.2656 92.466 17.1091 91.6414 16.5171C88.714 14.4154 85.5887 12.6068 82.3195 11.1163C81.3937 10.6942 80.3139 11.1423 79.9241 12.0821C79.535 13.0203 78.4605 13.4626 77.5089 13.1078C74.4738 11.976 71.3064 11.1175 68.0334 10.5721C67.0273 10.4045 66.3128 9.48159 66.4443 8.47017C66.5756 7.46007 65.8641 6.53134 64.8502 6.43321C61.2877 6.0884 57.654 6.08835 54.0915 6.43304C53.0767 6.53123 52.3645 7.46083 52.4959 8.47188C52.6274 9.48291 51.9142 10.4059 50.9087 10.5744C47.6349 11.123 44.4669 11.9775 41.4313 13.1081C40.4795 13.4626 39.405 13.0203 39.0159 12.0821C38.6261 11.1423 37.5463 10.6942 36.6206 11.1163C33.3517 12.6066 30.2269 14.4149 27.2997 16.5163C26.4745 17.1087 26.3256 18.2661 26.9446 19.0715C27.5636 19.8769 27.4107 21.0289 26.628 21.6763C24.1003 23.7671 21.7725 26.0906 19.6849 28.6168C19.0376 29.4 17.8851 29.5539 17.0794 28.9347C16.2746 28.3161 15.1181 28.4649 14.5261 29.2895C12.4246 32.2167 10.6161 35.3417 9.12571 38.6106C8.70314 39.5375 9.15045 40.6186 10.0905 41.0109C11.0294 41.4027 11.4708 42.4794 11.1151 43.4326C9.98447 46.4622 9.12668 49.6305 8.5816 52.8977C8.41375 53.9038 7.49069 54.6182 6.47921 54.4867C5.46903 54.3553 4.54023 55.0668 4.44219 56.0808C4.26979 57.8638 4.18359 59.6693 4.18359 61.4653C4.18359 63.2618 4.26985 65.0631 4.44236 66.8479C4.54045 67.8627 5.47003 68.5751 6.48113 68.4437C7.49204 68.3122 8.41494 69.0253 8.58341 70.0307C9.13176 73.3032 9.98592 76.4695 11.1159 79.4995C11.4709 80.4513 11.0288 81.5262 10.0905 81.9154C9.15104 82.305 8.70313 83.3844 9.12502 84.3098C10.6154 87.5788 12.4238 90.7039 14.5253 93.6313C15.1177 94.4565 16.2751 94.6054 17.0805 93.9864C17.8859 93.3674 19.038 93.5203 19.6854 94.303C21.7761 96.8307 24.0996 99.1584 26.6258 101.246C27.4091 101.893 27.5629 103.046 26.9437 103.852C26.3252 104.656 26.474 105.813 27.2986 106.405C30.2256 108.506 33.3504 110.315 36.619 111.805C37.5462 112.228 38.6278 111.78 39.0202 110.84C39.412 109.901 40.4882 109.459 41.4413 109.815C44.4745 110.946 47.6399 111.804 50.9108 112.349C51.9194 112.517 52.6359 113.442 52.5043 114.456C52.373 115.469 53.0862 116.4 54.1025 116.498C55.8842 116.67 57.6884 116.756 59.483 116.756C61.2787 116.756 63.0791 116.67 64.863 116.498C65.8794 116.399 66.5929 115.469 66.4616 114.456C66.3301 113.442 67.0463 112.517 68.0547 112.349C71.325 111.804 74.4892 110.946 77.5173 109.815C78.469 109.46 79.5439 109.902 79.933 110.84C80.3227 111.78 81.4021 112.228 82.3275 111.806C85.5965 110.316 88.7216 108.507 91.649 106.406C92.4742 105.813 92.6231 104.656 92.0041 103.85C91.3851 103.045 91.5379 101.893 92.3206 101.246C94.8484 99.1549 97.1761 96.8314 99.2638 94.3051C99.9111 93.5219 101.064 93.3681 101.869 93.9872C102.674 94.6058 103.831 94.457 104.423 93.6324C106.524 90.7049 108.333 87.5797 109.823 84.3104C110.245 83.3847 109.797 82.3049 108.858 81.9151C107.919 81.526 107.477 80.4515 107.832 79.4998C108.964 76.4649 109.822 73.2976 110.367 70.0247C110.535 69.0191 111.459 68.3058 112.469 68.4396C113.479 68.5732 114.408 67.8626 114.506 66.849C114.679 65.0639 114.765 63.2622 114.765 61.4653C114.765 59.0529 114.61 56.6318 114.298 54.2539C114.298 54.2507 114.297 54.2477 114.294 54.2454ZM72.5659 61.4566C72.5659 68.3875 66.708 74.0031 59.4743 74.0031C52.2407 74.0031 46.3828 68.3875 46.3828 61.4566C46.3828 54.5258 52.2407 48.9102 59.4743 48.9102C66.708 48.9102 72.5659 54.5258 72.5659 61.4566Z" fill="white"/>
</g>
<rect x="22.4961" y="23.9968" width="75.0064" height="75.0064" rx="37.5032" fill="#FFDD00"/>
<path d="M86.8714 72.2407C87.0064 71.9258 87.0064 71.566 86.8265 71.2961L84.7575 68.3725H86.1068C86.4217 68.3725 86.7365 68.1926 86.9164 67.8778C87.0963 67.5629 87.0514 67.2031 86.8714 66.9332L80.7094 58.2524C80.5295 58.0275 80.2596 57.8926 79.9898 57.8926H77.0212V53.9345H80.0797L76.1216 49.2567L72.1635 53.9345H75.222V57.8926H70.0046C69.5098 57.8926 69.105 58.2974 69.105 58.7921C69.105 59.2869 69.5098 59.6917 70.0046 59.6917H75.222V64.3694C75.222 64.8642 75.6269 65.269 76.1216 65.269C76.6164 65.269 77.0212 64.8642 77.0212 64.3694V59.6917H79.54L84.4426 66.5734H35.6861L40.5887 59.6917H43.1075V64.3694C43.1075 64.8642 43.5123 65.269 44.0071 65.269C44.5018 65.269 44.9066 64.8642 44.9066 64.3694V59.6917H49.0896C49.5844 59.6917 49.9892 59.2869 49.9892 58.7921C49.9892 58.2974 49.5844 57.8926 49.0896 57.8926H44.9066V53.9345H47.9652L44.0071 49.2567L40.049 53.9345H43.1075V57.8926H40.1389C39.869 57.8926 39.5542 58.0275 39.4193 58.2524L33.2122 66.9332C33.0323 67.2031 32.9874 67.5629 33.1673 67.8778C33.3472 68.1926 33.6171 68.3725 33.9769 68.3725H35.3262L33.2572 71.2961C33.0773 71.566 33.0323 71.9258 33.2122 72.2407C33.3922 72.5555 33.662 72.7354 34.0219 72.7354H35.3712L33.3022 75.659C33.1223 75.9289 33.0773 76.2887 33.2572 76.6036C33.4371 76.9184 33.707 77.0983 34.0668 77.0983H86.1968C86.5116 77.0983 86.8265 76.9184 87.0064 76.6036C87.1863 76.2887 87.1413 75.9289 86.9614 75.659L84.8924 72.7354H86.2417C86.5566 72.7354 86.8714 72.5555 87.0514 72.2407H86.8714ZM82.5085 68.3725L84.3077 70.9363H35.6861L37.4852 68.3725H82.5085ZM84.3077 75.2542H35.6861L37.4852 72.6904H82.5085L84.3077 75.2542Z" fill="#181818" stroke="#FFDD00" stroke-width="0.193939"/>
<path d="M60.0202 63.3349C64.608 63.3349 68.2962 59.6017 68.2962 55.0589C68.2962 50.5161 61.5044 41.0257 60.7398 39.9012C60.5599 39.6763 60.29 39.5414 60.0202 39.5414C59.7503 39.5414 59.4354 39.6763 59.3005 39.9012C58.5359 40.9807 51.7441 50.786 51.7441 55.0139C51.7441 59.2419 55.4773 63.29 60.0202 63.29V63.3349ZM60.0202 42.0152C62.359 45.4785 66.497 52.2253 66.497 55.0139C66.497 57.8026 63.5735 61.4908 60.0202 61.4908C56.4669 61.4908 53.5433 58.5672 53.5433 55.0139C53.5433 51.4607 57.7263 45.4335 60.0202 42.0152Z" fill="#181818" stroke="#FFDD00" stroke-width="0.193939"/>
<path d="M60.7838 60.5914C60.8738 60.5914 61.0087 60.5914 61.0987 60.5465C63.3026 59.6469 64.7419 57.5779 64.7419 55.194C64.7419 52.8102 64.3371 54.2945 63.8424 54.2945C63.3476 54.2945 62.9428 54.6993 62.9428 55.194C62.9428 56.8133 61.9533 58.2526 60.469 58.8823C60.0192 59.0622 59.7943 59.6019 59.9742 60.0517C60.1092 60.4115 60.469 60.6364 60.8288 60.6364L60.7838 60.5914Z" fill="#181818" stroke="#FFDD00" stroke-width="0.193939"/>
<path d="M62.4034 53.3048C62.5383 53.6647 62.8981 53.8446 63.213 53.8446C63.5278 53.8446 63.4379 53.8446 63.5728 53.7546C64.0226 53.5747 64.2475 53.035 64.0676 52.5852C63.9776 52.3153 63.8427 52.0454 63.7078 51.7756C63.4829 51.3258 62.9431 51.1459 62.4933 51.3258C62.0436 51.5507 61.8636 52.0904 62.0436 52.5402C62.2235 52.99 62.2684 53.035 62.3584 53.2598L62.4034 53.3048Z" fill="#181818" stroke="#FFDD00" stroke-width="0.193939"/>
<defs>
<clipPath id="clip0_57047_2240">
<rect width="110.581" height="110.581" fill="white" transform="translate(4.18359 6.17456)"/>
</clipPath>
</defs>
</svg>
