<svg width="120" height="123" viewBox="0 0 120 123" fill="none" xmlns="http://www.w3.org/2000/svg">
<g clip-path="url(#clip0_57047_2268)">
<path d="M114.294 54.2454C114.291 54.2422 114.287 54.2406 114.282 54.2412L113.081 54.3974C111.726 54.5735 110.491 53.6175 110.249 52.2731C109.699 49.2197 108.883 46.2613 107.824 43.4225C107.469 42.4707 107.911 41.3958 108.85 41.0066C109.789 40.6169 110.237 39.5376 109.815 38.6122C108.324 35.3427 106.516 32.2172 104.414 29.2895C103.822 28.4649 102.665 28.3161 101.861 28.9347C101.055 29.5539 99.9024 29.4001 99.2554 28.6166C97.1683 26.0897 94.8412 23.7627 92.3143 21.6756C91.5309 21.0286 91.3771 19.876 91.9963 19.0704C92.6148 18.2656 92.466 17.1091 91.6414 16.5171C88.714 14.4154 85.5887 12.6068 82.3195 11.1163C81.3937 10.6942 80.3139 11.1423 79.9241 12.0821C79.535 13.0203 78.4605 13.4626 77.5089 13.1078C74.4738 11.976 71.3064 11.1175 68.0334 10.5721C67.0273 10.4045 66.3128 9.48159 66.4443 8.47017C66.5756 7.46007 65.8641 6.53134 64.8502 6.43321C61.2877 6.0884 57.654 6.08835 54.0915 6.43304C53.0767 6.53123 52.3645 7.46083 52.4959 8.47188C52.6274 9.48291 51.9142 10.4059 50.9087 10.5744C47.6349 11.123 44.4669 11.9775 41.4313 13.1081C40.4795 13.4626 39.405 13.0203 39.0159 12.0821C38.6261 11.1423 37.5463 10.6942 36.6206 11.1163C33.3517 12.6066 30.2269 14.4149 27.2997 16.5163C26.4745 17.1087 26.3256 18.2661 26.9446 19.0715C27.5636 19.8769 27.4107 21.0289 26.628 21.6763C24.1003 23.7671 21.7725 26.0906 19.6849 28.6168C19.0376 29.4 17.8851 29.5539 17.0794 28.9347C16.2746 28.3161 15.1181 28.4649 14.5261 29.2895C12.4246 32.2167 10.6161 35.3417 9.12571 38.6106C8.70314 39.5375 9.15045 40.6186 10.0905 41.0109C11.0294 41.4027 11.4708 42.4794 11.1151 43.4326C9.98447 46.4622 9.12668 49.6305 8.5816 52.8977C8.41375 53.9038 7.49069 54.6182 6.47921 54.4867C5.46903 54.3553 4.54023 55.0668 4.44219 56.0808C4.26979 57.8638 4.18359 59.6693 4.18359 61.4653C4.18359 63.2618 4.26985 65.0631 4.44236 66.8479C4.54045 67.8627 5.47003 68.5751 6.48113 68.4437C7.49204 68.3122 8.41494 69.0253 8.58341 70.0307C9.13176 73.3032 9.98592 76.4695 11.1159 79.4995C11.4709 80.4513 11.0288 81.5262 10.0905 81.9154C9.15104 82.305 8.70313 83.3844 9.12502 84.3098C10.6154 87.5788 12.4238 90.7039 14.5253 93.6313C15.1177 94.4565 16.2751 94.6054 17.0805 93.9864C17.8859 93.3674 19.038 93.5203 19.6854 94.303C21.7761 96.8307 24.0996 99.1584 26.6258 101.246C27.4091 101.893 27.5629 103.046 26.9437 103.852C26.3252 104.656 26.474 105.813 27.2986 106.405C30.2256 108.506 33.3504 110.315 36.619 111.805C37.5462 112.228 38.6278 111.78 39.0202 110.84C39.412 109.901 40.4882 109.459 41.4413 109.815C44.4745 110.946 47.6399 111.804 50.9108 112.349C51.9194 112.517 52.6359 113.442 52.5043 114.456C52.373 115.469 53.0862 116.4 54.1025 116.498C55.8842 116.67 57.6884 116.756 59.483 116.756C61.2787 116.756 63.0791 116.67 64.863 116.498C65.8794 116.399 66.5929 115.469 66.4616 114.456C66.3301 113.442 67.0463 112.517 68.0547 112.349C71.325 111.804 74.4892 110.946 77.5173 109.815C78.469 109.46 79.5439 109.902 79.933 110.84C80.3227 111.78 81.4021 112.228 82.3275 111.806C85.5965 110.316 88.7216 108.507 91.649 106.406C92.4742 105.813 92.6231 104.656 92.0041 103.85C91.3851 103.045 91.5379 101.893 92.3206 101.246C94.8484 99.1549 97.1761 96.8314 99.2638 94.3051C99.9111 93.5219 101.064 93.3681 101.869 93.9872C102.674 94.6058 103.831 94.457 104.423 93.6324C106.524 90.7049 108.333 87.5797 109.823 84.3104C110.245 83.3847 109.797 82.3049 108.858 81.9151C107.919 81.526 107.477 80.4515 107.832 79.4998C108.964 76.4649 109.822 73.2976 110.367 70.0247C110.535 69.0191 111.459 68.3058 112.469 68.4396C113.479 68.5732 114.408 67.8626 114.506 66.849C114.679 65.0639 114.765 63.2622 114.765 61.4653C114.765 59.0529 114.61 56.6318 114.298 54.2539C114.298 54.2507 114.297 54.2477 114.294 54.2454ZM72.5659 61.4566C72.5659 68.3875 66.708 74.0031 59.4743 74.0031C52.2407 74.0031 46.3828 68.3875 46.3828 61.4566C46.3828 54.5258 52.2407 48.9102 59.4743 48.9102C66.708 48.9102 72.5659 54.5258 72.5659 61.4566Z" fill="white"/>
</g>
<rect x="22.4961" y="23.9968" width="75.0064" height="75.0064" rx="37.5032" fill="#FFDD00"/>
<g clip-path="url(#clip1_57047_2268)">
<path d="M80.5 67.7624C80.4157 65.675 76.2441 64.673 72.3674 64.2137C73.168 61.166 74.3479 56.6153 74.7693 54.8201C75.1906 52.9831 74.3479 52.0229 73.5051 51.7724C72.6202 51.5219 71.6511 51.8976 71.1454 52.6909V40.5H39.5V77.8658L45.7785 80.3708L45.9471 80.4543H57.2821C59.5576 81.832 62.3808 82.5418 65.7097 82.5418C69.0385 82.5418 73.9265 81.2058 76.4969 78.5338C80.7107 74.1919 80.5 68.0129 80.5 67.7624ZM72.4938 53.6928C72.6202 53.4006 72.8731 53.2753 72.9995 53.3171C73.168 53.3588 73.2523 53.7763 73.1259 54.4026C72.4517 57.1998 69.9234 66.7187 69.9234 66.8022C69.797 67.2614 70.092 67.7207 70.5134 67.8042C70.5976 67.8042 70.6398 67.8042 70.724 67.8042C71.1033 67.8042 71.4404 67.5537 71.5247 67.1779C71.5247 67.1779 71.6932 66.6352 71.9039 65.7585C76.6233 66.3012 78.5617 67.3032 78.7724 67.7207C78.4353 68.4304 74.9378 69.5994 68.9964 69.9334C68.9964 69.9334 68.9964 69.8499 68.9964 69.8082C68.9964 68.3887 67.8165 67.2614 66.426 67.2614C65.0355 67.2614 63.8556 68.4304 63.8556 69.8082C63.8556 71.1859 63.8556 69.9334 63.8556 69.9752C56.9872 69.7664 52.9419 68.4722 52.5627 67.7207C52.9419 66.9274 57.6614 65.4245 65.6675 65.4245C73.6737 65.4245 66.5103 65.4245 66.8895 65.4245C66.7631 65.8002 66.6788 66.0507 66.6788 66.0924C66.5524 66.5517 66.8052 67.0109 67.2266 67.1362C67.6901 67.2614 68.1536 67.0109 68.2801 66.5934C68.2801 66.4682 71.946 55.0288 72.4517 53.6093L72.4938 53.6928ZM67.3952 70.0587C66.8474 70.0587 66.2996 70.0587 65.7097 70.0587C65.1197 70.0587 65.5832 70.0587 65.499 70.0587C65.499 69.9752 65.499 69.9334 65.499 69.8499C65.499 69.3489 65.9203 68.9732 66.3839 68.9732C66.8474 68.9732 67.2688 69.3907 67.2688 69.8499C67.2688 70.3091 67.2688 69.9752 67.2688 70.0169L67.3952 70.0587ZM41.1855 42.17H45.2729V78.3251L41.1855 76.6968V42.17ZM46.9584 78.7425V42.17H69.5021V56.9076C69.5021 57.0328 69.5021 57.1581 69.5863 57.2833C68.87 59.4543 68.0694 62.0427 67.4794 63.8797C66.8895 63.8797 66.2996 63.8797 65.7097 63.8797C60.2739 63.8797 51.0879 64.7147 50.9193 67.7624C50.9193 67.7624 50.9193 67.7624 50.9193 67.8042C50.9193 68.0547 50.7086 74.2753 54.9224 78.5755C55.0067 78.659 55.091 78.7008 55.1331 78.7843H46.9584V78.7425ZM75.2749 77.3648C73.0416 79.661 69.797 80.83 65.7097 80.83C61.6223 80.83 58.3777 79.661 56.1444 77.3648C53.8268 74.9851 53.0262 71.8539 52.7312 69.8499C55.723 71.2694 61.7066 71.7286 65.7097 71.7286C69.7127 71.7286 75.6963 71.2694 78.6881 69.8499C78.3931 71.8539 77.5925 74.9851 75.2749 77.3648Z" fill="#181818"/>
<path d="M56.6917 60.0805L57.1973 59.9552L57.3237 59.4542C57.3237 59.3707 57.6608 57.8677 57.4923 56.2395C57.6608 56.3648 57.7873 56.4483 57.8294 56.4483L58.2508 56.6988L58.6721 56.4483C58.6721 56.4483 58.7986 56.3648 59.0092 56.2395C58.8407 57.9095 59.1357 59.3707 59.1778 59.4542L59.3042 59.9552L59.8099 60.0805C59.8941 60.0805 60.9054 60.331 62.2117 60.331C63.518 60.331 65.3299 60.0387 66.5098 58.8697C68.8695 56.5735 67.6475 52.6073 67.6053 52.4403L67.4789 52.0228L67.0576 51.8976C66.9311 51.8558 64.6136 51.1043 62.4645 51.7306C62.5067 51.4383 62.5488 51.1461 62.5488 50.8538C62.5488 47.5974 58.7986 45.6769 58.6721 45.5934L58.2929 45.3846L57.9137 45.5934C57.7451 45.6769 54.037 47.5974 54.037 50.8538C54.037 54.1103 54.037 51.4383 54.1213 51.7306C51.9722 51.1043 49.6547 51.8558 49.5283 51.8976L49.1069 52.0228L48.9805 52.4403C48.9383 52.6073 47.7163 56.5735 50.0761 58.8697C51.298 60.0387 52.9836 60.331 54.3741 60.331C55.7646 60.331 56.6917 60.0805 56.7759 60.0805H56.6917ZM66.0462 53.3588C66.2569 54.2773 66.5519 56.4483 65.2878 57.7007C64.0236 58.9115 61.7482 58.7445 60.6948 58.5775C60.5683 57.5337 60.3998 55.2793 61.6639 54.0685C62.9281 52.8578 65.1192 53.1918 66.0462 53.4005V53.3588ZM58.2508 47.3051C59.0514 47.8061 60.8212 49.1003 60.8212 50.8538C60.8212 52.6073 59.0514 54.1103 58.2508 54.6948C57.408 54.0685 55.6804 52.6073 55.6804 50.8538C55.6804 49.1003 57.4502 47.8061 58.2508 47.3051ZM51.1716 57.7007C49.9075 56.49 50.2025 54.2773 50.4132 53.3588C51.3402 53.1501 53.5313 52.8161 54.7955 54.0268C56.0596 55.2375 55.8911 57.5337 55.7646 58.5357C54.7533 58.7027 52.4358 58.9115 51.1716 57.659V57.7007Z" fill="#181818"/>
<path d="M59.9786 66.0924C58.5459 66.0924 57.4082 67.2614 57.4082 68.6391C57.4082 70.0169 57.7874 69.4741 58.251 69.4741C58.7145 69.4741 59.0937 69.0984 59.0937 68.6391C59.0937 68.1799 59.5151 67.7624 59.9786 67.7624C60.4421 67.7624 60.8635 68.1799 60.8635 68.6391C60.8635 69.0984 61.2427 69.4741 61.7063 69.4741C62.1698 69.4741 62.549 69.0984 62.549 68.6391C62.549 67.2196 61.3691 66.0924 59.9786 66.0924Z" fill="#181818"/>
</g>
<defs>
<clipPath id="clip0_57047_2268">
<rect width="110.581" height="110.581" fill="white" transform="translate(4.18359 6.17456)"/>
</clipPath>
<clipPath id="clip1_57047_2268">
<rect width="41" height="42" fill="white" transform="translate(39.5 40.5)"/>
</clipPath>
</defs>
</svg>
