<svg width="120" height="123" viewBox="0 0 120 123" fill="none" xmlns="http://www.w3.org/2000/svg">
<g clip-path="url(#clip0_57047_2225)">
<path d="M114.294 54.2454C114.291 54.2422 114.287 54.2406 114.282 54.2412L113.081 54.3974C111.726 54.5735 110.491 53.6175 110.249 52.2731C109.699 49.2197 108.883 46.2613 107.824 43.4225C107.469 42.4707 107.911 41.3958 108.85 41.0066C109.789 40.6169 110.237 39.5376 109.815 38.6122C108.324 35.3427 106.516 32.2172 104.414 29.2895C103.822 28.4649 102.665 28.3161 101.861 28.9347C101.055 29.5539 99.9024 29.4001 99.2554 28.6166C97.1683 26.0897 94.8412 23.7627 92.3143 21.6756C91.5309 21.0286 91.3771 19.876 91.9963 19.0704C92.6148 18.2656 92.466 17.1091 91.6414 16.5171C88.714 14.4154 85.5887 12.6068 82.3195 11.1163C81.3937 10.6942 80.3139 11.1423 79.9241 12.0821C79.535 13.0203 78.4605 13.4626 77.5089 13.1078C74.4738 11.976 71.3064 11.1175 68.0334 10.5721C67.0273 10.4045 66.3128 9.48159 66.4443 8.47017C66.5756 7.46007 65.8641 6.53134 64.8502 6.43321C61.2877 6.0884 57.654 6.08835 54.0915 6.43304C53.0767 6.53123 52.3645 7.46083 52.4959 8.47188C52.6274 9.48291 51.9142 10.4059 50.9087 10.5744C47.6349 11.123 44.4669 11.9775 41.4313 13.1081C40.4795 13.4626 39.405 13.0203 39.0159 12.0821C38.6261 11.1423 37.5463 10.6942 36.6206 11.1163C33.3517 12.6066 30.2269 14.4149 27.2997 16.5163C26.4745 17.1087 26.3256 18.2661 26.9446 19.0715C27.5636 19.8769 27.4107 21.0289 26.628 21.6763C24.1003 23.7671 21.7725 26.0906 19.6849 28.6168C19.0376 29.4 17.8851 29.5539 17.0794 28.9347C16.2746 28.3161 15.1181 28.4649 14.5261 29.2895C12.4246 32.2167 10.6161 35.3417 9.12571 38.6106C8.70314 39.5375 9.15045 40.6186 10.0905 41.0109C11.0294 41.4027 11.4708 42.4794 11.1151 43.4326C9.98447 46.4622 9.12668 49.6305 8.5816 52.8977C8.41375 53.9038 7.49069 54.6182 6.47921 54.4867C5.46903 54.3553 4.54023 55.0668 4.44219 56.0808C4.26979 57.8638 4.18359 59.6693 4.18359 61.4653C4.18359 63.2618 4.26985 65.0631 4.44236 66.8479C4.54045 67.8627 5.47003 68.5751 6.48113 68.4437C7.49204 68.3122 8.41494 69.0253 8.58341 70.0307C9.13176 73.3032 9.98592 76.4695 11.1159 79.4995C11.4709 80.4513 11.0288 81.5262 10.0905 81.9154C9.15104 82.305 8.70313 83.3844 9.12502 84.3098C10.6154 87.5788 12.4238 90.7039 14.5253 93.6313C15.1177 94.4565 16.2751 94.6054 17.0805 93.9864C17.8859 93.3674 19.038 93.5203 19.6854 94.303C21.7761 96.8307 24.0996 99.1584 26.6258 101.246C27.4091 101.893 27.5629 103.046 26.9437 103.852C26.3252 104.656 26.474 105.813 27.2986 106.405C30.2256 108.506 33.3504 110.315 36.619 111.805C37.5462 112.228 38.6278 111.78 39.0202 110.84C39.412 109.901 40.4882 109.459 41.4413 109.815C44.4745 110.946 47.6399 111.804 50.9108 112.349C51.9194 112.517 52.6359 113.442 52.5043 114.456C52.373 115.469 53.0862 116.4 54.1025 116.498C55.8842 116.67 57.6884 116.756 59.483 116.756C61.2787 116.756 63.0791 116.67 64.863 116.498C65.8794 116.399 66.5929 115.469 66.4616 114.456C66.3301 113.442 67.0463 112.517 68.0547 112.349C71.325 111.804 74.4892 110.946 77.5173 109.815C78.469 109.46 79.5439 109.902 79.933 110.84C80.3227 111.78 81.4021 112.228 82.3275 111.806C85.5965 110.316 88.7216 108.507 91.649 106.406C92.4742 105.813 92.6231 104.656 92.0041 103.85C91.3851 103.045 91.5379 101.893 92.3206 101.246C94.8484 99.1549 97.1761 96.8314 99.2638 94.3051C99.9111 93.5219 101.064 93.3681 101.869 93.9872C102.674 94.6058 103.831 94.457 104.423 93.6324C106.524 90.7049 108.333 87.5797 109.823 84.3104C110.245 83.3847 109.797 82.3049 108.858 81.9151C107.919 81.526 107.477 80.4515 107.832 79.4998C108.964 76.4649 109.822 73.2976 110.367 70.0247C110.535 69.0191 111.459 68.3058 112.469 68.4396C113.479 68.5732 114.408 67.8626 114.506 66.849C114.679 65.0639 114.765 63.2622 114.765 61.4653C114.765 59.0529 114.61 56.6318 114.298 54.2539C114.298 54.2507 114.297 54.2477 114.294 54.2454ZM72.5659 61.4566C72.5659 68.3875 66.708 74.0031 59.4743 74.0031C52.2407 74.0031 46.3828 68.3875 46.3828 61.4566C46.3828 54.5258 52.2407 48.9102 59.4743 48.9102C66.708 48.9102 72.5659 54.5258 72.5659 61.4566Z" fill="white"/>
</g>
<rect x="22.4961" y="23.9968" width="75.0064" height="75.0064" rx="37.5032" fill="#FFDD00"/>
<path d="M45.8157 64.7855L59.8448 74.6627C59.9759 74.7502 60.1945 74.8376 60.3693 74.8376C60.5441 74.8376 60.8063 74.7502 60.9811 74.5753L77.6762 57.7928L79.0748 58.9291L79.337 54.9957L74.9229 55.5639L76.3214 56.7002L60.2382 72.8272L46.8209 63.387C46.4275 63.1248 45.8594 63.2122 45.5972 63.6055C45.3349 63.9989 45.4223 64.567 45.8157 64.8292V64.7855Z" fill="#181818" stroke="black" stroke-width="0.2"/>
<path d="M86.0691 79.6014L80.0816 71.1664C79.9068 70.9479 79.6445 70.8168 79.3823 70.8168H69.6799C69.1992 70.8168 68.8058 71.2101 68.8058 71.6909C68.8058 72.1716 69.1992 72.565 69.6799 72.565H78.9015L83.6653 79.2517H36.3771L41.1409 72.565H49.3573C49.8381 72.565 50.2314 72.1716 50.2314 71.6909C50.2314 71.2101 49.8381 70.8168 49.3573 70.8168H40.6601C40.3979 70.8168 40.092 70.9479 39.9609 71.1664L33.9734 79.6014C33.7985 79.8636 33.7548 80.2132 33.9296 80.5192C34.1045 80.8251 34.3667 80.9999 34.7163 80.9999H85.3698C85.6757 80.9999 85.9817 80.8251 86.1565 80.5192C86.3313 80.2132 86.2876 79.8636 86.1128 79.6014H86.0691Z" fill="#181818" stroke="black" stroke-width="0.2"/>
<path d="M58.1425 62.1197C62.6003 62.1197 66.1841 58.4922 66.1841 54.078C66.1841 49.6639 59.6284 40.4422 58.8854 39.3496C58.7106 39.1311 58.4484 39 58.1862 39C57.9239 39 57.618 39.1311 57.4869 39.3496C56.7439 40.3985 50.1445 49.9261 50.1445 54.0343C50.1445 58.1426 53.772 62.076 58.1862 62.076L58.1425 62.1197ZM58.1425 41.4037C60.4151 44.769 64.4359 51.3247 64.4359 54.0343C64.4359 56.744 61.5951 60.3278 58.1425 60.3278C54.6898 60.3278 51.849 57.487 51.849 54.0343C51.849 50.5817 55.9135 44.7253 58.1425 41.4037Z" fill="#181818" stroke="black" stroke-width="0.2"/>
<path d="M58.8841 59.4536C58.9715 59.4536 59.1027 59.4536 59.1901 59.4099C61.3316 58.5358 62.7301 56.5254 62.7301 54.2091C62.7301 51.8928 62.3368 53.335 61.856 53.335C61.3753 53.335 60.982 53.7283 60.982 54.2091C60.982 55.7825 60.0205 57.181 58.5782 57.7929C58.1412 57.9677 57.9226 58.4921 58.0975 58.9292C58.2286 59.2788 58.5782 59.4973 58.9278 59.4973L58.8841 59.4536Z" fill="#181818" stroke="black" stroke-width="0.2"/>
<path d="M60.5006 52.3735C60.6317 52.7232 60.9814 52.898 61.2873 52.898C61.5932 52.898 61.5058 52.898 61.6369 52.8106C62.074 52.6358 62.2925 52.1113 62.1177 51.6743C62.0303 51.412 61.8992 51.1498 61.768 50.8876C61.5495 50.4505 61.0251 50.2757 60.588 50.4505C60.151 50.6691 59.9762 51.1935 60.151 51.6306C60.2821 51.8491 60.3695 52.1113 60.4569 52.3298L60.5006 52.3735Z" fill="#181818" stroke="black" stroke-width="0.2"/>
<defs>
<clipPath id="clip0_57047_2225">
<rect width="110.581" height="110.581" fill="white" transform="translate(4.18359 6.17456)"/>
</clipPath>
</defs>
</svg>
