<svg width="120" height="123" viewBox="0 0 120 123" fill="none" xmlns="http://www.w3.org/2000/svg">
<g clip-path="url(#clip0_57047_3902)">
<path d="M114.294 54.2454C114.291 54.2422 114.287 54.2406 114.282 54.2412L113.081 54.3974C111.726 54.5735 110.491 53.6175 110.249 52.2731C109.699 49.2197 108.883 46.2613 107.824 43.4225C107.469 42.4707 107.911 41.3958 108.85 41.0066C109.789 40.6169 110.237 39.5376 109.815 38.6122C108.324 35.3427 106.516 32.2172 104.414 29.2895C103.822 28.4649 102.665 28.3161 101.861 28.9347C101.055 29.5539 99.9024 29.4001 99.2554 28.6166C97.1683 26.0897 94.8412 23.7627 92.3143 21.6756C91.5309 21.0286 91.3771 19.876 91.9963 19.0704C92.6148 18.2656 92.466 17.1091 91.6414 16.5171C88.714 14.4154 85.5887 12.6068 82.3195 11.1163C81.3937 10.6942 80.3139 11.1423 79.9241 12.0821C79.535 13.0203 78.4605 13.4626 77.5089 13.1078C74.4738 11.976 71.3064 11.1175 68.0334 10.5721C67.0273 10.4045 66.3128 9.48159 66.4443 8.47017C66.5756 7.46007 65.8641 6.53134 64.8502 6.43321C61.2877 6.0884 57.654 6.08835 54.0915 6.43304C53.0767 6.53123 52.3645 7.46083 52.4959 8.47188C52.6274 9.48291 51.9142 10.4059 50.9087 10.5744C47.6349 11.123 44.4669 11.9775 41.4313 13.1081C40.4795 13.4626 39.405 13.0203 39.0159 12.0821C38.6261 11.1423 37.5463 10.6942 36.6206 11.1163C33.3517 12.6066 30.2269 14.4149 27.2997 16.5163C26.4745 17.1087 26.3256 18.2661 26.9446 19.0715C27.5636 19.8769 27.4107 21.0289 26.628 21.6763C24.1003 23.7671 21.7725 26.0906 19.6849 28.6168C19.0376 29.4 17.8851 29.5539 17.0794 28.9347C16.2746 28.3161 15.1181 28.4649 14.5261 29.2895C12.4246 32.2167 10.6161 35.3417 9.12571 38.6106C8.70314 39.5375 9.15045 40.6186 10.0905 41.0109C11.0294 41.4027 11.4708 42.4794 11.1151 43.4326C9.98447 46.4622 9.12668 49.6305 8.5816 52.8977C8.41375 53.9038 7.49069 54.6182 6.47921 54.4867C5.46903 54.3553 4.54023 55.0668 4.44219 56.0808C4.26979 57.8638 4.18359 59.6693 4.18359 61.4653C4.18359 63.2618 4.26985 65.0631 4.44236 66.8479C4.54045 67.8627 5.47003 68.5751 6.48113 68.4437C7.49204 68.3122 8.41494 69.0253 8.58341 70.0307C9.13176 73.3032 9.98592 76.4695 11.1159 79.4995C11.4709 80.4513 11.0288 81.5262 10.0905 81.9154C9.15104 82.305 8.70313 83.3844 9.12502 84.3098C10.6154 87.5788 12.4238 90.7039 14.5253 93.6313C15.1177 94.4565 16.2751 94.6054 17.0805 93.9864C17.8859 93.3674 19.038 93.5203 19.6854 94.303C21.7761 96.8307 24.0996 99.1584 26.6258 101.246C27.4091 101.893 27.5629 103.046 26.9437 103.852C26.3252 104.656 26.474 105.813 27.2986 106.405C30.2256 108.506 33.3504 110.315 36.619 111.805C37.5462 112.228 38.6278 111.78 39.0202 110.84C39.412 109.901 40.4882 109.459 41.4413 109.815C44.4745 110.946 47.6399 111.804 50.9108 112.349C51.9194 112.517 52.6359 113.442 52.5043 114.456C52.373 115.469 53.0862 116.4 54.1025 116.498C55.8842 116.67 57.6884 116.756 59.483 116.756C61.2787 116.756 63.0791 116.67 64.863 116.498C65.8794 116.399 66.5929 115.469 66.4616 114.456C66.3301 113.442 67.0463 112.517 68.0547 112.349C71.325 111.804 74.4892 110.946 77.5173 109.815C78.469 109.46 79.5439 109.902 79.933 110.84C80.3227 111.78 81.4021 112.228 82.3275 111.806C85.5965 110.316 88.7216 108.507 91.649 106.406C92.4742 105.813 92.6231 104.656 92.0041 103.85C91.3851 103.045 91.5379 101.893 92.3206 101.246C94.8484 99.1549 97.1761 96.8314 99.2638 94.3051C99.9111 93.5219 101.064 93.3681 101.869 93.9872C102.674 94.6058 103.831 94.457 104.423 93.6324C106.524 90.7049 108.333 87.5797 109.823 84.3104C110.245 83.3847 109.797 82.3049 108.858 81.9151C107.919 81.526 107.477 80.4515 107.832 79.4998C108.964 76.4649 109.822 73.2976 110.367 70.0247C110.535 69.0191 111.459 68.3058 112.469 68.4396C113.479 68.5732 114.408 67.8626 114.506 66.849C114.679 65.0639 114.765 63.2622 114.765 61.4653C114.765 59.0529 114.61 56.6318 114.298 54.2539C114.298 54.2507 114.297 54.2477 114.294 54.2454ZM72.5659 61.4566C72.5659 68.3875 66.708 74.0031 59.4743 74.0031C52.2407 74.0031 46.3828 68.3875 46.3828 61.4566C46.3828 54.5258 52.2407 48.9102 59.4743 48.9102C66.708 48.9102 72.5659 54.5258 72.5659 61.4566Z" fill="white"/>
</g>
<rect x="22.4961" y="23.9968" width="75.0064" height="75.0064" rx="37.5032" fill="#FFDD00"/>
<g clip-path="url(#clip1_57047_3902)">
<path d="M62.9275 66.2619C64.1656 66.2619 65.1656 65.2619 65.1656 64.0238C65.1656 62.7857 65.1656 63.9286 65.1656 63.8809L73.0704 59.5C73.5466 59.2619 73.6895 58.6428 73.4514 58.2143C73.2133 57.7381 72.5942 57.5952 72.1656 57.8333L64.2609 62.2143C63.8799 61.9286 63.4514 61.7857 62.9275 61.7857C61.6895 61.7857 60.6895 62.7857 60.6895 64.0238C60.6895 65.2619 61.6895 66.2619 62.9275 66.2619Z" fill="#231F20"/>
<path d="M63.8802 44.4524V42.3095H66.3088C66.8326 42.3095 67.2612 41.881 67.2612 41.3571C67.2612 40.8333 66.8326 40.4048 66.3088 40.4048H59.4993C58.9754 40.4048 58.5469 40.8333 58.5469 41.3571C58.5469 41.881 58.9754 42.3095 59.4993 42.3095H61.9278V44.4524C58.5469 44.5952 55.3088 45.6429 52.4993 47.4048C50.404 43.7857 48.0707 40.5476 47.5945 39.881C47.404 39.6429 47.1183 39.5 46.8326 39.5C46.5469 39.5 46.2612 39.6429 46.0707 39.881C45.1659 41.0714 37.5469 51.6905 37.5469 56.5C37.5469 61.3095 39.9754 63.7381 43.404 65.119C43.9754 75.4524 52.4993 83.5476 62.9278 83.5476C73.3564 83.5476 82.4516 74.7857 82.4516 64.0238C82.4516 53.2619 74.2135 44.9762 63.8802 44.4524ZM39.4516 56.5C39.4516 53.3571 44.2135 45.8333 46.8326 42.119C49.4516 45.8333 54.2135 53.3571 54.2135 56.5C54.2135 59.6429 50.9278 63.881 46.8326 63.881C42.7374 63.881 39.4516 60.5952 39.4516 56.5ZM55.404 53.3571C57.5945 51.7857 60.2135 50.9762 62.9278 50.9762C70.1183 50.9762 75.9754 56.8333 75.9754 64.0238C75.9754 71.2143 70.1183 77.0714 62.9278 77.0714C55.7374 77.0714 50.5469 71.9762 49.9278 65.2619C53.4993 63.9762 56.0707 60.5476 56.0707 56.5476C56.0707 52.5476 55.8326 54.5952 55.404 53.4048V53.3571ZM62.9278 81.5952C53.7374 81.5952 46.2135 74.6429 45.3564 65.5952C45.8326 65.6905 46.3088 65.7381 46.8326 65.7381C47.3564 65.7381 47.6897 65.7381 48.0707 65.6429C48.9278 73.2143 55.2612 78.9286 62.9278 78.9286C70.5945 78.9286 77.8802 72.2143 77.8802 63.9762C77.8802 55.7381 71.1659 49.0238 62.9278 49.0238C54.6897 49.0238 57.1183 49.881 54.6897 51.5C54.3088 50.6905 53.9278 49.881 53.4993 49.0714C56.3088 47.2619 59.5945 46.3095 62.9754 46.3095C72.6897 46.3095 80.5945 54.2143 80.5945 63.9286C80.5945 73.6429 72.6897 81.5476 62.9754 81.5476L62.9278 81.5952Z" fill="#231F20"/>
<path d="M52.5949 55.8334C52.6901 55.3096 52.3092 54.8334 51.7853 54.7381C51.2615 54.6429 50.7853 55.0239 50.6901 55.5477C50.3092 57.9762 48.9758 59.2143 46.7853 59.2143C44.5949 59.2143 45.833 59.6429 45.833 60.1667C45.833 60.6905 46.2615 61.1191 46.7853 61.1191C49.9282 61.1191 52.0234 59.2143 52.5472 55.8334H52.5949Z" fill="#231F20"/>
</g>
<defs>
<clipPath id="clip0_57047_3902">
<rect width="110.581" height="110.581" fill="white" transform="translate(4.18359 6.17456)"/>
</clipPath>
<clipPath id="clip1_57047_3902">
<rect width="44.9048" height="44" fill="white" transform="translate(37.5469 39.5)"/>
</clipPath>
</defs>
</svg>
