<svg width="264" height="49" viewBox="0 0 264 49" fill="none" xmlns="http://www.w3.org/2000/svg">
<g clip-path="url(#clip0_54618_3097)">
<path fill-rule="evenodd" clip-rule="evenodd" d="M6.24852 0.5H39.5902C43.0074 0.5 45.8388 4.02294 45.8388 8.32875V40.6713C45.8388 44.9771 43.0074 48.5 39.5902 48.5H6.24852C2.83136 48.5 0 44.9771 0 40.6713V8.32875C0 4.02294 2.83136 0.5 6.24852 0.5Z" fill="#FBEA07"/>
<path fill-rule="evenodd" clip-rule="evenodd" d="M29.7291 17.4787C27.1906 17.4787 20.1122 22.3228 18.6477 24.6225C17.1833 24.6225 15.914 24.6225 14.3031 24.6225C16.8415 19.6806 25.4821 11.8518 34.6596 13.6133L30.559 30.1026H36.3193C36.3193 30.1026 39.5901 17.1362 41.3963 9.94356C19.8682 3.09341 5.95544 21.2463 3.36816 40.0842C4.83266 40.0842 6.98059 40.0842 8.44509 40.0842C10.056 33.3319 11.5693 30.1026 11.5693 30.1026H26.556L29.7291 17.4787Z" fill="#2C2A29"/>
<path fill-rule="evenodd" clip-rule="evenodd" d="M12.4482 40.1331L13.9127 34.2126H25.5799L24.1154 40.1331H12.4482Z" fill="#2C2A29"/>
<path fill-rule="evenodd" clip-rule="evenodd" d="M29.5827 34.2126L28.1182 40.0841H33.8297L35.2942 34.2126H29.5827Z" fill="#2C2A29"/>
<path d="M260.143 41.259H261.168C261.461 41.259 261.705 41.259 261.901 41.1611C262.096 41.1122 262.242 41.0143 262.34 40.9165C262.487 40.7697 262.584 40.574 262.682 40.3293C262.779 40.0847 262.828 39.7911 262.828 39.3997C262.828 39.0082 262.731 38.5189 262.584 38.2743C262.438 38.0296 262.242 37.8339 261.998 37.7361C261.852 37.6871 261.559 37.6382 261.168 37.6382H260.192V41.259H260.143ZM259.509 41.8462V37.1H261.12C261.51 37.1 261.754 37.1 261.95 37.1489C262.242 37.1978 262.438 37.3446 262.633 37.4914C262.877 37.6871 263.072 37.9807 263.17 38.3232C263.316 38.6657 263.365 39.0082 263.365 39.4486C263.365 39.889 263.365 40.1336 263.219 40.4272C263.121 40.7208 263.023 40.9165 262.877 41.1122C262.731 41.3079 262.584 41.4547 262.438 41.5526C262.291 41.6504 262.096 41.7483 261.852 41.7972C261.608 41.8462 261.364 41.8951 261.071 41.8951H259.362L259.509 41.8462ZM243.741 41.8462V37.1H247.158V37.6382H244.376V39.1061H247.012V39.6443H244.376V41.259H247.256V41.7972H243.741V41.8462ZM229.535 41.8462V37.6871H227.973V37.1489H231.732V37.6871H230.17V41.8462H229.535ZM215.232 41.8462V37.1H215.867V41.8462H215.232ZM198.195 41.8462V37.1H199.123L200.245 40.4761C200.343 40.7697 200.441 41.0143 200.489 41.1611C200.538 40.9654 200.636 40.7208 200.734 40.3783L201.856 37.1H202.686V41.8462H202.1V37.8828L200.734 41.8462H200.148L198.781 37.8339V41.8462H198.195ZM185.112 41.8462V37.1H185.747V41.8462H185.112ZM169.93 41.8462V37.1H170.565V41.259H172.908V41.7972H169.979L169.93 41.8462ZM152.356 41.8462V37.1H155.773V37.6382H152.991V39.1061H155.627V39.6443H152.991V41.259H155.871V41.7972H152.356V41.8462ZM138.102 41.8462V37.6871H136.54V37.1489H140.299V37.6871H138.737V41.8462H138.102ZM122.432 39.889H124.043L123.555 38.5679C123.408 38.1764 123.31 37.8339 123.213 37.5893C123.164 37.8829 123.066 38.1764 122.969 38.47L122.432 39.84V39.889ZM121.065 41.8462L122.871 37.1H123.555L125.507 41.8462H124.775L124.238 40.4272H122.285L121.748 41.8462H121.065ZM107.64 41.8462L105.834 37.1H106.518L107.738 40.5251C107.836 40.8186 107.933 41.0633 107.982 41.3079C108.08 41.0633 108.129 40.7697 108.226 40.5251L109.495 37.1H110.13L108.275 41.8462H107.64ZM93.1907 41.8462V37.1H93.8253V41.8462H93.1907ZM77.5694 39.2039H78.9362C79.2291 39.2039 79.4244 39.204 79.6197 39.1061C79.7661 39.0572 79.9125 38.9593 80.0102 38.8125C80.1078 38.6657 80.1566 38.5189 80.1566 38.3721C80.1566 38.1275 80.059 37.9807 79.9126 37.8339C79.7661 37.6871 79.4732 37.6382 79.1315 37.6382H77.6182V39.2039H77.5694ZM76.9347 41.8462V37.1H79.0339C79.4732 37.1 79.7661 37.1 80.0102 37.2468C80.2055 37.3446 80.4007 37.4914 80.5472 37.6871C80.6936 37.8828 80.7424 38.1275 80.7424 38.4211C80.7424 38.7147 80.6448 39.0572 80.4007 39.2529C80.2055 39.4975 79.8637 39.6443 79.3756 39.6932C79.522 39.7911 79.6685 39.84 79.7661 39.9379C79.9614 40.0847 80.1078 40.3293 80.3031 40.574L81.133 41.8462H80.3519L79.7173 40.8676C79.522 40.574 79.3756 40.3783 79.2779 40.2315C79.1803 40.0847 79.0339 39.9868 78.985 39.9379C78.8874 39.889 78.7898 39.84 78.6921 39.7911C78.6433 39.7911 78.4969 39.7911 78.3504 39.7911H77.6182V41.8951H76.9836L76.9347 41.8462ZM61.7528 39.3507H62.9732C63.3637 39.3507 63.6566 39.2529 63.8519 39.1061C63.9984 38.9593 64.096 38.7636 64.096 38.47C64.096 38.1764 64.0472 38.0786 63.9495 37.9807C63.8519 37.8339 63.7055 37.7361 63.559 37.6871C63.4614 37.6871 63.2661 37.6871 62.9732 37.6871H61.7528V39.3997V39.3507ZM61.167 41.8462V37.1H62.9732C63.2661 37.1 63.5102 37.1 63.7055 37.1C63.9495 37.1 64.1448 37.1978 64.2912 37.3446C64.4377 37.4425 64.5842 37.5893 64.6818 37.785C64.7794 37.9807 64.8282 38.1764 64.8282 38.4211C64.8282 38.8125 64.6818 39.155 64.4377 39.4486C64.1936 39.7422 63.7055 39.889 63.0708 39.889H61.8504V41.7972H61.2158L61.167 41.8462Z" fill="#2C2A29"/>
<path fill-rule="evenodd" clip-rule="evenodd" d="M84.2087 12.2433C81.8167 12.2433 75.8122 16.2066 74.4454 18.0659C73.0785 18.0659 71.8093 18.0659 70.3936 18.0659C72.7368 14.0537 80.7427 7.69282 89.2368 9.11178L85.8684 22.4696H91.3359C92.898 16.1087 94.0696 11.4604 95.4365 6.07814C75.5193 0.500156 62.6317 15.2769 60.1909 30.5919C61.5578 30.5919 63.5593 30.5919 64.9261 30.5919C66.3906 25.1118 67.5134 22.5185 67.8551 22.4696H81.6702L84.2575 12.2433H84.2087Z" fill="#E01E2E"/>
<path fill-rule="evenodd" clip-rule="evenodd" d="M98.951 19.7297C98.951 19.7297 100.464 19.7297 100.806 19.7297C101.343 19.7297 101.538 20.1701 101.343 21.0508C101.148 21.9316 100.708 22.4209 100.025 22.3719H98.2676L98.951 19.6808V19.7297ZM94.8504 19.1426L94.0205 22.5187H92.9954L92.1655 25.797H93.2395L92.019 30.5921H96.2661L97.4865 25.797H98.1699L99.8785 30.5921H103.784C103.1 28.9285 102.563 27.4117 101.978 25.7481C102.808 25.6992 104.272 25.4545 104.565 24.2802C105.053 22.323 105.639 20.0723 106.029 18.4086C106.42 16.745 105.736 16.5493 104.663 16.5493C102.173 16.5493 99.7809 16.5493 97.1936 16.5493C94.6063 16.5493 95.2898 17.8215 94.9969 19.1426H94.8504Z" fill="#E01E2E"/>
<path fill-rule="evenodd" clip-rule="evenodd" d="M245.987 19.7297C245.987 19.7297 247.5 19.7297 247.842 19.7297C248.379 19.7297 248.574 20.1701 248.379 21.0508C248.183 21.9316 247.744 22.4209 247.061 22.3719H245.303L245.987 19.6808V19.7297ZM241.886 19.1426L241.056 22.5187H240.031L239.201 25.797H240.275L239.055 30.5921H243.302L244.522 25.797H245.206L246.914 30.5921H250.819C250.136 28.9285 249.599 27.4117 249.013 25.7481C249.843 25.6992 251.308 25.4545 251.601 24.2802C252.089 22.323 252.675 20.0723 253.065 18.4086C253.456 16.745 252.772 16.5493 251.698 16.5493C249.209 16.5493 246.817 16.5493 244.229 16.5493C241.642 16.5493 242.325 17.8215 242.032 19.1426H241.886Z" fill="#E01E2E"/>
<path fill-rule="evenodd" clip-rule="evenodd" d="M113.889 20.219C113.548 21.5891 112.474 25.7481 111.985 27.6564C111.497 29.5646 111.204 28.0478 110.619 27.9989C110.033 27.9989 109.496 27.7053 109.545 27.5096C109.935 25.6502 110.863 21.9805 111.351 20.268C111.839 18.5554 113.938 19.7297 113.889 20.268M110.619 16.5493C112.522 16.5493 113.987 16.5493 115.891 16.5493C117.795 16.5493 118.185 17.9683 117.892 19.3383C116.867 23.7909 117.453 20.9041 115.549 28.8307C115.305 29.8093 114.817 30.5921 113.694 30.5921C111.058 30.5921 109.593 30.5921 107.201 30.5921C104.809 30.5921 105.346 29.4667 105.688 28.1946C106.713 24.0845 107.348 21.5401 107.982 18.8979C108.617 16.2557 109.496 16.5982 110.667 16.5493H110.619Z" fill="#E01E2E"/>
<path fill-rule="evenodd" clip-rule="evenodd" d="M185.747 20.219C185.405 21.5891 184.332 25.7481 183.843 27.6564C183.355 29.5646 183.062 28.0478 182.476 27.9989C181.891 27.9989 181.354 27.7053 181.403 27.5096C181.793 25.6502 182.721 21.9805 183.209 20.268C183.697 18.5554 185.796 19.7297 185.747 20.268M182.476 16.5493C184.38 16.5493 185.845 16.5493 187.749 16.5493C189.653 16.5493 190.043 17.9683 189.75 19.3383C188.725 23.7909 189.311 20.9041 187.407 28.8307C187.163 29.8093 186.675 30.5921 185.552 30.5921C182.916 30.5921 181.451 30.5921 179.059 30.5921C176.667 30.5921 177.204 29.4667 177.546 28.1946C178.571 24.0845 179.206 21.5401 179.84 18.8979C180.475 16.2557 181.354 16.5982 182.525 16.5493H182.476Z" fill="#E01E2E"/>
<path fill-rule="evenodd" clip-rule="evenodd" d="M129.364 16.5493C129.364 16.5493 124.336 16.5493 122.92 16.5493C120.577 16.5493 120.137 18.4086 119.649 20.3169C119.161 22.2252 119.21 22.4209 119.21 22.4209H118.136L117.306 25.797H118.331L117.16 30.5921H121.309L122.481 25.797H125.995L126.825 22.4209C126.825 22.4209 123.945 22.4209 123.652 22.4209C123.359 22.4209 123.311 22.2252 123.408 21.9316C123.506 21.638 123.603 20.8551 123.701 20.4637C123.799 20.0723 123.994 20.0233 124.385 20.0233C124.775 20.0233 128.387 20.0233 128.387 20.0233L129.217 16.5493H129.364Z" fill="#E01E2E"/>
<path fill-rule="evenodd" clip-rule="evenodd" d="M68.4897 30.5922H79.6199L80.7915 25.7971H69.7102L68.4897 30.5922Z" fill="#E01E2E"/>
<path fill-rule="evenodd" clip-rule="evenodd" d="M131.072 16.5493L127.558 30.5921L131.707 30.6411L135.173 16.5493H131.072Z" fill="#E01E2E"/>
<path fill-rule="evenodd" clip-rule="evenodd" d="M136.93 16.5493L133.416 30.6411H137.174L138.834 24.0845L141.958 30.5921H144.839L148.353 16.5493H144.399L142.935 22.4698L140.494 16.5493H136.93Z" fill="#E01E2E"/>
<path fill-rule="evenodd" clip-rule="evenodd" d="M153.577 20.7083C153.675 20.3169 153.87 20.268 154.26 20.268C154.651 20.268 158.263 20.268 158.263 20.268L159.142 16.5493H152.747C150.404 16.5493 149.867 18.6044 149.379 20.5126C149.184 21.1976 148.939 22.4209 148.939 22.4209H147.866L147.036 25.797H148.061C148.061 25.797 147.67 27.2649 147.377 28.586C147.133 29.7114 147.719 30.5921 148.939 30.5921C150.16 30.5921 155.334 30.5921 155.334 30.5921L155.92 27.5096C155.92 27.5096 152.698 27.5096 152.308 27.5096C151.917 27.5096 151.82 27.3628 151.917 27.0692C152.015 26.7756 152.015 26.5799 152.113 26.2374C152.21 25.8949 152.308 25.797 152.747 25.797C153.187 25.797 155.725 25.797 155.725 25.797L156.555 22.4209C156.555 22.4209 153.675 22.4209 153.382 22.4209C153.089 22.4209 153.04 22.2252 153.138 21.9316C153.187 21.638 153.333 21.0998 153.431 20.7083H153.577Z" fill="#E01E2E"/>
<path fill-rule="evenodd" clip-rule="evenodd" d="M235.1 20.7083C235.198 20.3169 235.393 20.268 235.784 20.268C236.174 20.268 239.787 20.268 239.787 20.268L240.666 16.5493H234.271C231.927 16.5493 231.39 18.6044 230.902 20.5126C230.707 21.1976 230.463 22.4209 230.463 22.4209H229.389L228.559 25.797H229.584C229.584 25.797 229.194 27.2649 228.901 28.586C228.608 29.9071 229.243 30.5921 230.463 30.5921C231.683 30.5921 236.858 30.5921 236.858 30.5921L237.444 27.5096C237.444 27.5096 234.222 27.5096 233.831 27.5096C233.441 27.5096 233.343 27.3628 233.441 27.0692C233.538 26.7756 233.538 26.5799 233.636 26.2374C233.734 25.8949 233.831 25.797 234.271 25.797C234.71 25.797 237.248 25.797 237.248 25.797L238.078 22.4209C238.078 22.4209 235.198 22.4209 234.905 22.4209C234.612 22.4209 234.564 22.2252 234.661 21.9316C234.71 21.638 234.856 21.0998 234.954 20.7083H235.1Z" fill="#E01E2E"/>
<path fill-rule="evenodd" clip-rule="evenodd" d="M193.607 16.5493L190.678 28.3903C190.433 29.4667 190.58 30.6411 191.703 30.6411H198.537L199.367 27.1181H194.876L197.512 16.5982H193.558L193.607 16.5493Z" fill="#E01E2E"/>
<path fill-rule="evenodd" clip-rule="evenodd" d="M201.613 16.5493C201.613 16.5493 204.249 21.7359 205.371 24.0845C206.494 26.4331 205.371 27.1181 203.956 27.1181H201.71L200.832 30.5921C200.832 30.5921 202.296 30.5921 204.786 30.5921C207.275 30.5921 208.447 27.9499 209.57 25.2099L213.231 16.5493H209.619L207.812 20.5126L205.616 16.5493H201.564H201.613Z" fill="#E01E2E"/>
<path fill-rule="evenodd" clip-rule="evenodd" d="M213.817 18.3108L210.692 30.6411H214.744L216.355 23.5463L216.941 30.6411H219.675L223.531 24.1823L221.92 30.6411H226.07C226.07 30.6411 228.266 21.9805 229.096 18.4086C229.291 17.5279 229.145 16.5982 228.071 16.5982C226.997 16.5982 225.142 16.5982 225.142 16.5982L220.26 21.7359L218.21 16.5493C218.21 16.5493 216.502 16.5493 215.33 16.5493C214.158 16.5493 213.963 17.2343 213.719 18.2619L213.817 18.3108Z" fill="#E01E2E"/>
<path fill-rule="evenodd" clip-rule="evenodd" d="M256.58 16.5495C258.337 16.5495 260.046 16.5495 261.803 16.5495C263.56 16.5495 264.244 18.1152 263.902 19.4853C263.56 20.8553 263.56 20.7574 263.56 20.7574H260.241C260.241 20.7574 260.387 20.1214 260.485 19.7299C260.583 19.3385 260.094 19.0938 259.118 19.0938C258.142 19.0938 257.507 19.2896 257.41 19.5831L256.921 21.6382H260.485C261.901 21.6382 263.121 22.3232 262.731 24.0847L261.559 28.8308C261.364 29.6137 260.68 30.5923 259.606 30.5923C257.751 30.5923 255.75 30.5923 253.944 30.5923C252.137 30.5923 251.698 29.2223 252.089 27.8033C252.333 26.8247 252.577 25.7972 252.577 25.7972H255.896C255.896 25.7972 255.652 26.7269 255.506 27.314C255.359 27.9012 258.386 28.0969 258.581 27.314L259.265 24.525C259.265 24.525 256.433 24.525 255.164 24.525C253.895 24.525 253.114 23.4975 253.407 22.3721C253.699 21.2467 254.09 19.5342 254.529 17.8217C254.969 16.1091 255.847 16.4027 256.531 16.5006" fill="#E01E2E"/>
<path fill-rule="evenodd" clip-rule="evenodd" d="M85.0876 25.7971L83.8672 30.5922H89.3346L90.5551 25.7971H85.0876Z" fill="#E01E2E"/>
<path d="M176.911 16.5493C174.812 16.5493 171.981 16.5493 169.882 16.5493C167.783 16.5493 168.417 17.0386 168.124 18.0172L167.05 22.4698H166.025L165.195 25.797H166.22L165 30.5921H168.71L169.979 25.797C169.979 25.797 172.713 25.797 174.08 25.797C175.447 25.797 176.521 25.3567 176.862 23.8888C177.497 21.2466 177.936 19.2894 178.278 17.8704C178.473 17.0875 177.692 16.5493 176.911 16.5493ZM173.885 20.8062C173.592 21.9316 173.25 22.4209 172.567 22.4209H170.809L171.493 19.4851C171.493 19.4851 173.006 19.4851 173.348 19.4851C173.885 19.4851 174.08 19.9255 173.885 20.8062Z" fill="#E01E2E"/>
</g>
<defs>
<clipPath id="clip0_54618_3097">
<rect width="264" height="48" fill="white" transform="translate(0 0.5)"/>
</clipPath>
</defs>
</svg>
