<svg width="11" height="12" viewBox="0 0 11 12" fill="none" xmlns="http://www.w3.org/2000/svg">
<path d="M5.19532 0.990479C5.24219 0.943604 5.3125 0.920166 5.40625 0.920166C5.47656 0.920166 5.54688 0.943604 5.59375 0.990479L10.4921 5.91236C10.539 5.95923 10.5859 6.02954 10.5859 6.09986C10.5859 6.19361 10.539 6.24048 10.4921 6.28736L5.59375 11.2093C5.54688 11.2561 5.47656 11.2796 5.40625 11.2796C5.3125 11.2796 5.24219 11.2561 5.19532 11.2093L4.72656 10.7405C4.67969 10.6936 4.65625 10.6468 4.65625 10.553C4.65625 10.4827 4.67969 10.4124 4.72656 10.3421L8.35938 6.70923H0.367188C0.273438 6.70923 0.203125 6.68579 0.15625 6.63892C0.109375 6.59204 0.0859375 6.52173 0.0859375 6.42798V5.77173C0.0859375 5.70142 0.109375 5.63111 0.15625 5.58423C0.203125 5.53736 0.273438 5.49048 0.367188 5.49048H8.35938L4.72656 1.85767C4.67969 1.81079 4.65625 1.74048 4.65625 1.64673C4.65625 1.57642 4.67969 1.50611 4.72656 1.45923L5.19532 0.990479Z" fill="black"/>
</svg>
