<svg width="11" height="12" viewBox="0 0 11 12" fill="none" xmlns="http://www.w3.org/2000/svg">
<path d="M5.80468 11.0095C5.75781 11.0564 5.6875 11.0798 5.59375 11.0798C5.52344 11.0798 5.45312 11.0564 5.40625 11.0095L0.507862 6.08764C0.460962 6.04077 0.414062 5.97046 0.414062 5.90014C0.414062 5.80639 0.460962 5.75952 0.507862 5.71264L5.40625 0.790722C5.45312 0.743923 5.52344 0.720422 5.59375 0.720422C5.6875 0.720422 5.75781 0.743923 5.80468 0.790722L6.27344 1.25952C6.32031 1.30642 6.34375 1.35322 6.34375 1.44702C6.34375 1.51732 6.32031 1.58762 6.27344 1.65792L2.64062 5.29077L10.6328 5.29077C10.7266 5.29077 10.7969 5.31421 10.8437 5.36108C10.8906 5.40796 10.9141 5.47827 10.9141 5.57202L10.9141 6.22827C10.9141 6.29858 10.8906 6.36889 10.8437 6.41577C10.7969 6.46264 10.7266 6.50952 10.6328 6.50952L2.64062 6.50952L6.27344 10.1423C6.32031 10.1892 6.34375 10.2595 6.34375 10.3533C6.34375 10.4236 6.32031 10.4939 6.27344 10.5408L5.80468 11.0095Z" fill="black"/>
</svg>
