<svg width="60" height="61" viewBox="0 0 60 61" fill="none" xmlns="http://www.w3.org/2000/svg">
<g clip-path="url(#clip0_54970_746)">
<path fill-rule="evenodd" clip-rule="evenodd" d="M30.2345 3.83997V7.17981H31.9924H33.7502V3.83997V0.500122H31.9924H30.2345V3.83997ZM23.502 2.24786C22.6672 2.55688 21.9677 2.85934 21.9474 2.92004C21.9272 2.98075 22.4124 4.39579 23.0258 6.06477C23.639 7.73364 24.1408 9.11 24.1408 9.12336C24.1408 9.14856 27.335 7.98372 27.4001 7.93473C27.4617 7.88856 25.1662 1.67153 25.0904 1.67903C25.0516 1.6829 24.3367 1.93883 23.502 2.24786ZM38.8469 1.81848C38.8182 1.89911 38.3188 3.26364 37.7372 4.85094C37.1556 6.43825 36.6799 7.78485 36.6799 7.84344C36.6799 7.94493 39.5503 9.05481 39.8128 9.05481C39.8818 9.05481 39.9909 8.90985 40.0552 8.73254C40.1197 8.55524 40.6252 7.17489 41.1787 5.66481C41.7322 4.15485 42.1651 2.89942 42.1407 2.87504C42.0946 2.82899 39.0187 1.672 38.9423 1.672C38.9185 1.672 38.8756 1.73797 38.8469 1.81848ZM14.5314 18.2654C13.7902 19.655 13.1661 20.8411 13.1444 20.9009C13.1204 20.9675 15.6705 20.9981 19.6973 20.9796L26.2897 20.9493L26.8627 19.8947C27.1779 19.3146 27.8054 18.1412 28.257 17.2872L29.0783 15.7345L22.4786 15.7367L15.8791 15.7389L14.5314 18.2654ZM35.0392 15.8049C35.0392 15.8448 35.6583 17.0318 36.415 18.4427L37.7907 21.0079H44.3885H50.9862L50.2727 19.668C49.8803 18.931 49.2497 17.7576 48.8716 17.0606L48.184 15.7931L41.6116 15.7629C37.9968 15.7462 35.0392 15.7651 35.0392 15.8049ZM30.2142 21.0876L28.4028 24.465L21.8772 24.4952L15.3517 24.5256V28.6281V32.7307L15.9084 32.4493C17.5901 31.5995 19.8589 31.1604 22.5588 31.1621C26.1868 31.1645 28.7681 31.9115 30.797 33.5465L31.5079 34.1193L35.7117 34.1554L39.9154 34.1915L40.8298 34.6436C41.4373 34.944 41.9784 35.3299 42.4421 35.7936C42.8258 36.1773 43.1773 36.4748 43.2233 36.4548C43.2692 36.4346 44.5314 35.576 46.0285 34.5466L48.7502 32.6751V28.5993V24.5236H42.2154H35.6806L34.6624 22.6193C34.1022 21.572 33.2799 20.0389 32.8348 19.2126L32.0256 17.7104L30.2142 21.0876ZM57.3049 30.7482C55.8158 30.9859 53.5468 32.5052 52.0544 34.2641C51.3547 35.0887 50.8751 35.4616 47.6246 37.7091L43.9796 40.2294L43.7728 40.9932C43.2629 42.877 41.5512 44.4922 39.6331 44.8995C39.218 44.9877 36.9733 45.0314 32.8655 45.0314H26.7189V43.2736V41.5157L32.7834 41.5132C38.4441 41.5108 38.8798 41.4961 39.3282 41.2925C40.0578 40.9611 40.3713 40.4409 40.3713 39.5614C40.3713 38.7793 40.1892 38.4153 39.5645 37.9488C39.252 37.7154 39.0794 37.706 34.4439 37.6741L29.6467 37.6411L29.3713 37.2047C28.4852 35.8009 26.6643 34.9804 23.8415 34.7129C20.2046 34.3684 17.0181 35.3846 14.9029 37.564L14.3955 38.0867L18.3013 45.3644L22.2072 52.642L31.2377 52.6453L40.2681 52.6486L46.154 48.3518L52.0399 44.055L55.9177 37.8525C58.0505 34.441 59.802 31.5625 59.81 31.4559C59.827 31.2275 58.975 30.784 58.3596 30.7007C58.134 30.6703 57.6594 30.6916 57.3049 30.7482ZM4.5133 37.9462C2.12923 39.196 0.162123 40.2683 0.141732 40.3292C0.121459 40.39 2.4624 44.9537 5.34369 50.4705L10.5824 60.5012L12.2347 59.6367C13.1435 59.1613 15.2185 58.0755 16.8459 57.2238C18.4733 56.3722 19.8049 55.6521 19.8049 55.6237C19.8049 55.4361 9.06861 35.6581 8.97064 35.6652C8.90314 35.67 6.89724 36.6964 4.5133 37.9462Z" fill="#E31F26"/>
</g>
<defs>
<clipPath id="clip0_54970_746">
<rect width="60" height="60" fill="white" transform="translate(0 0.5)"/>
</clipPath>
</defs>
</svg>
