<svg width="60" height="61" viewBox="0 0 60 61" fill="none" xmlns="http://www.w3.org/2000/svg">
<g clip-path="url(#clip0_54970_743)">
<path fill-rule="evenodd" clip-rule="evenodd" d="M44.2382 0.691534C41.3951 1.28907 38.979 3.72048 38.3653 6.602C37.6978 9.73595 39.1403 13.517 42.246 16.774C43.3288 17.9095 44.9664 19.3033 45.6511 19.672L46.0371 19.8799L46.8369 19.1892C49.3753 16.9969 51.5003 14.3848 52.5521 12.1644C53.1634 10.8734 53.4495 9.81259 53.5167 8.58599C53.5956 7.14821 53.363 6.02017 52.7269 4.75642C51.1464 1.61638 47.6971 -0.0353798 44.2382 0.691534ZM44.0624 8.11724V9.87505H45.8202H47.578V8.11724V6.35943H45.8202H44.0624V8.11724ZM13.9572 10.0049C11.5531 10.3688 9.26427 12.0558 8.21474 14.2375C6.33482 18.1456 7.74927 22.7372 12.1436 26.9913C13.1842 27.9987 14.9775 29.4454 15.1856 29.4454C15.3627 29.4454 16.8772 28.1121 17.9376 27.023C20.4785 24.4125 22.0399 21.9394 22.6367 19.5796C22.8335 18.8009 22.8692 18.3758 22.8256 17.3237C22.7385 15.2202 22.0759 13.6922 20.6167 12.229C18.8724 10.4801 16.3606 9.64126 13.9572 10.0049ZM28.9452 13.4714C27.8485 13.5193 25.9041 13.7554 25.8471 13.8475C25.8204 13.8907 25.9006 14.2934 26.0252 14.7423C26.3335 15.8518 26.4629 17.4501 26.3487 18.7323C25.9531 23.1687 22.6937 28.02 17.0807 32.5269L15.3592 33.9092L13.5682 32.6595C11.5269 31.2351 10.2749 30.2039 9.05005 28.939L8.19798 28.0588L8.02865 28.464C7.38962 29.9933 6.79091 32.4731 6.56919 34.5092C6.43302 35.7586 6.40607 38.1581 6.52044 38.8497L6.5931 39.2891H11.0632C13.5218 39.2891 15.9803 39.3443 16.5264 39.4117C18.9089 39.7058 21.1088 40.8315 22.8324 42.6388C23.9343 43.7943 24.4143 44.5165 25.021 45.9314C25.7726 47.685 25.8033 47.9922 25.8655 54.3673L25.9218 60.1289L26.1737 60.189C27.6886 60.5497 31.4643 60.5583 33.6327 60.2057C40.3934 59.1065 46.3375 55.1465 49.9505 49.3344C51.6361 46.6231 52.9501 42.9365 53.2701 40.0215L53.3504 39.2891L50.0248 39.2901L46.6991 39.2909L46.4302 40.2568C45.672 42.9791 43.7924 46.03 40.9256 49.1915C39.4813 50.7843 36.7849 53.2344 36.4764 53.2344C36.4147 53.2344 35.826 52.8377 35.168 52.3529C33.7778 51.3286 31.2429 48.9015 30.1525 47.5508C26.6201 43.1751 25.2437 38.5949 26.2631 34.6084C26.7344 32.7658 28.1387 30.4735 29.4595 29.3911L30.0015 28.947L29.9714 21.2079C29.9517 16.1596 29.9005 13.4634 29.8241 13.4535C29.7597 13.4451 29.3642 13.4531 28.9452 13.4714ZM33.5155 20.4197V27.127L33.7792 27.0626C36.6903 26.3511 39.8935 26.9083 42.3046 28.5456C43.0836 29.0746 44.3701 30.3431 44.9404 31.1446C45.8033 32.3575 46.5228 34.029 46.7051 35.2451L46.7843 35.7735H50.1277H53.471L53.394 34.9239C53.0201 30.7963 51.427 26.5081 49.067 23.2761L48.4556 22.439L47.5187 23.1966C45.9497 24.4656 46.2731 24.4495 44.6849 23.3371C42.2637 21.6411 41.4571 20.9904 40.1337 19.665C38.6824 18.2118 37.684 16.9364 36.7348 15.3236L36.0906 14.229L35.3011 14.05C34.8669 13.9514 34.2874 13.835 34.0136 13.7916L33.5155 13.7122V20.4197ZM13.4765 17.6094V19.3672H15.2343H16.9921V17.6094V15.8516H15.2343H13.4765V17.6094ZM34.6874 30.3325C33.0825 30.7521 31.409 31.9345 30.5129 33.2821C28.3549 36.5272 29.1828 40.9849 32.7606 45.3863C33.3884 46.1586 35.5385 48.3333 36.1096 48.7736L36.4185 49.0117L37.659 47.7276C40.6023 44.681 42.6112 41.5801 43.2437 39.1068C43.5267 38.0004 43.5489 36.4522 43.2956 35.4799C42.6347 32.9427 40.5782 30.9192 38.056 30.3245C37.1374 30.1079 35.5315 30.1117 34.6874 30.3325ZM34.6874 37.2969V39.0547H36.4452H38.203V37.2969V35.5391H36.4452H34.6874V37.2969ZM7.26552 43.019C7.26552 43.1474 7.41798 43.7186 7.60419 44.2883C9.52911 50.1759 13.8608 55.199 19.405 57.972C20.1171 58.3282 21.0545 58.7531 21.4881 58.9164L22.2764 59.2131L22.2383 53.7921C22.2007 48.4383 22.1967 48.3619 21.9249 47.6261C21.2991 45.9328 19.8492 44.3149 18.3126 43.5954C16.8315 42.9019 16.7283 42.8898 11.8065 42.8357C7.33361 42.7865 7.26552 42.7892 7.26552 43.019Z" fill="#E31F26"/>
</g>
<defs>
<clipPath id="clip0_54970_743">
<rect width="60" height="60" fill="white" transform="translate(0 0.5)"/>
</clipPath>
</defs>
</svg>
