<svg width="120" height="91" viewBox="0 0 120 91" fill="none" xmlns="http://www.w3.org/2000/svg">
<path fill-rule="evenodd" clip-rule="evenodd" d="M12.7379 1.65531C8.81603 8.39101 8.59822 8.93862 8.43909 12.4741C8.30663 15.4186 8.67871 17.1899 9.94432 19.6399C11.1415 21.9576 12.929 23.7881 15.599 25.4307C16.8632 26.2084 17.8932 26.913 17.8878 26.9964C17.8602 27.4251 17.0546 30.5078 16.9402 30.6225C16.8669 30.6956 16.13 30.4386 15.3023 30.0507C12.852 28.9028 11.1893 28.6662 5.54529 28.6615L0.5 28.6576L0.503943 32.6636C0.510671 39.2068 1.40838 41.9128 4.65431 45.1729C7.62836 48.1601 10.5368 49.3263 15.011 49.3263H17.5941L18.095 51.0523C18.3705 52.0017 18.6531 52.9271 18.7227 53.109C18.8238 53.3728 18.4596 53.4661 16.9238 53.5711C15.8646 53.6433 14.476 53.8781 13.8381 54.0925C12.312 54.6057 3.49934 59.5918 3.5738 59.8997C3.60558 60.0311 4.46641 61.5987 5.4866 63.3832C8.47736 68.6145 11.2134 70.9974 15.4842 72.091C19.1504 73.0297 22.7399 72.4819 26.3361 70.4347C28.7177 69.0792 28.7256 69.0801 30.5328 70.9171L31.6147 72.0167L30.4528 72.7634C28.2971 74.1482 26.5437 76.3312 23.9867 80.814C22.6791 83.1066 21.609 85.0508 21.609 85.1349C21.609 85.4517 28.289 89.1488 29.8439 89.6925C33.2359 90.8787 37.274 90.5715 40.6737 88.8687C42.899 87.7542 45.3096 85.3622 46.7636 82.826C47.3676 81.7724 47.9603 80.9101 48.0802 80.9101C48.2004 80.9101 49.6265 81.1948 51.2496 81.5429C54.007 82.1342 54.5732 82.1758 59.8837 82.1758C65.1941 82.1758 65.7603 82.1342 68.5177 81.5429C70.1408 81.1948 71.5669 80.9101 71.6871 80.9101C71.807 80.9101 72.4011 81.7721 73.007 82.826C75.9029 87.8629 80.8148 90.672 86.2034 90.3736C87.4764 90.3032 88.8919 90.0557 89.8075 89.7433C91.1049 89.3009 96.5473 86.392 97.8178 85.4619C98.2172 85.1695 98.0931 84.8859 95.8233 80.8985C93.2144 76.3154 91.486 74.1584 89.2946 72.7503L88.1125 71.9909L89.5883 70.6447C90.3999 69.9043 91.1476 69.2984 91.2494 69.2984C91.3514 69.2984 92.3496 69.8191 93.4677 70.4554C97.0251 72.4805 100.632 73.026 104.283 72.091C108.554 70.9974 111.29 68.6145 114.281 63.3832C115.301 61.5987 116.162 60.0311 116.195 59.8997C116.276 59.5732 107.883 54.7989 106.158 54.1907C105.394 53.9213 103.903 53.6419 102.844 53.5702C101.307 53.4659 100.944 53.3728 101.045 53.109C101.114 52.9271 101.397 52.0017 101.672 51.0523L102.173 49.3263H104.714C106.27 49.3263 107.798 49.1851 108.659 48.9617C113.55 47.693 117.878 43.3187 118.806 38.7054C118.954 37.969 119.171 37.1849 119.287 36.9632C119.404 36.7414 119.5 34.7558 119.5 32.5507L119.5 28.5414L113.642 28.6799C107.398 28.8273 106.571 28.9599 104.103 30.2112C103.482 30.5264 102.893 30.6975 102.794 30.5916C102.696 30.4859 102.496 29.8264 102.349 29.126C102.203 28.4258 102.027 27.6278 101.958 27.3531C101.851 26.927 102.117 26.6866 103.757 25.7233C107.492 23.5296 110.075 20.2855 111.037 16.5814C111.573 14.5183 111.408 10.535 110.706 8.57425C110.274 7.36686 107.206 1.71685 106.435 0.708264C106.198 0.397768 105.593 0.682254 101.915 2.8339C99.58 4.20036 97.1701 5.73612 96.5598 6.24703C93.3835 8.90634 91.6632 12.7006 91.6632 17.0471C91.6632 19.4414 91.9019 20.3945 93.4656 24.2451C95.9456 30.3517 96.8822 36.073 96.3439 41.8275C95.4754 51.1104 91.576 59.1568 84.8842 65.4754C79.9929 70.0936 74.3835 73.0309 67.2867 74.6897C65.3968 75.1314 64.4159 75.2016 59.9997 75.2104C54.2738 75.2215 52.3324 74.9234 47.7592 73.3298C38.8676 70.2311 31.4447 63.6886 27.2171 55.2244C22.2961 45.3712 21.9858 34.8724 26.3017 24.2451C27.8724 20.3775 28.1051 19.4407 28.1006 17.0011C28.0935 12.9486 26.5926 9.40866 23.722 6.67365C22.748 5.74541 21.4293 4.88522 17.5183 2.62721C15.4941 1.45838 13.7662 0.460239 13.6783 0.408683C13.5902 0.357127 13.167 0.918202 12.7379 1.65531ZM57.3858 5.26399L55.0121 7.64856L57.448 10.0789L59.8837 12.509L62.3193 10.0789L64.7552 7.64856L62.3815 5.26399C61.076 3.95257 59.9521 2.87965 59.8837 2.87965C59.8152 2.87965 58.6914 3.95257 57.3858 5.26399ZM43.4678 9.90866L41.0941 12.2932L43.53 14.7236L45.9656 17.1536L48.4013 14.7236L50.8372 12.2932L48.4635 9.90866C47.1579 8.59724 46.0341 7.52432 45.9656 7.52432C45.8972 7.52432 44.7733 8.59724 43.4678 9.90866ZM71.3039 9.90866L68.9302 12.2932L71.3661 14.7236L73.8017 17.1536L76.2374 14.7236L78.6733 12.2932L76.2995 9.90866C74.994 8.59724 73.8701 7.52432 73.8017 7.52432C73.7333 7.52432 72.6094 8.59724 71.3039 9.90866ZM33.9073 27.09C33.9121 32.103 34.2007 33.7888 35.5076 36.4374C37.4823 40.4397 41.4692 43.2068 45.9285 43.6703C46.9779 43.7794 47.4328 43.9295 47.517 44.1945C47.9074 45.4211 49.112 47.5518 49.9617 48.5182C51.2134 49.942 53.3526 51.3319 55.0696 51.837L56.4035 52.2293L56.4039 56.2353L56.4042 60.2413H54.0845H51.7648V63.7248V67.2083H59.8837H68.0025V63.7248V60.2413H65.6829H63.3632L63.3634 56.2353L63.3639 52.2293L64.6977 51.837C66.4147 51.3319 68.5539 49.942 69.8056 48.5182C70.6553 47.5518 71.8599 45.4211 72.2503 44.1945C72.3345 43.9295 72.7894 43.7794 73.8388 43.6703C78.317 43.2049 82.2674 40.4625 84.2577 36.4374C85.5664 33.7911 85.8552 32.1055 85.8601 27.09L85.864 22.8517H59.8837H33.9033L33.9073 27.09ZM0.596266 32.8378C0.596266 35.2007 0.63083 36.1675 0.672816 34.9859C0.715034 33.8043 0.715034 31.871 0.672816 30.6896C0.63083 29.508 0.596266 30.4748 0.596266 32.8378ZM40.9547 30.9664C41.0382 31.5976 41.2602 32.482 41.4481 32.9318C42.2031 34.7409 44.2583 36.3863 46.1396 36.6873L47.1255 36.8452V33.332V29.8187H43.964H40.8025L40.9547 30.9664ZM72.6419 33.332V36.8452L73.6277 36.6873C75.509 36.3863 77.5642 34.7409 78.3193 32.9318C78.5072 32.482 78.7292 31.5976 78.8127 30.9664L78.9649 29.8187H75.8034H72.6419V33.332Z" fill="#E31F26"/>
</svg>
