<svg width="19" height="20" viewBox="0 0 19 20" fill="none" xmlns="http://www.w3.org/2000/svg">
<path d="M7.76209 13.059L7.76093 13.0556L7.54098 12.9838C6.49492 12.6141 5.57716 11.9515 4.897 11.0749C4.34701 10.3667 3.96909 9.5403 3.79307 8.66102C3.61705 7.78174 3.64773 6.87359 3.88271 6.0082C4.11768 5.14281 4.55051 4.34385 5.14706 3.67434C5.74361 3.00483 6.48756 2.48308 7.32023 2.15026C8.1529 1.81743 9.05152 1.68263 9.9452 1.75648C10.8389 1.83033 11.7032 2.11082 12.4699 2.57582C13.2367 3.04082 13.8849 3.67761 14.3634 4.43596C14.842 5.19431 15.1378 6.05349 15.2275 6.94571C15.2588 7.26405 14.996 7.52336 14.6765 7.52336C14.357 7.52336 14.1012 7.2629 14.063 6.94571C13.9596 6.12709 13.6395 5.35094 13.1355 4.69758C12.6316 4.04421 11.9623 3.53737 11.1967 3.22949C10.4312 2.92161 9.59732 2.82387 8.78135 2.9464C7.96538 3.06893 7.19697 3.40727 6.55563 3.92641C5.91429 4.44554 5.42332 5.12662 5.13352 5.89918C4.84372 6.67173 4.76561 7.50768 4.90729 8.32055C5.04896 9.13341 5.40527 9.89365 5.93934 10.5226C6.4734 11.1516 7.16584 11.6264 7.94499 11.898C8.14152 11.5395 8.45823 11.2619 8.83933 11.114C9.22044 10.9661 9.64151 10.9574 10.0284 11.0894C10.4153 11.2214 10.7432 11.4858 10.9544 11.8358C11.1655 12.1858 11.2464 12.5991 11.1828 13.003C11.1192 13.4068 10.9152 13.7752 10.6066 14.0434C10.2981 14.3115 9.90478 14.4622 9.49603 14.4689C9.08729 14.4756 8.68928 14.3379 8.3721 14.08C8.05492 13.8221 7.8389 13.4606 7.76209 13.059ZM6.8441 13.9562C5.71035 13.4933 4.71913 12.7389 3.97092 11.7695C3.78074 12.0547 3.67924 12.3898 3.6792 12.7326V13.3114C3.6792 15.593 5.83235 17.9418 9.46724 17.9418C13.1021 17.9418 15.2553 15.593 15.2553 13.3114V12.7326C15.2553 12.2721 15.0723 11.8304 14.7467 11.5048C14.4211 11.1791 13.9794 10.9962 13.5189 10.9962H11.7825C12.0253 11.3204 12.1973 11.6921 12.2874 12.087C12.3775 12.4819 12.3837 12.8914 12.3056 13.2889C12.2275 13.6863 12.0668 14.063 11.8339 14.3945C11.601 14.7259 11.3012 15.0048 10.9537 15.2131C10.6063 15.4213 10.219 15.5543 9.81689 15.6034C9.41479 15.6526 9.00687 15.6167 8.61949 15.4983C8.23212 15.3798 7.87393 15.1813 7.56811 14.9157C7.26228 14.6501 7.01563 14.3232 6.8441 13.9562ZM12.9401 7.52336C12.9401 6.4653 12.4666 5.51722 11.7199 4.88054C11.3554 4.57174 10.931 4.34149 10.4734 4.20418C10.0158 4.06687 9.53481 4.02546 9.06047 4.08254C8.58612 4.13961 8.12866 4.29395 7.71669 4.53589C7.30471 4.77783 6.94709 5.10218 6.66619 5.48864C6.38529 5.8751 6.18715 6.31536 6.08416 6.78189C5.98117 7.24842 5.97556 7.73118 6.06766 8.19999C6.15976 8.66879 6.34761 9.11354 6.61944 9.50643C6.89127 9.89933 7.24125 10.2319 7.64748 10.4834C8.16223 10.0661 8.80459 9.83805 9.46724 9.83742C10.1296 9.83739 10.7719 10.0646 11.287 10.481C11.7922 10.1702 12.2093 9.73524 12.4987 9.21748C12.7881 8.69973 12.94 8.11649 12.9401 7.52336Z" fill="black"/>
</svg>
