<svg width="59" height="61" viewBox="0 0 59 61" fill="none" xmlns="http://www.w3.org/2000/svg">
<path fill-rule="evenodd" clip-rule="evenodd" d="M29.406 1.78181C30.3017 2.01638 31.4893 2.62049 31.8525 3.02631C31.9753 3.16344 36.4933 6.73552 41.8926 10.9643C47.2919 15.193 51.8892 18.8363 52.1088 19.0606C52.6627 19.6261 52.9977 20.1817 53.2673 20.9819C53.4843 21.626 53.4976 21.936 53.4976 26.3603V31.0553H51.8019H50.1062V32.7509V34.4466H48.4106H46.7149V32.7509V31.0553H45.0104H43.3061L43.3517 26.3922C43.3806 23.4448 43.4427 21.596 43.5206 21.367L43.6438 21.005L37.3511 17.197C33.8901 15.1026 31.0279 13.3725 30.9907 13.3521C30.9145 13.3105 19.1278 22.9463 18.9824 23.169C18.9116 23.2774 21.4343 30.4369 22.9461 34.4183C22.9862 34.5236 22.7847 34.5596 22.1579 34.5596C18.9595 34.5596 15.2863 35.7859 12.7557 37.6986C11.3035 38.7962 11.3295 38.7779 11.2888 38.7298C11.2683 38.7055 9.93826 35.074 8.33315 30.6596C5.42802 22.67 5.41457 22.6286 5.36359 21.571C5.33374 20.9527 5.36992 20.2437 5.44995 19.8753C5.67683 18.8321 6.29823 17.6689 7.0138 16.9483C8.15679 15.797 24.1516 2.76914 24.9772 2.31708C26.3671 1.55584 27.856 1.37587 29.406 1.78181ZM28.6285 5.04766C29.5028 5.31365 30.2968 6.06483 30.5314 6.84777C30.7127 7.45278 30.6955 8.33995 30.4933 8.82412C29.74 10.6271 27.4809 11.1445 26.0355 9.84491C24.4945 8.45944 24.8655 6.09332 26.7626 5.20807C27.3351 4.94094 28.0699 4.87775 28.6285 5.04766ZM12.406 18.5328C14.6057 19.3151 14.9835 22.257 13.0487 23.5374C11.1874 24.7691 8.73694 23.4354 8.73321 21.1886C8.73185 20.4122 8.90831 19.9443 9.42368 19.3573C10.1393 18.5423 11.4295 18.1855 12.406 18.5328ZM23.7669 38.0265C25.7217 38.336 26.7838 38.6633 28.2226 39.3993C31.2669 40.9567 33.6745 43.7537 34.6702 46.8898C35.2139 48.6024 35.2975 49.3928 35.2975 52.8287V56.038H40.3844H45.4714V57.7337V59.4293H25.6887H5.90597V57.7337V56.038H7.60163H9.29729L9.29741 53.5793C9.29752 50.6162 9.43668 48.9867 9.81029 47.5744C11.1327 42.5753 15.4594 38.778 20.6381 38.0716C21.484 37.9562 23.1696 37.932 23.7669 38.0265ZM23.2009 46.6093C25.0292 47.4022 25.0134 50.0081 23.1755 50.776C21.5022 51.4752 19.7358 49.8987 20.1976 48.1184C20.5347 46.819 21.9937 46.0858 23.2009 46.6093Z" fill="#E31F26"/>
</svg>
