<svg width="60" height="60" viewBox="0 0 60 60" fill="none" xmlns="http://www.w3.org/2000/svg">
<g clip-path="url(#clip0_54970_731)">
<path fill-rule="evenodd" clip-rule="evenodd" d="M35.2111 1.35796C33.672 3.47214 31.4249 5.67644 29.1553 7.29855L28.2519 7.94414L28.7452 8.26863C31.1556 9.85441 33.66 12.2955 35.3871 14.7425L36.1306 15.7957L36.7924 14.8697C37.8115 13.4441 38.6995 12.422 40.0652 11.1025C41.1332 10.0707 43.3985 8.2432 43.8604 8.0407C44.0152 7.97285 43.9166 7.88625 42.4038 6.76054C40.2138 5.13105 38.4186 3.23835 36.3817 0.411323L36.1422 0.0789795L35.2111 1.35796ZM9.66797 5.69191C9.2168 5.79105 8.37305 6.10195 7.79297 6.38261C6.04758 7.2273 4.77445 8.50101 3.92332 10.254C1.55332 15.1349 4.28941 20.863 9.60938 22.1583C10.528 22.382 12.5452 22.3561 13.4766 22.1086C17.6364 21.0035 20.3585 17.0609 19.8095 12.9359C19.3663 9.60515 17.1464 6.91593 14.0039 5.90285C12.8025 5.51554 10.8935 5.42273 9.66797 5.69191ZM51.3993 13.7033C49.9042 15.8369 47.9606 17.8297 45.7617 19.4835C44.9883 20.0652 44.3433 20.5732 44.3284 20.6125C44.3136 20.6516 44.557 20.8508 44.8693 21.055C47.2297 22.5984 50.2753 25.6975 51.9178 28.2271L52.0973 28.5036L52.525 27.8596C53.3366 26.6371 54.8364 24.8747 56.0339 23.7361C57.0471 22.7727 59.1364 21.0944 59.7641 20.7398C59.9849 20.6152 59.9576 20.5877 58.7514 19.7259C56.595 18.1852 54.4712 16.0614 52.9304 13.905C52.5548 13.3794 52.2059 12.9062 52.1549 12.8534C52.1038 12.8006 51.7638 13.1831 51.3993 13.7033ZM33.5191 25.5602C33.0033 25.766 32.4648 26.2523 32.1962 26.755C31.945 27.225 31.9321 27.3885 31.8977 30.5413L31.8618 33.8365L30.4915 35.4632L29.1211 37.09L26.9824 38.1355L24.8438 39.1809V48.4155V57.6502L26.8331 58.8299L28.8224 60.0097L36.4132 59.9737C43.8669 59.9385 44.016 59.9332 44.6721 59.6843C45.6681 59.3062 46.3133 58.8913 47.0332 58.1657C47.7882 57.4045 48.4404 56.1664 48.6246 55.1446C48.7031 54.7093 48.7493 52.2105 48.7482 48.4649C48.7464 41.8845 48.7267 41.6593 48.0335 40.2861C47.5973 39.4221 46.4808 38.2761 45.6357 37.8252C44.6618 37.3055 43.8322 37.1486 42.0587 37.1486H40.4556L40.4003 33.7794C40.3409 30.1612 40.2923 29.8271 39.6384 28.536C39.203 27.6759 37.9482 26.478 37.0313 26.0469C35.8193 25.4771 34.2666 25.2619 33.5191 25.5602ZM6.01723 26.1407C4.56481 26.3913 2.82047 27.3702 1.83656 28.4866C1.52895 28.8356 1.06805 29.5431 0.812344 30.0587C0.0270703 31.6419 0.00433594 31.8833 0.00199219 38.6427L0 44.6486H5.85797H11.7159L11.7466 40.1661L11.7773 35.6837L17.39 35.6532L23.0027 35.6228L22.9351 33.8954C22.8609 31.998 22.6945 31.2035 22.1375 30.0872C21.2654 28.3392 19.7729 27.0492 17.8711 26.3995L16.9336 26.0793L11.7773 26.0579C8.94141 26.0461 6.34934 26.0834 6.01723 26.1407ZM15.3125 39.2189C15.2695 39.2618 15.2344 43.4278 15.2344 48.4767V57.6564H18.2813H21.3281V48.3986V39.1407H18.3594C16.7265 39.1407 15.3554 39.1759 15.3125 39.2189Z" fill="#E31F26"/>
</g>
<defs>
<clipPath id="clip0_54970_731">
<rect width="60" height="60" fill="white"/>
</clipPath>
</defs>
</svg>
