<svg width="21" height="20" viewBox="0 0 21 20" fill="none" xmlns="http://www.w3.org/2000/svg">
<g clip-path="url(#clip0_55758_1547)">
<path d="M0.925548 9.88029C0.925083 11.5607 1.36415 13.2015 2.19904 14.6477L0.845703 19.5889L5.90245 18.263C7.30108 19.0244 8.86814 19.4233 10.4606 19.4235H10.4648C15.7217 19.4235 20.0011 15.1457 20.0033 9.88781C20.0043 7.33998 19.013 4.94416 17.2119 3.14168C15.4111 1.33936 13.0162 0.346256 10.4644 0.345093C5.20679 0.345093 0.927796 4.62261 0.925626 9.88029" fill="#25D366"/>
<path d="M0.585875 9.87721C0.585333 11.6181 1.04014 13.3175 1.90479 14.8155L0.50293 19.9339L5.74099 18.5605C7.18425 19.3474 8.80921 19.7622 10.4627 19.7629H10.467C15.9125 19.7629 20.3456 15.3312 20.3479 9.88512C20.3488 7.24574 19.3218 4.7638 17.4564 2.89674C15.5908 1.02992 13.1101 0.00108527 10.467 0C5.02045 0 0.588046 4.43101 0.585875 9.87721ZM3.70533 14.5575L3.50975 14.2471C2.68758 12.9398 2.25363 11.4291 2.25425 9.87783C2.25595 5.35109 5.93998 1.66822 10.4701 1.66822C12.6639 1.66915 14.7256 2.52434 16.2763 4.07597C17.8269 5.62775 18.6801 7.69054 18.6796 9.8845C18.6776 14.4112 14.9935 18.0946 10.467 18.0946H10.4637C8.98983 18.0938 7.54433 17.698 6.28371 16.95L5.98371 16.7721L2.87533 17.5871L3.70533 14.5575Z" fill="url(#paint0_linear_55758_1547)"/>
<path d="M7.99648 5.74789C7.81151 5.3368 7.61686 5.32851 7.44097 5.3213C7.29694 5.31509 7.13229 5.31556 6.96779 5.31556C6.80314 5.31556 6.53562 5.3775 6.3095 5.6244C6.08314 5.87153 5.44531 6.46874 5.44531 7.68339C5.44531 8.89804 6.33004 10.072 6.45337 10.2369C6.57686 10.4015 8.16136 12.9739 10.6708 13.9635C12.7564 14.7859 13.1808 14.6223 13.6335 14.5811C14.0862 14.54 15.0942 13.984 15.2999 13.4075C15.5057 12.8311 15.5057 12.337 15.444 12.2337C15.3823 12.1308 15.2176 12.069 14.9707 11.9456C14.7238 11.8222 13.51 11.2249 13.2837 11.1425C13.0573 11.0601 12.8928 11.019 12.7281 11.2663C12.5635 11.5131 12.0907 12.069 11.9466 12.2337C11.8026 12.3987 11.6585 12.4193 11.4117 12.2958C11.1646 12.1719 10.3695 11.9115 9.42617 11.0705C8.69221 10.4161 8.19671 9.60796 8.05268 9.36075C7.90865 9.11393 8.03725 8.98013 8.16105 8.85711C8.27198 8.74649 8.40803 8.56882 8.53159 8.42471C8.65469 8.28052 8.69578 8.17765 8.7781 8.013C8.86051 7.8482 8.81927 7.70401 8.75764 7.58052C8.69578 7.45703 8.21601 6.23603 7.99648 5.74789Z" fill="white"/>
</g>
<defs>
<linearGradient id="paint0_linear_55758_1547" x1="992.751" y1="1993.39" x2="992.751" y2="0" gradientUnits="userSpaceOnUse">
<stop stop-color="#F9F9F9"/>
<stop offset="1" stop-color="white"/>
</linearGradient>
<clipPath id="clip0_55758_1547">
<rect width="19.85" height="20" fill="white" transform="translate(0.5)"/>
</clipPath>
</defs>
</svg>
