<svg width="53" height="54" viewBox="0 0 53 54" fill="none" xmlns="http://www.w3.org/2000/svg">
<path d="M5.99316 1.1875C7.1908 1.1875 8.37644 1.18736 9.52246 1.20312L9.52148 1.2041C10.362 1.2124 11.0429 1.37567 11.501 1.84668C11.9575 2.31611 12.1094 3.00568 12.1094 3.85352V26.1738C12.2403 26.0761 12.3578 25.988 12.4131 25.9492C12.6567 25.7689 12.8755 25.6058 13.085 25.4434L13.0869 25.4414L16.0352 23.1934C20.5912 19.7182 25.2968 16.125 29.9707 12.54L29.9727 12.5391C30.0905 12.4499 30.2357 12.3449 30.3945 12.2627C30.5524 12.181 30.7477 12.1085 30.9648 12.1084C31.0966 12.1084 31.2215 12.1135 31.3359 12.1592C31.3941 12.1824 31.4381 12.2113 31.4541 12.2217C31.4704 12.2322 31.477 12.2365 31.4883 12.2422L31.4941 12.2451C31.7367 12.3714 31.9295 12.5507 32.0518 12.8047C32.1682 13.0468 32.206 13.327 32.2021 13.6338V26.1406C32.2469 26.1083 32.2951 26.0734 32.332 26.0488L32.3477 26.0381C32.4598 25.9591 32.5993 25.8557 32.7197 25.7725L36.1973 23.1074L43.0508 17.8496C45.3556 16.0834 47.6717 14.3121 49.9697 12.5625H49.9707C50.2898 12.3213 50.747 12.1553 51.1367 12.1553H51.1738C51.5331 12.1685 51.7947 12.3675 51.9551 12.6074C52.1094 12.8384 52.182 13.1189 52.1924 13.373L52.2061 13.9014C52.2081 14.0776 52.208 14.2528 52.208 14.4209V51.1064C52.208 51.3922 52.1952 51.6468 52.1494 51.8633C52.1027 52.084 52.0161 52.2919 51.8506 52.457C51.6853 52.6218 51.4775 52.7074 51.2568 52.7539C51.04 52.7996 50.7846 52.8135 50.498 52.8135H2.5332C2.07001 52.8135 1.63464 52.7516 1.33984 52.4512C1.04737 52.153 0.988304 51.7155 0.988281 51.248C0.980399 35.4603 0.980469 19.6802 0.980469 3.90039C0.98049 3.03211 1.14649 2.32736 1.62109 1.84766C2.09578 1.36811 2.79768 1.19574 3.66406 1.1875H5.99316ZM49.5664 15.9785L49.5654 15.9775C49.5067 16.0229 49.4516 16.0635 49.4062 16.0957C49.3548 16.1322 49.3162 16.1604 49.2812 16.1895L49.2754 16.1943L49.2695 16.1982L47.3623 17.6611C42.5075 21.3794 37.4946 25.222 32.5615 29.0342L32.5625 29.0352C32.4774 29.1023 32.3942 29.2171 32.332 29.3643C32.2702 29.5106 32.2422 29.6594 32.2422 29.7676V29.7686C32.2264 35.3974 32.2256 41.1132 32.2256 46.6484V50.3037H49.6709V15.9053C49.6237 15.9379 49.5781 15.9702 49.5664 15.9785ZM3.50977 50.3037H9.58008V3.73633H3.50977V50.3037ZM12.1221 50.2803H29.6572V15.9189C29.6514 15.923 29.6448 15.9273 29.6387 15.9316C29.6057 15.9549 29.564 15.9815 29.5205 16.0088L29.5215 16.0098C29.3356 16.1422 29.2056 16.2235 29.0498 16.3398C28.3957 16.839 27.3516 17.6373 26.4707 18.3105C26.0304 18.647 25.6312 18.9526 25.3418 19.1738C25.1971 19.2844 25.08 19.3746 24.999 19.4365C24.9585 19.4675 24.9266 19.4915 24.9053 19.5078C24.8947 19.5159 24.8863 19.5222 24.8809 19.5264C24.8783 19.5283 24.8763 19.5302 24.875 19.5312L24.873 19.5322C20.8528 22.6066 16.6902 25.7836 12.5752 28.9131C12.3861 29.0581 12.2739 29.1898 12.2061 29.3223C12.1388 29.4537 12.1016 29.6127 12.1016 29.8311V49.7539C12.1016 49.8976 12.1021 50.0035 12.1152 50.1211L12.1182 50.1416V50.1631C12.1182 50.2167 12.1203 50.2517 12.1221 50.2803Z" fill="black" stroke="black" stroke-width="0.756044"/>
</svg>
