<svg width="53" height="52" viewBox="0 0 53 52" fill="none" xmlns="http://www.w3.org/2000/svg">
<path d="M39.2121 26.0001C39.2121 33.001 33.5866 38.6583 26.6251 38.6583C19.6636 38.6583 14.0381 33.001 14.0381 26.0001C14.0381 18.9991 19.6636 13.3418 26.6251 13.3418" stroke="black" stroke-width="3.4022" stroke-linecap="round" stroke-linejoin="round"/>
<path d="M21.3516 23.1007L26.0629 27.9802L37.1732 14.8269" stroke="black" stroke-width="3.4022" stroke-linecap="round" stroke-linejoin="round"/>
<path d="M26.6252 48.1345C24.6562 48.1345 20.5074 50.6803 19.1714 49.9024C17.8353 49.1245 15.7961 45.1644 14.0381 43.8915C12.2802 42.6186 7.35788 42.0529 6.3031 40.7092C5.24832 39.3656 7.00629 34.6983 6.3031 33.0011C5.59992 31.3039 2.01367 29.3239 2.01367 26.0002C2.01367 22.6765 5.67023 20.6257 6.3031 18.9993C6.93597 17.3728 5.17801 12.6348 6.3031 11.2912C7.4282 9.94754 12.2802 9.31109 14.0381 8.10891C15.7961 6.90673 17.8353 2.87589 19.1714 2.098C20.5074 1.32012 24.6562 3.86592 26.6252 3.86592C28.5941 3.86592 32.7429 1.32012 34.0789 2.098C35.415 2.87589 37.4542 6.83601 39.2122 8.10891C40.9701 9.38181 45.8924 9.94754 46.9472 11.2912C48.002 12.6348 46.244 17.3021 46.9472 18.9993C47.6504 20.6965 51.2366 22.6765 51.2366 26.0002C51.2366 29.3239 47.5801 31.3747 46.9472 33.0011C46.3143 34.6276 48.0723 39.3656 46.9472 40.7092C45.8221 42.0529 40.9701 42.6893 39.2122 43.8915C37.4542 45.0937 35.415 49.1245 34.0789 49.9024C32.7429 50.6803 28.5941 48.1345 26.6252 48.1345Z" stroke="black" stroke-width="3.4022" stroke-linecap="round" stroke-linejoin="round"/>
</svg>
