<svg width="53" height="52" viewBox="0 0 53 52" fill="none" xmlns="http://www.w3.org/2000/svg">
<g clip-path="url(#clip0_55845_170)">
<mask id="path-1-outside-1_55845_170" maskUnits="userSpaceOnUse" x="-0.634766" y="-0.547852" width="54" height="53" fill="black">
<rect fill="white" x="-0.634766" y="-0.547852" width="54" height="53"/>
<path d="M16.7164 34.9139V32.2589H21.2347C21.1156 32.7014 21.0223 33.136 20.9548 33.5625C20.889 33.9873 20.8491 34.4387 20.8348 34.9166L16.7164 34.9139ZM16.3619 48.242C13.1542 48.242 10.421 47.1437 8.16229 44.9471C5.90359 42.7506 4.77424 40.0699 4.77424 36.9052V12.8085C3.54803 12.8085 2.50665 12.3908 1.65008 11.5553C0.793517 10.7181 0.365234 9.68886 0.365234 8.46757V4.8435C0.365234 3.62221 0.793517 2.58499 1.65008 1.73185C2.50665 0.878717 3.54803 0.452148 4.77424 0.452148H27.8935C29.1197 0.452148 30.17 0.878717 31.0443 1.73185C31.9169 2.58322 32.3532 3.62044 32.3532 4.8435V8.46757C32.3532 9.68886 31.9169 10.7181 31.0443 11.5553C30.17 12.3908 29.1197 12.8085 27.8935 12.8085V22.7302C27.4759 23.0187 27.0876 23.3249 26.7286 23.6488C26.3696 23.9727 26.0284 24.3249 25.705 24.7055H16.7191V22.0505H25.2278V12.8085H7.4399V36.9078C7.4399 39.3575 8.31068 41.4169 10.0522 43.086C11.7938 44.7551 13.897 45.5888 16.3619 45.587C17.5241 45.587 18.6072 45.3843 19.6113 44.979C20.6136 44.5737 21.5093 44.0161 22.2983 43.3064C22.4831 43.7489 22.6866 44.1551 22.9087 44.525C23.1309 44.8949 23.3823 45.2693 23.6631 45.6481C22.6679 46.4587 21.5555 47.0933 20.3257 47.5517C19.0959 48.0119 17.7747 48.242 16.3619 48.242ZM4.77424 10.1535H27.8935C28.3733 10.1535 28.7918 9.99153 29.149 9.66762C29.508 9.34371 29.6875 8.94369 29.6875 8.46757V4.8435C29.6875 4.3656 29.508 3.95674 29.149 3.6169C28.7901 3.27706 28.3715 3.10714 27.8935 3.10714H4.77424C4.29442 3.10714 3.88479 3.27706 3.54537 3.6169C3.20594 3.95674 3.03445 4.3656 3.03089 4.8435V8.46757C3.03089 8.94546 3.2015 9.34548 3.5427 9.66762C3.88568 9.99153 4.29619 10.1535 4.77424 10.1535ZM37.2233 43.7497C39.2954 43.7497 41.061 43.0232 42.52 41.57C43.9772 40.1168 44.7058 38.3583 44.7058 36.2945C44.7058 34.2307 43.9772 32.4731 42.52 31.0217C41.061 29.5668 39.2954 28.8393 37.2233 28.8393C35.153 28.8393 33.3883 29.5668 31.9293 31.0217C30.4703 32.4731 29.7408 34.2307 29.7408 36.2945C29.7408 38.3583 30.4694 40.1168 31.9266 41.57C33.3839 43.0232 35.1494 43.7489 37.2233 43.7471M50.8182 51.6643L43.4156 44.2914C42.5075 44.9781 41.5284 45.502 40.4781 45.8631C39.4296 46.2242 38.3447 46.4047 37.2233 46.4047C34.4048 46.4047 32.0084 45.4215 30.034 43.455C28.0597 41.4886 27.0734 39.1017 27.0751 36.2945C27.0769 33.4873 28.0632 31.1005 30.034 29.134C32.0048 27.1676 34.4013 26.1852 37.2233 26.187C40.0454 26.1887 42.4418 27.1711 44.4126 29.134C46.3834 31.0969 47.3697 33.4838 47.3715 36.2945C47.3715 37.4096 47.1911 38.4902 46.8304 39.5363C46.4678 40.5806 45.9418 41.5558 45.2523 42.4621L52.6548 49.835L50.8182 51.6643Z"/>
</mask>
<path d="M16.7164 34.9139V32.2589H21.2347C21.1156 32.7014 21.0223 33.136 20.9548 33.5625C20.889 33.9873 20.8491 34.4387 20.8348 34.9166L16.7164 34.9139ZM16.3619 48.242C13.1542 48.242 10.421 47.1437 8.16229 44.9471C5.90359 42.7506 4.77424 40.0699 4.77424 36.9052V12.8085C3.54803 12.8085 2.50665 12.3908 1.65008 11.5553C0.793517 10.7181 0.365234 9.68886 0.365234 8.46757V4.8435C0.365234 3.62221 0.793517 2.58499 1.65008 1.73185C2.50665 0.878717 3.54803 0.452148 4.77424 0.452148H27.8935C29.1197 0.452148 30.17 0.878717 31.0443 1.73185C31.9169 2.58322 32.3532 3.62044 32.3532 4.8435V8.46757C32.3532 9.68886 31.9169 10.7181 31.0443 11.5553C30.17 12.3908 29.1197 12.8085 27.8935 12.8085V22.7302C27.4759 23.0187 27.0876 23.3249 26.7286 23.6488C26.3696 23.9727 26.0284 24.3249 25.705 24.7055H16.7191V22.0505H25.2278V12.8085H7.4399V36.9078C7.4399 39.3575 8.31068 41.4169 10.0522 43.086C11.7938 44.7551 13.897 45.5888 16.3619 45.587C17.5241 45.587 18.6072 45.3843 19.6113 44.979C20.6136 44.5737 21.5093 44.0161 22.2983 43.3064C22.4831 43.7489 22.6866 44.1551 22.9087 44.525C23.1309 44.8949 23.3823 45.2693 23.6631 45.6481C22.6679 46.4587 21.5555 47.0933 20.3257 47.5517C19.0959 48.0119 17.7747 48.242 16.3619 48.242ZM4.77424 10.1535H27.8935C28.3733 10.1535 28.7918 9.99153 29.149 9.66762C29.508 9.34371 29.6875 8.94369 29.6875 8.46757V4.8435C29.6875 4.3656 29.508 3.95674 29.149 3.6169C28.7901 3.27706 28.3715 3.10714 27.8935 3.10714H4.77424C4.29442 3.10714 3.88479 3.27706 3.54537 3.6169C3.20594 3.95674 3.03445 4.3656 3.03089 4.8435V8.46757C3.03089 8.94546 3.2015 9.34548 3.5427 9.66762C3.88568 9.99153 4.29619 10.1535 4.77424 10.1535ZM37.2233 43.7497C39.2954 43.7497 41.061 43.0232 42.52 41.57C43.9772 40.1168 44.7058 38.3583 44.7058 36.2945C44.7058 34.2307 43.9772 32.4731 42.52 31.0217C41.061 29.5668 39.2954 28.8393 37.2233 28.8393C35.153 28.8393 33.3883 29.5668 31.9293 31.0217C30.4703 32.4731 29.7408 34.2307 29.7408 36.2945C29.7408 38.3583 30.4694 40.1168 31.9266 41.57C33.3839 43.0232 35.1494 43.7489 37.2233 43.7471M50.8182 51.6643L43.4156 44.2914C42.5075 44.9781 41.5284 45.502 40.4781 45.8631C39.4296 46.2242 38.3447 46.4047 37.2233 46.4047C34.4048 46.4047 32.0084 45.4215 30.034 43.455C28.0597 41.4886 27.0734 39.1017 27.0751 36.2945C27.0769 33.4873 28.0632 31.1005 30.034 29.134C32.0048 27.1676 34.4013 26.1852 37.2233 26.187C40.0454 26.1887 42.4418 27.1711 44.4126 29.134C46.3834 31.0969 47.3697 33.4838 47.3715 36.2945C47.3715 37.4096 47.1911 38.4902 46.8304 39.5363C46.4678 40.5806 45.9418 41.5558 45.2523 42.4621L52.6548 49.835L50.8182 51.6643Z" fill="black"/>
<path d="M3.03089 10.1535H3.17265V3.10714H3.03089H2.88914V10.1535H3.03089ZM16.7164 34.9139H16.4329V35.1973L16.7162 35.1974L16.7164 34.9139ZM16.7164 32.2589V31.9754H16.4329V32.2589H16.7164ZM21.2347 32.2589L21.5085 32.3326L21.6046 31.9754H21.2347V32.2589ZM20.9548 33.5625L20.6748 33.5182L20.6746 33.5192L20.9548 33.5625ZM20.8348 34.9166L20.8347 35.2001L21.11 35.2003L21.1182 34.925L20.8348 34.9166ZM4.77424 36.9052H5.05775H4.77424ZM4.77424 12.8085H5.05775V12.525H4.77424V12.8085ZM1.65008 11.5553L1.45191 11.7581L1.45213 11.7583L1.65008 11.5553ZM4.77424 0.452148V0.168632V0.452148ZM31.0443 1.73185L30.8463 1.93478L30.8463 1.93478L31.0443 1.73185ZM31.0443 11.5553L31.2402 11.7603L31.2406 11.7599L31.0443 11.5553ZM27.8935 12.8085V12.525H27.61V12.8085H27.8935ZM27.8935 22.7302L28.0547 22.9634L28.177 22.8789V22.7302H27.8935ZM25.705 24.7055V24.989H25.8361L25.921 24.8891L25.705 24.7055ZM16.7191 24.7055H16.4355V24.989H16.7191V24.7055ZM16.7191 22.0505V21.767H16.4355V22.0505H16.7191ZM25.2278 22.0505V22.334H25.5114V22.0505H25.2278ZM25.2278 12.8085H25.5114V12.525H25.2278V12.8085ZM7.4399 12.8085V12.525H7.15638V12.8085H7.4399ZM16.3619 45.587V45.3035H16.3617L16.3619 45.587ZM19.6113 44.979L19.7174 45.2419L19.7176 45.2418L19.6113 44.979ZM22.2983 43.3064L22.5599 43.1971L22.4058 42.8283L22.1087 43.0956L22.2983 43.3064ZM23.6631 45.6481L23.8422 45.8679L24.0522 45.6968L23.8909 45.4792L23.6631 45.6481ZM20.3257 47.5517L20.2267 47.286L20.2263 47.2862L20.3257 47.5517ZM29.149 9.66762L28.9591 9.45713L28.9586 9.4576L29.149 9.66762ZM3.03089 4.8435L2.74738 4.84139V4.8435H3.03089ZM3.5427 9.66762L3.73736 9.4615L3.73734 9.46147L3.5427 9.66762ZM42.52 41.57L42.7201 41.7709L42.7202 41.7707L42.52 41.57ZM42.52 31.0217L42.3198 31.2225L42.3199 31.2226L42.52 31.0217ZM31.9293 31.0217L32.1293 31.2227L32.1295 31.2225L31.9293 31.0217ZM50.8182 51.6643L50.6181 51.8651L50.8182 52.0644L51.0183 51.8651L50.8182 51.6643ZM43.4156 44.2914L43.6157 44.0905L43.4411 43.9166L43.2446 44.0652L43.4156 44.2914ZM40.4781 45.8631L40.3859 45.595L40.3858 45.595L40.4781 45.8631ZM47.3715 36.2945H47.655V36.2943L47.3715 36.2945ZM46.8304 39.5363L47.0982 39.6293L47.0984 39.6287L46.8304 39.5363ZM45.2523 42.4621L45.0266 42.2904L44.8764 42.4879L45.0522 42.6629L45.2523 42.4621ZM52.6548 49.835L52.8549 50.0359L53.0566 49.835L52.8549 49.6341L52.6548 49.835ZM16.7164 34.9139H16.9999V32.2589H16.7164H16.4329V34.9139H16.7164ZM16.7164 32.2589V32.5425H21.2347V32.2589V31.9754H16.7164V32.2589ZM21.2347 32.2589L20.9609 32.1853C20.8394 32.6368 20.7439 33.0812 20.6748 33.5182L20.9548 33.5625L21.2348 33.6069C21.3007 33.1908 21.3918 32.766 21.5085 32.3326L21.2347 32.2589ZM20.9548 33.5625L20.6746 33.5192C20.6069 33.9567 20.566 34.4198 20.5514 34.9082L20.8348 34.9166L21.1182 34.925C21.1321 34.4575 21.1712 34.0179 21.235 33.6059L20.9548 33.5625ZM20.8348 34.9166L20.835 34.6331L16.7166 34.6304L16.7164 34.9139L16.7162 35.1974L20.8347 35.2001L20.8348 34.9166ZM16.3619 48.242V47.9585C13.2265 47.9585 10.5647 46.888 8.35995 44.7439L8.16229 44.9471L7.96463 45.1504C10.2773 47.3995 13.0819 48.5255 16.3619 48.5255V48.242ZM8.16229 44.9471L8.35995 44.7439C6.15641 42.601 5.05775 39.9937 5.05775 36.9052H4.77424H4.49072C4.49072 40.1461 5.65076 42.9002 7.96463 45.1504L8.16229 44.9471ZM4.77424 36.9052H5.05775V12.8085H4.77424H4.49072V36.9052H4.77424ZM4.77424 12.8085V12.525C3.61995 12.525 2.65021 12.1347 1.84804 11.3524L1.65008 11.5553L1.45213 11.7583C2.36309 12.6468 3.47611 13.092 4.77424 13.092V12.8085ZM1.65008 11.5553L1.84826 11.3526C1.04746 10.5699 0.648751 9.61423 0.648751 8.46757H0.365234H0.0817179C0.0817179 9.76349 0.539572 10.8664 1.45191 11.7581L1.65008 11.5553ZM0.365234 8.46757H0.648751V4.8435H0.365234H0.0817179V8.46757H0.365234ZM0.365234 4.8435H0.648751C0.648751 3.69673 1.04762 2.73206 1.85016 1.93273L1.65008 1.73185L1.45001 1.53098C0.539417 2.43792 0.0817179 3.54768 0.0817179 4.8435H0.365234ZM1.65008 1.73185L1.85016 1.93273C2.65274 1.13336 3.62183 0.735665 4.77424 0.735665V0.452148V0.168632C3.47424 0.168632 2.36056 0.624073 1.45001 1.53098L1.65008 1.73185ZM4.77424 0.452148V0.735665H27.8935V0.452148V0.168632H4.77424V0.452148ZM27.8935 0.452148V0.735665C29.046 0.735665 30.0252 1.13353 30.8463 1.93478L31.0443 1.73185L31.2423 1.52893C30.3148 0.623906 29.1934 0.168632 27.8935 0.168632V0.452148ZM31.0443 1.73185L30.8463 1.93478C31.664 2.73259 32.0696 3.69656 32.0696 4.8435H32.3532H32.6367C32.6367 3.54432 32.1698 2.43385 31.2423 1.52893L31.0443 1.73185ZM32.3532 4.8435H32.0696V8.46757H32.3532H32.6367V4.8435H32.3532ZM32.3532 8.46757H32.0696C32.0696 9.61251 31.6642 10.5676 30.848 11.3507L31.0443 11.5553L31.2406 11.7599C32.1695 10.8686 32.6367 9.76522 32.6367 8.46757H32.3532ZM31.0443 11.5553L30.8484 11.3503C30.0277 12.1346 29.0479 12.525 27.8935 12.525V12.8085V13.092C29.1915 13.092 30.3123 12.6469 31.2402 11.7603L31.0443 11.5553ZM27.8935 12.8085H27.61V22.7302H27.8935H28.177V12.8085H27.8935ZM27.8935 22.7302L27.7324 22.4969C27.3052 22.792 26.9072 23.1058 26.5387 23.4383L26.7286 23.6488L26.9185 23.8593C27.268 23.544 27.6466 23.2453 28.0547 22.9634L27.8935 22.7302ZM26.7286 23.6488L26.5387 23.4383C26.1701 23.7709 25.8202 24.1321 25.489 24.5219L25.705 24.7055L25.921 24.8891C26.2366 24.5178 26.5692 24.1746 26.9185 23.8593L26.7286 23.6488ZM25.705 24.7055V24.422H16.7191V24.7055V24.989H25.705V24.7055ZM16.7191 24.7055H17.0026V22.0505H16.7191H16.4355V24.7055H16.7191ZM16.7191 22.0505V22.334H25.2278V22.0505V21.767H16.7191V22.0505ZM25.2278 22.0505H25.5114V12.8085H25.2278H24.9443V22.0505H25.2278ZM25.2278 12.8085V12.525H7.4399V12.8085V13.092H25.2278V12.8085ZM7.4399 12.8085H7.15638V36.9078H7.4399H7.72341V12.8085H7.4399ZM7.4399 36.9078H7.15638C7.15638 39.4334 8.05774 41.5672 9.85607 43.2907L10.0522 43.086L10.2484 42.8813C8.56362 41.2666 7.72341 39.2816 7.72341 36.9078H7.4399ZM10.0522 43.086L9.85607 43.2907C11.6517 45.0116 13.8258 45.8723 16.3621 45.8705L16.3619 45.587L16.3617 45.3035C13.9682 45.3052 11.9359 44.4986 10.2484 42.8813L10.0522 43.086ZM16.3619 45.587V45.8705C17.5578 45.8705 18.6772 45.6618 19.7174 45.2419L19.6113 44.979L19.5052 44.7161C18.5372 45.1068 17.4904 45.3035 16.3619 45.3035V45.587ZM19.6113 44.979L19.7176 45.2418C20.7499 44.8244 21.6739 44.2494 22.4879 43.5171L22.2983 43.3064L22.1087 43.0956C21.3446 43.7829 20.4773 44.323 19.505 44.7162L19.6113 44.979ZM22.2983 43.3064L22.0367 43.4156C22.2262 43.8694 22.4357 44.288 22.6657 44.671L22.9087 44.525L23.1518 44.379C22.9374 44.0221 22.74 43.6283 22.5599 43.1971L22.2983 43.3064ZM22.9087 44.525L22.6657 44.671C22.8929 45.0494 23.1496 45.4314 23.4353 45.8169L23.6631 45.6481L23.8909 45.4792C23.6151 45.1072 23.3688 44.7404 23.1518 44.379L22.9087 44.525ZM23.6631 45.6481L23.484 45.4282C22.5134 46.2189 21.4281 46.8382 20.2267 47.286L20.3257 47.5517L20.4247 47.8173C21.6828 47.3484 22.8224 46.6985 23.8422 45.8679L23.6631 45.6481ZM20.3257 47.5517L20.2263 47.2862C19.0307 47.7336 17.7433 47.9585 16.3619 47.9585V48.242V48.5255C17.806 48.5255 19.1612 48.2902 20.4251 47.8172L20.3257 47.5517ZM4.77424 10.1535V10.437H27.8935V10.1535V9.86997H4.77424V10.1535ZM27.8935 10.1535V10.437C28.4441 10.437 28.9304 10.2486 29.3395 9.87765L29.149 9.66762L28.9586 9.4576C28.6533 9.73447 28.3025 9.86997 27.8935 9.86997V10.1535ZM29.149 9.66762L29.339 9.87812C29.7565 9.5014 29.971 9.02535 29.971 8.46757H29.6875H29.404C29.404 8.86204 29.2596 9.18603 28.9591 9.45713L29.149 9.66762ZM29.6875 8.46757H29.971V4.8435H29.6875H29.404V8.46757H29.6875ZM29.6875 4.8435H29.971C29.971 4.28475 29.7573 3.80232 29.3439 3.41101L29.149 3.6169L28.9541 3.82279C29.2587 4.11115 29.404 4.44646 29.404 4.8435H29.6875ZM29.149 3.6169L29.3439 3.41101C28.9343 3.0232 28.4467 2.82362 27.8935 2.82362V3.10714V3.39066C28.2964 3.39066 28.6458 3.53091 28.9541 3.82279L29.149 3.6169ZM27.8935 3.10714V2.82362H4.77424V3.10714V3.39066H27.8935V3.10714ZM4.77424 3.10714V2.82362C4.21908 2.82362 3.73731 3.02352 3.34477 3.41654L3.54537 3.6169L3.74596 3.81725C4.03227 3.5306 4.36976 3.39066 4.77424 3.39066V3.10714ZM3.54537 3.6169L3.34477 3.41654C2.95306 3.80873 2.7515 4.28868 2.74739 4.84139L3.03089 4.8435L3.3144 4.84561C3.3174 4.44253 3.45882 4.10475 3.74596 3.81725L3.54537 3.6169ZM3.03089 4.8435H2.74738V8.46757H3.03089H3.31441V4.8435H3.03089ZM3.03089 8.46757H2.74738C2.74738 9.02186 2.94896 9.49697 3.34807 9.87378L3.5427 9.66762L3.73734 9.46147C3.45404 9.194 3.31441 8.86907 3.31441 8.46757H3.03089ZM3.5427 9.66762L3.34804 9.87375C3.74442 10.2481 4.22488 10.437 4.77424 10.437V10.1535V9.86997C4.36751 9.86997 4.02694 9.73497 3.73736 9.4615L3.5427 9.66762ZM37.2233 43.7497V44.0333C39.3699 44.0333 41.2075 43.2773 42.7201 41.7709L42.52 41.57L42.3199 41.3691C40.9144 42.769 39.221 43.4662 37.2233 43.4662V43.7497ZM42.52 41.57L42.7202 41.7707C44.2309 40.2642 44.9893 38.4334 44.9893 36.2945H44.7058H44.4223C44.4223 38.2832 43.7235 39.9694 42.3198 41.3692L42.52 41.57ZM44.7058 36.2945H44.9893C44.9893 34.1556 44.2309 32.3256 42.7201 30.8208L42.52 31.0217L42.3199 31.2226C43.7235 32.6206 44.4223 34.3058 44.4223 36.2945H44.7058ZM42.52 31.0217L42.7202 30.821C41.2077 29.3127 39.37 28.5558 37.2233 28.5558V28.8393V29.1228C39.2208 29.1228 40.9143 29.8209 42.3198 31.2225L42.52 31.0217ZM37.2233 28.8393V28.5558C35.0783 28.5558 33.2416 29.3127 31.7291 30.821L31.9293 31.0217L32.1295 31.2225C33.5351 29.8208 35.2276 29.1228 37.2233 29.1228V28.8393ZM31.9293 31.0217L31.7294 30.8207C30.2167 32.3255 29.4573 34.1555 29.4573 36.2945H29.7408H30.0243C30.0243 34.3059 30.7239 32.6207 32.1293 31.2227L31.9293 31.0217ZM29.7408 36.2945H29.4573C29.4573 38.4334 30.2157 40.2642 31.7265 41.7707L31.9266 41.57L32.1268 41.3692C30.7231 39.9694 30.0243 38.2832 30.0243 36.2945H29.7408ZM31.9266 41.57L31.7265 41.7707C33.2373 43.2774 35.0752 44.0324 37.2236 44.0306L37.2233 43.7471L37.2231 43.4636C35.2237 43.4653 33.5304 42.7689 32.1268 41.3692L31.9266 41.57ZM50.8182 51.6643L51.0183 51.4634L43.6157 44.0905L43.4156 44.2914L43.2156 44.4922L50.6181 51.8651L50.8182 51.6643ZM43.4156 44.2914L43.2446 44.0652C42.3598 44.7344 41.4071 45.2439 40.3859 45.595L40.4781 45.8631L40.5703 46.1312C41.6496 45.7602 42.6553 45.2219 43.5867 44.5175L43.4156 44.2914ZM40.4781 45.8631L40.3858 45.595C39.3673 45.9458 38.3136 46.1212 37.2233 46.1212V46.4047V46.6882C38.3757 46.6882 39.4919 46.5026 40.5704 46.1312L40.4781 45.8631ZM37.2233 46.4047V46.1212C34.4789 46.1212 32.1547 45.167 30.2341 43.2542L30.034 43.455L29.834 43.6559C31.8621 45.676 34.3308 46.6882 37.2233 46.6882V46.4047ZM30.034 43.455L30.2341 43.2542C28.3136 41.3414 27.3569 39.0271 27.3587 36.2947L27.0751 36.2945L26.7916 36.2943C26.7898 39.1764 27.8057 41.6358 29.834 43.6559L30.034 43.455ZM27.0751 36.2945L27.3587 36.2947C27.3604 33.562 28.3172 31.2475 30.2343 29.3347L30.034 29.134L29.8338 28.9333C27.8092 30.9534 26.7935 33.4126 26.7916 36.2943L27.0751 36.2945ZM30.034 29.134L30.2343 29.3347C32.1511 27.4221 34.4751 26.4688 37.2231 26.4705L37.2233 26.187L37.2235 25.9035C34.3275 25.9016 31.8586 26.913 29.8338 28.9333L30.034 29.134ZM37.2233 26.187L37.2231 26.4705C39.9715 26.4722 42.2957 27.4257 44.2125 29.3349L44.4126 29.134L44.6127 28.9331C42.5879 26.9165 40.1193 25.9053 37.2235 25.9035L37.2233 26.187ZM44.4126 29.134L44.2125 29.3349C46.1293 31.244 47.0862 33.5584 47.088 36.2947L47.3715 36.2945L47.655 36.2943C47.6532 33.4092 46.6375 30.9498 44.6127 28.9331L44.4126 29.134ZM47.3715 36.2945H47.088C47.088 37.3784 46.9127 38.4277 46.5623 39.4438L46.8304 39.5363L47.0984 39.6287C47.4695 38.5527 47.655 37.4408 47.655 36.2945H47.3715ZM46.8304 39.5363L46.5625 39.4433C46.2101 40.4584 45.6986 41.4073 45.0266 42.2904L45.2523 42.4621L45.4779 42.6337C46.185 41.7044 46.7255 40.7027 47.0982 39.6292L46.8304 39.5363ZM45.2523 42.4621L45.0522 42.6629L52.4547 50.0359L52.6548 49.835L52.8549 49.6341L45.4524 42.2612L45.2523 42.4621ZM52.6548 49.835L52.4547 49.6341L50.6181 51.4634L50.8182 51.6643L51.0183 51.8651L52.8549 50.0359L52.6548 49.835Z" fill="black" mask="url(#path-1-outside-1_55845_170)"/>
</g>
<defs>
<clipPath id="clip0_55845_170">
<rect width="53" height="52" fill="white"/>
</clipPath>
</defs>
</svg>
