<svg width="19" height="19" viewBox="0 0 19 19" fill="none" xmlns="http://www.w3.org/2000/svg">
<path d="M12.3997 12.1268C13.1099 11.7321 13.0178 10.211 12.1948 8.72692C11.8417 8.08792 11.4076 7.57047 10.9735 7.20872C10.4544 7.59392 9.82561 7.80283 9.1792 7.80489C8.5318 7.80345 7.90192 7.5945 7.38202 7.20872C6.94791 7.57047 6.51497 8.0885 6.16074 8.72692C5.3371 10.2104 5.24623 11.7321 5.95816 12.1268C6.27534 12.3074 6.60989 12.172 6.95486 11.8397C6.89025 12.1977 6.8579 12.5607 6.8582 12.9244C6.8582 14.6249 7.51804 15.999 8.3301 15.999C8.81977 15.999 9.06229 15.4984 9.17863 14.7326C9.29439 15.4931 9.53749 15.999 10.0237 15.999C10.8323 15.999 11.4973 14.6244 11.4973 12.9244C11.4973 12.5424 11.4614 12.1778 11.4001 11.8403C11.7474 12.1731 12.0808 12.3109 12.3991 12.128L12.3997 12.1268ZM9.17805 7.22608C9.50644 7.23099 9.83253 7.17053 10.1373 7.04822C10.4421 6.92591 10.7196 6.74421 10.9535 6.51367C11.1874 6.28313 11.3732 6.00837 11.4999 5.70538C11.6266 5.40239 11.6918 5.07722 11.6917 4.74878C11.6916 4.42035 11.6262 4.09523 11.4992 3.79232C11.3723 3.48942 11.1864 3.21479 10.9523 2.98442C10.7182 2.75405 10.4406 2.57253 10.1357 2.45044C9.83083 2.32835 9.5047 2.26812 9.17631 2.27325C8.52608 2.28342 7.90594 2.54891 7.44979 3.01241C6.99365 3.47591 6.7381 4.10021 6.73833 4.75052C6.73855 5.40083 6.99454 6.02496 7.45101 6.48813C7.90748 6.95131 8.52781 7.21637 9.17805 7.22608ZM14.1523 8.79696C14.6812 8.7815 15.1833 8.56052 15.5519 8.18094C15.9206 7.80135 16.1268 7.29304 16.1268 6.76391C16.1268 6.23477 15.9206 5.72646 15.5519 5.34687C15.1833 4.96729 14.6812 4.74631 14.1523 4.73086C13.6129 4.73093 13.0957 4.94526 12.7144 5.3267C12.3331 5.70813 12.1189 6.22542 12.119 6.76477C12.119 7.30413 12.3334 7.82136 12.7148 8.20268C13.0962 8.58401 13.6135 8.79819 14.1529 8.79811L14.1523 8.79696ZM16.6296 10.0298C16.339 9.50426 15.9836 9.07941 15.6271 8.78249C15.2006 9.09849 14.6842 9.26986 14.1534 9.27158C13.7159 9.27158 13.3084 9.15176 12.9519 8.95323C13.2389 9.58587 13.4166 10.2266 13.4496 10.7996C13.504 11.6771 13.2297 12.3277 12.681 12.6315C12.5635 12.6963 12.4356 12.7402 12.303 12.7612C12.27 12.9881 12.2474 13.2242 12.2474 13.4731C12.2474 14.8698 12.7886 15.9979 13.456 15.9979C13.8577 15.9979 14.0579 15.5869 14.1529 14.9583C14.2472 15.5834 14.4469 15.9979 14.8474 15.9979C15.5102 15.9979 16.0571 14.8692 16.0571 13.4743C16.0571 13.16 16.0265 12.8607 15.9761 12.5829C16.2609 12.8567 16.5352 12.9696 16.7968 12.8191C17.3797 12.4949 17.3045 11.2459 16.629 10.0292L16.6296 10.0298ZM4.2038 8.79696C4.60579 8.79673 4.99869 8.67731 5.33283 8.45381C5.66696 8.23031 5.92733 7.91276 6.081 7.5413C6.23468 7.16984 6.27477 6.76115 6.19621 6.36691C6.11764 5.97267 5.92395 5.61058 5.63961 5.32641C5.35528 5.04224 4.99308 4.84875 4.59879 4.77041C4.20451 4.69207 3.79584 4.73239 3.42447 4.88628C3.0531 5.04017 2.7357 5.30071 2.51239 5.63497C2.28907 5.96923 2.16988 6.3622 2.16988 6.7642C2.17004 7.30358 2.38437 7.82082 2.76577 8.20222C3.14717 8.58362 3.66442 8.79796 4.2038 8.79811V8.79696ZM5.67107 12.6298C4.74961 12.1176 4.66511 10.5901 5.40714 8.95208C5.04038 9.16035 4.62614 9.27059 4.20438 9.27215C3.65104 9.27215 3.14401 9.08694 2.72843 8.78249C2.37246 9.07883 2.01766 9.50368 1.72594 10.0287C1.05048 11.2465 0.976389 12.4955 1.55982 12.8185C1.82029 12.9678 2.09522 12.8561 2.37825 12.5835C2.32676 12.8774 2.30061 13.1753 2.30011 13.4737C2.30011 14.8698 2.8413 15.9973 3.50866 15.9973C3.91035 15.9973 4.11061 15.5863 4.20554 14.9583C4.30104 15.5834 4.50073 15.9979 4.9001 15.9979C5.56399 15.9979 6.10981 14.8692 6.10981 13.4743C6.10981 13.2237 6.08665 12.9869 6.05366 12.76C5.91964 12.7391 5.79034 12.6949 5.67165 12.6292L5.67107 12.6298Z" fill="black"/>
</svg>
