<svg width="73" height="56" viewBox="0 0 73 56" fill="none" xmlns="http://www.w3.org/2000/svg">
<path d="M40.515 18.8239C38.0068 18.8239 35.9268 16.7439 35.9268 14.2357C35.9268 11.7275 38.0068 9.64746 40.515 9.64746C43.0232 9.64746 45.1032 11.7275 45.1032 14.2357C45.1032 16.7439 43.0232 18.8239 40.515 18.8239Z" stroke="black" stroke-width="2.83516" stroke-linecap="round" stroke-linejoin="round"/>
<path d="M52.7498 16.244V12.2265L49.4627 11.5691C49.3166 10.9847 49.0244 10.4003 48.7323 9.81596L50.5584 7.0402L47.7096 4.19139L44.9339 6.01755C44.3495 5.72536 43.8382 5.50622 43.1807 5.28709L42.5233 2H38.5058L37.8484 5.28709C37.264 5.43318 36.6796 5.72536 36.0952 6.01755L33.3195 4.19139L30.4707 7.0402L32.2968 9.81596C32.0047 10.4003 31.7855 10.9117 31.5664 11.5691L28.2793 12.2265V16.244L31.5664 16.9015C31.7125 17.4858 32.0047 18.0702 32.2968 18.6546L30.4707 21.4303L33.3195 24.2791L36.0952 22.453C36.6796 22.7452 37.1909 22.9643 37.8484 23.1834L38.5058 26.4705H42.5233L43.1807 23.1834C43.7651 23.0373 44.3495 22.7452 44.9339 22.453L47.7096 24.2791L50.5584 21.4303L48.7323 18.6546C49.0244 18.0702 49.2436 17.5589 49.4627 16.9015L52.7498 16.244Z" stroke="black" stroke-width="2.83516" stroke-linecap="round" stroke-linejoin="round"/>
<path d="M41.4373 35.4497C41.4373 35.4497 49.4015 29.9544 51.3926 28.9191C53.3836 27.8837 55.7729 28.3616 56.2508 31.3083M49.1626 36.3258C49.1626 36.3258 54.8968 32.4233 58.0825 29.8748C60.2329 28.2023 63.5778 30.9898 64.0557 32.8215M18.7393 48.1128C18.7393 48.1128 21.6064 45.6439 23.1993 45.6439C24.7921 45.6439 37.9331 53.1303 39.6055 53.8471C41.278 54.5639 45.8176 52.6524 49.4015 50.3428C53.0651 48.0332 70.9846 35.2904 70.9846 35.2904C70.9846 35.2904 69.3917 29.6358 64.5336 32.503C58.64 36.0869 50.8351 40.7061 50.8351 40.7061M11.2529 34.0162C11.2529 34.0162 22.5621 28.9191 26.5442 28.9191C30.4467 28.9191 33.0749 33.4587 36.5791 34.4144C40.0834 35.3701 43.3487 35.9276 47.8087 36.0869C52.3483 36.2461 50.5962 41.9804 50.5962 41.9804L39.1277 43.2547L29.7299 41.5822" stroke="black" stroke-width="2.83516" stroke-linecap="round" stroke-linejoin="round"/>
<path d="M10.2178 31.9451L19.3766 49.7849L11.8903 53.9263L2.01465 36.0865L10.2178 31.9451Z" stroke="black" stroke-width="2.83516" stroke-linecap="round" stroke-linejoin="round"/>
</svg>
