<svg width="18" height="19" viewBox="0 0 18 19" fill="none" xmlns="http://www.w3.org/2000/svg">
<g clip-path="url(#clip0_55904_439)">
<path d="M0.38588 9.39222C0.385458 10.9046 0.783607 12.3813 1.54068 13.6828L0.313477 18.13L4.89894 16.9367C6.16722 17.6219 7.58823 17.981 9.03226 17.9811H9.03606C13.8031 17.9811 17.6836 14.1311 17.6856 9.39899C17.6865 7.10594 16.7876 4.94971 15.1544 3.32748C13.5214 1.70538 11.3497 0.811593 9.03571 0.810547C4.26811 0.810547 0.387919 4.66031 0.38595 9.39222" fill="#25D366"/>
<path d="M0.0771684 9.38949C0.0766763 10.9563 0.489095 12.4858 1.27316 13.834L0.00195312 18.4405L4.75183 17.2044C6.06058 17.9126 7.5341 18.286 9.03348 18.2866H9.03735C13.9754 18.2866 17.9953 14.2981 17.9974 9.3966C17.9982 7.02116 17.067 4.78742 15.3754 3.10707C13.6836 1.42693 11.4342 0.500977 9.03735 0.5C4.09844 0.5 0.0791367 4.48791 0.0771684 9.38949ZM2.9059 13.6018L2.72854 13.3223C1.983 12.1458 1.58949 10.7862 1.59005 9.39005C1.5916 5.31598 4.93228 2.0014 9.04016 2.0014C11.0295 2.00223 12.8991 2.77191 14.3052 4.16837C15.7113 5.56498 16.4851 7.42149 16.4846 9.39605C16.4827 13.4701 13.142 16.7851 9.03735 16.7851H9.0344C7.69788 16.7844 6.3871 16.4282 5.24397 15.755L4.97193 15.5949L2.15325 16.3284L2.9059 13.6018Z" fill="url(#paint0_linear_55904_439)"/>
<path d="M6.79777 5.67328C6.63005 5.3033 6.45354 5.29584 6.29404 5.28935C6.16343 5.28377 6.01413 5.28419 5.86496 5.28419C5.71566 5.28419 5.47307 5.33993 5.26802 5.56214C5.06276 5.78456 4.48438 6.32205 4.48438 7.41523C4.48438 8.50842 5.28665 9.56498 5.39849 9.71337C5.51047 9.86149 6.94729 12.1767 9.22287 13.0673C11.1141 13.8075 11.4989 13.6603 11.9094 13.6231C12.3199 13.5862 13.234 13.0858 13.4205 12.5669C13.6071 12.0481 13.6071 11.6034 13.5512 11.5105C13.4952 11.4179 13.3459 11.3623 13.122 11.2513C12.8982 11.1402 11.7974 10.6026 11.5922 10.5284C11.387 10.4543 11.2377 10.4173 11.0884 10.6398C10.9391 10.862 10.5104 11.3623 10.3797 11.5105C10.2492 11.659 10.1185 11.6775 9.89467 11.5664C9.67064 11.4549 8.94963 11.2206 8.09422 10.4637C7.42867 9.87468 6.97934 9.14735 6.84874 8.92486C6.71813 8.70272 6.83475 8.5823 6.94701 8.47158C7.0476 8.37202 7.17097 8.21212 7.28302 8.08242C7.39464 7.95265 7.4319 7.86007 7.50655 7.71188C7.58128 7.56356 7.54388 7.43379 7.488 7.32265C7.4319 7.21151 6.99685 6.11261 6.79777 5.67328Z" fill="white"/>
</g>
<defs>
<linearGradient id="paint0_linear_55904_439" x1="899.774" y1="1794.55" x2="899.774" y2="0.5" gradientUnits="userSpaceOnUse">
<stop stop-color="#F9F9F9"/>
<stop offset="1" stop-color="white"/>
</linearGradient>
<clipPath id="clip0_55904_439">
<rect width="18" height="18" fill="white" transform="translate(0 0.5)"/>
</clipPath>
</defs>
</svg>
