<svg width="60" height="60" viewBox="0 0 60 60" fill="none" xmlns="http://www.w3.org/2000/svg">
<path d="M29.406 54.8276C19.7286 52.8448 10.5605 42.4138 10.5605 33.3621V12.7155L13.7015 12.8448C13.9561 12.8448 14.2532 12.8448 14.5079 12.8448C22.4451 12.8448 27.7931 7.32759 27.8356 7.28448L30.0003 5L32.165 7.32759C32.2074 7.37069 37.5555 12.8879 45.4926 12.8879C53.4298 12.8879 46.002 12.8879 46.2991 12.8879L49.44 12.7586V33.4052C49.44 42.4569 40.2719 52.8879 30.5945 54.8707L30.0003 55L29.406 54.8707V54.8276Z" stroke="#E31F26" stroke-width="2" stroke-linecap="round" stroke-linejoin="round"/>
<path d="M30.0003 27.8017L18.71 22.1121V35.819L30.0003 42.2414V27.8017Z" stroke="#E31F26" stroke-width="2" stroke-linecap="round" stroke-linejoin="round"/>
<path d="M30 27.8017L41.2903 22.1121V35.819L30 42.2414" stroke="#E31F26" stroke-width="2" stroke-linecap="round" stroke-linejoin="round"/>
<path d="M18.71 22.112L30.0003 18.0172L41.2906 22.112" stroke="#E31F26" stroke-width="2" stroke-linecap="round" stroke-linejoin="round"/>
</svg>
