<svg width="60" height="60" viewBox="0 0 60 60" fill="none" xmlns="http://www.w3.org/2000/svg">
<path d="M48.532 32.4565V26.4249L43.5931 25.4634C43.3309 24.5455 42.9813 23.7151 42.5005 22.8847L45.254 18.7325L40.9707 14.4493L36.8186 17.2028C35.9882 16.7657 35.114 16.4161 34.2399 16.1101L33.2784 11.1713H27.2468L26.2853 16.1101C25.3674 16.3724 24.537 16.722 23.7066 17.2028L19.5544 14.4493L15.2712 18.7325L18.0247 22.8847C17.5876 23.7151 17.238 24.5892 16.932 25.4634L11.9932 26.4249V32.4565L16.932 33.418C17.1943 34.3358 17.5439 35.1663 18.0247 35.9967L15.2712 40.1488L19.5544 44.4321L23.7066 41.6786C24.537 42.1156 25.4111 42.4653 26.2853 42.7712L27.2468 47.7101H33.2784L34.2399 42.7712C35.1577 42.509 35.9882 42.1594 36.8186 41.6786L40.9707 44.4321L45.254 40.1488L42.5005 35.9967C42.9375 35.1663 43.2872 34.2921 43.5931 33.418L48.532 32.4565Z" stroke="#E31F26" stroke-width="2" stroke-linecap="round" stroke-linejoin="round"/>
<path d="M55.7869 42.1156L51.2851 43.1209M51.2851 43.1209L49.6242 38.7502M51.2851 43.1209C58.5404 31.3637 54.869 15.979 43.1119 8.72364C34.1957 3.21659 23.1379 4.00331 15.1833 9.86002M4.21289 17.9021L8.71469 16.8968M8.71469 16.8968L10.3755 21.2675M8.71469 16.8968C1.45937 28.6539 5.13073 44.0387 16.8878 51.294C25.8914 56.8448 37.0804 55.9706 45.0787 49.9391" stroke="#E31F26" stroke-width="2" stroke-linecap="round" stroke-linejoin="round"/>
<path d="M30.2622 27.9109L22.832 24.2395V33.112L30.2622 37.2641V27.9109Z" stroke="#E31F26" stroke-width="2" stroke-linecap="round" stroke-linejoin="round"/>
<path d="M30.2627 27.9109L37.6928 24.2395V33.112L30.2627 37.2641" stroke="#E31F26" stroke-width="2" stroke-linecap="round" stroke-linejoin="round"/>
<path d="M22.832 24.2395L30.2622 21.5734L37.6923 24.2395" stroke="#E31F26" stroke-width="2" stroke-linecap="round" stroke-linejoin="round"/>
</svg>
