<svg width="60" height="60" viewBox="0 0 60 60" fill="none" xmlns="http://www.w3.org/2000/svg">
<path d="M9.36098 44.4863H6.07945C5.47496 44.4863 5 44.0114 5 43.4069V20.9974C5 20.3929 5.47496 19.918 6.07945 19.918H11.1745" stroke="#E31F26" stroke-width="2" stroke-linecap="round" stroke-linejoin="round"/>
<path d="M30.9499 19.918H36.0449C36.6494 19.918 37.1244 20.3929 37.1244 20.9974V43.4069C37.1244 44.0114 36.6494 44.4863 36.0449 44.4863H18.5146" stroke="#E31F26" stroke-width="2" stroke-linecap="round" stroke-linejoin="round"/>
<path d="M40.1466 44.4432H36.3037" stroke="#E31F26" stroke-width="2" stroke-linecap="round" stroke-linejoin="round"/>
<path d="M37.0811 23.3724H45.8894C47.8756 23.3724 48.9118 24.1065 49.4732 25.9199C50.0776 27.7766 51.1571 32.9148 51.1571 32.9148L54.9999 35.3328V43.0185C54.9999 43.8389 54.3523 44.4865 53.5319 44.4865H49.3868" stroke="#E31F26" stroke-width="2" stroke-linecap="round" stroke-linejoin="round"/>
<path d="M13.8069 48.9767C16.287 48.9767 18.2974 46.9662 18.2974 44.4861C18.2974 42.0061 16.287 39.9956 13.8069 39.9956C11.3269 39.9956 9.31641 42.0061 9.31641 44.4861C9.31641 46.9662 11.3269 48.9767 13.8069 48.9767Z" stroke="#E31F26" stroke-width="2" stroke-linecap="round" stroke-linejoin="round"/>
<path d="M44.637 48.9767C47.117 48.9767 49.1275 46.9662 49.1275 44.4861C49.1275 42.0061 47.117 39.9956 44.637 39.9956C42.157 39.9956 40.1465 42.0061 40.1465 44.4861C40.1465 46.9662 42.157 48.9767 44.637 48.9767Z" stroke="#E31F26" stroke-width="2" stroke-linecap="round" stroke-linejoin="round"/>
<path d="M55.0003 39.1755H52.4096C51.6756 39.1755 51.1143 38.571 51.1143 37.837V36.7575C51.1143 36.0235 51.7188 35.4622 52.4096 35.4622H55.0003" stroke="#E31F26" stroke-width="2" stroke-linecap="round" stroke-linejoin="round"/>
<path d="M51.1559 32.9148H43.9884C43.2111 32.9148 42.5635 32.2671 42.5635 31.4899V23.3724" stroke="#E31F26" stroke-width="2" stroke-linecap="round" stroke-linejoin="round"/>
<path d="M37.0813 36.6711H5" stroke="#E31F26" stroke-width="2" stroke-linecap="round" stroke-linejoin="round"/>
<path d="M21.0196 30.7989C26.4805 30.7989 30.9074 26.372 30.9074 20.9111C30.9074 15.4502 26.4805 11.0233 21.0196 11.0233C15.5587 11.0233 11.1318 15.4502 11.1318 20.9111C11.1318 26.372 15.5587 30.7989 21.0196 30.7989Z" stroke="#E31F26" stroke-width="2" stroke-linecap="round" stroke-linejoin="round"/>
<path d="M21.0193 21.8611C21.5439 21.8611 21.9692 21.4358 21.9692 20.9112C21.9692 20.3866 21.5439 19.9613 21.0193 19.9613C20.4946 19.9613 20.0693 20.3866 20.0693 20.9112C20.0693 21.4358 20.4946 21.8611 21.0193 21.8611Z" stroke="#E31F26" stroke-width="2" stroke-linecap="round" stroke-linejoin="round"/>
<path d="M21.0195 11.0233V12.7073" stroke="#E31F26" stroke-width="2" stroke-linecap="round" stroke-linejoin="round"/>
<path d="M30.9498 20.9111H29.2227" stroke="#E31F26" stroke-width="2" stroke-linecap="round" stroke-linejoin="round"/>
<path d="M21.0195 30.7988V29.1149" stroke="#E31F26" stroke-width="2" stroke-linecap="round" stroke-linejoin="round"/>
<path d="M11.1318 20.9111H12.859" stroke="#E31F26" stroke-width="2" stroke-linecap="round" stroke-linejoin="round"/>
<path d="M17.1338 14.6936L21.0198 20.9113H26.5034" stroke="#E31F26" stroke-width="2" stroke-linecap="round" stroke-linejoin="round"/>
</svg>
