<svg width="60" height="60" viewBox="0 0 60 60" fill="none" xmlns="http://www.w3.org/2000/svg">
<path d="M30.6854 23.4113C27.5408 23.4113 24.9541 20.8246 24.9541 17.6799C24.9541 14.5353 27.5408 11.9486 30.6854 11.9486C33.83 11.9486 36.4168 14.5353 36.4168 17.6799C36.4168 20.8246 33.83 23.4113 30.6854 23.4113Z" stroke="#E31F26" stroke-width="2" stroke-linecap="round" stroke-linejoin="round"/>
<path d="M43.3656 19.8102V15.6004L39.9167 14.9411C39.7138 14.3324 39.4602 13.7238 39.1559 13.1152L41.0833 10.2241L38.1415 7.28239L35.2505 9.20973C34.6926 8.90542 34.0839 8.65182 33.4246 8.44894L32.7652 5H28.5555L27.8961 8.44894C27.2875 8.65182 26.6789 8.90542 26.0702 9.20973L23.1792 7.28239L20.2375 10.2241L22.1648 13.1152C21.8605 13.6731 21.6069 14.2817 21.404 14.9411L17.9551 15.6004V19.8102L21.404 20.4695C21.6069 21.0781 21.8605 21.6868 22.1648 22.2954L20.2375 25.1864L23.1792 28.1282L26.0702 26.2008C26.6281 26.5052 27.2368 26.7587 27.8961 26.9616L28.5555 30.4106H32.7652L33.4246 26.9616C34.0332 26.7587 34.6419 26.5052 35.2505 26.2008L38.1415 28.1282L41.0833 25.1864L39.1559 22.2954C39.4602 21.7375 39.7138 21.1289 39.9167 20.4695L43.3656 19.8102Z" stroke="#E31F26" stroke-width="2" stroke-linecap="round" stroke-linejoin="round"/>
<path d="M31.4967 38.0693C31.4967 38.0693 38.8003 32.9973 40.6262 32.0336C42.4522 31.07 44.6331 31.5772 45.0896 34.2146M38.5467 38.8301C38.5467 38.8301 43.8216 35.2797 46.7633 32.8959C48.6907 31.3236 51.8353 33.9103 52.2411 35.584M7.86132 51.7636C7.86132 51.7636 13.2883 47.351 14.7085 47.351C16.1286 47.351 28.2506 54.1981 29.7722 54.8575C31.3445 55.5169 35.4528 53.7924 38.7496 51.6622C42.0971 49.5827 58.581 37.8664 58.581 37.8664C58.581 37.8664 57.1101 32.6423 52.6468 35.3304C47.2198 38.5765 40.0683 42.8369 40.0683 42.8369M1.41992 37.765C1.41992 37.765 14.2013 32.0844 17.8531 32.0844C21.4542 32.0844 23.838 36.2434 27.0334 37.1056C30.2287 38.0186 33.2212 38.475 37.3802 38.6272C41.4885 38.7794 39.9162 44.0542 39.9162 44.0542L29.4172 45.2208L20.8456 43.6992" stroke="#E31F26" stroke-width="2" stroke-linecap="round" stroke-linejoin="round"/>
</svg>
