<svg width="62" height="60" viewBox="0 0 62 60" fill="none" xmlns="http://www.w3.org/2000/svg">
<path d="M8.33388 36.4086L18.1655 17.2238L10.8848 12.9723L1 32.2103L8.33388 36.4086Z" stroke="#E31F26" stroke-width="2" stroke-linecap="round" stroke-linejoin="round"/>
<path d="M53.6666 36.4086L43.835 17.2238L51.1688 12.9723L61.0005 32.2103L53.6666 36.4086Z" stroke="#E31F26" stroke-width="2" stroke-linecap="round" stroke-linejoin="round"/>
<path d="M52.0229 33.1666L48.6748 34.6546" stroke="#E31F26" stroke-width="2" stroke-linecap="round" stroke-linejoin="round"/>
<path d="M44.9508 19.3494L40.221 20.1997C40.221 20.1997 32.7276 17.9677 31.9305 18.1803C31.1333 18.3929 25.4469 20.5186 25.0217 21.1032C24.5966 21.6878 21.5674 28.2244 21.5674 28.2244C21.5674 28.2244 25.2343 30.9348 27.3601 27.8524C29.4858 24.7701 30.7082 22.4849 30.7082 22.4849" stroke="#E31F26" stroke-width="2" stroke-linecap="round" stroke-linejoin="round"/>
<path d="M17.3652 19.3501L19.6504 20.3598C19.6504 20.3598 25.018 17.3838 26.0277 17.7026C27.0375 18.0215 29.1101 19.2438 29.1101 19.2438" stroke="#E31F26" stroke-width="2" stroke-linecap="round" stroke-linejoin="round"/>
<path d="M29.4844 24.7175C29.4844 24.7175 46.0122 33.5394 48.882 35.0274C51.7517 36.5154 49.7854 40.9795 46.3842 39.1194C42.9298 37.2594 38.1469 34.868 38.1469 34.868" stroke="#E31F26" stroke-width="2" stroke-linecap="round" stroke-linejoin="round"/>
<path d="M45.1102 38.4808C47.9799 39.9688 46.4388 43.9014 42.9844 42.0414C39.53 40.1814 34.7471 37.7899 34.7471 37.7899" stroke="#E31F26" stroke-width="2" stroke-linecap="round" stroke-linejoin="round"/>
<path d="M41.4945 41.2448C44.3643 42.7328 41.9197 45.762 39.4219 44.4334C35.9675 42.5733 31.1846 40.1819 31.1846 40.1819" stroke="#E31F26" stroke-width="2" stroke-linecap="round" stroke-linejoin="round"/>
<path d="M12.9059 35.3459C10.9395 34.3362 9.66406 33.6985 9.66406 33.6985" stroke="#E31F26" stroke-width="2" stroke-linecap="round" stroke-linejoin="round"/>
<path d="M37.248 43.2644C40.1178 44.7524 37.6732 48.0473 35.1754 46.7187C34.2188 46.1873 31.721 44.9119 28.6387 43.3707" stroke="#E31F26" stroke-width="2" stroke-linecap="round" stroke-linejoin="round"/>
<path d="M19.5466 45.7088L19.2809 45.5494C18.3775 44.9648 18.0586 43.7425 18.6432 42.8391L22.6821 36.3024C23.2667 35.399 24.489 35.0801 25.3925 35.6647L25.6582 35.8241C26.5617 36.4087 26.8805 37.631 26.2959 38.5344L22.257 45.0711C21.6724 45.9745 20.4501 46.2934 19.5466 45.7088Z" stroke="#E31F26" stroke-width="2" stroke-linecap="round" stroke-linejoin="round"/>
<path d="M24.1716 46.3465L23.9059 46.1871C23.0025 45.6025 22.6836 44.3802 23.2682 43.4767L25.9254 39.2253C26.51 38.3218 27.7323 38.003 28.6357 38.5875L28.9015 38.747C29.8049 39.3315 30.1238 40.5538 29.5392 41.4573L26.882 45.7088C26.2974 46.6122 25.0751 46.9311 24.1716 46.3465Z" stroke="#E31F26" stroke-width="2" stroke-linecap="round" stroke-linejoin="round"/>
<path d="M16.5691 42.3082L16.3034 42.1487C15.3999 41.5642 15.0811 40.3419 15.6657 39.4384L18.3229 35.1869C18.9074 34.2835 20.1298 33.9646 21.0332 34.5492L21.2989 34.7086C22.2024 35.2932 22.5212 36.5155 21.9367 37.419L19.2795 41.6704C18.6949 42.627 17.4726 42.8927 16.5691 42.3082Z" stroke="#E31F26" stroke-width="2" stroke-linecap="round" stroke-linejoin="round"/>
<path d="M13.5466 39.0659L13.2809 38.9064C12.3775 38.3219 12.0586 37.0996 12.6432 36.1961L14.2375 33.5921C14.8221 32.6886 16.0444 32.3698 16.9479 32.9544L17.2136 33.1138C18.117 33.6984 18.4359 34.9207 17.8513 35.8241L16.257 38.4281C15.6724 39.3316 14.4501 39.6504 13.5466 39.0659Z" stroke="#E31F26" stroke-width="2" stroke-linecap="round" stroke-linejoin="round"/>
</svg>
