<svg width="120" height="123" viewBox="0 0 120 123" fill="none" xmlns="http://www.w3.org/2000/svg">
<g clip-path="url(#clip0_57047_4932)">
<path d="M114.294 54.2454C114.291 54.2422 114.287 54.2406 114.282 54.2412L113.081 54.3974C111.726 54.5735 110.491 53.6175 110.249 52.2731C109.699 49.2197 108.883 46.2613 107.824 43.4225C107.469 42.4707 107.911 41.3958 108.85 41.0066C109.789 40.6169 110.237 39.5376 109.815 38.6122C108.324 35.3427 106.516 32.2172 104.414 29.2895C103.822 28.4649 102.665 28.3161 101.861 28.9347C101.055 29.5539 99.9024 29.4001 99.2554 28.6166C97.1683 26.0897 94.8412 23.7627 92.3143 21.6756C91.5309 21.0286 91.3771 19.876 91.9963 19.0704C92.6148 18.2656 92.466 17.1091 91.6414 16.5171C88.714 14.4154 85.5887 12.6068 82.3195 11.1163C81.3937 10.6942 80.3139 11.1423 79.9241 12.0821C79.535 13.0203 78.4605 13.4626 77.5089 13.1078C74.4738 11.976 71.3064 11.1175 68.0334 10.5721C67.0273 10.4045 66.3128 9.48159 66.4443 8.47017C66.5756 7.46007 65.8641 6.53134 64.8502 6.43321C61.2877 6.0884 57.654 6.08835 54.0915 6.43304C53.0767 6.53123 52.3645 7.46083 52.4959 8.47188C52.6274 9.48291 51.9142 10.4059 50.9087 10.5744C47.6349 11.123 44.4669 11.9775 41.4313 13.1081C40.4795 13.4626 39.405 13.0203 39.0159 12.0821C38.6261 11.1423 37.5463 10.6942 36.6206 11.1163C33.3517 12.6066 30.2269 14.4149 27.2997 16.5163C26.4745 17.1087 26.3256 18.2661 26.9446 19.0715C27.5636 19.8769 27.4107 21.0289 26.628 21.6763C24.1003 23.7671 21.7725 26.0906 19.6849 28.6168C19.0376 29.4 17.8851 29.5539 17.0794 28.9347C16.2746 28.3161 15.1181 28.4649 14.5261 29.2895C12.4246 32.2167 10.6161 35.3417 9.12571 38.6106C8.70314 39.5375 9.15045 40.6186 10.0905 41.0109C11.0294 41.4027 11.4708 42.4794 11.1151 43.4326C9.98447 46.4622 9.12668 49.6305 8.5816 52.8977C8.41375 53.9038 7.49069 54.6182 6.47921 54.4867C5.46903 54.3553 4.54023 55.0668 4.44219 56.0808C4.26979 57.8638 4.18359 59.6693 4.18359 61.4653C4.18359 63.2618 4.26985 65.0631 4.44236 66.8479C4.54045 67.8627 5.47003 68.5751 6.48113 68.4437C7.49204 68.3122 8.41494 69.0253 8.58341 70.0307C9.13176 73.3032 9.98592 76.4695 11.1159 79.4995C11.4709 80.4513 11.0288 81.5262 10.0905 81.9154C9.15104 82.305 8.70313 83.3844 9.12502 84.3098C10.6154 87.5788 12.4238 90.7039 14.5253 93.6313C15.1177 94.4565 16.2751 94.6054 17.0805 93.9864C17.8859 93.3674 19.038 93.5203 19.6854 94.303C21.7761 96.8307 24.0996 99.1584 26.6258 101.246C27.4091 101.893 27.5629 103.046 26.9437 103.852C26.3252 104.656 26.474 105.813 27.2986 106.405C30.2256 108.506 33.3504 110.315 36.619 111.805C37.5462 112.228 38.6278 111.78 39.0202 110.84C39.412 109.901 40.4882 109.459 41.4413 109.815C44.4745 110.946 47.6399 111.804 50.9108 112.349C51.9194 112.517 52.6359 113.442 52.5043 114.456C52.373 115.469 53.0862 116.4 54.1025 116.498C55.8842 116.67 57.6884 116.756 59.483 116.756C61.2787 116.756 63.0791 116.67 64.863 116.498C65.8794 116.399 66.5929 115.469 66.4616 114.456C66.3301 113.442 67.0463 112.517 68.0547 112.349C71.325 111.804 74.4892 110.946 77.5173 109.815C78.469 109.46 79.5439 109.902 79.933 110.84C80.3227 111.78 81.4021 112.228 82.3275 111.806C85.5965 110.316 88.7216 108.507 91.649 106.406C92.4742 105.813 92.6231 104.656 92.0041 103.85C91.3851 103.045 91.5379 101.893 92.3206 101.246C94.8484 99.1549 97.1761 96.8314 99.2638 94.3051C99.9111 93.5219 101.064 93.3681 101.869 93.9872C102.674 94.6058 103.831 94.457 104.423 93.6324C106.524 90.7049 108.333 87.5797 109.823 84.3104C110.245 83.3847 109.797 82.3049 108.858 81.9151C107.919 81.526 107.477 80.4515 107.832 79.4998C108.964 76.4649 109.822 73.2976 110.367 70.0247C110.535 69.0191 111.459 68.3058 112.469 68.4396C113.479 68.5732 114.408 67.8626 114.506 66.849C114.679 65.0639 114.765 63.2622 114.765 61.4653C114.765 59.0529 114.61 56.6318 114.298 54.2539C114.298 54.2507 114.297 54.2477 114.294 54.2454ZM72.5659 61.4566C72.5659 68.3875 66.708 74.0031 59.4743 74.0031C52.2407 74.0031 46.3828 68.3875 46.3828 61.4566C46.3828 54.5258 52.2407 48.9102 59.4743 48.9102C66.708 48.9102 72.5659 54.5258 72.5659 61.4566Z" fill="white"/>
</g>
<rect x="22.4961" y="23.9968" width="75.0064" height="75.0064" rx="37.5032" fill="#FFDD00"/>
<path d="M80.168 52.4593C80.168 52.4593 80.168 52.3751 80.1256 52.3751C80.1256 52.3751 80.1256 52.333 80.0833 52.2909C75.9746 45.5132 68.5619 40.9667 60.0904 40.9667C51.6188 40.9667 44.1638 45.5132 40.0975 52.2909C40.0975 52.2909 40.0975 52.333 40.0551 52.3751C40.0551 52.3751 40.0551 52.4593 40.0128 52.4593C37.9796 55.8692 36.8359 59.8263 36.8359 64.0782C36.8359 68.33 38.3185 73.508 41.1141 77.4231C41.4106 77.844 41.9612 77.9282 42.3848 77.7177C42.3848 77.7177 42.4272 77.7177 42.4695 77.6756L47.5101 74.1395C47.9337 73.8448 48.0608 73.2133 47.7219 72.7923C47.4254 72.3714 46.79 72.2451 46.3664 72.5819L42.1307 75.5708C39.9281 72.1609 38.742 68.2458 38.742 64.1624C38.742 60.0789 39.6316 57.2163 41.1988 54.2695L45.6887 56.8795C45.8582 56.9637 46.0276 57.0058 46.197 57.0058C46.5359 57.0058 46.8324 56.8374 47.0442 56.5427C47.2983 56.0797 47.1712 55.4903 46.7053 55.2377L42.2577 52.6277C45.8582 46.9866 52.0424 43.2399 59.1162 42.9032V48.0811C59.1162 48.6284 59.5397 49.0494 60.0904 49.0494C60.641 49.0494 61.0646 48.6284 61.0646 48.0811V42.9032C68.1384 43.2399 74.2803 46.9445 77.923 52.5014L73.4755 55.1114C73.0095 55.364 72.8401 55.9534 73.1366 56.4164C73.306 56.7111 73.6449 56.8795 73.9837 56.8795C74.3226 56.8795 74.3226 56.8374 74.492 56.7532L78.982 54.1432C80.5492 57.09 81.4387 60.4578 81.4387 64.0361C81.4387 67.6144 80.2951 72.0346 78.0501 75.4445L73.8143 72.4556C73.3907 72.1609 72.7554 72.2451 72.4589 72.6661C72.1624 73.087 72.2471 73.7185 72.6707 74.0132L77.7112 77.5494C77.7112 77.5494 77.7536 77.5494 77.7959 77.5915C77.9654 77.6757 78.0925 77.7177 78.2619 77.7177C78.5584 77.7177 78.8549 77.5915 79.0667 77.2968C81.8623 73.3817 83.3448 68.751 83.3448 63.9519C83.3448 59.1528 82.2012 55.7429 80.168 52.333V52.4593Z" fill="#181818"/>
<path d="M68.3494 77.2969H52.3805C51.8298 77.2969 51.4062 77.7178 51.4062 78.2651C51.4062 78.8124 51.8298 79.2334 52.3805 79.2334H68.3494C68.9 79.2334 69.3236 78.8124 69.3236 78.2651C69.3236 77.7178 68.9 77.2969 68.3494 77.2969Z" fill="#181818"/>
<path d="M63.4781 65.4675L73.3898 65.0044C73.8981 65.0044 74.2793 64.5834 74.2793 64.0782C74.2793 63.5731 73.8981 63.1942 73.3898 63.1521L63.3933 62.4785C62.8003 61.2577 61.5296 60.4158 60.0894 60.4158C58.6493 60.4158 56.4043 62.0576 56.4043 64.0782C56.4043 66.0989 58.0563 67.7407 60.0894 67.7407C62.1226 67.7407 62.9274 66.8146 63.4781 65.5096V65.4675Z" fill="#181818"/>
<defs>
<clipPath id="clip0_57047_4932">
<rect width="110.581" height="110.581" fill="white" transform="translate(4.18359 6.17456)"/>
</clipPath>
</defs>
</svg>
