<svg width="120" height="123" viewBox="0 0 120 123" fill="none" xmlns="http://www.w3.org/2000/svg">
<g clip-path="url(#clip0_57047_4906)">
<path d="M114.294 54.2454C114.291 54.2422 114.287 54.2406 114.282 54.2412L113.081 54.3974C111.726 54.5735 110.491 53.6175 110.249 52.2731C109.699 49.2197 108.883 46.2613 107.824 43.4225C107.469 42.4707 107.911 41.3958 108.85 41.0066C109.789 40.6169 110.237 39.5376 109.815 38.6122C108.324 35.3427 106.516 32.2172 104.414 29.2895C103.822 28.4649 102.665 28.3161 101.861 28.9347C101.055 29.5539 99.9024 29.4001 99.2554 28.6166C97.1683 26.0897 94.8412 23.7627 92.3143 21.6756C91.5309 21.0286 91.3771 19.876 91.9963 19.0704C92.6148 18.2656 92.466 17.1091 91.6414 16.5171C88.714 14.4154 85.5887 12.6068 82.3195 11.1163C81.3937 10.6942 80.3139 11.1423 79.9241 12.0821C79.535 13.0203 78.4605 13.4626 77.5089 13.1078C74.4738 11.976 71.3064 11.1175 68.0334 10.5721C67.0273 10.4045 66.3128 9.48159 66.4443 8.47017C66.5756 7.46007 65.8641 6.53134 64.8502 6.43321C61.2877 6.0884 57.654 6.08835 54.0915 6.43304C53.0767 6.53123 52.3645 7.46083 52.4959 8.47188C52.6274 9.48291 51.9142 10.4059 50.9087 10.5744C47.6349 11.123 44.4669 11.9775 41.4313 13.1081C40.4795 13.4626 39.405 13.0203 39.0159 12.0821C38.6261 11.1423 37.5463 10.6942 36.6206 11.1163C33.3517 12.6066 30.2269 14.4149 27.2997 16.5163C26.4745 17.1087 26.3256 18.2661 26.9446 19.0715C27.5636 19.8769 27.4107 21.0289 26.628 21.6763C24.1003 23.7671 21.7725 26.0906 19.6849 28.6168C19.0376 29.4 17.8851 29.5539 17.0794 28.9347C16.2746 28.3161 15.1181 28.4649 14.5261 29.2895C12.4246 32.2167 10.6161 35.3417 9.12571 38.6106C8.70314 39.5375 9.15045 40.6186 10.0905 41.0109C11.0294 41.4027 11.4708 42.4794 11.1151 43.4326C9.98447 46.4622 9.12668 49.6305 8.5816 52.8977C8.41375 53.9038 7.49069 54.6182 6.47921 54.4867C5.46903 54.3553 4.54023 55.0668 4.44219 56.0808C4.26979 57.8638 4.18359 59.6693 4.18359 61.4653C4.18359 63.2618 4.26985 65.0631 4.44236 66.8479C4.54045 67.8627 5.47003 68.5751 6.48113 68.4437C7.49204 68.3122 8.41494 69.0253 8.58341 70.0307C9.13176 73.3032 9.98592 76.4695 11.1159 79.4995C11.4709 80.4513 11.0288 81.5262 10.0905 81.9154C9.15104 82.305 8.70313 83.3844 9.12502 84.3098C10.6154 87.5788 12.4238 90.7039 14.5253 93.6313C15.1177 94.4565 16.2751 94.6054 17.0805 93.9864C17.8859 93.3674 19.038 93.5203 19.6854 94.303C21.7761 96.8307 24.0996 99.1584 26.6258 101.246C27.4091 101.893 27.5629 103.046 26.9437 103.852C26.3252 104.656 26.474 105.813 27.2986 106.405C30.2256 108.506 33.3504 110.315 36.619 111.805C37.5462 112.228 38.6278 111.78 39.0202 110.84C39.412 109.901 40.4882 109.459 41.4413 109.815C44.4745 110.946 47.6399 111.804 50.9108 112.349C51.9194 112.517 52.6359 113.442 52.5043 114.456C52.373 115.469 53.0862 116.4 54.1025 116.498C55.8842 116.67 57.6884 116.756 59.483 116.756C61.2787 116.756 63.0791 116.67 64.863 116.498C65.8794 116.399 66.5929 115.469 66.4616 114.456C66.3301 113.442 67.0463 112.517 68.0547 112.349C71.325 111.804 74.4892 110.946 77.5173 109.815C78.469 109.46 79.5439 109.902 79.933 110.84C80.3227 111.78 81.4021 112.228 82.3275 111.806C85.5965 110.316 88.7216 108.507 91.649 106.406C92.4742 105.813 92.6231 104.656 92.0041 103.85C91.3851 103.045 91.5379 101.893 92.3206 101.246C94.8484 99.1549 97.1761 96.8314 99.2638 94.3051C99.9111 93.5219 101.064 93.3681 101.869 93.9872C102.674 94.6058 103.831 94.457 104.423 93.6324C106.524 90.7049 108.333 87.5797 109.823 84.3104C110.245 83.3847 109.797 82.3049 108.858 81.9151C107.919 81.526 107.477 80.4515 107.832 79.4998C108.964 76.4649 109.822 73.2976 110.367 70.0247C110.535 69.0191 111.459 68.3058 112.469 68.4396C113.479 68.5732 114.408 67.8626 114.506 66.849C114.679 65.0639 114.765 63.2622 114.765 61.4653C114.765 59.0529 114.61 56.6318 114.298 54.2539C114.298 54.2507 114.297 54.2477 114.294 54.2454ZM72.5659 61.4566C72.5659 68.3875 66.708 74.0031 59.4743 74.0031C52.2407 74.0031 46.3828 68.3875 46.3828 61.4566C46.3828 54.5258 52.2407 48.9102 59.4743 48.9102C66.708 48.9102 72.5659 54.5258 72.5659 61.4566Z" fill="white"/>
</g>
<rect x="22.4961" y="23.9968" width="75.0064" height="75.0064" rx="37.5032" fill="#FFDD00"/>
<g clip-path="url(#clip1_57047_4906)">
<path d="M48.3224 82.4999C40.9691 82.4999 37 75.0361 37 71.1987V63.6927C37 58.8855 41.1362 52.1807 47.8629 52.1807H54.3388C55.8429 52.1807 56.762 52.8554 57.2634 53.4036C57.8901 54.0783 58.2243 55.006 58.2243 55.9758C58.2243 56.9457 58.1408 57.0301 57.9319 57.4939H62.0681C61.901 57.0301 61.7757 56.524 61.7757 55.9758C61.7757 55.006 62.1099 54.0783 62.7366 53.4036C63.238 52.8554 64.1571 52.1807 65.6612 52.1807H72.1371C78.8638 52.1807 83 58.8855 83 63.6927V71.1987C83 75.0361 78.9891 82.4999 71.6776 82.4999H48.3224ZM71.6776 80.5602C78.1953 80.5602 81.1199 73.771 81.1199 71.1987V63.6927C81.1199 59.771 77.6521 54.1204 72.1789 54.1204H65.703C65.0345 54.1204 64.5332 54.3313 64.1989 54.7108C63.9064 55.0481 63.7393 55.512 63.7393 56.018C63.7393 56.524 63.99 57.5361 64.9092 57.5361H71.1344C71.6776 57.5361 72.0954 57.9578 72.0954 58.506V63.018C72.0954 64.3674 73.5995 66.8975 74.5186 68.1626C74.8529 68.5843 74.7693 69.2168 74.3097 69.512C74.1426 69.6385 73.9337 69.7228 73.7248 69.7228C73.4323 69.7228 73.1399 69.5963 72.9728 69.3433C72.6803 68.9638 70.1317 65.4638 70.1317 63.0602V59.518H65.7866C66.079 60.0662 66.2044 60.6987 66.2044 61.3734C66.2044 62.4698 65.703 63.524 64.8674 64.2831C65.703 64.9999 66.2044 66.0542 66.2044 67.1927C66.2044 68.3313 65.703 69.3433 64.8674 70.1023C65.703 70.8192 66.2044 71.8734 66.2044 73.012C66.2044 75.0361 64.5749 76.7228 62.5277 76.8493C62.8619 77.4397 63.0708 78.1144 63.0708 78.7891C63.0708 79.4638 62.9037 80.1385 62.5277 80.7289H71.6358L71.6776 80.5602ZM47.8629 54.1204C42.3896 54.1204 38.9219 59.8132 38.9219 63.6927V71.1987C38.9219 73.771 41.8047 80.5602 48.3642 80.5602H59.1435C60.2716 80.5602 61.1907 79.7168 61.1907 78.6204C61.1907 77.524 60.2716 76.6807 59.1435 76.6807H53.6285C53.0854 76.6807 52.6676 76.259 52.6676 75.7108C52.6676 75.1626 53.0854 74.7409 53.6285 74.7409H62.3188C63.4469 74.7409 64.366 73.8975 64.366 72.8011C64.366 71.7048 63.4469 70.8614 62.3188 70.8614H53.6285C53.0854 70.8614 52.6676 70.4397 52.6676 69.8915C52.6676 69.3433 53.0854 68.9216 53.6285 68.9216H62.3188C63.4469 68.9216 64.366 68.0783 64.366 66.9819C64.366 65.8855 63.4469 65.0421 62.3188 65.0421H53.6285C53.0854 65.0421 52.6676 64.6204 52.6676 64.0722C52.6676 63.524 53.0854 63.1023 53.6285 63.1023H62.3188C63.4469 63.1023 64.366 62.259 64.366 61.1626C64.366 59.6445 63.2797 59.3493 62.3606 59.3072H61.1907H55.2162H55.1744H48.6985C48.1553 59.3072 47.7375 58.8855 47.7375 58.3373C47.7375 57.7891 48.1553 57.3674 48.6985 57.3674H55.2162C56.0936 57.3674 56.3442 56.3975 56.3442 55.8493C56.3442 55.3011 56.1771 54.8795 55.8847 54.5421C55.5504 54.1626 55.049 53.9517 54.3806 53.9517H47.9046L47.8629 54.1204Z" fill="#181818"/>
<path d="M59.7695 47.6265C59.2264 47.6265 58.8086 47.2048 58.8086 46.6566V41.4699C58.8086 40.9217 59.2264 40.5 59.7695 40.5C60.3127 40.5 60.7305 40.9217 60.7305 41.4699V46.6566C60.7305 47.2048 60.3127 47.6265 59.7695 47.6265Z" fill="#181818"/>
<path d="M51.8322 48.6806C51.5816 48.6806 51.3309 48.5962 51.1638 48.4276L47.7378 45.0962C47.5707 44.9276 47.4453 44.6746 47.4453 44.4215C47.4453 44.1685 47.5289 43.9155 47.696 43.7468C47.8631 43.536 48.1138 43.4517 48.4063 43.4517C48.6987 43.4517 48.9076 43.536 49.0747 43.7047L52.5007 47.036C52.8767 47.4155 52.8767 48.0059 52.5007 48.3854C52.3336 48.5962 52.0829 48.6806 51.7905 48.6806H51.8322Z" fill="#181818"/>
<path d="M67.7503 48.6806C67.4996 48.6806 67.2489 48.5541 67.04 48.3854C66.664 48.0059 66.7058 47.3733 67.04 47.036L70.466 43.7047C70.6331 43.536 70.8838 43.4517 71.1345 43.4517C71.3852 43.4517 71.6358 43.5782 71.8447 43.7468C72.0119 43.9155 72.1372 44.1685 72.0954 44.4215C72.0954 44.6746 71.9701 44.9276 71.803 45.0962L68.377 48.4276C68.2099 48.5962 67.9592 48.6806 67.7085 48.6806H67.7503Z" fill="#181818"/>
</g>
<defs>
<clipPath id="clip0_57047_4906">
<rect width="110.581" height="110.581" fill="white" transform="translate(4.18359 6.17456)"/>
</clipPath>
<clipPath id="clip1_57047_4906">
<rect width="46" height="42" fill="white" transform="translate(37 40.5)"/>
</clipPath>
</defs>
</svg>
