<svg width="120" height="123" viewBox="0 0 120 123" fill="none" xmlns="http://www.w3.org/2000/svg">
<g clip-path="url(#clip0_57047_4827)">
<path d="M114.294 54.2454C114.291 54.2422 114.287 54.2406 114.282 54.2412L113.081 54.3974C111.726 54.5735 110.491 53.6175 110.249 52.2731C109.699 49.2197 108.883 46.2613 107.824 43.4225C107.469 42.4707 107.911 41.3958 108.85 41.0066C109.789 40.6169 110.237 39.5376 109.815 38.6122C108.324 35.3427 106.516 32.2172 104.414 29.2895C103.822 28.4649 102.665 28.3161 101.861 28.9347C101.055 29.5539 99.9024 29.4001 99.2554 28.6166C97.1683 26.0897 94.8412 23.7627 92.3143 21.6756C91.5309 21.0286 91.3771 19.876 91.9963 19.0704C92.6148 18.2656 92.466 17.1091 91.6414 16.5171C88.714 14.4154 85.5887 12.6068 82.3195 11.1163C81.3937 10.6942 80.3139 11.1423 79.9241 12.0821C79.535 13.0203 78.4605 13.4626 77.5089 13.1078C74.4738 11.976 71.3064 11.1175 68.0334 10.5721C67.0273 10.4045 66.3128 9.48159 66.4443 8.47017C66.5756 7.46007 65.8641 6.53134 64.8502 6.43321C61.2877 6.0884 57.654 6.08835 54.0915 6.43304C53.0767 6.53123 52.3645 7.46083 52.4959 8.47188C52.6274 9.48291 51.9142 10.4059 50.9087 10.5744C47.6349 11.123 44.4669 11.9775 41.4313 13.1081C40.4795 13.4626 39.405 13.0203 39.0159 12.0821C38.6261 11.1423 37.5463 10.6942 36.6206 11.1163C33.3517 12.6066 30.2269 14.4149 27.2997 16.5163C26.4745 17.1087 26.3256 18.2661 26.9446 19.0715C27.5636 19.8769 27.4107 21.0289 26.628 21.6763C24.1003 23.7671 21.7725 26.0906 19.6849 28.6168C19.0376 29.4 17.8851 29.5539 17.0794 28.9347C16.2746 28.3161 15.1181 28.4649 14.5261 29.2895C12.4246 32.2167 10.6161 35.3417 9.12571 38.6106C8.70314 39.5375 9.15045 40.6186 10.0905 41.0109C11.0294 41.4027 11.4708 42.4794 11.1151 43.4326C9.98447 46.4622 9.12668 49.6305 8.5816 52.8977C8.41375 53.9038 7.49069 54.6182 6.47921 54.4867C5.46903 54.3553 4.54023 55.0668 4.44219 56.0808C4.26979 57.8638 4.18359 59.6693 4.18359 61.4653C4.18359 63.2618 4.26985 65.0631 4.44236 66.8479C4.54045 67.8627 5.47003 68.5751 6.48113 68.4437C7.49204 68.3122 8.41494 69.0253 8.58341 70.0307C9.13176 73.3032 9.98592 76.4695 11.1159 79.4995C11.4709 80.4513 11.0288 81.5262 10.0905 81.9154C9.15104 82.305 8.70313 83.3844 9.12502 84.3098C10.6154 87.5788 12.4238 90.7039 14.5253 93.6313C15.1177 94.4565 16.2751 94.6054 17.0805 93.9864C17.8859 93.3674 19.038 93.5203 19.6854 94.303C21.7761 96.8307 24.0996 99.1584 26.6258 101.246C27.4091 101.893 27.5629 103.046 26.9437 103.852C26.3252 104.656 26.474 105.813 27.2986 106.405C30.2256 108.506 33.3504 110.315 36.619 111.805C37.5462 112.228 38.6278 111.78 39.0202 110.84C39.412 109.901 40.4882 109.459 41.4413 109.815C44.4745 110.946 47.6399 111.804 50.9108 112.349C51.9194 112.517 52.6359 113.442 52.5043 114.456C52.373 115.469 53.0862 116.4 54.1025 116.498C55.8842 116.67 57.6884 116.756 59.483 116.756C61.2787 116.756 63.0791 116.67 64.863 116.498C65.8794 116.399 66.5929 115.469 66.4616 114.456C66.3301 113.442 67.0463 112.517 68.0547 112.349C71.325 111.804 74.4892 110.946 77.5173 109.815C78.469 109.46 79.5439 109.902 79.933 110.84C80.3227 111.78 81.4021 112.228 82.3275 111.806C85.5965 110.316 88.7216 108.507 91.649 106.406C92.4742 105.813 92.6231 104.656 92.0041 103.85C91.3851 103.045 91.5379 101.893 92.3206 101.246C94.8484 99.1549 97.1761 96.8314 99.2638 94.3051C99.9111 93.5219 101.064 93.3681 101.869 93.9872C102.674 94.6058 103.831 94.457 104.423 93.6324C106.524 90.7049 108.333 87.5797 109.823 84.3104C110.245 83.3847 109.797 82.3049 108.858 81.9151C107.919 81.526 107.477 80.4515 107.832 79.4998C108.964 76.4649 109.822 73.2976 110.367 70.0247C110.535 69.0191 111.459 68.3058 112.469 68.4396C113.479 68.5732 114.408 67.8626 114.506 66.849C114.679 65.0639 114.765 63.2622 114.765 61.4653C114.765 59.0529 114.61 56.6318 114.298 54.2539C114.298 54.2507 114.297 54.2477 114.294 54.2454ZM72.5659 61.4566C72.5659 68.3875 66.708 74.0031 59.4743 74.0031C52.2407 74.0031 46.3828 68.3875 46.3828 61.4566C46.3828 54.5258 52.2407 48.9102 59.4743 48.9102C66.708 48.9102 72.5659 54.5258 72.5659 61.4566Z" fill="white"/>
</g>
<rect x="22.4961" y="23.9968" width="75.0064" height="75.0064" rx="37.5032" fill="#FFDD00"/>
<g clip-path="url(#clip1_57047_4827)">
<path d="M86.4986 62.721C86.4129 62.5497 86.1987 62.4211 85.9845 62.4211C85.6846 62.4211 82.7712 62.1641 78.7868 62.1212C78.8725 61.3929 78.9153 60.6217 78.9153 59.8934C78.9582 48.6685 69.7897 39.5 58.5648 39.5C47.3399 39.5 58.522 39.5 58.4791 39.5C58.4363 39.5 58.3934 39.5 58.3506 39.5C47.6398 39.6285 38.8998 47.983 38.1714 58.4796C38.0857 58.9508 38.0001 59.4221 38.0001 59.8934C38.0001 60.3647 38.0429 60.8359 38.1714 61.2644C38.3 63.3208 38.7284 65.2916 39.4567 67.1767C36.1578 67.3053 33.9728 67.4766 33.9299 67.4766C33.7157 67.4766 33.5444 67.6052 33.4158 67.8194C33.3301 67.9908 33.3301 68.2478 33.4158 68.4192C33.63 68.8476 38.8141 78.8729 44.5979 81.872C46.6115 82.9002 48.5395 83.4572 50.2961 83.4572C52.0526 83.4572 52.2668 83.2858 53.1237 82.943C54.6661 82.3004 55.8228 81.1436 56.4655 79.6013C57.3652 80.4153 60.6213 82.9859 65.2912 82.9859C69.9611 82.9859 70.261 82.3432 73.1315 80.5438C80.929 75.6597 86.3272 63.7921 86.5414 63.278C86.6271 63.1066 86.6271 62.8496 86.5414 62.6782L86.4986 62.721ZM55.3516 71.3325C54.2805 70.1758 52.3954 68.5477 49.5677 67.6908C49.5677 67.6908 49.5677 67.6908 49.5677 67.648C49.0536 65.4202 48.7965 63.0209 48.7537 60.5789H57.9222V66.1485C57.9222 66.2342 57.9222 66.277 57.9222 66.3627C56.3798 67.7765 55.6515 69.576 55.3087 71.3325H55.3516ZM45.8832 67.1339C45.8404 67.1339 45.7975 67.1339 45.7118 67.1339C42.1987 65.5487 40.0137 63.4065 39.4139 61.093C39.4139 60.9216 39.4139 60.7502 39.4139 60.536H47.4256C47.4256 62.8924 47.7255 65.1631 48.1539 67.3481C47.4256 67.2196 46.6544 67.1339 45.8404 67.1339H45.8832ZM69.4041 59.2936C69.3613 56.5945 69.0614 54.0239 68.5044 51.7103C73.6028 53.3384 77.0731 56.1232 77.5015 59.2936H69.4041ZM68.1188 59.2936H59.1646V50.2537C61.9923 50.2965 64.6914 50.6821 67.0478 51.2819C67.6904 53.6811 68.0332 56.4231 68.076 59.2936H68.1188ZM59.2075 48.9255V40.8281C62.3779 41.2994 65.1198 44.7697 66.705 49.8252C64.3915 49.3111 61.9066 48.9684 59.2075 48.9255ZM57.9222 40.8281V48.9684C55.1802 48.9684 52.5668 49.3111 50.2104 49.8681C51.8384 44.7269 54.6661 41.2137 57.9222 40.871V40.8281ZM57.9222 50.2108V59.2507H48.7537C48.7965 56.3802 49.1821 53.6811 49.7819 51.239C52.224 50.5964 54.966 50.2537 57.9222 50.2108ZM47.4684 59.2936H39.4139C39.4139 59.1222 39.4139 58.908 39.4139 58.7366C40.1422 55.7804 43.5268 53.2098 48.3253 51.7103C47.7683 54.0239 47.4684 56.5945 47.4256 59.2936H47.4684ZM59.2075 60.5789H68.1617C68.1617 61.3072 68.1188 62.0784 68.076 62.8067C65.4197 63.1923 62.892 63.7493 60.8355 64.6061C60.2357 64.8632 59.7216 65.1203 59.2503 65.4202V60.5789H59.2075ZM69.4041 60.5789H77.5015C77.4158 61.1358 77.2445 61.65 76.9874 62.1641C74.5453 62.1641 71.8891 62.3354 69.2756 62.6353C69.3185 61.9499 69.3613 61.2644 69.3613 60.5789H69.4041ZM77.1588 55.4377C75.3594 53.167 72.1461 51.3247 68.1617 50.2108C67.0478 46.2692 65.2484 43.1845 63.0633 41.3423C70.004 43.0131 75.4879 48.4971 77.1588 55.4805V55.4377ZM53.7235 41.3851C51.5814 43.2274 49.8248 46.3121 48.7109 50.2108C44.9407 51.2819 41.8988 52.9956 40.0137 55.0949C41.7703 48.4114 47.04 43.1417 53.7235 41.4279V41.3851ZM40.0137 64.6918C40.7849 65.5915 41.8131 66.4056 43.0127 67.1339C42.2415 67.1339 41.556 67.1339 40.8705 67.1339C40.5278 66.3199 40.2707 65.463 40.0137 64.649V64.6918ZM52.6524 81.7863C50.6388 82.6003 47.9825 82.2575 45.1977 80.8009C40.742 78.4873 36.4577 71.2468 35.0439 68.7619C36.8433 68.6334 40.9991 68.4192 45.8832 68.462C51.5385 68.5049 54.6661 72.4893 55.1802 73.1748C55.1373 75.2741 55.5658 77.202 55.9085 78.3588C55.7372 78.4017 55.5658 78.5302 55.4801 78.7016L46.5687 74.5029L54.4947 80.5438C54.0234 81.1008 53.4236 81.5292 52.6953 81.8291L52.6524 81.7863ZM72.446 79.5156C65.4626 83.8856 59.9786 80.758 57.965 79.2157L71.1179 70.647L56.9796 77.3734C56.6797 76.2595 56.3798 74.7171 56.4655 73.0891C56.4655 73.0034 56.4655 72.9177 56.4655 72.832C56.594 70.1329 57.7079 67.2624 61.3068 65.8057C68.3331 62.8924 81.4003 63.4494 84.9991 63.7064C83.6281 66.5341 78.7868 75.6168 72.446 79.5584V79.5156Z" fill="#231F20"/>
</g>
<defs>
<clipPath id="clip0_57047_4827">
<rect width="110.581" height="110.581" fill="white" transform="translate(4.18359 6.17456)"/>
</clipPath>
<clipPath id="clip1_57047_4827">
<rect width="53.2541" height="44" fill="white" transform="translate(33.373 39.5)"/>
</clipPath>
</defs>
</svg>
