<svg width="120" height="123" viewBox="0 0 120 123" fill="none" xmlns="http://www.w3.org/2000/svg">
<g clip-path="url(#clip0_57047_3442)">
<path d="M114.294 54.2454C114.291 54.2422 114.287 54.2406 114.282 54.2412L113.081 54.3974C111.726 54.5735 110.491 53.6175 110.249 52.2731C109.699 49.2197 108.883 46.2613 107.824 43.4225C107.469 42.4707 107.911 41.3958 108.85 41.0066C109.789 40.6169 110.237 39.5376 109.815 38.6122C108.324 35.3427 106.516 32.2172 104.414 29.2895C103.822 28.4649 102.665 28.3161 101.861 28.9347C101.055 29.5539 99.9024 29.4001 99.2554 28.6166C97.1683 26.0897 94.8412 23.7627 92.3143 21.6756C91.5309 21.0286 91.3771 19.876 91.9963 19.0704C92.6148 18.2656 92.466 17.1091 91.6414 16.5171C88.714 14.4154 85.5887 12.6068 82.3195 11.1163C81.3937 10.6942 80.3139 11.1423 79.9241 12.0821C79.535 13.0203 78.4605 13.4626 77.5089 13.1078C74.4738 11.976 71.3064 11.1175 68.0334 10.5721C67.0273 10.4045 66.3128 9.48159 66.4443 8.47017C66.5756 7.46007 65.8641 6.53134 64.8502 6.43321C61.2877 6.0884 57.654 6.08835 54.0915 6.43304C53.0767 6.53123 52.3645 7.46083 52.4959 8.47188C52.6274 9.48291 51.9142 10.4059 50.9087 10.5744C47.6349 11.123 44.4669 11.9775 41.4313 13.1081C40.4795 13.4626 39.405 13.0203 39.0159 12.0821C38.6261 11.1423 37.5463 10.6942 36.6206 11.1163C33.3517 12.6066 30.2269 14.4149 27.2997 16.5163C26.4745 17.1087 26.3256 18.2661 26.9446 19.0715C27.5636 19.8769 27.4107 21.0289 26.628 21.6763C24.1003 23.7671 21.7725 26.0906 19.6849 28.6168C19.0376 29.4 17.8851 29.5539 17.0794 28.9347C16.2746 28.3161 15.1181 28.4649 14.5261 29.2895C12.4246 32.2167 10.6161 35.3417 9.12571 38.6106C8.70314 39.5375 9.15045 40.6186 10.0905 41.0109C11.0294 41.4027 11.4708 42.4794 11.1151 43.4326C9.98447 46.4622 9.12668 49.6305 8.5816 52.8977C8.41375 53.9038 7.49069 54.6182 6.47921 54.4867C5.46903 54.3553 4.54023 55.0668 4.44219 56.0808C4.26979 57.8638 4.18359 59.6693 4.18359 61.4653C4.18359 63.2618 4.26985 65.0631 4.44236 66.8479C4.54045 67.8627 5.47003 68.5751 6.48113 68.4437C7.49204 68.3122 8.41494 69.0253 8.58341 70.0307C9.13176 73.3032 9.98592 76.4695 11.1159 79.4995C11.4709 80.4513 11.0288 81.5262 10.0905 81.9154C9.15104 82.305 8.70313 83.3844 9.12502 84.3098C10.6154 87.5788 12.4238 90.7039 14.5253 93.6313C15.1177 94.4565 16.2751 94.6054 17.0805 93.9864C17.8859 93.3674 19.038 93.5203 19.6854 94.303C21.7761 96.8307 24.0996 99.1584 26.6258 101.246C27.4091 101.893 27.5629 103.046 26.9437 103.852C26.3252 104.656 26.474 105.813 27.2986 106.405C30.2256 108.506 33.3504 110.315 36.619 111.805C37.5462 112.228 38.6278 111.78 39.0202 110.84C39.412 109.901 40.4882 109.459 41.4413 109.815C44.4745 110.946 47.6399 111.804 50.9108 112.349C51.9194 112.517 52.6359 113.442 52.5043 114.456C52.373 115.469 53.0862 116.4 54.1025 116.498C55.8842 116.67 57.6884 116.756 59.483 116.756C61.2787 116.756 63.0791 116.67 64.863 116.498C65.8794 116.399 66.5929 115.469 66.4616 114.456C66.3301 113.442 67.0463 112.517 68.0547 112.349C71.325 111.804 74.4892 110.946 77.5173 109.815C78.469 109.46 79.5439 109.902 79.933 110.84C80.3227 111.78 81.4021 112.228 82.3275 111.806C85.5965 110.316 88.7216 108.507 91.649 106.406C92.4742 105.813 92.6231 104.656 92.0041 103.85C91.3851 103.045 91.5379 101.893 92.3206 101.246C94.8484 99.1549 97.1761 96.8314 99.2638 94.3051C99.9111 93.5219 101.064 93.3681 101.869 93.9872C102.674 94.6058 103.831 94.457 104.423 93.6324C106.524 90.7049 108.333 87.5797 109.823 84.3104C110.245 83.3847 109.797 82.3049 108.858 81.9151C107.919 81.526 107.477 80.4515 107.832 79.4998C108.964 76.4649 109.822 73.2976 110.367 70.0247C110.535 69.0191 111.459 68.3058 112.469 68.4396C113.479 68.5732 114.408 67.8626 114.506 66.849C114.679 65.0639 114.765 63.2622 114.765 61.4653C114.765 59.0529 114.61 56.6318 114.298 54.2539C114.298 54.2507 114.297 54.2477 114.294 54.2454ZM72.5659 61.4566C72.5659 68.3875 66.708 74.0031 59.4743 74.0031C52.2407 74.0031 46.3828 68.3875 46.3828 61.4566C46.3828 54.5258 52.2407 48.9102 59.4743 48.9102C66.708 48.9102 72.5659 54.5258 72.5659 61.4566Z" fill="white"/>
</g>
<rect x="22.4961" y="23.9968" width="75.0064" height="75.0064" rx="37.5032" fill="#FFDD00"/>
<g clip-path="url(#clip1_57047_3442)">
<path d="M62.7935 43.0211C62.7935 43.0211 57.6836 45.7543 57.6836 54.6274C57.6836 63.5004 60.2188 61.6387 60.2188 69.9968C60.2188 78.3549 58.7135 79.3452 58.7135 79.3452C58.7135 79.3452 63.6254 77.0477 63.6254 69.2838C63.6254 61.5198 57.7232 52.6864 62.7539 42.9814L62.7935 43.0211Z" fill="#231F20"/>
<path d="M55.3462 53.3597C55.3462 53.3597 52.4149 55.2611 52.9298 60.6087C53.2863 64.5303 54.8312 64.6888 55.3066 69.6799C55.7819 74.671 54.9104 75.384 54.9104 75.384C54.9104 75.384 57.7229 73.7203 57.2871 69.0857C56.8514 64.4511 52.8506 59.46 55.3462 53.3597Z" fill="#231F20"/>
<path d="M50.7899 57.1625C50.7899 57.1625 48.8489 58.4697 49.1658 62.0347C49.4035 64.6887 50.473 64.768 50.7503 68.135C51.0276 71.502 50.5126 71.9774 50.5126 71.9774C50.5126 71.9774 52.414 70.8682 52.1367 67.7389C51.8594 64.6095 49.1658 61.2821 50.8295 57.1625H50.7899Z" fill="#231F20"/>
<path d="M67.0708 49.3986C67.0708 49.3986 64.1395 51.2999 64.6544 56.6475C65.0109 60.5691 66.5558 60.7276 67.0312 65.7187C67.3084 68.9273 66.635 71.4228 66.635 71.4228C66.635 71.4228 69.4475 69.7591 69.0118 65.1245C68.4572 58.945 64.5752 55.4988 67.0708 49.3986Z" fill="#231F20"/>
<path d="M59.9802 37C46.4725 37 35.5 47.9725 35.5 61.4802C35.5 74.9879 46.4725 85.9604 59.9802 85.9604C73.4879 85.9604 84.4604 74.9879 84.4604 61.4802C84.4604 47.9725 73.4879 37 59.9802 37ZM59.9802 84.772C47.1459 84.772 36.728 74.3541 36.728 61.5198C36.728 48.6855 47.1459 38.228 59.9802 38.228C72.8145 38.228 83.2324 48.6459 83.2324 61.4802C83.2324 74.3145 72.8145 84.7324 59.9802 84.7324V84.772Z" fill="#231F20"/>
<path d="M59.9803 40.0897C54.1177 40.0897 48.8097 42.4664 44.9278 46.2692C44.9278 46.2692 44.9278 46.2692 44.8881 46.2692C44.8881 46.2692 44.8881 46.2692 44.8881 46.3088C41.0062 50.1908 38.5898 55.5384 38.5898 61.4802C38.5898 73.2845 48.2156 82.9103 60.0199 82.9103C66 82.9103 71.3489 80.4939 75.2309 76.5723C75.2309 76.5723 75.2309 76.5723 75.2705 76.5723C75.2705 76.5723 75.2705 76.5723 75.2705 76.5327C79.0733 72.6508 81.4104 67.3824 81.4104 61.5594C81.4104 49.755 71.7847 40.1293 59.9803 40.1293V40.0897ZM80.1824 61.4802C80.1824 66.7882 78.1226 71.5812 74.7952 75.1859L46.235 46.7445C49.8396 43.3775 54.6723 41.3177 59.9803 41.3177C71.1113 41.3177 80.1824 50.3888 80.1824 61.5198V61.4802ZM39.8178 61.4802C39.8178 56.093 41.9172 51.2207 45.3635 47.616L73.9237 76.097C70.2794 79.5432 65.4071 81.6823 60.0199 81.6823C48.889 81.6823 39.8178 72.6111 39.8178 61.4802Z" fill="#231F20"/>
</g>
<defs>
<clipPath id="clip0_57047_3442">
<rect width="110.581" height="110.581" fill="white" transform="translate(4.18359 6.17456)"/>
</clipPath>
<clipPath id="clip1_57047_3442">
<rect width="49" height="49" fill="white" transform="translate(35.5 37)"/>
</clipPath>
</defs>
</svg>
