<svg width="120" height="123" viewBox="0 0 120 123" fill="none" xmlns="http://www.w3.org/2000/svg">
<g clip-path="url(#clip0_57047_3407)">
<path d="M114.294 54.2454C114.291 54.2422 114.287 54.2406 114.282 54.2412L113.081 54.3974C111.726 54.5735 110.491 53.6175 110.249 52.2731C109.699 49.2197 108.883 46.2613 107.824 43.4225C107.469 42.4707 107.911 41.3958 108.85 41.0066C109.789 40.6169 110.237 39.5376 109.815 38.6122C108.324 35.3427 106.516 32.2172 104.414 29.2895C103.822 28.4649 102.665 28.3161 101.861 28.9347C101.055 29.5539 99.9024 29.4001 99.2554 28.6166C97.1683 26.0897 94.8412 23.7627 92.3143 21.6756C91.5309 21.0286 91.3771 19.876 91.9963 19.0704C92.6148 18.2656 92.466 17.1091 91.6414 16.5171C88.714 14.4154 85.5887 12.6068 82.3195 11.1163C81.3937 10.6942 80.3139 11.1423 79.9241 12.0821C79.535 13.0203 78.4605 13.4626 77.5089 13.1078C74.4738 11.976 71.3064 11.1175 68.0334 10.5721C67.0273 10.4045 66.3128 9.48159 66.4443 8.47017C66.5756 7.46007 65.8641 6.53134 64.8502 6.43321C61.2877 6.0884 57.654 6.08835 54.0915 6.43304C53.0767 6.53123 52.3645 7.46083 52.4959 8.47188C52.6274 9.48291 51.9142 10.4059 50.9087 10.5744C47.6349 11.123 44.4669 11.9775 41.4313 13.1081C40.4795 13.4626 39.405 13.0203 39.0159 12.0821C38.6261 11.1423 37.5463 10.6942 36.6206 11.1163C33.3517 12.6066 30.2269 14.4149 27.2997 16.5163C26.4745 17.1087 26.3256 18.2661 26.9446 19.0715C27.5636 19.8769 27.4107 21.0289 26.628 21.6763C24.1003 23.7671 21.7725 26.0906 19.6849 28.6168C19.0376 29.4 17.8851 29.5539 17.0794 28.9347C16.2746 28.3161 15.1181 28.4649 14.5261 29.2895C12.4246 32.2167 10.6161 35.3417 9.12571 38.6106C8.70314 39.5375 9.15045 40.6186 10.0905 41.0109C11.0294 41.4027 11.4708 42.4794 11.1151 43.4326C9.98447 46.4622 9.12668 49.6305 8.5816 52.8977C8.41375 53.9038 7.49069 54.6182 6.47921 54.4867C5.46903 54.3553 4.54023 55.0668 4.44219 56.0808C4.26979 57.8638 4.18359 59.6693 4.18359 61.4653C4.18359 63.2618 4.26985 65.0631 4.44236 66.8479C4.54045 67.8627 5.47003 68.5751 6.48113 68.4437C7.49204 68.3122 8.41494 69.0253 8.58341 70.0307C9.13176 73.3032 9.98592 76.4695 11.1159 79.4995C11.4709 80.4513 11.0288 81.5262 10.0905 81.9154C9.15104 82.305 8.70313 83.3844 9.12502 84.3098C10.6154 87.5788 12.4238 90.7039 14.5253 93.6313C15.1177 94.4565 16.2751 94.6054 17.0805 93.9864C17.8859 93.3674 19.038 93.5203 19.6854 94.303C21.7761 96.8307 24.0996 99.1584 26.6258 101.246C27.4091 101.893 27.5629 103.046 26.9437 103.852C26.3252 104.656 26.474 105.813 27.2986 106.405C30.2256 108.506 33.3504 110.315 36.619 111.805C37.5462 112.228 38.6278 111.78 39.0202 110.84C39.412 109.901 40.4882 109.459 41.4413 109.815C44.4745 110.946 47.6399 111.804 50.9108 112.349C51.9194 112.517 52.6359 113.442 52.5043 114.456C52.373 115.469 53.0862 116.4 54.1025 116.498C55.8842 116.67 57.6884 116.756 59.483 116.756C61.2787 116.756 63.0791 116.67 64.863 116.498C65.8794 116.399 66.5929 115.469 66.4616 114.456C66.3301 113.442 67.0463 112.517 68.0547 112.349C71.325 111.804 74.4892 110.946 77.5173 109.815C78.469 109.46 79.5439 109.902 79.933 110.84C80.3227 111.78 81.4021 112.228 82.3275 111.806C85.5965 110.316 88.7216 108.507 91.649 106.406C92.4742 105.813 92.6231 104.656 92.0041 103.85C91.3851 103.045 91.5379 101.893 92.3206 101.246C94.8484 99.1549 97.1761 96.8314 99.2638 94.3051C99.9111 93.5219 101.064 93.3681 101.869 93.9872C102.674 94.6058 103.831 94.457 104.423 93.6324C106.524 90.7049 108.333 87.5797 109.823 84.3104C110.245 83.3847 109.797 82.3049 108.858 81.9151C107.919 81.526 107.477 80.4515 107.832 79.4998C108.964 76.4649 109.822 73.2976 110.367 70.0247C110.535 69.0191 111.459 68.3058 112.469 68.4396C113.479 68.5732 114.408 67.8626 114.506 66.849C114.679 65.0639 114.765 63.2622 114.765 61.4653C114.765 59.0529 114.61 56.6318 114.298 54.2539C114.298 54.2507 114.297 54.2477 114.294 54.2454ZM72.5659 61.4566C72.5659 68.3875 66.708 74.0031 59.4743 74.0031C52.2407 74.0031 46.3828 68.3875 46.3828 61.4566C46.3828 54.5258 52.2407 48.9102 59.4743 48.9102C66.708 48.9102 72.5659 54.5258 72.5659 61.4566Z" fill="white"/>
</g>
<rect x="22.4961" y="23.9968" width="75.0064" height="75.0064" rx="37.5032" fill="#FFDD00"/>
<g clip-path="url(#clip1_57047_3407)">
<path d="M59.9982 37.5C37.122 37.6204 27.4497 66.4766 45.229 80.3628C45.2691 80.403 45.3494 80.4832 45.3895 80.4832C60.841 92.5635 84.0785 81.2458 83.9581 61.4598C83.9581 48.2157 73.2022 37.4598 59.9581 37.4598L59.9982 37.5ZM59.9982 84.2558C55.3828 84.2558 51.0885 82.8511 47.4765 80.4832C49.7641 80.3227 53.8176 79.7608 57.5099 77.8746C57.7909 77.714 57.9113 77.3528 57.7909 77.0719C57.6303 76.7909 57.2691 76.6705 56.9882 76.7909C52.6537 78.9983 47.637 79.2792 46.1521 79.3194C45.0685 75.3461 46.1521 69.2859 46.1521 69.2057C46.2725 68.4431 45.1086 68.2023 44.9481 69.005C44.9079 69.2458 44.025 74.2224 44.7073 78.316C40.0919 74.1822 37.2022 68.1622 37.2022 61.5C37.122 41.8344 60.8812 31.4398 75.2491 44.5635C60.9614 45.6471 53.1354 49.9816 54.4196 50.9047C54.6203 51.1856 54.9815 51.2257 55.2624 51.0251C55.3026 50.9849 61.0818 46.811 75.2892 45.7675C75.4899 46.7307 75.9715 48.9381 75.8912 51.2257C75.8912 51.5468 76.1721 51.8277 76.4932 51.8277C76.8143 51.8277 77.0952 51.5869 77.0952 51.2257C77.1755 49.0184 76.7742 46.9314 76.5334 45.7675C90.219 59.9749 79.9447 84.2558 59.9982 84.2157V84.2558Z" fill="#231F20"/>
<path d="M80.0248 66.2357L76.8543 63.6671C76.6135 63.4664 76.2121 63.5066 76.0115 63.7474C75.3292 64.5501 74.366 65.0317 73.2824 65.0317C71.3559 65.0317 69.7907 63.4665 69.7907 61.54C69.7907 59.6136 71.3559 58.0484 73.2824 58.0484C75.2088 58.0484 75.3292 58.53 76.0115 59.3327C76.2121 59.5735 76.6135 59.6136 76.8543 59.4129L80.0248 56.8444C80.1452 56.724 80.2255 56.6036 80.2255 56.443C80.2255 56.2825 80.2255 56.122 80.1051 56.0016C78.4195 53.9547 75.9312 52.7507 73.2824 52.7507C70.6335 52.7507 68.5466 53.7541 66.861 55.52C65.2155 53.7541 62.8877 52.7507 60.4395 52.7507C57.9914 52.7507 59.0349 52.831 58.3125 53.0317H54.0583C53.8175 53.0317 53.5767 53.1922 53.4964 53.433L50.5265 61.2992L47.5566 53.433C47.4763 53.1922 47.2355 53.0317 46.9947 53.0317H42.58C42.3793 53.0317 42.1787 53.1119 42.0984 53.2725C41.978 53.433 41.978 53.6337 42.0181 53.8343L47.5967 68.8042C47.677 69.045 47.9178 69.2056 48.1586 69.2056H52.8543C53.0951 69.2056 53.3359 69.045 53.4161 68.8042L53.9379 67.3996C55.5834 69.2056 57.9513 70.2892 60.4395 70.2892C62.9278 70.2892 65.1753 69.2858 66.861 67.52C68.5064 69.2858 70.8342 70.2892 73.2824 70.2892C75.7305 70.2892 78.4195 69.1253 80.1051 67.0384C80.2255 66.918 80.2656 66.7574 80.2255 66.5969C80.2255 66.4364 80.1452 66.2758 80.0248 66.1955V66.2357ZM73.2824 53.9547C75.3693 53.9547 77.3359 54.7976 78.7406 56.2825L76.4931 58.0885C75.6101 57.2457 74.4864 56.8042 73.2422 56.8042C71.3559 56.8042 69.7506 57.928 68.988 59.4932C68.988 59.4932 68.988 59.4531 68.988 59.4129C68.9479 59.2524 68.9078 59.0517 68.8275 58.8912C68.8275 58.8109 68.7874 58.7307 68.7472 58.6504C68.667 58.4096 68.5867 58.1688 68.4663 57.928C68.4663 57.928 68.4663 57.8477 68.4262 57.8076C68.3459 57.6069 68.2255 57.4062 68.1051 57.2056C68.065 57.1253 68.0248 57.045 67.9446 56.9648C67.8643 56.8042 67.7439 56.6838 67.6636 56.5233C67.6636 56.5233 67.6636 56.443 67.5834 56.443C69.0282 54.8377 71.0349 53.9146 73.2021 53.9146L73.2824 53.9547ZM52.4931 68.0016H48.6402L43.5031 54.2357H46.6335L50.0048 63.2256C50.085 63.4665 50.3258 63.627 50.5666 63.627C50.8074 63.627 51.0482 63.4665 51.1285 63.2256L54.4997 54.2357H57.6302L55.2623 60.617L53.2556 65.9949L52.4931 68.0016ZM60.4797 69.0852C58.1118 69.0852 55.9044 67.9614 54.4596 66.1153L55.8643 62.3828C55.8643 62.3828 55.8643 62.3828 55.8643 62.423C55.8643 62.4631 55.8643 62.5434 55.8643 62.5835C55.8643 62.6638 55.9044 62.744 55.9446 62.8644C55.9446 62.9046 55.9446 62.9848 55.9847 63.025C55.9847 63.1052 56.0248 63.1855 56.065 63.2658C56.065 63.3059 56.1051 63.3862 56.1452 63.4263C56.1452 63.5066 56.2255 63.5869 56.2656 63.6671C56.2656 63.7073 56.3058 63.7875 56.3459 63.8277C56.386 63.9079 56.4262 63.9882 56.4663 64.0685C56.4663 64.1086 56.5466 64.1487 56.5466 64.229C56.5867 64.3093 56.667 64.3895 56.7071 64.4698C56.7071 64.4698 56.7472 64.5501 56.7874 64.5902C56.8676 64.6705 56.9479 64.7507 57.0282 64.8711C57.0282 64.8711 57.0282 64.8711 57.0683 64.9113C57.1887 65.0317 57.269 65.1119 57.3894 65.1922C57.3894 65.1922 57.4696 65.2323 57.5098 65.2725C57.5901 65.3527 57.6703 65.3929 57.7506 65.433C57.7907 65.433 57.8309 65.4731 57.871 65.5133C57.9513 65.5534 58.0315 65.5935 58.1118 65.6337C58.1519 65.6337 58.2322 65.6738 58.2723 65.7139C58.3526 65.7139 58.4329 65.7942 58.5131 65.8343C58.5533 65.8343 58.6335 65.8745 58.6737 65.9146C58.7539 65.9146 58.8342 65.9949 58.9145 65.9949C58.9546 65.9949 59.0349 65.9949 59.075 66.035C59.1553 66.035 59.2355 66.0751 59.3559 66.1153C59.3961 66.1153 59.4763 66.1153 59.5165 66.1153C59.5967 66.1153 59.7171 66.1153 59.7974 66.1554C59.8375 66.1554 59.8777 66.1554 59.9579 66.1554C60.1185 66.1554 60.279 66.1554 60.3994 66.1554C63.0081 66.1554 65.0951 64.0283 65.0951 61.4598C65.0951 58.8912 62.968 56.7641 60.3994 56.7641C57.8309 56.7641 60.1185 56.7641 59.9579 56.7641C59.9178 56.7641 59.8777 56.7641 59.7974 56.7641C59.7171 56.7641 59.5967 56.7641 59.5165 56.8042C59.4763 56.8042 59.3961 56.8042 59.3559 56.8042C59.2757 56.8042 59.1954 56.8444 59.075 56.8845C59.0349 56.8845 58.9546 56.8845 58.9145 56.9246C58.8342 56.9246 58.7539 57.0049 58.6737 57.0049C58.6335 57.0049 58.5934 57.0049 58.5131 57.045C58.4329 57.0852 58.3125 57.1253 58.2322 57.1654C58.2322 57.1654 58.1519 57.1654 58.1118 57.2056C57.9914 57.2858 57.871 57.3661 57.7506 57.4464C57.7506 57.4464 57.7506 57.4464 57.7105 57.4464C57.6302 57.5267 57.5499 57.5668 57.4697 57.6471L58.8743 53.9146C59.3961 53.7942 59.9178 53.7541 60.3994 53.7541C62.7272 53.7541 64.8944 54.7976 66.3392 56.6437C67.4228 58.0083 67.9847 59.6136 67.9847 61.3394C67.9847 63.0651 67.4228 64.6705 66.3392 66.035C64.8944 67.8812 62.7272 68.9246 60.3994 68.9246L60.4797 69.0852ZM73.2824 69.0852C71.1151 69.0852 69.0683 68.1621 67.6636 66.5568C67.6636 66.5568 67.7038 66.4765 67.7439 66.4765C67.8242 66.3159 67.9446 66.1955 68.0248 66.035C68.065 65.9547 68.1452 65.8745 68.1854 65.7942C68.3058 65.5935 68.386 65.3929 68.4663 65.2323C68.4663 65.1922 68.5064 65.1521 68.5466 65.1119C68.667 64.8711 68.7472 64.6303 68.8275 64.3895C68.8275 64.3093 68.8676 64.229 68.9078 64.1487C68.9479 63.9882 69.0282 63.7875 69.0683 63.627C69.0683 63.627 69.0683 63.5869 69.0683 63.5467C69.8309 65.1521 71.4362 66.2357 73.3225 66.2357C75.2088 66.2357 75.6904 65.7541 76.5733 64.9514L78.8208 66.7574C77.376 68.2424 75.4094 69.0852 73.3626 69.0852H73.2824Z" fill="#231F20"/>
<path d="M53.7372 74.9047C53.5767 74.985 53.2556 75.0652 52.8944 75.0652C51.9713 75.0652 51.2891 74.5034 51.2891 73.4197C51.2891 72.3361 51.9713 71.7341 52.9747 71.7341C53.978 71.7341 53.6168 71.8144 53.7372 71.8947L53.6168 72.2559C53.4563 72.1756 53.2556 72.1355 52.9747 72.1355C52.2121 72.1355 51.6904 72.6171 51.6904 73.4599C51.6904 74.3027 52.1319 74.7442 52.9345 74.7442C53.7372 74.7442 53.4563 74.704 53.6168 74.6238L53.6971 74.9448L53.7372 74.9047Z" fill="#231F20"/>
<path d="M56.3072 73.8211C56.3072 74.6639 55.7051 75.0652 55.1433 75.0652C54.5814 75.0652 54.0195 74.5836 54.0195 73.8612C54.0195 73.1388 54.5413 72.6171 55.1834 72.6171C55.8256 72.6171 56.3072 73.0987 56.3072 73.8211ZM54.5011 73.8211C54.5011 74.3428 54.7821 74.704 55.2235 74.704C55.665 74.704 55.946 74.3428 55.946 73.7809C55.946 73.2191 55.7453 72.898 55.2637 72.898C54.7821 72.898 54.5413 73.3796 54.5413 73.7809L54.5011 73.8211Z" fill="#231F20"/>
<path d="M56.8691 73.2993C56.8691 73.0585 56.8691 72.8578 56.8691 72.6572H57.2303V73.0184C57.3507 72.7776 57.5915 72.5769 57.9528 72.5769C58.314 72.5769 58.5146 72.7776 58.5949 73.0585C58.6752 72.9381 58.7554 72.8177 58.8758 72.7374C58.9962 72.617 59.1568 72.5769 59.3976 72.5769C59.6384 72.5769 60.1601 72.7776 60.1601 73.5802V74.9448H59.7588V73.6204C59.7588 73.1789 59.5982 72.898 59.237 72.898C58.8758 72.898 58.7956 73.0585 58.7153 73.2592C58.7153 73.3394 58.7153 73.3796 58.7153 73.4598V74.9047H58.314V73.5C58.314 73.1388 58.1534 72.8578 57.8324 72.8578C57.5113 72.8578 57.3909 73.0585 57.3106 73.2993C57.3106 73.3394 57.3106 73.4197 57.3106 73.5V74.9047H56.9093V73.219L56.8691 73.2993Z" fill="#231F20"/>
<path d="M60.8828 73.4197C60.8828 73.1388 60.8828 72.898 60.8828 72.6572H61.244V73.0585C61.4046 72.7776 61.6855 72.6171 62.0868 72.6171C62.6487 72.6171 63.0902 73.0987 63.0902 73.7809C63.0902 74.4632 62.5684 75.0251 62.0066 75.0251C61.4447 75.0251 61.4447 74.9047 61.2842 74.6639V75.9482H60.8828V73.4197ZM61.2842 74.0619C61.2842 74.1421 61.2842 74.1823 61.2842 74.2224C61.3644 74.5034 61.6052 74.704 61.9263 74.704C62.3678 74.704 62.6487 74.3428 62.6487 73.8211C62.6487 73.2993 62.4079 72.9783 61.9664 72.9783C61.525 72.9783 61.4046 73.1789 61.3243 73.5C61.3243 73.5401 61.3243 73.6204 61.3243 73.6605V74.0619H61.2842Z" fill="#231F20"/>
<path d="M63.6113 71.5735H64.0528V74.9849H63.6113V71.5735Z" fill="#231F20"/>
<path d="M65.217 72.0151C65.217 72.1756 65.0966 72.2559 64.9361 72.2559C64.7756 72.2559 64.6953 72.1355 64.6953 72.0151C64.6953 71.8947 64.8157 71.7341 64.9762 71.7341C65.1368 71.7341 65.217 71.8545 65.217 72.0151ZM64.7354 74.985V72.6572H65.1769V74.985H64.7354Z" fill="#231F20"/>
<path d="M67.5044 74.4231C67.5044 74.6237 67.5044 74.8244 67.5044 74.9849H67.1432V74.704H67.103C66.9826 74.9047 66.7418 75.0652 66.3806 75.0652C65.899 75.0652 65.6582 74.7441 65.6582 74.3829C65.6582 73.8211 66.1398 73.5 67.0629 73.5C67.0629 73.2592 67.0228 72.898 66.5411 72.898C66.3003 72.898 66.0997 72.9782 65.9391 73.0585L65.8589 72.7776C66.0595 72.6572 66.3405 72.5769 66.6214 72.5769C67.3438 72.5769 67.5044 73.0585 67.5044 73.5401V74.4231ZM67.103 73.8211C66.6214 73.8211 66.0997 73.9013 66.0997 74.3428C66.0997 74.7843 66.3003 74.7441 66.501 74.7441C66.8221 74.7441 67.0228 74.5435 67.0629 74.3428C67.0629 74.3027 67.0629 74.2625 67.0629 74.2224V73.8211H67.103Z" fill="#231F20"/>
<path d="M68.1855 73.2993C68.1855 73.0585 68.1855 72.8579 68.1855 72.6572H68.5468V73.0585C68.6672 72.8579 68.9481 72.6171 69.3093 72.6171C69.6705 72.6171 70.1521 72.8177 70.1521 73.6204V75.0251H69.7106V73.7007C69.7106 73.3395 69.5902 73.0184 69.1889 73.0184C68.7876 73.0184 68.7073 73.2191 68.627 73.4599C68.627 73.5 68.627 73.5803 68.627 73.6605V75.0652H68.1855V73.3796V73.2993Z" fill="#231F20"/>
<path d="M71.3563 72.0953V72.6572H71.9583V72.9783H71.3563V74.2224C71.3563 74.5034 71.4366 74.6639 71.6774 74.6639C71.9182 74.6639 71.878 74.6639 71.9182 74.6639V74.985C71.8379 74.985 71.7175 75.0251 71.557 75.0251C71.3964 75.0251 71.1958 74.9448 71.1155 74.8646C70.9951 74.7442 70.955 74.5435 70.955 74.2626V72.9783H70.5938V72.6572H70.955V72.2157L71.3563 72.0953Z" fill="#231F20"/>
</g>
<defs>
<clipPath id="clip0_57047_3407">
<rect width="110.581" height="110.581" fill="white" transform="translate(4.18359 6.17456)"/>
</clipPath>
<clipPath id="clip1_57047_3407">
<rect width="47.9197" height="48" fill="white" transform="translate(36.0391 37.5)"/>
</clipPath>
</defs>
</svg>
